{
  "accessors": [
    {
      "bufferView": 0,
      "byteOffset": 0,
      "count": 6,
      "componentType": 5126,
      "type": "VEC3",
      "min": [
        -0.0003948298108298331,
        -0.0010000000474974513,
        -0
      ],
      "max": [
        0,
        0,
        0.004999999888241291
      ]
    },
    {
      "bufferView": 0,
      "byteOffset": 12,
      "count": 6,
      "componentType": 5126,
      "type": "VEC3"
    },
    {
      "bufferView": 1,
      "byteOffset": 0,
      "count": 18,
      "componentType": 5126,
      "type": "VEC3",
      "min": [
        -0.0003948298108298331,
        -0.0010000000474974513,
        -0
      ],
      "max": [
        0.009605170227587225,
        0.008999999612569809,
        0.004999999888241291
      ]
    },
    {
      "bufferView": 1,
      "byteOffset": 12,
      "count": 18,
      "componentType": 5126,
      "type": "VEC3"
    },
    {
      "bufferView": 2,
      "byteOffset": 0,
      "count": 6,
      "componentType": 5126,
      "type": "VEC3",
      "min": [
        0.004605170339345932,
        0.008999999612569809,
        -0
      ],
      "max": [
        0.009605170227587225,
        0.014999999664723871,
        0.004999999888241291
      ]
    },
    {
      "bufferView": 2,
      "byteOffset": 12,
      "count": 6,
      "componentType": 5126,
      "type": "VEC3"
    },
    {
      "bufferView": 3,
      "byteOffset": 0,
      "count": 12,
      "componentType": 5126,
      "type": "VEC3",
      "min": [
        0,
        0,
        -0
      ],
      "max": [
        0.004605170339345932,
        0.014999999664723871,
        0.004999999888241291
      ]
    },
    {
      "bufferView": 3,
      "byteOffset": 12,
      "count": 12,
      "componentType": 5126,
      "type": "VEC3"
    },
    {
      "bufferView": 4,
      "byteOffset": 0,
      "count": 15,
      "componentType": 5126,
      "type": "VEC3",
      "min": [
        -0.0003948298108298331,
        -0.0010000000474974513,
        0
      ],
      "max": [
        0.009605170227587225,
        0.014999999664723871,
        0
      ]
    },
    {
      "bufferView": 4,
      "byteOffset": 12,
      "count": 15,
      "componentType": 5126,
      "type": "VEC3"
    },
    {
      "bufferView": 5,
      "byteOffset": 0,
      "count": 15,
      "componentType": 5126,
      "type": "VEC3",
      "min": [
        -0.0003948298108298331,
        -0.0010000000474974513,
        0.004999999888241291
      ],
      "max": [
        0.009605170227587225,
        0.014999999664723871,
        0.004999999888241291
      ]
    },
    {
      "bufferView": 5,
      "byteOffset": 12,
      "count": 15,
      "componentType": 5126,
      "type": "VEC3"
    }
  ],
  "asset": {
    "generator": "zoo.dev",
    "version": "2.0"
  },
  "buffers": [
    {
      "byteLength": 1728,
      "uri": "data:application/octet-stream;base64,"
    }
  ],
  "bufferViews": [
    {
      "buffer": 0,
      "byteLength": 144,
      "byteOffset": 0,
      "byteStride": 24,
      "target": 34962
    },
    {
      "buffer": 0,
      "byteLength": 432,
      "byteOffset": 144,
      "byteStride": 24,
      "target": 34962
    },
    {
      "buffer": 0,
      "byteLength": 144,
      "byteOffset": 576,
      "byteStride": 24,
      "target": 34962
    },
    {
      "buffer": 0,
      "byteLength": 288,
      "byteOffset": 720,
      "byteStride": 24,
      "target": 34962
    },
    {
      "buffer": 0,
      "byteLength": 360,
      "byteOffset": 1008,
      "byteStride": 24,
      "target": 34962
    },
    {
      "buffer": 0,
      "byteLength": 360,
      "byteOffset": 1368,
      "byteStride": 24,
      "target": 34962
    }
  ],
  "scene": 0,
  "extensions": {
    "KITTYCAD_boundary_representation": {
      "solids": [
        {
          "shells": [
            [
              0,
              1
            ]
          ],
          "mesh": 0,
          "extras": {
            "KITTYCAD": {
              "material": 0
            }
          }
        }
      ],
      "shells": [
        {
          "faces": [
            [
              0,
              1
            ],
            [
              1,
              1
            ],
            [
              2,
              1
            ],
            [
              3,
              1
            ],
            [
              4,
              1
            ],
            [
              5,
              1
            ]
          ]
        }
      ],
      "faces": [
        {
          "surface": [
            0,
            1
          ],
          "loops": [
            [
              0,
              1
            ]
          ]
        },
        {
          "surface": [
            1,
            1
          ],
          "loops": [
            [
              1,
              1
            ]
          ]
        },
        {
          "surface": [
            2,
            1
          ],
          "loops": [
            [
              2,
              1
            ]
          ]
        },
        {
          "surface": [
            3,
            1
          ],
          "loops": [
            [
              3,
              1
            ]
          ]
        },
        {
          "surface": [
            4,
            -1
          ],
          "loops": [
            [
              4,
              1
            ]
          ]
        },
        {
          "surface": [
            5,
            1
          ],
          "loops": [
            [
              5,
              1
            ]
          ]
        }
      ],
      "loops": [
        {
          "edges": [
            [
              0,
              1
            ],
            [
              1,
              1
            ],
            [
              2,
              -1
            ],
            [
              3,
              -1
            ]
          ]
        },
        {
          "edges": [
            [
              4,
              1
            ],
            [
              5,
              1
            ],
            [
              6,
              -1
            ],
            [
              1,
              -1
            ]
          ]
        },
        {
          "edges": [
            [
              7,
              1
            ],
            [
              8,
              1
            ],
            [
              9,
              -1
            ],
            [
              5,
              -1
            ]
          ]
        },
        {
          "edges": [
            [
              10,
              1
            ],
            [
              3,
              1
            ],
            [
              11,
              -1
            ],
            [
              8,
              -1
            ]
          ]
        },
        {
          "edges": [
            [
              10,
              -1
            ],
            [
              7,
              -1
            ],
            [
              4,
              -1
            ],
            [
              0,
              -1
            ]
          ]
        },
        {
          "edges": [
            [
              2,
              1
            ],
            [
              6,
              1
            ],
            [
              9,
              1
            ],
            [
              11,
              1
            ]
          ]
        }
      ],
      "edges": [
        {
          "curve": [
            0,
            1
          ],
          "start": 0,
          "end": 1,
          "t": [
            0,
            0.0010751235194305247
          ]
        },
        {
          "curve": [
            1,
            1
          ],
          "start": 1,
          "end": 2,
          "t": [
            0,
            0.005
          ]
        },
        {
          "curve": [
            2,
            1
          ],
          "start": 3,
          "end": 2,
          "t": [
            0,
            0.0010751235194305247
          ]
        },
        {
          "curve": [
            3,
            1
          ],
          "start": 0,
          "end": 3,
          "t": [
            0,
            0.005
          ]
        },
        {
          "curve": [
            4,
            1
          ],
          "start": 1,
          "end": 4,
          "t": [
            0,
            0.01414213562373095
          ]
        },
        {
          "curve": [
            5,
            1
          ],
          "start": 4,
          "end": 5,
          "t": [
            0,
            0.005
          ]
        },
        {
          "curve": [
            6,
            1
          ],
          "start": 2,
          "end": 5,
          "t": [
            0,
            0.01414213562373095
          ]
        },
        {
          "curve": [
            7,
            1
          ],
          "start": 4,
          "end": 6,
          "t": [
            0,
            0.007810249675906655
          ]
        },
        {
          "curve": [
            8,
            1
          ],
          "start": 6,
          "end": 7,
          "t": [
            0,
            0.005
          ]
        },
        {
          "curve": [
            9,
            1
          ],
          "start": 5,
          "end": 7,
          "t": [
            0,
            0.007810249675906655
          ]
        },
        {
          "curve": [
            10,
            1
          ],
          "start": 6,
          "end": 0,
          "t": [
            0,
            0.015691003551140812
          ]
        },
        {
          "curve": [
            11,
            1
          ],
          "start": 7,
          "end": 3,
          "t": [
            0,
            0.015691003551140812
          ]
        }
      ],
      "vertices": [
        [
          0,
          0,
          -0
        ],
        [
          -0.0003948298140119082,
          -0.001,
          -0
        ],
        [
          -0.0003948298140119082,
          -0.001,
          0.005
        ],
        [
          0,
          0,
          0.005
        ],
        [
          0.009605170185988093,
          0.009,
          -0
        ],
        [
          0.009605170185988093,
          0.009,
          0.005
        ],
        [
          0.004605170185988092,
          0.015,
          -0
        ],
        [
          0.004605170185988092,
          0.015,
          0.005
        ]
      ],
      "surfaces": [
        {
          "type": "plane",
          "plane": {
            "xAxis": [
              0.36724135122729257,
              0.930125685027971,
              0
            ],
            "yAxis": [
              0,
              0,
              -1
            ],
            "origin": [
              -0.0001974149070059554,
              -0.0005000000000000034,
              0.0025
            ]
          }
        },
        {
          "type": "plane",
          "plane": {
            "xAxis": [
              0.7071067811865477,
              0.7071067811865475,
              0
            ],
            "yAxis": [
              -0,
              0,
              1
            ],
            "origin": [
              0.004605170185988091,
              0.003999999999999999,
              0.0025
            ]
          }
        },
        {
          "type": "plane",
          "plane": {
            "xAxis": [
              0.6401843996644797,
              -0.768221279597376,
              0
            ],
            "yAxis": [
              0,
              0,
              -1
            ],
            "origin": [
              0.007105170185988092,
              0.012,
              0.0025
            ]
          }
        },
        {
          "type": "plane",
          "plane": {
            "xAxis": [
              0.2934911187151744,
              0.9559618000920932,
              0
            ],
            "yAxis": [
              0,
              0,
              -1
            ],
            "origin": [
              0.002302585092994046,
              0.0075,
              0.0025
            ]
          }
        },
        {
          "type": "plane",
          "plane": {
            "xAxis": [
              1,
              0,
              0
            ],
            "yAxis": [
              0,
              1,
              0
            ],
            "origin": [
              0,
              0,
              0
            ]
          }
        },
        {
          "type": "plane",
          "plane": {
            "xAxis": [
              1,
              0,
              -0
            ],
            "yAxis": [
              -0,
              1,
              0
            ],
            "origin": [
              0,
              0,
              0.005
            ]
          }
        }
      ],
      "curves3D": [
        {
          "type": "line",
          "line": {
            "origin": [
              0,
              0,
              -0
            ],
            "direction": [
              -0.3672413512272925,
              -0.9301256850279712,
              0
            ]
          }
        },
        {
          "type": "line",
          "line": {
            "origin": [
              -0.0003948298140119082,
              -0.001,
              -0
            ],
            "direction": [
              0,
              0,
              1
            ]
          }
        },
        {
          "type": "line",
          "line": {
            "origin": [
              0,
              0,
              0.005
            ],
            "direction": [
              -0.3672413512272925,
              -0.9301256850279712,
              0
            ]
          }
        },
        {
          "type": "line",
          "line": {
            "origin": [
              0,
              0,
              -0
            ],
            "direction": [
              0,
              0,
              1
            ]
          }
        },
        {
          "type": "line",
          "line": {
            "origin": [
              -0.0003948298140119082,
              -0.001,
              -0
            ],
            "direction": [
              0.7071067811865476,
              0.7071067811865475,
              0
            ]
          }
        },
        {
          "type": "line",
          "line": {
            "origin": [
              0.009605170185988093,
              0.009,
              -0
            ],
            "direction": [
              0,
              0,
              1
            ]
          }
        },
        {
          "type": "line",
          "line": {
            "origin": [
              -0.0003948298140119082,
              -0.001,
              0.005
            ],
            "direction": [
              0.7071067811865476,
              0.7071067811865475,
              0
            ]
          }
        },
        {
          "type": "line",
          "line": {
            "origin": [
              0.009605170185988093,
              0.009,
              -0
            ],
            "direction": [
              -0.6401843996644799,
              0.7682212795973757,
              0
            ]
          }
        },
        {
          "type": "line",
          "line": {
            "origin": [
              0.004605170185988092,
              0.015,
              -0
            ],
            "direction": [
              0,
              0,
              1
            ]
          }
        },
        {
          "type": "line",
          "line": {
            "origin": [
              0.009605170185988093,
              0.009,
              0.005
            ],
            "direction": [
              -0.6401843996644799,
              0.7682212795973757,
              0
            ]
          }
        },
        {
          "type": "line",
          "line": {
            "origin": [
              0.004605170185988092,
              0.015,
              -0
            ],
            "direction": [
              -0.2934911187151744,
              -0.9559618000920932,
              0
            ]
          }
        },
        {
          "type": "line",
          "line": {
            "origin": [
              0.004605170185988092,
              0.015,
              0.005
            ],
            "direction": [
              -0.2934911187151744,
              -0.9559618000920932,
              0
            ]
          }
        }
      ]
    }
  },
  "extensionsUsed": [
    "KITTYCAD_boundary_representation"
  ],
  "materials": [
    {
      "alphaMode": "OPAQUE",
      "doubleSided": false,
      "pbrMetallicRoughness": {
        "baseColorFactor": [
          0.9,
          0.9,
          0.9,
          1
        ],
        "metallicFactor": 1,
        "roughnessFactor": 1
      },
      "emissiveFactor": [
        0,
        0,
        0
      ]
    }
  ],
  "meshes": [
    {
      "primitives": [
        {
          "attributes": {
            "POSITION": 0,
            "NORMAL": 1
          },
          "material": 0
        },
        {
          "attributes": {
            "POSITION": 2,
            "NORMAL": 3
          },
          "material": 0
        },
        {
          "attributes": {
            "POSITION": 4,
            "NORMAL": 5
          },
          "material": 0
        },
        {
          "attributes": {
            "POSITION": 6,
            "NORMAL": 7
          },
          "material": 0
        },
        {
          "attributes": {
            "POSITION": 8,
            "NORMAL": 9
          },
          "material": 0
        },
        {
          "attributes": {
            "POSITION": 10,
            "NORMAL": 11
          },
          "material": 0
        }
      ]
    }
  ],
  "nodes": [
    {
      "children": [
        1
      ]
    },
    {
      "children": [
        2
      ]
    },
    {
      "extensions": {
        "KITTYCAD_boundary_representation": {
          "solid": 0
        }
      },
      "mesh": 0
    }
  ],
  "scenes": [
    {
      "nodes": [
        0
      ]
    }
  ]
}