<svg width="825" height="825" viewBox="0 0 825 825" fill="none" xmlns="http://www.w3.org/2000/svg">
<rect width="930" height="690" transform="translate(-515 -39)" fill="#1C1C1C"/>
<rect width="930" height="690" transform="translate(-515 -39)" fill="#575757" fill-opacity="0.2"/>
<g filter="url(#filter0_i_9388_55670)">
<path d="M-50 -19L-36.3046 23.15H8.01445L-27.8405 49.2001L-14.1451 91.35L-50 65.2999L-85.8549 91.35L-72.1595 49.2001L-108.014 23.15H-63.6954L-50 -19Z" fill="#1C1C1C"/>
</g>
<g filter="url(#filter1_i_9388_55670)">
<path d="M142 -19L155.695 23.15H200.014L164.16 49.2001L177.855 91.35L142 65.2999L106.145 91.35L119.84 49.2001L83.9856 23.15H128.305L142 -19Z" fill="#1C1C1C"/>
</g>
<g filter="url(#filter2_i_9388_55670)">
<path d="M334 -19L347.695 23.15H392.014L356.16 49.2001L369.855 91.35L334 65.2999L298.145 91.35L311.84 49.2001L275.986 23.15H320.305L334 -19Z" fill="#1C1C1C"/>
</g>
<g filter="url(#filter3_i_9388_55670)">
<path d="M45 113L58.6954 155.15H103.014L67.1595 181.2L80.8549 223.35L45 197.3L9.1451 223.35L22.8405 181.2L-13.0144 155.15H31.3046L45 113Z" fill="#1C1C1C"/>
</g>
<g filter="url(#filter4_i_9388_55670)">
<path d="M237 113L250.695 155.15H295.014L259.16 181.2L272.855 223.35L237 197.3L201.145 223.35L214.84 181.2L178.986 155.15H223.305L237 113Z" fill="#1C1C1C"/>
</g>
<g filter="url(#filter5_i_9388_55670)">
<path d="M-50 245L-36.3046 287.15H8.01445L-27.8405 313.2L-14.1451 355.35L-50 329.3L-85.8549 355.35L-72.1595 313.2L-108.014 287.15H-63.6954L-50 245Z" fill="#1C1C1C"/>
</g>
<g filter="url(#filter6_i_9388_55670)">
<path d="M142 245L155.695 287.15H200.014L164.16 313.2L177.855 355.35L142 329.3L106.145 355.35L119.84 313.2L83.9856 287.15H128.305L142 245Z" fill="#1C1C1C"/>
</g>
<g filter="url(#filter7_i_9388_55670)">
<path d="M334 245L347.695 287.15H392.014L356.16 313.2L369.855 355.35L334 329.3L298.145 355.35L311.84 313.2L275.986 287.15H320.305L334 245Z" fill="#1C1C1C"/>
</g>
<g filter="url(#filter8_i_9388_55670)">
<path d="M45 377L58.6954 419.15H103.014L67.1595 445.2L80.8549 487.35L45 461.3L9.1451 487.35L22.8405 445.2L-13.0144 419.15H31.3046L45 377Z" fill="#1C1C1C"/>
</g>
<g filter="url(#filter9_i_9388_55670)">
<path d="M237 377L250.695 419.15H295.014L259.16 445.2L272.855 487.35L237 461.3L201.145 487.35L214.84 445.2L178.986 419.15H223.305L237 377Z" fill="#1C1C1C"/>
</g>
<g filter="url(#filter10_i_9388_55670)">
<path d="M-50 509L-36.3046 551.15H8.01445L-27.8405 577.2L-14.1451 619.35L-50 593.3L-85.8549 619.35L-72.1595 577.2L-108.014 551.15H-63.6954L-50 509Z" fill="#1C1C1C"/>
</g>
<g filter="url(#filter11_i_9388_55670)">
<path d="M142 509L155.695 551.15H200.014L164.16 577.2L177.855 619.35L142 593.3L106.145 619.35L119.84 577.2L83.9856 551.15H128.305L142 509Z" fill="#1C1C1C"/>
</g>
<g filter="url(#filter12_i_9388_55670)">
<path d="M334 509L347.695 551.15H392.014L356.16 577.2L369.855 619.35L334 593.3L298.145 619.35L311.84 577.2L275.986 551.15H320.305L334 509Z" fill="#1C1C1C"/>
</g>
<rect x="415" y="-39" width="899" height="98.5714" fill="#0B0F0D"/>
<rect x="415" y="59.5715" width="899" height="98.5714" fill="#1C1C1C"/>
<rect x="415" y="158.143" width="899" height="98.5714" fill="#0B0F0D"/>
<rect x="415" y="256.714" width="899" height="98.5714" fill="#1C1C1C"/>
<rect x="415" y="355.286" width="899" height="98.5714" fill="#0B0F0D"/>
<rect x="415" y="453.857" width="899" height="98.5714" fill="#1C1C1C"/>
<rect x="415" y="552.429" width="899" height="98.5714" fill="#0B0F0D"/>
<rect x="-515" y="651" width="1829" height="98.57" fill="#1C1C1C"/>
<rect x="-515" y="749.57" width="1829" height="98.57" fill="#0B0F0D"/>
<defs>
<filter id="filter0_i_9388_55670" x="-108.014" y="-19" width="116.029" height="122.35" filterUnits="userSpaceOnUse" color-interpolation-filters="sRGB">
<feFlood flood-opacity="0" result="BackgroundImageFix"/>
<feBlend mode="normal" in="SourceGraphic" in2="BackgroundImageFix" result="shape"/>
<feColorMatrix in="SourceAlpha" type="matrix" values="0 0 0 0 0 0 0 0 0 0 0 0 0 0 0 0 0 0 127 0" result="hardAlpha"/>
<feOffset dy="12"/>
<feGaussianBlur stdDeviation="6.5"/>
<feComposite in2="hardAlpha" operator="arithmetic" k2="-1" k3="1"/>
<feColorMatrix type="matrix" values="0 0 0 0 0 0 0 0 0 0 0 0 0 0 0 0 0 0 0.55 0"/>
<feBlend mode="normal" in2="shape" result="effect1_innerShadow_9388_55670"/>
</filter>
<filter id="filter1_i_9388_55670" x="83.9855" y="-19" width="116.029" height="122.35" filterUnits="userSpaceOnUse" color-interpolation-filters="sRGB">
<feFlood flood-opacity="0" result="BackgroundImageFix"/>
<feBlend mode="normal" in="SourceGraphic" in2="BackgroundImageFix" result="shape"/>
<feColorMatrix in="SourceAlpha" type="matrix" values="0 0 0 0 0 0 0 0 0 0 0 0 0 0 0 0 0 0 127 0" result="hardAlpha"/>
<feOffset dy="12"/>
<feGaussianBlur stdDeviation="6.5"/>
<feComposite in2="hardAlpha" operator="arithmetic" k2="-1" k3="1"/>
<feColorMatrix type="matrix" values="0 0 0 0 0 0 0 0 0 0 0 0 0 0 0 0 0 0 0.55 0"/>
<feBlend mode="normal" in2="shape" result="effect1_innerShadow_9388_55670"/>
</filter>
<filter id="filter2_i_9388_55670" x="275.986" y="-19" width="116.029" height="122.35" filterUnits="userSpaceOnUse" color-interpolation-filters="sRGB">
<feFlood flood-opacity="0" result="BackgroundImageFix"/>
<feBlend mode="normal" in="SourceGraphic" in2="BackgroundImageFix" result="shape"/>
<feColorMatrix in="SourceAlpha" type="matrix" values="0 0 0 0 0 0 0 0 0 0 0 0 0 0 0 0 0 0 127 0" result="hardAlpha"/>
<feOffset dy="12"/>
<feGaussianBlur stdDeviation="6.5"/>
<feComposite in2="hardAlpha" operator="arithmetic" k2="-1" k3="1"/>
<feColorMatrix type="matrix" values="0 0 0 0 0 0 0 0 0 0 0 0 0 0 0 0 0 0 0.55 0"/>
<feBlend mode="normal" in2="shape" result="effect1_innerShadow_9388_55670"/>
</filter>
<filter id="filter3_i_9388_55670" x="-13.0145" y="113" width="116.029" height="122.35" filterUnits="userSpaceOnUse" color-interpolation-filters="sRGB">
<feFlood flood-opacity="0" result="BackgroundImageFix"/>
<feBlend mode="normal" in="SourceGraphic" in2="BackgroundImageFix" result="shape"/>
<feColorMatrix in="SourceAlpha" type="matrix" values="0 0 0 0 0 0 0 0 0 0 0 0 0 0 0 0 0 0 127 0" result="hardAlpha"/>
<feOffset dy="12"/>
<feGaussianBlur stdDeviation="6.5"/>
<feComposite in2="hardAlpha" operator="arithmetic" k2="-1" k3="1"/>
<feColorMatrix type="matrix" values="0 0 0 0 0 0 0 0 0 0 0 0 0 0 0 0 0 0 0.55 0"/>
<feBlend mode="normal" in2="shape" result="effect1_innerShadow_9388_55670"/>
</filter>
<filter id="filter4_i_9388_55670" x="178.986" y="113" width="116.029" height="122.35" filterUnits="userSpaceOnUse" color-interpolation-filters="sRGB">
<feFlood flood-opacity="0" result="BackgroundImageFix"/>
<feBlend mode="normal" in="SourceGraphic" in2="BackgroundImageFix" result="shape"/>
<feColorMatrix in="SourceAlpha" type="matrix" values="0 0 0 0 0 0 0 0 0 0 0 0 0 0 0 0 0 0 127 0" result="hardAlpha"/>
<feOffset dy="12"/>
<feGaussianBlur stdDeviation="6.5"/>
<feComposite in2="hardAlpha" operator="arithmetic" k2="-1" k3="1"/>
<feColorMatrix type="matrix" values="0 0 0 0 0 0 0 0 0 0 0 0 0 0 0 0 0 0 0.55 0"/>
<feBlend mode="normal" in2="shape" result="effect1_innerShadow_9388_55670"/>
</filter>
<filter id="filter5_i_9388_55670" x="-108.014" y="245" width="116.029" height="122.35" filterUnits="userSpaceOnUse" color-interpolation-filters="sRGB">
<feFlood flood-opacity="0" result="BackgroundImageFix"/>
<feBlend mode="normal" in="SourceGraphic" in2="BackgroundImageFix" result="shape"/>
<feColorMatrix in="SourceAlpha" type="matrix" values="0 0 0 0 0 0 0 0 0 0 0 0 0 0 0 0 0 0 127 0" result="hardAlpha"/>
<feOffset dy="12"/>
<feGaussianBlur stdDeviation="6.5"/>
<feComposite in2="hardAlpha" operator="arithmetic" k2="-1" k3="1"/>
<feColorMatrix type="matrix" values="0 0 0 0 0 0 0 0 0 0 0 0 0 0 0 0 0 0 0.55 0"/>
<feBlend mode="normal" in2="shape" result="effect1_innerShadow_9388_55670"/>
</filter>
<filter id="filter6_i_9388_55670" x="83.9855" y="245" width="116.029" height="122.35" filterUnits="userSpaceOnUse" color-interpolation-filters="sRGB">
<feFlood flood-opacity="0" result="BackgroundImageFix"/>
<feBlend mode="normal" in="SourceGraphic" in2="BackgroundImageFix" result="shape"/>
<feColorMatrix in="SourceAlpha" type="matrix" values="0 0 0 0 0 0 0 0 0 0 0 0 0 0 0 0 0 0 127 0" result="hardAlpha"/>
<feOffset dy="12"/>
<feGaussianBlur stdDeviation="6.5"/>
<feComposite in2="hardAlpha" operator="arithmetic" k2="-1" k3="1"/>
<feColorMatrix type="matrix" values="0 0 0 0 0 0 0 0 0 0 0 0 0 0 0 0 0 0 0.55 0"/>
<feBlend mode="normal" in2="shape" result="effect1_innerShadow_9388_55670"/>
</filter>
<filter id="filter7_i_9388_55670" x="275.986" y="245" width="116.029" height="122.35" filterUnits="userSpaceOnUse" color-interpolation-filters="sRGB">
<feFlood flood-opacity="0" result="BackgroundImageFix"/>
<feBlend mode="normal" in="SourceGraphic" in2="BackgroundImageFix" result="shape"/>
<feColorMatrix in="SourceAlpha" type="matrix" values="0 0 0 0 0 0 0 0 0 0 0 0 0 0 0 0 0 0 127 0" result="hardAlpha"/>
<feOffset dy="12"/>
<feGaussianBlur stdDeviation="6.5"/>
<feComposite in2="hardAlpha" operator="arithmetic" k2="-1" k3="1"/>
<feColorMatrix type="matrix" values="0 0 0 0 0 0 0 0 0 0 0 0 0 0 0 0 0 0 0.55 0"/>
<feBlend mode="normal" in2="shape" result="effect1_innerShadow_9388_55670"/>
</filter>
<filter id="filter8_i_9388_55670" x="-13.0145" y="377" width="116.029" height="122.35" filterUnits="userSpaceOnUse" color-interpolation-filters="sRGB">
<feFlood flood-opacity="0" result="BackgroundImageFix"/>
<feBlend mode="normal" in="SourceGraphic" in2="BackgroundImageFix" result="shape"/>
<feColorMatrix in="SourceAlpha" type="matrix" values="0 0 0 0 0 0 0 0 0 0 0 0 0 0 0 0 0 0 127 0" result="hardAlpha"/>
<feOffset dy="12"/>
<feGaussianBlur stdDeviation="6.5"/>
<feComposite in2="hardAlpha" operator="arithmetic" k2="-1" k3="1"/>
<feColorMatrix type="matrix" values="0 0 0 0 0 0 0 0 0 0 0 0 0 0 0 0 0 0 0.55 0"/>
<feBlend mode="normal" in2="shape" result="effect1_innerShadow_9388_55670"/>
</filter>
<filter id="filter9_i_9388_55670" x="178.986" y="377" width="116.029" height="122.35" filterUnits="userSpaceOnUse" color-interpolation-filters="sRGB">
<feFlood flood-opacity="0" result="BackgroundImageFix"/>
<feBlend mode="normal" in="SourceGraphic" in2="BackgroundImageFix" result="shape"/>
<feColorMatrix in="SourceAlpha" type="matrix" values="0 0 0 0 0 0 0 0 0 0 0 0 0 0 0 0 0 0 127 0" result="hardAlpha"/>
<feOffset dy="12"/>
<feGaussianBlur stdDeviation="6.5"/>
<feComposite in2="hardAlpha" operator="arithmetic" k2="-1" k3="1"/>
<feColorMatrix type="matrix" values="0 0 0 0 0 0 0 0 0 0 0 0 0 0 0 0 0 0 0.55 0"/>
<feBlend mode="normal" in2="shape" result="effect1_innerShadow_9388_55670"/>
</filter>
<filter id="filter10_i_9388_55670" x="-108.014" y="509" width="116.029" height="122.35" filterUnits="userSpaceOnUse" color-interpolation-filters="sRGB">
<feFlood flood-opacity="0" result="BackgroundImageFix"/>
<feBlend mode="normal" in="SourceGraphic" in2="BackgroundImageFix" result="shape"/>
<feColorMatrix in="SourceAlpha" type="matrix" values="0 0 0 0 0 0 0 0 0 0 0 0 0 0 0 0 0 0 127 0" result="hardAlpha"/>
<feOffset dy="12"/>
<feGaussianBlur stdDeviation="6.5"/>
<feComposite in2="hardAlpha" operator="arithmetic" k2="-1" k3="1"/>
<feColorMatrix type="matrix" values="0 0 0 0 0 0 0 0 0 0 0 0 0 0 0 0 0 0 0.55 0"/>
<feBlend mode="normal" in2="shape" result="effect1_innerShadow_9388_55670"/>
</filter>
<filter id="filter11_i_9388_55670" x="83.9855" y="509" width="116.029" height="122.35" filterUnits="userSpaceOnUse" color-interpolation-filters="sRGB">
<feFlood flood-opacity="0" result="BackgroundImageFix"/>
<feBlend mode="normal" in="SourceGraphic" in2="BackgroundImageFix" result="shape"/>
<feColorMatrix in="SourceAlpha" type="matrix" values="0 0 0 0 0 0 0 0 0 0 0 0 0 0 0 0 0 0 127 0" result="hardAlpha"/>
<feOffset dy="12"/>
<feGaussianBlur stdDeviation="6.5"/>
<feComposite in2="hardAlpha" operator="arithmetic" k2="-1" k3="1"/>
<feColorMatrix type="matrix" values="0 0 0 0 0 0 0 0 0 0 0 0 0 0 0 0 0 0 0.55 0"/>
<feBlend mode="normal" in2="shape" result="effect1_innerShadow_9388_55670"/>
</filter>
<filter id="filter12_i_9388_55670" x="275.986" y="509" width="116.029" height="122.35" filterUnits="userSpaceOnUse" color-interpolation-filters="sRGB">
<feFlood flood-opacity="0" result="BackgroundImageFix"/>
<feBlend mode="normal" in="SourceGraphic" in2="BackgroundImageFix" result="shape"/>
<feColorMatrix in="SourceAlpha" type="matrix" values="0 0 0 0 0 0 0 0 0 0 0 0 0 0 0 0 0 0 127 0" result="hardAlpha"/>
<feOffset dy="12"/>
<feGaussianBlur stdDeviation="6.5"/>
<feComposite in2="hardAlpha" operator="arithmetic" k2="-1" k3="1"/>
<feColorMatrix type="matrix" values="0 0 0 0 0 0 0 0 0 0 0 0 0 0 0 0 0 0 0.55 0"/>
<feBlend mode="normal" in2="shape" result="effect1_innerShadow_9388_55670"/>
</filter>
</defs>
</svg>
