<svg width="40" height="40" viewBox="0 0 40 40" fill="none" xmlns="http://www.w3.org/2000/svg">
<path fill-rule="evenodd" clip-rule="evenodd" d="M40 0H0V40H40V0ZM7.34715 27.2143V15.6577L2.976 15.987V36.7949H7.34715V32.0645L8.00582 31.5256C8.24533 31.326 8.47487 31.1264 8.69442 30.9268L12.1075 36.7949H17.0475C16.1893 35.3978 15.311 33.9906 14.4128 32.5735C13.5346 31.1563 12.6664 29.7392 11.8081 28.3221L15.8499 24.9389C15.4308 24.4399 15.0017 23.931 14.5625 23.412L13.3051 21.8552L7.34715 27.2143ZM22.2581 26.6754C22.8769 25.9169 23.6753 25.5377 24.6533 25.5377C25.272 25.5377 25.8309 25.6175 26.3299 25.7772C26.8289 25.9169 27.4177 26.1465 28.0963 26.4658L29.3238 23.3521C28.5853 22.7933 27.7371 22.4041 26.779 22.1845C25.8409 21.9649 25.0625 21.8552 24.4437 21.8552C22.0885 21.8552 20.2223 22.5537 18.845 23.9509C17.4878 25.3281 16.8092 27.1944 16.8092 29.5496C16.8092 31.9048 17.4878 33.7611 18.845 35.1183C20.2223 36.4756 22.0885 37.1542 24.4437 37.1542C25.0625 37.1542 25.8509 37.0444 26.8089 36.8249C27.767 36.6053 28.6053 36.2161 29.3238 35.6572L28.0963 32.5435C27.4177 32.8629 26.8289 33.0924 26.3299 33.2321C25.8309 33.3718 25.272 33.4417 24.6533 33.4417C23.6753 33.4417 22.8769 33.0924 22.2581 32.3938C21.6594 31.6753 21.36 30.7272 21.36 29.5496C21.36 28.372 21.6594 27.4139 22.2581 26.6754ZM36.2796 36.7949V15.6577L31.9085 15.987V36.7949H36.2796Z" fill="#D0FF00"/>
</svg>
