<svg width="788" height="183" viewBox="0 0 788 183" fill="none" xmlns="http://www.w3.org/2000/svg">
<path d="M16.6075 166.835V161.454H5.84388V156.072H0.462097V43.0543H5.84388V37.6725H11.2257V32.2907H16.6075V26.9089H21.9892V16.1454H27.371V10.7636H32.7528V5.38179H38.1346V0H43.5164V5.38179H48.8982V10.7636H54.28V16.1454H59.6617V21.5271H75.8071V16.1454H81.1889V10.7636H86.5707V5.38179H91.9525V0H97.3342V5.38179H102.716V10.7636H108.098V16.1454H113.48V26.9089H118.861V32.2907H124.243V37.6725H129.625V43.0543H135.007V156.072H129.625V161.454H118.861V166.835H102.716V172.217H108.098V182.981H75.8071V172.217H81.1889V166.835H54.28V172.217H59.6617V182.981H27.371V172.217H32.7528V166.835H16.6075Z" fill="#101412"/>
<path fill-rule="evenodd" clip-rule="evenodd" d="M21.9892 26.9095L21.9892 26.9102V32.2919H16.6075V37.6737H11.2257V43.0555H5.84388V48.4364V53.8191V123.781V129.163V129.164V134.545V156.073H16.6075V161.455H38.1346V166.836V172.217H32.7528V177.599H54.28V172.217H48.8982V166.836V161.455H86.5707V166.836V172.217H81.1889V177.599H102.716V172.217H97.3342V166.836V161.455H118.861V156.073H129.625V134.545V129.164V129.163V123.781V53.8191V48.4364V43.0555H124.243V37.6737H118.861V32.2919H113.48V26.9102V26.9095H108.098V16.1459H102.716V10.7641H97.3342V5.38232H91.9525V10.7641H86.5707V16.1459H81.1889V21.5277H75.8071V26.9102H59.6617V21.5277H54.28V16.1459H48.8982V10.7641H43.5164V5.38232H38.1346V10.7641H32.7528V16.1459H27.371V26.9095H21.9892ZM11.2257 129.164H124.243V129.163H11.2257V129.164ZM11.2257 139.927V145.309H38.1346V139.927H11.2257ZM21.9893 150.691V156.072H38.1346V150.691H21.9893ZM97.3343 145.309V139.927H102.716V145.309H97.3343ZM108.098 139.927V145.309H113.48V139.927H108.098ZM118.861 145.309V139.927H124.243V145.309H118.861ZM97.3343 150.691V156.072H113.48V150.691H97.3343ZM48.8982 145.309H86.5707V156.073H48.8982V145.309Z" fill="#D0FF00"/>
<path d="M5.84388 129.163V123.781H129.625V129.163H5.84388Z" fill="#B1E515"/>
<path d="M21.9892 64.5812V59.1995H113.48V64.5812H118.861V107.636H113.48V113.017H21.9892V107.636H16.6075V64.5812H21.9892Z" fill="#1F2320"/>
<path d="M86.5707 86.1092V64.582H97.3343V86.1092H86.5707Z" fill="#D0FF00"/>
<path d="M59.6617 86.1092H75.8071V91.491H70.4253V102.255H86.5707V96.8727H91.9525V102.255H86.5707V107.636H48.8982V102.255H43.5164V96.8727H48.8982V102.255H65.0435V91.491H59.6617V86.1092Z" fill="#D0FF00"/>
<path d="M48.8982 80.7274V75.3456H32.7528V80.7274H27.371V75.3456H32.7528V69.9638H48.8982V75.3456H54.28V80.7274H48.8982Z" fill="#D0FF00"/>
<path d="M118.861 43.0534V37.6716H124.243V43.0534H118.861Z" fill="#92C51B"/>
<path d="M16.6075 43.0534V37.6716H11.2257V43.0534H16.6075Z" fill="#92C51B"/>
<path d="M113.48 37.6728V32.291H118.861V37.6728H113.48Z" fill="#92C51B"/>
<path d="M21.9892 37.6728V32.291H16.6075V37.6728H21.9892Z" fill="#92C51B"/>
<rect x="65.0435" y="26.9087" width="5.38179" height="10.7636" fill="#B1E515"/>
<path d="M86.5707 37.6723V32.2905H91.9525V26.9087H97.3342V32.2905H102.716V37.6723H86.5707Z" fill="#101412"/>
<path d="M38.1346 32.2905V26.9087H43.5164V32.2905H48.8982V37.6723H32.7528V32.2905H38.1346Z" fill="#101412"/>
<path d="M21.9892 129.163V123.781H38.1346V129.163H21.9892Z" fill="#92C51B"/>
<rect x="59.6617" y="26.9087" width="16.1454" height="5.38179" fill="#92C51B"/>
<path d="M191.977 42.5414V82.1808L230.437 40.331L246.794 52.7091L215.701 86.3068L257.109 142.745H229.848L200.966 102.074L191.977 111.8V142.745H170.315V42.5414H191.977Z" fill="#101412"/>
<path d="M286.165 49.3199C286.165 52.66 284.937 55.5089 282.481 57.8666C280.124 60.1261 277.275 61.2559 273.935 61.2559C270.594 61.2559 267.795 60.1261 265.535 57.8666C263.276 55.5089 262.146 52.66 262.146 49.3199C262.146 45.9797 263.276 43.1308 265.535 40.7731C267.795 38.4153 270.594 37.2365 273.935 37.2365C277.275 37.2365 280.124 38.4153 282.481 40.7731C284.937 43.1308 286.165 45.9797 286.165 49.3199ZM284.839 71.2763V142.745H263.177V71.2763H284.839Z" fill="#101412"/>
<path d="M332.949 145.25C324.108 145.25 316.789 142.991 310.993 138.472C305.295 133.953 302.446 127.322 302.446 118.578V89.1066H292.278V72.3078H302.446V54.6248L323.96 51.0882V72.3078H338.402L343.117 89.1066H323.96V115.336C323.96 118.775 324.845 121.624 326.613 123.883C328.381 126.044 330.935 127.125 334.276 127.125C335.553 127.125 336.928 126.929 338.402 126.536C339.875 126.143 341.349 125.602 342.822 124.915L349.159 140.24C347.489 141.615 345.033 142.794 341.791 143.777C338.549 144.759 335.602 145.25 332.949 145.25Z" fill="#101412"/>
<path d="M389.435 145.25C380.593 145.25 373.274 142.991 367.478 138.472C361.781 133.953 358.932 127.322 358.932 118.578V89.1066H348.764V72.3078H358.932V54.6248L380.446 51.0882V72.3078H394.887L399.602 89.1066H380.446V115.336C380.446 118.775 381.33 121.624 383.098 123.883C384.867 126.044 387.421 127.125 390.761 127.125C392.038 127.125 393.413 126.929 394.887 126.536C396.361 126.143 397.834 125.602 399.308 124.915L405.644 140.24C403.974 141.615 401.518 142.794 398.276 143.777C395.034 144.759 392.087 145.25 389.435 145.25Z" fill="#101412"/>
<path d="M428.679 145.103L431.184 139.061L405.249 73.9287L427.058 71.2763C429.711 78.3495 432.363 85.4227 435.016 92.4959C437.668 99.5691 440.272 106.642 442.826 113.715L457.856 71.2763H480.255L448.425 151.734C446.068 157.53 441.991 162.491 436.195 166.617C430.398 170.841 424.209 173.739 417.627 175.311L410.112 157.776C413.649 156.4 417.333 154.681 421.164 152.618C424.995 150.555 427.5 148.05 428.679 145.103Z" fill="#101412"/>
<path d="M508.208 142.745L492.371 126.907V50.9472L508.208 35.1094H555.953L571.867 50.9472V75.7034H550.109V61.557L545.42 56.8672H518.818L514.128 61.557V116.297L518.818 120.987H545.42L550.109 116.297V102.151H571.867V126.907L555.953 142.745H508.208Z" fill="#101412"/>
<path d="M588.792 142.745V50.9472L604.63 35.1094H654.296L670.134 50.9472V142.745H648.453V111.069H610.473V142.745H588.792ZM610.473 89.3885H648.453V61.557L643.763 56.8672H615.163L610.473 61.557V89.3885Z" fill="#101412"/>
<path d="M688.517 142.745V35.1094H752.561L768.399 50.9472V126.907L752.561 142.745H688.517ZM710.275 120.987H742.028L746.718 116.297V61.557L742.028 56.8672H710.275V120.987Z" fill="#101412"/>
</svg>
