<svg width="123" height="29" viewBox="0 0 123 29" fill="none" xmlns="http://www.w3.org/2000/svg">
<path d="M2.52 26.04V25.2H0.84V24.36H0V6.72H0.84V5.88H1.68V5.04H2.52V4.2H3.36V3.36H17.64V4.2H18.48V5.04H19.32V5.88H20.16V6.72H21V24.36H20.16V25.2H18.48V26.04H15.96V26.88H16.8V28.56H11.76V26.88H12.6V26.04H8.4V26.88H9.24V28.56H4.2V26.88H5.04V26.04H2.52Z" fill="#101412"/>
<path d="M5.04 26.04V24.78H8.4V26.04H7.56V26.88H8.4V27.72H5.04V26.88H5.88V26.04H5.04Z" fill="#4B4862"/>
<path d="M12.6 26.04V24.78H15.96V26.04H15.12V26.88H15.96V27.72H12.6V26.88H13.44V26.04H12.6Z" fill="#4B4862"/>
<path fill-rule="evenodd" clip-rule="evenodd" d="M0.839996 20.58V24.36H2.52V25.2H18.48V24.36H20.16V20.58H0.839996ZM7.56 24.36V22.68H13.44V24.36H7.56Z" fill="#9BADB7"/>
<path d="M0.839996 21V19.32H20.16V21H0.839996Z" fill="#BECAD0"/>
<path d="M1.68 22.68V21.84H5.88V22.68H1.68Z" fill="#2B3E48"/>
<path d="M3.36 24.36V23.52H5.88V24.36H3.36Z" fill="#2B3E48"/>
<path d="M15.12 22.68V21.84H15.96V22.68H15.12Z" fill="#2B3E48"/>
<path d="M16.8 22.68V21.84H17.64V22.68H16.8Z" fill="#2B3E48"/>
<path d="M18.48 22.68V21.84H19.32V22.68H18.48Z" fill="#2B3E48"/>
<path d="M15.12 24.36V23.52H17.64V24.36H15.12Z" fill="#2B3E48"/>
<path d="M18.48 5.88V5.04H17.64V4.2H3.36V5.04H2.52V5.88H1.68V6.72H0.839996V8.4H20.16V6.72H19.32V5.88H18.48Z" fill="#FBF580"/>
<path d="M0.839996 20.16V18.48H20.16V20.16H0.839996Z" fill="#AEAA4C"/>
<path d="M20.16 7.56H0.839996V19.32H20.16V7.56Z" fill="#E5E3A1"/>
<path d="M3.36 10.08V9.24001H17.64V10.08H18.48V16.8H17.64V17.64H3.36V16.8H2.52V10.08H3.36Z" fill="#1F2320"/>
<rect x="8.4" y="4.2" width="4.2" height="1.68" fill="#AEAA4C"/>
<path d="M13.44 10.92V10.08H15.12V13.44H14.28L13.44 10.92Z" fill="#DBFF3C"/>
<path d="M9.24 13.44H11.76V14.28H10.92V15.96H13.44V15.12H14.28V15.96H13.44V16.8H7.56V15.96H6.72V15.12H7.56V15.96H10.08V14.28H9.24V13.44Z" fill="#DBFF3C"/>
<path d="M7.56 12.6V11.76H5.04V12.6H4.2V11.76H5.04V10.92H7.56V11.76H8.4V12.6H7.56Z" fill="#DBFF3C"/>
<path d="M3.36 5.88V5.04H4.2V3.36H5.04V1.68H5.88V0.839996H6.72V1.68H7.56V3.36H8.4V5.04H9.24V5.88H3.36Z" fill="#DBFF3C"/>
<path d="M17.64 5.04V5.88H11.76V5.04H12.6V3.36H13.44V1.68H14.28V0.839996H15.12V1.68H15.96V3.36H16.8V5.04H17.64Z" fill="#DBFF3C"/>
<path d="M13.44 1.68V0H15.96V1.68H16.8V3.36H17.64V4.62H16.8V3.36H15.96V1.68H15.12V0.84H14.28V1.68H13.44V3.36H12.6V4.62H11.76V3.36H12.6V1.68H13.44Z" fill="#92C51B"/>
<path d="M5.04 1.68V0H7.56V1.68H8.4V3.36H9.24V4.62H8.4V3.36H7.56V1.68H6.72V0.84H5.88V1.68H5.04V3.36H4.2V4.62H3.36V3.36H4.2V1.68H5.04Z" fill="#92C51B"/>
<rect x="9.24" y="5.03999" width="2.52" height="0.84" fill="#D0CC6A"/>
<path d="M13.44 5.88V5.04H14.28V4.2H15.12V5.04H15.96V5.88H13.44Z" fill="#76AA1D"/>
<path d="M5.88 5.04V4.2H6.72V5.04H7.56V5.88H5.04V5.04H5.88Z" fill="#76AA1D"/>
<path d="M17.64 5.88V5.04H16.8V4.2H17.64V5.04H18.48V5.88H17.64Z" fill="#76AA1D"/>
<path d="M3.36 5.04V5.88H2.52V5.04H3.36V4.2H4.2V5.04H3.36Z" fill="#76AA1D"/>
<path d="M8.4 4.2H9.24V5.04H10.08V5.88H9.24V5.04H8.4V4.2Z" fill="#76AA1D"/>
<path d="M11.76 4.2H12.6V5.04H11.76V5.88H10.92V5.04H11.76V4.2Z" fill="#76AA1D"/>
<path d="M14.28 10.92H13.44V13.44H14.28V10.92Z" fill="#92C51B"/>
<path d="M1.68 21V19.32H0.839996V21H1.68Z" fill="#D0CC6A"/>
<path d="M19.32 21V19.32H20.16V21H19.32Z" fill="#D0CC6A"/>
<path d="M3.36 20.16V19.32H5.88V20.16H3.36Z" fill="#D56161"/>
<path d="M3.36 21V20.16H5.88V21H3.36Z" fill="#AC3232"/>
<path d="M29.991 6.64V12.827L35.994 6.295L38.547 8.227L33.694 13.471L40.157 22.28H35.902L31.394 15.932L29.991 17.45V22.28H26.61V6.64H29.991Z" fill="#08110D"/>
<path d="M44.6921 7.698C44.6921 8.21933 44.5005 8.664 44.1171 9.032C43.7491 9.38466 43.3045 9.561 42.7831 9.561C42.2618 9.561 41.8248 9.38466 41.4721 9.032C41.1195 8.664 40.9431 8.21933 40.9431 7.698C40.9431 7.17666 41.1195 6.732 41.4721 6.364C41.8248 5.996 42.2618 5.812 42.7831 5.812C43.3045 5.812 43.7491 5.996 44.1171 6.364C44.5005 6.732 44.6921 7.17666 44.6921 7.698ZM44.4851 11.125V22.28H41.1041V11.125H44.4851Z" fill="#08110D"/>
<path d="M51.9943 22.671C50.6143 22.671 49.4719 22.3183 48.5673 21.613C47.6779 20.9077 47.2333 19.8727 47.2333 18.508V13.908H45.6463V11.286H47.2333V8.526L50.5913 7.974V11.286H52.8453L53.5813 13.908H50.5913V18.002C50.5913 18.5387 50.7293 18.9833 51.0053 19.336C51.2813 19.6733 51.6799 19.842 52.2013 19.842C52.4006 19.842 52.6153 19.8113 52.8453 19.75C53.0753 19.6887 53.3053 19.6043 53.5353 19.497L54.5243 21.889C54.2636 22.1037 53.8803 22.2877 53.3743 22.441C52.8683 22.5943 52.4083 22.671 51.9943 22.671Z" fill="#08110D"/>
<path d="M60.8106 22.671C59.4306 22.671 58.2883 22.3183 57.3836 21.613C56.4943 20.9077 56.0496 19.8727 56.0496 18.508V13.908H54.4626V11.286H56.0496V8.526L59.4076 7.974V11.286H61.6616L62.3976 13.908H59.4076V18.002C59.4076 18.5387 59.5456 18.9833 59.8216 19.336C60.0976 19.6733 60.4963 19.842 61.0176 19.842C61.217 19.842 61.4316 19.8113 61.6616 19.75C61.8916 19.6887 62.1216 19.6043 62.3516 19.497L63.3406 21.889C63.08 22.1037 62.6966 22.2877 62.1906 22.441C61.6846 22.5943 61.2246 22.671 60.8106 22.671Z" fill="#08110D"/>
<path d="M66.936 22.648L67.327 21.705L63.279 11.539L66.683 11.125C67.097 12.229 67.511 13.333 67.925 14.437C68.339 15.541 68.7453 16.645 69.144 17.749L71.49 11.125H74.986L70.018 23.683C69.65 24.5877 69.0137 25.362 68.109 26.006C67.2043 26.6653 66.2383 27.1177 65.211 27.363L64.038 24.626C64.59 24.4113 65.165 24.143 65.763 23.821C66.361 23.499 66.752 23.108 66.936 22.648Z" fill="#08110D"/>
<path d="M79.3491 22.28L76.8771 19.808V7.952L79.3491 5.48H86.8011L89.2851 7.952V11.816H85.8891V9.608L85.1571 8.876H81.0051L80.2731 9.608V18.152L81.0051 18.884H85.1571L85.8891 18.152V15.944H89.2851V19.808L86.8011 22.28H79.3491Z" fill="#08110D"/>
<path d="M91.9268 22.28V7.952L94.3988 5.48H102.151L104.623 7.952V22.28H101.239V17.336H95.3108V22.28H91.9268ZM95.3108 13.952H101.239V9.608L100.507 8.876H96.0428L95.3108 9.608V13.952Z" fill="#08110D"/>
<path d="M107.492 22.28V5.48H117.488L119.96 7.952V19.808L117.488 22.28H107.492ZM110.888 18.884H115.844L116.576 18.152V9.608L115.844 8.876H110.888V18.884Z" fill="#08110D"/>
</svg>
