<svg width="97" height="32" viewBox="0 0 97 32" fill="none" xmlns="http://www.w3.org/2000/svg">
<path d="M19.3583 5.5893V0.690826H0.00310952V7.59893H17.5057L0.00624955 26.5774H0.00310952V26.5805L-3.05176e-05 26.5837L0.00310952 26.5868V31.2278H4.48708L9.00245 26.3293V31.2278H28.3576V24.3197H10.8582L28.3576 5.3381V0.690826L23.8705 0.697107L19.3583 5.5893Z" fill="#FCFCFC"/>
<path d="M36.8417 16.0017C36.8417 10.987 40.9206 6.90811 45.9353 6.90811C47.7 6.90811 49.3485 7.41365 50.7427 8.28659L55.4904 3.17459C52.8214 1.18066 49.5149 0 45.9353 0C37.1118 0 29.9337 7.17815 29.9337 16.0017C29.9337 20.0021 31.4095 23.6665 33.8524 26.4769L38.6002 21.3649C37.4949 19.8608 36.8417 18.005 36.8417 16.0017Z" fill="#FCFCFC"/>
<path d="M53.2739 10.6351C54.376 12.1423 55.0291 13.9981 55.0291 16.0014C55.0291 21.013 50.9502 25.0919 45.9356 25.0919C44.1709 25.0919 42.5255 24.5863 41.1314 23.7134L36.3805 28.8285C39.0495 30.8193 42.356 32 45.9356 32C54.7591 32 61.9372 24.8218 61.9372 16.0014C61.9372 11.9979 60.4614 8.33345 58.0185 5.5231L53.2739 10.6351Z" fill="#FCFCFC"/>
<path d="M92.4988 5.5231L87.7542 10.6351C88.8564 12.1423 89.5095 13.9981 89.5095 16.0014C89.5095 21.013 85.4306 25.0919 80.416 25.0919C78.6513 25.0919 77.0059 24.5863 75.6117 23.7134L70.8608 28.8285C73.5299 30.8193 76.8363 32 80.416 32C89.2395 32 96.4176 24.8218 96.4176 16.0014C96.4176 11.9979 94.9418 8.33345 92.4988 5.5231Z" fill="#FCFCFC"/>
<path d="M71.3225 16.0017C71.3225 10.987 75.4014 6.90811 80.416 6.90811C82.1807 6.90811 83.8292 7.41365 85.2234 8.28659L89.9711 3.17459C87.3021 1.18066 83.9957 0 80.416 0C71.5925 0 64.4144 7.17815 64.4144 16.0017C64.4144 20.0021 65.8902 23.6665 68.3332 26.4769L73.0809 21.3649C71.9756 19.8608 71.3225 18.005 71.3225 16.0017Z" fill="#FCFCFC"/>
</svg>
