<svg width="118" height="65" viewBox="0 0 118 65" fill="none" xmlns="http://www.w3.org/2000/svg">
<g clip-path="url(#clip0_123_205)">
<path d="M23.6915 6.81189V0.841919H0.0038429V9.26111H21.4242L0.0076858 32.3909H0.0038429V32.3948L0 32.3986L0.0038429 32.4024V38.0586H5.4915L11.0176 32.0886V38.0586H34.7052V29.6394H13.2887L34.7052 6.50574V0.841919L29.2137 0.849573L23.6915 6.81189Z" fill="#FEFEFA"/>
<path fill-rule="evenodd" clip-rule="evenodd" d="M56.2177 8.4192C50.0806 8.4192 45.0887 13.3903 45.0887 19.5019C45.0887 21.9435 45.888 24.2052 47.2407 26.0383L41.4303 32.2685C38.4405 28.8434 36.6343 24.3774 36.6343 19.5019C36.6343 8.74831 45.4192 0 56.2177 0C60.5986 0 64.6452 1.43892 67.9117 3.869L62.1012 10.0992C60.395 9.03533 58.3774 8.4192 56.2177 8.4192ZM67.3468 19.5019C67.3468 17.0603 66.5475 14.7986 65.1986 12.9617L71.0052 6.73152C73.995 10.1566 75.8012 14.6226 75.8012 19.5019C75.8012 30.2517 67.0163 39 56.2177 39C51.8368 39 47.7903 37.5611 44.5238 35.1348L50.3381 28.9008C52.0444 29.9647 54.058 30.5808 56.2177 30.5808C62.3549 30.5808 67.3468 25.6096 67.3468 19.5019Z" fill="#FEFEFA"/>
<path fill-rule="evenodd" clip-rule="evenodd" d="M98.4166 8.4192C92.2795 8.4192 87.2876 13.3903 87.2876 19.5019C87.2876 21.9435 88.0869 24.2052 89.4396 26.0383L83.6291 32.2685C80.6393 28.8434 78.8332 24.3774 78.8332 19.5019C78.8332 8.74831 87.618 0 98.4166 0C102.797 0 106.844 1.43892 110.111 3.869L104.3 10.0992C102.594 9.03533 100.576 8.4192 98.4166 8.4192ZM107.397 12.9617L113.204 6.73152C116.194 10.1566 118 14.6226 118 19.5019C118 30.2517 109.215 39 98.4166 39C94.0357 39 89.9891 37.5611 86.7226 35.1348L92.537 28.9008C94.2432 29.9647 96.2569 30.5808 98.4166 30.5808C104.554 30.5808 109.546 25.6096 109.546 19.5019C109.546 17.0603 108.746 14.7986 107.397 12.9617Z" fill="#FEFEFA"/>
</g>
<path d="M1.309 49.44C1.309 49.0773 1.38833 48.7883 1.547 48.573C1.70567 48.3577 1.94933 48.25 2.278 48.25C2.59533 48.25 2.839 48.3407 3.009 48.522C3.179 48.692 3.30933 48.8393 3.4 48.964L6.188 52.891L8.976 48.964C9.01 48.9073 9.05533 48.8393 9.112 48.76C9.18 48.6807 9.25933 48.6013 9.35 48.522C9.44067 48.4427 9.54833 48.3803 9.673 48.335C9.79767 48.2783 9.93933 48.25 10.098 48.25C10.4267 48.25 10.6703 48.3577 10.829 48.573C10.9877 48.7883 11.067 49.0773 11.067 49.44V59.776C11.067 60.1613 10.9933 60.4787 10.846 60.728C10.71 60.966 10.4323 61.085 10.013 61.085C9.605 61.085 9.32733 60.966 9.18 60.728C9.044 60.4787 8.976 60.1613 8.976 59.776V52.585C8.67 53.0157 8.381 53.418 8.109 53.792C7.84833 54.166 7.57067 54.5683 7.276 54.999C7.11733 55.2143 6.95867 55.4013 6.8 55.56C6.64133 55.7073 6.43733 55.781 6.188 55.781C5.92733 55.781 5.71767 55.7073 5.559 55.56C5.41167 55.4127 5.25867 55.2257 5.1 54.999L3.4 52.585V59.776C3.4 60.1613 3.32633 60.4787 3.179 60.728C3.043 60.966 2.771 61.085 2.363 61.085C1.94367 61.085 1.66033 60.966 1.513 60.728C1.377 60.4787 1.309 60.1613 1.309 59.776V49.44ZM13.6942 56.784C13.4675 56.444 13.2862 56.121 13.1502 55.815C13.0255 55.509 12.9632 55.1407 12.9632 54.71C12.9632 54.336 13.0085 54.0017 13.0992 53.707C13.1898 53.4123 13.3428 53.1007 13.5582 52.772L15.5642 49.678C15.8475 49.2473 16.2045 48.9017 16.6352 48.641C17.0772 48.3803 17.5928 48.25 18.1822 48.25C18.7715 48.25 19.2815 48.3803 19.7122 48.641C20.1542 48.9017 20.5168 49.2473 20.8002 49.678L22.8062 52.772C23.0215 53.1007 23.1745 53.4123 23.2652 53.707C23.3558 53.9903 23.4012 54.3247 23.4012 54.71C23.4012 55.1407 23.3332 55.509 23.1972 55.815C23.0725 56.121 22.8968 56.444 22.6702 56.784L20.8172 59.623C20.5338 60.0423 20.1768 60.3937 19.7462 60.677C19.3268 60.949 18.8055 61.085 18.1822 61.085C17.5588 61.085 17.0318 60.949 16.6012 60.677C16.1818 60.3937 15.8305 60.0423 15.5472 59.623L13.6942 56.784ZM18.1822 58.994C18.3862 58.994 18.5562 58.943 18.6922 58.841C18.8395 58.739 18.9585 58.62 19.0492 58.484L20.9022 55.662C21.0268 55.4807 21.1232 55.3163 21.1912 55.169C21.2705 55.0103 21.3102 54.8573 21.3102 54.71C21.3102 54.5513 21.2875 54.4153 21.2422 54.302C21.2082 54.1887 21.1402 54.0527 21.0382 53.894L19.0492 50.834C18.9585 50.698 18.8338 50.5847 18.6752 50.494C18.5278 50.392 18.3635 50.341 18.1822 50.341C18.0008 50.341 17.8308 50.392 17.6722 50.494C17.5248 50.5847 17.4058 50.698 17.3152 50.834L15.3262 53.877C15.2242 54.0357 15.1505 54.1773 15.1052 54.302C15.0712 54.4153 15.0542 54.5513 15.0542 54.71C15.0542 54.8573 15.0882 55.0103 15.1562 55.169C15.2355 55.3163 15.3375 55.4807 15.4622 55.662L17.2982 58.467C17.3888 58.6143 17.5078 58.739 17.6552 58.841C17.8025 58.943 17.9782 58.994 18.1822 58.994ZM26.5903 61C26.1143 61 25.7799 60.9037 25.5873 60.711C25.3946 60.5183 25.2983 60.184 25.2983 59.708V49.627C25.2983 49.151 25.3946 48.8167 25.5873 48.624C25.7799 48.4313 26.1143 48.335 26.5903 48.335H29.3273C29.9959 48.335 30.5229 48.471 30.9083 48.743C31.3049 49.0037 31.6393 49.4173 31.9113 49.984L33.3223 52.874C33.4583 53.1573 33.5659 53.4407 33.6453 53.724C33.7246 54.0073 33.7643 54.3247 33.7643 54.676C33.7643 54.948 33.7303 55.2313 33.6623 55.526C33.5943 55.8207 33.4809 56.1323 33.3223 56.461L31.9113 59.351C31.6279 59.929 31.2936 60.3483 30.9083 60.609C30.5229 60.8697 30.0016 61 29.3443 61H26.5903ZM27.3893 58.909H29.1573C29.3839 58.909 29.5596 58.875 29.6843 58.807C29.8203 58.739 29.9506 58.586 30.0753 58.348L31.3333 55.764C31.4239 55.5827 31.5033 55.407 31.5713 55.237C31.6393 55.0557 31.6733 54.863 31.6733 54.659C31.6733 54.455 31.6393 54.268 31.5713 54.098C31.5033 53.9167 31.4239 53.7353 31.3333 53.554L30.0753 50.987C29.9506 50.749 29.8203 50.596 29.6843 50.528C29.5596 50.46 29.3839 50.426 29.1573 50.426H27.3893V58.909ZM36.9662 61C36.4902 61 36.1559 60.9037 35.9632 60.711C35.7706 60.5183 35.6742 60.184 35.6742 59.708V49.627C35.6742 49.151 35.7706 48.8167 35.9632 48.624C36.1559 48.4313 36.4902 48.335 36.9662 48.335H42.2022C42.5876 48.335 42.8992 48.4087 43.1372 48.556C43.3866 48.692 43.5112 48.9697 43.5112 49.389C43.5112 49.797 43.3866 50.0747 43.1372 50.222C42.8992 50.358 42.5876 50.426 42.2022 50.426H37.7652V53.265H40.7742C41.1596 53.265 41.4712 53.3387 41.7092 53.486C41.9586 53.622 42.0832 53.8997 42.0832 54.319C42.0832 54.727 41.9586 55.0047 41.7092 55.152C41.4712 55.288 41.1596 55.356 40.7742 55.356H37.7652V58.909H42.2022C42.5876 58.909 42.8992 58.9827 43.1372 59.13C43.3866 59.266 43.5112 59.5437 43.5112 59.963C43.5112 60.371 43.3866 60.6487 43.1372 60.796C42.8992 60.932 42.5876 61 42.2022 61H36.9662ZM46.4789 61C46.0029 61 45.6686 60.9037 45.4759 60.711C45.2833 60.5183 45.1869 60.184 45.1869 59.708V49.559C45.1869 49.1737 45.2663 48.862 45.4249 48.624C45.5949 48.3747 45.8669 48.25 46.2409 48.25C46.6036 48.25 46.8643 48.3747 47.0229 48.624C47.1929 48.862 47.2779 49.1737 47.2779 49.559V58.909H51.0689C51.4543 58.909 51.7659 58.9827 52.0039 59.13C52.2533 59.266 52.3779 59.538 52.3779 59.946C52.3779 60.3653 52.2533 60.6487 52.0039 60.796C51.7659 60.932 51.4543 61 51.0689 61H46.4789ZM54.6266 61C54.2412 61 53.9239 60.932 53.6746 60.796C53.4366 60.6487 53.3176 60.371 53.3176 59.963C53.3176 59.5437 53.4366 59.266 53.6746 59.13C53.9239 58.9827 54.2412 58.909 54.6266 58.909H55.9356V50.426H54.6266C54.2412 50.426 53.9239 50.358 53.6746 50.222C53.4366 50.0747 53.3176 49.797 53.3176 49.389C53.3176 48.9697 53.4366 48.692 53.6746 48.556C53.9239 48.4087 54.2412 48.335 54.6266 48.335H59.3356C59.7209 48.335 60.0326 48.4087 60.2706 48.556C60.5199 48.692 60.6446 48.9697 60.6446 49.389C60.6446 49.797 60.5199 50.0747 60.2706 50.222C60.0326 50.358 59.7209 50.426 59.3356 50.426H58.0266V58.909H59.3356C59.7209 58.909 60.0326 58.9827 60.2706 59.13C60.5199 59.266 60.6446 59.5437 60.6446 59.963C60.6446 60.371 60.5199 60.6487 60.2706 60.796C60.0326 60.932 59.7209 61 59.3356 61H54.6266ZM62.3861 49.593C62.3861 49.2077 62.4541 48.8903 62.5901 48.641C62.7375 48.3803 62.9981 48.25 63.3721 48.25C63.5535 48.25 63.7121 48.2783 63.8481 48.335C63.9841 48.3917 64.1088 48.4823 64.2221 48.607C64.3355 48.7203 64.4431 48.8677 64.5451 49.049C64.6585 49.2303 64.7831 49.4457 64.9191 49.695L68.5571 56.138V49.559C68.5571 49.1737 68.6251 48.862 68.7611 48.624C68.9085 48.3747 69.1918 48.25 69.6111 48.25C70.0191 48.25 70.2911 48.3747 70.4271 48.624C70.5745 48.862 70.6481 49.1737 70.6481 49.559V59.742C70.6481 60.1273 70.5745 60.4503 70.4271 60.711C70.2911 60.9603 70.0361 61.085 69.6621 61.085C69.4921 61.085 69.3448 61.0623 69.2201 61.017C69.1068 60.9717 68.9935 60.898 68.8801 60.796C68.7668 60.6827 68.6478 60.5353 68.5231 60.354C68.4098 60.1613 68.2738 59.9233 68.1151 59.64L64.4771 53.197V59.776C64.4771 60.1613 64.4035 60.4787 64.2561 60.728C64.1201 60.966 63.8481 61.085 63.4401 61.085C63.0208 61.085 62.7375 60.966 62.5901 60.728C62.4541 60.4787 62.3861 60.1613 62.3861 59.776V49.593ZM76.9662 61C76.3088 61 75.7875 60.8697 75.4022 60.609C75.0168 60.3483 74.6825 59.929 74.3992 59.351L72.9882 56.461C72.8295 56.1323 72.7162 55.8207 72.6482 55.526C72.5802 55.2313 72.5462 54.948 72.5462 54.676C72.5462 54.3247 72.5858 54.0073 72.6652 53.724C72.7445 53.4407 72.8522 53.1573 72.9882 52.874L74.3992 49.984C74.6712 49.4173 74.9998 49.0037 75.3852 48.743C75.7818 48.471 76.3088 48.335 76.9662 48.335H80.4002C80.7855 48.335 81.0972 48.4087 81.3352 48.556C81.5845 48.692 81.7092 48.964 81.7092 49.372C81.7092 49.7913 81.5845 50.0747 81.3352 50.222C81.0972 50.358 80.7855 50.426 80.4002 50.426H77.1532C76.9265 50.426 76.7452 50.46 76.6092 50.528C76.4845 50.596 76.3598 50.749 76.2352 50.987L74.9772 53.554C74.8865 53.7353 74.8072 53.9167 74.7392 54.098C74.6712 54.268 74.6372 54.455 74.6372 54.659C74.6372 54.863 74.6712 55.0557 74.7392 55.237C74.8072 55.407 74.8865 55.5827 74.9772 55.764L76.2352 58.348C76.3598 58.586 76.4845 58.739 76.6092 58.807C76.7452 58.875 76.9265 58.909 77.1532 58.909H78.8022C79.0628 58.909 79.2498 58.8523 79.3632 58.739C79.4765 58.6257 79.5332 58.4443 79.5332 58.195V56.461H78.4622C78.0768 56.461 77.7595 56.393 77.5102 56.257C77.2722 56.1097 77.1532 55.832 77.1532 55.424C77.1532 55.0047 77.2722 54.727 77.5102 54.591C77.7595 54.4437 78.0768 54.37 78.4622 54.37H80.3322C80.8082 54.37 81.1425 54.4663 81.3352 54.659C81.5278 54.8517 81.6242 55.186 81.6242 55.662V58.229C81.6242 58.6597 81.5562 59.045 81.4202 59.385C81.2842 59.725 81.0915 60.014 80.8422 60.252C80.5928 60.49 80.2925 60.677 79.9412 60.813C79.6012 60.9377 79.2215 61 78.8022 61H76.9662ZM90.8492 56.308H93.9092L92.3792 52.007L90.8492 56.308ZM89.4552 60.201C89.3532 60.4843 89.2229 60.7053 89.0642 60.864C88.9055 61.0227 88.7015 61.102 88.4522 61.102C88.0669 61.102 87.7835 60.9943 87.6022 60.779C87.4322 60.5637 87.3472 60.3427 87.3472 60.116C87.3472 60.0027 87.3585 59.895 87.3812 59.793C87.4152 59.6797 87.4549 59.5607 87.5002 59.436L91.1552 49.321C91.2572 49.0263 91.3989 48.777 91.5802 48.573C91.7729 48.3577 92.0392 48.25 92.3792 48.25C92.7192 48.25 92.9799 48.3577 93.1612 48.573C93.3539 48.777 93.5012 49.0263 93.6032 49.321L97.2582 59.436C97.3035 59.5607 97.3375 59.6797 97.3602 59.793C97.3942 59.895 97.4112 60.0027 97.4112 60.116C97.4112 60.3427 97.3205 60.5637 97.1392 60.779C96.9692 60.9943 96.6915 61.102 96.3062 61.102C96.0569 61.102 95.8529 61.0227 95.6942 60.864C95.5355 60.7053 95.4052 60.4843 95.3032 60.201L94.6572 58.399H90.1012L89.4552 60.201ZM104.229 53.707C104.58 53.707 104.824 53.639 104.96 53.503C105.096 53.3557 105.164 53.112 105.164 52.772V51.344C105.164 51.004 105.09 50.766 104.943 50.63C104.807 50.494 104.569 50.426 104.229 50.426H101.084V53.707H104.229ZM101.084 59.776C101.084 60.1613 101.01 60.4787 100.863 60.728C100.727 60.966 100.455 61.085 100.047 61.085C99.6273 61.085 99.3439 60.966 99.1966 60.728C99.0606 60.4787 98.9926 60.1613 98.9926 59.776V49.627C98.9926 49.151 99.0889 48.8167 99.2816 48.624C99.4743 48.4313 99.8086 48.335 100.285 48.335H104.178C104.654 48.335 105.09 48.3973 105.487 48.522C105.895 48.6467 106.246 48.8733 106.541 49.202C106.688 49.3833 106.807 49.5533 106.898 49.712C107 49.8707 107.073 50.035 107.119 50.205C107.175 50.375 107.209 50.5563 107.221 50.749C107.243 50.9303 107.255 51.1287 107.255 51.344V52.704C107.255 53.146 107.209 53.537 107.119 53.877C107.039 54.217 106.847 54.5683 106.541 54.931C106.246 55.2597 105.895 55.4863 105.487 55.611C105.09 55.7357 104.654 55.798 104.178 55.798H101.084V59.776ZM114.273 53.707C114.624 53.707 114.868 53.639 115.004 53.503C115.14 53.3557 115.208 53.112 115.208 52.772V51.344C115.208 51.004 115.134 50.766 114.987 50.63C114.851 50.494 114.613 50.426 114.273 50.426H111.128V53.707H114.273ZM111.128 59.776C111.128 60.1613 111.054 60.4787 110.907 60.728C110.771 60.966 110.499 61.085 110.091 61.085C109.671 61.085 109.388 60.966 109.241 60.728C109.105 60.4787 109.037 60.1613 109.037 59.776V49.627C109.037 49.151 109.133 48.8167 109.326 48.624C109.518 48.4313 109.853 48.335 110.329 48.335H114.222C114.698 48.335 115.134 48.3973 115.531 48.522C115.939 48.6467 116.29 48.8733 116.585 49.202C116.732 49.3833 116.851 49.5533 116.942 49.712C117.044 49.8707 117.117 50.035 117.163 50.205C117.219 50.375 117.253 50.5563 117.265 50.749C117.287 50.9303 117.299 51.1287 117.299 51.344V52.704C117.299 53.146 117.253 53.537 117.163 53.877C117.083 54.217 116.891 54.5683 116.585 54.931C116.29 55.2597 115.939 55.4863 115.531 55.611C115.134 55.7357 114.698 55.798 114.222 55.798H111.128V59.776Z" fill="#FEFEFA"/>
<defs>
<clipPath id="clip0_123_205">
<rect width="118" height="39" fill="white"/>
</clipPath>
</defs>
</svg>
