<svg width="124" height="71" viewBox="0 0 124 71" fill="none" xmlns="http://www.w3.org/2000/svg">
<path d="M27.1915 8.53622V3.84192V3.34192H26.6915H3.00384H2.50384V3.84192V12.2611V12.7611H3.00384H23.2798L2.78923 34.8909H2.50384V35.1871L2.29135 35.3987L2.50384 35.6102V41.0586V41.5586H3.00384H8.4915H8.71L8.85843 41.3982L13.5176 36.3648V41.0586V41.5586H14.0176H37.7052H38.2052V41.0586V32.6394V32.1394H37.7052H17.433L38.0721 9.84541L38.2052 9.70165V9.50574V3.84192V3.34122L37.7045 3.34192L32.213 3.34957L31.995 3.34988L31.8469 3.50982L27.1915 8.53622Z" fill="#1C1C1C" stroke="#FEFEFA"/>
<mask id="path-2-outside-1_123_205" maskUnits="userSpaceOnUse" x="38.6343" y="2" width="42" height="41" fill="black">
<rect fill="white" x="38.6343" y="2" width="42" height="41"/>
<path fill-rule="evenodd" clip-rule="evenodd" d="M59.2177 11.4192C53.0806 11.4192 48.0887 16.3903 48.0887 22.5019C48.0887 24.9435 48.888 27.2052 50.2407 29.0383L44.4303 35.2685C41.4405 31.8434 39.6343 27.3774 39.6343 22.5019C39.6343 11.7483 48.4192 3 59.2177 3C63.5986 3 67.6452 4.43892 70.9117 6.869L65.1012 13.0992C63.395 12.0353 61.3774 11.4192 59.2177 11.4192ZM70.3468 22.5019C70.3468 20.0603 69.5475 17.7986 68.1986 15.9617L74.0052 9.73152C76.995 13.1566 78.8012 17.6226 78.8012 22.5019C78.8012 33.2517 70.0163 42 59.2177 42C54.8368 42 50.7903 40.5611 47.5238 38.1348L53.3381 31.9008C55.0444 32.9647 57.058 33.5808 59.2177 33.5808C65.3549 33.5808 70.3468 28.6096 70.3468 22.5019Z"/>
</mask>
<path fill-rule="evenodd" clip-rule="evenodd" d="M59.2177 11.4192C53.0806 11.4192 48.0887 16.3903 48.0887 22.5019C48.0887 24.9435 48.888 27.2052 50.2407 29.0383L44.4303 35.2685C41.4405 31.8434 39.6343 27.3774 39.6343 22.5019C39.6343 11.7483 48.4192 3 59.2177 3C63.5986 3 67.6452 4.43892 70.9117 6.869L65.1012 13.0992C63.395 12.0353 61.3774 11.4192 59.2177 11.4192ZM70.3468 22.5019C70.3468 20.0603 69.5475 17.7986 68.1986 15.9617L74.0052 9.73152C76.995 13.1566 78.8012 17.6226 78.8012 22.5019C78.8012 33.2517 70.0163 42 59.2177 42C54.8368 42 50.7903 40.5611 47.5238 38.1348L53.3381 31.9008C55.0444 32.9647 57.058 33.5808 59.2177 33.5808C65.3549 33.5808 70.3468 28.6096 70.3468 22.5019Z" fill="#1C1C1C"/>
<path d="M50.2407 29.0383L50.972 29.7203L51.5386 29.1129L51.0454 28.4445L50.2407 29.0383ZM44.4303 35.2685L43.6769 35.9261L44.4057 36.761L45.1616 35.9505L44.4303 35.2685ZM70.9117 6.869L71.643 7.55104L72.4052 6.73375L71.5086 6.06668L70.9117 6.869ZM65.1012 13.0992L64.5721 13.9478L65.2709 14.3835L65.8325 13.7812L65.1012 13.0992ZM68.1986 15.9617L67.4671 15.2799L66.9023 15.8859L67.3926 16.5536L68.1986 15.9617ZM74.0052 9.73152L74.7586 9.07391L74.0295 8.23872L73.2737 9.04972L74.0052 9.73152ZM47.5238 38.1348L46.7925 37.4528L46.0297 38.2707L46.9275 38.9376L47.5238 38.1348ZM53.3381 31.9008L53.8672 31.0522L53.1685 30.6165L52.6068 31.2187L53.3381 31.9008ZM49.0887 22.5019C49.0887 16.9466 53.629 12.4192 59.2177 12.4192V10.4192C52.5323 10.4192 47.0887 15.8341 47.0887 22.5019H49.0887ZM51.0454 28.4445C49.8147 26.7768 49.0887 24.7217 49.0887 22.5019H47.0887C47.0887 25.1653 47.9614 27.6336 49.4361 29.632L51.0454 28.4445ZM45.1616 35.9505L50.972 29.7203L49.5094 28.3562L43.699 34.5864L45.1616 35.9505ZM38.6343 22.5019C38.6343 27.6292 40.5348 32.3265 43.6769 35.9261L45.1836 34.6109C42.3462 31.3603 40.6343 27.1256 40.6343 22.5019H38.6343ZM59.2177 2C47.8709 2 38.6343 11.1921 38.6343 22.5019H40.6343C40.6343 12.3045 48.9676 4 59.2177 4V2ZM71.5086 6.06668C68.0757 3.51283 63.8213 2 59.2177 2V4C63.376 4 67.2147 5.36501 70.3148 7.67133L71.5086 6.06668ZM65.8325 13.7812L71.643 7.55104L70.1804 6.18696L64.3699 12.4172L65.8325 13.7812ZM59.2177 12.4192C61.1848 12.4192 63.0198 12.9799 64.5721 13.9478L65.6303 12.2506C63.7701 11.0908 61.5701 10.4192 59.2177 10.4192V12.4192ZM67.3926 16.5536C68.6208 18.2263 69.3468 20.2822 69.3468 22.5019H71.3468C71.3468 19.8385 70.4741 17.371 69.0046 15.3698L67.3926 16.5536ZM73.2737 9.04972L67.4671 15.2799L68.9301 16.6435L74.7368 10.4133L73.2737 9.04972ZM79.8012 22.5019C79.8012 17.3709 77.9008 12.6736 74.7586 9.07391L73.2519 10.3891C76.0892 13.6396 77.8012 17.8742 77.8012 22.5019H79.8012ZM59.2177 43C70.5645 43 79.8012 33.808 79.8012 22.5019H77.8012C77.8012 32.6953 69.4681 41 59.2177 41V43ZM46.9275 38.9376C50.3601 41.4872 54.6143 43 59.2177 43V41C55.0594 41 51.2205 39.635 48.1201 37.332L46.9275 38.9376ZM52.6068 31.2187L46.7925 37.4528L48.2551 38.8169L54.0694 32.5828L52.6068 31.2187ZM59.2177 32.5808C57.251 32.5808 55.4199 32.0203 53.8672 31.0522L52.809 32.7493C54.6689 33.909 56.865 34.5808 59.2177 34.5808V32.5808ZM69.3468 22.5019C69.3468 28.0532 64.8067 32.5808 59.2177 32.5808V34.5808C65.903 34.5808 71.3468 29.1661 71.3468 22.5019H69.3468Z" fill="#FEFEFA" mask="url(#path-2-outside-1_123_205)"/>
<mask id="path-4-outside-2_123_205" maskUnits="userSpaceOnUse" x="80.8332" y="2" width="42" height="41" fill="black">
<rect fill="white" x="80.8332" y="2" width="42" height="41"/>
<path fill-rule="evenodd" clip-rule="evenodd" d="M101.417 11.4192C95.2795 11.4192 90.2876 16.3903 90.2876 22.5019C90.2876 24.9435 91.0869 27.2052 92.4396 29.0383L86.6291 35.2685C83.6393 31.8434 81.8332 27.3774 81.8332 22.5019C81.8332 11.7483 90.618 3 101.417 3C105.797 3 109.844 4.43892 113.111 6.869L107.3 13.0992C105.594 12.0353 103.576 11.4192 101.417 11.4192ZM110.397 15.9617L116.204 9.73152C119.194 13.1566 121 17.6226 121 22.5019C121 33.2517 112.215 42 101.417 42C97.0357 42 92.9891 40.5611 89.7226 38.1348L95.537 31.9008C97.2432 32.9647 99.2569 33.5808 101.417 33.5808C107.554 33.5808 112.546 28.6096 112.546 22.5019C112.546 20.0603 111.746 17.7986 110.397 15.9617Z"/>
</mask>
<path fill-rule="evenodd" clip-rule="evenodd" d="M101.417 11.4192C95.2795 11.4192 90.2876 16.3903 90.2876 22.5019C90.2876 24.9435 91.0869 27.2052 92.4396 29.0383L86.6291 35.2685C83.6393 31.8434 81.8332 27.3774 81.8332 22.5019C81.8332 11.7483 90.618 3 101.417 3C105.797 3 109.844 4.43892 113.111 6.869L107.3 13.0992C105.594 12.0353 103.576 11.4192 101.417 11.4192ZM110.397 15.9617L116.204 9.73152C119.194 13.1566 121 17.6226 121 22.5019C121 33.2517 112.215 42 101.417 42C97.0357 42 92.9891 40.5611 89.7226 38.1348L95.537 31.9008C97.2432 32.9647 99.2569 33.5808 101.417 33.5808C107.554 33.5808 112.546 28.6096 112.546 22.5019C112.546 20.0603 111.746 17.7986 110.397 15.9617Z" fill="#1C1C1C"/>
<path d="M92.4396 29.0383L93.1709 29.7203L93.7374 29.1129L93.2442 28.4445L92.4396 29.0383ZM86.6291 35.2685L85.8758 35.9261L86.6046 36.761L87.3604 35.9505L86.6291 35.2685ZM113.111 6.869L113.842 7.55104L114.604 6.73375L113.707 6.06668L113.111 6.869ZM107.3 13.0992L106.771 13.9478L107.47 14.3835L108.031 13.7812L107.3 13.0992ZM116.204 9.73152L116.957 9.07391L116.228 8.23872L115.473 9.04972L116.204 9.73152ZM110.397 15.9617L109.666 15.2799L109.101 15.8859L109.591 16.5536L110.397 15.9617ZM89.7226 38.1348L88.9913 37.4528L88.2285 38.2707L89.1264 38.9376L89.7226 38.1348ZM95.537 31.9008L96.066 31.0522L95.3673 30.6165L94.8057 31.2187L95.537 31.9008ZM91.2876 22.5019C91.2876 16.9466 95.8278 12.4192 101.417 12.4192V10.4192C94.7311 10.4192 89.2876 15.8341 89.2876 22.5019H91.2876ZM93.2442 28.4445C92.0135 26.7768 91.2876 24.7217 91.2876 22.5019H89.2876C89.2876 25.1653 90.1602 27.6336 91.6349 29.632L93.2442 28.4445ZM87.3604 35.9505L93.1709 29.7203L91.7083 28.3562L85.8978 34.5864L87.3604 35.9505ZM80.8332 22.5019C80.8332 27.6292 82.7336 32.3265 85.8758 35.9261L87.3825 34.6109C84.5451 31.3603 82.8332 27.1256 82.8332 22.5019H80.8332ZM101.417 2C90.0697 2 80.8332 11.1921 80.8332 22.5019H82.8332C82.8332 12.3045 91.1664 4 101.417 4V2ZM113.707 6.06668C110.275 3.51283 106.02 2 101.417 2V4C105.575 4 109.414 5.36501 112.514 7.67133L113.707 6.06668ZM108.031 13.7812L113.842 7.55104L112.379 6.18696L106.569 12.4172L108.031 13.7812ZM101.417 12.4192C103.384 12.4192 105.219 12.9799 106.771 13.9478L107.829 12.2506C105.969 11.0908 103.769 10.4192 101.417 10.4192V12.4192ZM115.473 9.04972L109.666 15.2799L111.129 16.6435L116.936 10.4133L115.473 9.04972ZM122 22.5019C122 17.3709 120.1 12.6736 116.957 9.07391L115.451 10.3891C118.288 13.6396 120 17.8742 120 22.5019H122ZM101.417 43C112.763 43 122 33.808 122 22.5019H120C120 32.6953 111.667 41 101.417 41V43ZM89.1264 38.9376C92.5589 41.4872 96.8131 43 101.417 43V41C97.2582 41 93.4193 39.635 90.3189 37.332L89.1264 38.9376ZM94.8057 31.2187L88.9913 37.4528L90.4539 38.8169L96.2682 32.5828L94.8057 31.2187ZM101.417 32.5808C99.4499 32.5808 97.6187 32.0203 96.066 31.0522L95.0079 32.7493C96.8677 33.909 99.0639 34.5808 101.417 34.5808V32.5808ZM111.546 22.5019C111.546 28.0532 107.006 32.5808 101.417 32.5808V34.5808C108.102 34.5808 113.546 29.1661 113.546 22.5019H111.546ZM109.591 16.5536C110.82 18.2263 111.546 20.2822 111.546 22.5019H113.546C113.546 19.8385 112.673 17.371 111.203 15.3698L109.591 16.5536Z" fill="#FEFEFA" mask="url(#path-4-outside-2_123_205)"/>
<mask id="path-6-outside-3_123_205" maskUnits="userSpaceOnUse" x="3" y="53" width="119" height="16" fill="black">
<rect fill="white" x="3" y="53" width="119" height="16"/>
<path d="M4.309 55.44C4.309 55.0773 4.38833 54.7883 4.547 54.573C4.70567 54.3577 4.94933 54.25 5.278 54.25C5.59533 54.25 5.839 54.3407 6.009 54.522C6.179 54.692 6.30933 54.8393 6.4 54.964L9.188 58.891L11.976 54.964C12.01 54.9073 12.0553 54.8393 12.112 54.76C12.18 54.6807 12.2593 54.6013 12.35 54.522C12.4407 54.4427 12.5483 54.3803 12.673 54.335C12.7977 54.2783 12.9393 54.25 13.098 54.25C13.4267 54.25 13.6703 54.3577 13.829 54.573C13.9877 54.7883 14.067 55.0773 14.067 55.44V65.776C14.067 66.1613 13.9933 66.4787 13.846 66.728C13.71 66.966 13.4323 67.085 13.013 67.085C12.605 67.085 12.3273 66.966 12.18 66.728C12.044 66.4787 11.976 66.1613 11.976 65.776V58.585C11.67 59.0157 11.381 59.418 11.109 59.792C10.8483 60.166 10.5707 60.5683 10.276 60.999C10.1173 61.2143 9.95867 61.4013 9.8 61.56C9.64133 61.7073 9.43733 61.781 9.188 61.781C8.92733 61.781 8.71767 61.7073 8.559 61.56C8.41167 61.4127 8.25867 61.2257 8.1 60.999L6.4 58.585V65.776C6.4 66.1613 6.32633 66.4787 6.179 66.728C6.043 66.966 5.771 67.085 5.363 67.085C4.94367 67.085 4.66033 66.966 4.513 66.728C4.377 66.4787 4.309 66.1613 4.309 65.776V55.44ZM16.6942 62.784C16.4675 62.444 16.2862 62.121 16.1502 61.815C16.0255 61.509 15.9632 61.1407 15.9632 60.71C15.9632 60.336 16.0085 60.0017 16.0992 59.707C16.1898 59.4123 16.3428 59.1007 16.5582 58.772L18.5642 55.678C18.8475 55.2473 19.2045 54.9017 19.6352 54.641C20.0772 54.3803 20.5928 54.25 21.1822 54.25C21.7715 54.25 22.2815 54.3803 22.7122 54.641C23.1542 54.9017 23.5168 55.2473 23.8002 55.678L25.8062 58.772C26.0215 59.1007 26.1745 59.4123 26.2652 59.707C26.3558 59.9903 26.4012 60.3247 26.4012 60.71C26.4012 61.1407 26.3332 61.509 26.1972 61.815C26.0725 62.121 25.8968 62.444 25.6702 62.784L23.8172 65.623C23.5338 66.0423 23.1768 66.3937 22.7462 66.677C22.3268 66.949 21.8055 67.085 21.1822 67.085C20.5588 67.085 20.0318 66.949 19.6012 66.677C19.1818 66.3937 18.8305 66.0423 18.5472 65.623L16.6942 62.784ZM21.1822 64.994C21.3862 64.994 21.5562 64.943 21.6922 64.841C21.8395 64.739 21.9585 64.62 22.0492 64.484L23.9022 61.662C24.0268 61.4807 24.1232 61.3163 24.1912 61.169C24.2705 61.0103 24.3102 60.8573 24.3102 60.71C24.3102 60.5513 24.2875 60.4153 24.2422 60.302C24.2082 60.1887 24.1402 60.0527 24.0382 59.894L22.0492 56.834C21.9585 56.698 21.8338 56.5847 21.6752 56.494C21.5278 56.392 21.3635 56.341 21.1822 56.341C21.0008 56.341 20.8308 56.392 20.6722 56.494C20.5248 56.5847 20.4058 56.698 20.3152 56.834L18.3262 59.877C18.2242 60.0357 18.1505 60.1773 18.1052 60.302C18.0712 60.4153 18.0542 60.5513 18.0542 60.71C18.0542 60.8573 18.0882 61.0103 18.1562 61.169C18.2355 61.3163 18.3375 61.4807 18.4622 61.662L20.2982 64.467C20.3888 64.6143 20.5078 64.739 20.6552 64.841C20.8025 64.943 20.9782 64.994 21.1822 64.994ZM29.5903 67C29.1143 67 28.7799 66.9037 28.5873 66.711C28.3946 66.5183 28.2983 66.184 28.2983 65.708V55.627C28.2983 55.151 28.3946 54.8167 28.5873 54.624C28.7799 54.4313 29.1143 54.335 29.5903 54.335H32.3273C32.9959 54.335 33.5229 54.471 33.9083 54.743C34.3049 55.0037 34.6393 55.4173 34.9113 55.984L36.3223 58.874C36.4583 59.1573 36.5659 59.4407 36.6453 59.724C36.7246 60.0073 36.7643 60.3247 36.7643 60.676C36.7643 60.948 36.7303 61.2313 36.6623 61.526C36.5943 61.8207 36.4809 62.1323 36.3223 62.461L34.9113 65.351C34.6279 65.929 34.2936 66.3483 33.9083 66.609C33.5229 66.8697 33.0016 67 32.3443 67H29.5903ZM30.3893 64.909H32.1573C32.3839 64.909 32.5596 64.875 32.6843 64.807C32.8203 64.739 32.9506 64.586 33.0753 64.348L34.3333 61.764C34.4239 61.5827 34.5033 61.407 34.5713 61.237C34.6393 61.0557 34.6733 60.863 34.6733 60.659C34.6733 60.455 34.6393 60.268 34.5713 60.098C34.5033 59.9167 34.4239 59.7353 34.3333 59.554L33.0753 56.987C32.9506 56.749 32.8203 56.596 32.6843 56.528C32.5596 56.46 32.3839 56.426 32.1573 56.426H30.3893V64.909ZM39.9662 67C39.4902 67 39.1559 66.9037 38.9632 66.711C38.7706 66.5183 38.6742 66.184 38.6742 65.708V55.627C38.6742 55.151 38.7706 54.8167 38.9632 54.624C39.1559 54.4313 39.4902 54.335 39.9662 54.335H45.2022C45.5876 54.335 45.8992 54.4087 46.1372 54.556C46.3866 54.692 46.5112 54.9697 46.5112 55.389C46.5112 55.797 46.3866 56.0747 46.1372 56.222C45.8992 56.358 45.5876 56.426 45.2022 56.426H40.7652V59.265H43.7742C44.1596 59.265 44.4712 59.3387 44.7092 59.486C44.9586 59.622 45.0832 59.8997 45.0832 60.319C45.0832 60.727 44.9586 61.0047 44.7092 61.152C44.4712 61.288 44.1596 61.356 43.7742 61.356H40.7652V64.909H45.2022C45.5876 64.909 45.8992 64.9827 46.1372 65.13C46.3866 65.266 46.5112 65.5437 46.5112 65.963C46.5112 66.371 46.3866 66.6487 46.1372 66.796C45.8992 66.932 45.5876 67 45.2022 67H39.9662ZM49.4789 67C49.0029 67 48.6686 66.9037 48.4759 66.711C48.2833 66.5183 48.1869 66.184 48.1869 65.708V55.559C48.1869 55.1737 48.2663 54.862 48.4249 54.624C48.5949 54.3747 48.8669 54.25 49.2409 54.25C49.6036 54.25 49.8643 54.3747 50.0229 54.624C50.1929 54.862 50.2779 55.1737 50.2779 55.559V64.909H54.0689C54.4543 64.909 54.7659 64.9827 55.0039 65.13C55.2533 65.266 55.3779 65.538 55.3779 65.946C55.3779 66.3653 55.2533 66.6487 55.0039 66.796C54.7659 66.932 54.4543 67 54.0689 67H49.4789ZM57.6266 67C57.2412 67 56.9239 66.932 56.6746 66.796C56.4366 66.6487 56.3176 66.371 56.3176 65.963C56.3176 65.5437 56.4366 65.266 56.6746 65.13C56.9239 64.9827 57.2412 64.909 57.6266 64.909H58.9356V56.426H57.6266C57.2412 56.426 56.9239 56.358 56.6746 56.222C56.4366 56.0747 56.3176 55.797 56.3176 55.389C56.3176 54.9697 56.4366 54.692 56.6746 54.556C56.9239 54.4087 57.2412 54.335 57.6266 54.335H62.3356C62.7209 54.335 63.0326 54.4087 63.2706 54.556C63.5199 54.692 63.6446 54.9697 63.6446 55.389C63.6446 55.797 63.5199 56.0747 63.2706 56.222C63.0326 56.358 62.7209 56.426 62.3356 56.426H61.0266V64.909H62.3356C62.7209 64.909 63.0326 64.9827 63.2706 65.13C63.5199 65.266 63.6446 65.5437 63.6446 65.963C63.6446 66.371 63.5199 66.6487 63.2706 66.796C63.0326 66.932 62.7209 67 62.3356 67H57.6266ZM65.3861 55.593C65.3861 55.2077 65.4541 54.8903 65.5901 54.641C65.7375 54.3803 65.9981 54.25 66.3721 54.25C66.5535 54.25 66.7121 54.2783 66.8481 54.335C66.9841 54.3917 67.1088 54.4823 67.2221 54.607C67.3355 54.7203 67.4431 54.8677 67.5451 55.049C67.6585 55.2303 67.7831 55.4457 67.9191 55.695L71.5571 62.138V55.559C71.5571 55.1737 71.6251 54.862 71.7611 54.624C71.9085 54.3747 72.1918 54.25 72.6111 54.25C73.0191 54.25 73.2911 54.3747 73.4271 54.624C73.5745 54.862 73.6481 55.1737 73.6481 55.559V65.742C73.6481 66.1273 73.5745 66.4503 73.4271 66.711C73.2911 66.9603 73.0361 67.085 72.6621 67.085C72.4921 67.085 72.3448 67.0623 72.2201 67.017C72.1068 66.9717 71.9935 66.898 71.8801 66.796C71.7668 66.6827 71.6478 66.5353 71.5231 66.354C71.4098 66.1613 71.2738 65.9233 71.1151 65.64L67.4771 59.197V65.776C67.4771 66.1613 67.4035 66.4787 67.2561 66.728C67.1201 66.966 66.8481 67.085 66.4401 67.085C66.0208 67.085 65.7375 66.966 65.5901 66.728C65.4541 66.4787 65.3861 66.1613 65.3861 65.776V55.593ZM79.9662 67C79.3088 67 78.7875 66.8697 78.4022 66.609C78.0168 66.3483 77.6825 65.929 77.3992 65.351L75.9882 62.461C75.8295 62.1323 75.7162 61.8207 75.6482 61.526C75.5802 61.2313 75.5462 60.948 75.5462 60.676C75.5462 60.3247 75.5858 60.0073 75.6652 59.724C75.7445 59.4407 75.8522 59.1573 75.9882 58.874L77.3992 55.984C77.6712 55.4173 77.9998 55.0037 78.3852 54.743C78.7818 54.471 79.3088 54.335 79.9662 54.335H83.4002C83.7855 54.335 84.0972 54.4087 84.3352 54.556C84.5845 54.692 84.7092 54.964 84.7092 55.372C84.7092 55.7913 84.5845 56.0747 84.3352 56.222C84.0972 56.358 83.7855 56.426 83.4002 56.426H80.1532C79.9265 56.426 79.7452 56.46 79.6092 56.528C79.4845 56.596 79.3598 56.749 79.2352 56.987L77.9772 59.554C77.8865 59.7353 77.8072 59.9167 77.7392 60.098C77.6712 60.268 77.6372 60.455 77.6372 60.659C77.6372 60.863 77.6712 61.0557 77.7392 61.237C77.8072 61.407 77.8865 61.5827 77.9772 61.764L79.2352 64.348C79.3598 64.586 79.4845 64.739 79.6092 64.807C79.7452 64.875 79.9265 64.909 80.1532 64.909H81.8022C82.0628 64.909 82.2498 64.8523 82.3632 64.739C82.4765 64.6257 82.5332 64.4443 82.5332 64.195V62.461H81.4622C81.0768 62.461 80.7595 62.393 80.5102 62.257C80.2722 62.1097 80.1532 61.832 80.1532 61.424C80.1532 61.0047 80.2722 60.727 80.5102 60.591C80.7595 60.4437 81.0768 60.37 81.4622 60.37H83.3322C83.8082 60.37 84.1425 60.4663 84.3352 60.659C84.5278 60.8517 84.6242 61.186 84.6242 61.662V64.229C84.6242 64.6597 84.5562 65.045 84.4202 65.385C84.2842 65.725 84.0915 66.014 83.8422 66.252C83.5928 66.49 83.2925 66.677 82.9412 66.813C82.6012 66.9377 82.2215 67 81.8022 67H79.9662ZM93.8492 62.308H96.9092L95.3792 58.007L93.8492 62.308ZM92.4552 66.201C92.3532 66.4843 92.2229 66.7053 92.0642 66.864C91.9055 67.0227 91.7015 67.102 91.4522 67.102C91.0669 67.102 90.7835 66.9943 90.6022 66.779C90.4322 66.5637 90.3472 66.3427 90.3472 66.116C90.3472 66.0027 90.3585 65.895 90.3812 65.793C90.4152 65.6797 90.4549 65.5607 90.5002 65.436L94.1552 55.321C94.2572 55.0263 94.3989 54.777 94.5802 54.573C94.7729 54.3577 95.0392 54.25 95.3792 54.25C95.7192 54.25 95.9799 54.3577 96.1612 54.573C96.3539 54.777 96.5012 55.0263 96.6032 55.321L100.258 65.436C100.304 65.5607 100.338 65.6797 100.36 65.793C100.394 65.895 100.411 66.0027 100.411 66.116C100.411 66.3427 100.321 66.5637 100.139 66.779C99.9692 66.9943 99.6915 67.102 99.3062 67.102C99.0569 67.102 98.8529 67.0227 98.6942 66.864C98.5355 66.7053 98.4052 66.4843 98.3032 66.201L97.6572 64.399H93.1012L92.4552 66.201ZM107.229 59.707C107.58 59.707 107.824 59.639 107.96 59.503C108.096 59.3557 108.164 59.112 108.164 58.772V57.344C108.164 57.004 108.09 56.766 107.943 56.63C107.807 56.494 107.569 56.426 107.229 56.426H104.084V59.707H107.229ZM104.084 65.776C104.084 66.1613 104.01 66.4787 103.863 66.728C103.727 66.966 103.455 67.085 103.047 67.085C102.627 67.085 102.344 66.966 102.197 66.728C102.061 66.4787 101.993 66.1613 101.993 65.776V55.627C101.993 55.151 102.089 54.8167 102.282 54.624C102.474 54.4313 102.809 54.335 103.285 54.335H107.178C107.654 54.335 108.09 54.3973 108.487 54.522C108.895 54.6467 109.246 54.8733 109.541 55.202C109.688 55.3833 109.807 55.5533 109.898 55.712C110 55.8707 110.073 56.035 110.119 56.205C110.175 56.375 110.209 56.5563 110.221 56.749C110.243 56.9303 110.255 57.1287 110.255 57.344V58.704C110.255 59.146 110.209 59.537 110.119 59.877C110.039 60.217 109.847 60.5683 109.541 60.931C109.246 61.2597 108.895 61.4863 108.487 61.611C108.09 61.7357 107.654 61.798 107.178 61.798H104.084V65.776ZM117.273 59.707C117.624 59.707 117.868 59.639 118.004 59.503C118.14 59.3557 118.208 59.112 118.208 58.772V57.344C118.208 57.004 118.134 56.766 117.987 56.63C117.851 56.494 117.613 56.426 117.273 56.426H114.128V59.707H117.273ZM114.128 65.776C114.128 66.1613 114.054 66.4787 113.907 66.728C113.771 66.966 113.499 67.085 113.091 67.085C112.671 67.085 112.388 66.966 112.241 66.728C112.105 66.4787 112.037 66.1613 112.037 65.776V55.627C112.037 55.151 112.133 54.8167 112.326 54.624C112.518 54.4313 112.853 54.335 113.329 54.335H117.222C117.698 54.335 118.134 54.3973 118.531 54.522C118.939 54.6467 119.29 54.8733 119.585 55.202C119.732 55.3833 119.851 55.5533 119.942 55.712C120.044 55.8707 120.117 56.035 120.163 56.205C120.219 56.375 120.253 56.5563 120.265 56.749C120.287 56.9303 120.299 57.1287 120.299 57.344V58.704C120.299 59.146 120.253 59.537 120.163 59.877C120.083 60.217 119.891 60.5683 119.585 60.931C119.29 61.2597 118.939 61.4863 118.531 61.611C118.134 61.7357 117.698 61.798 117.222 61.798H114.128V65.776Z"/>
</mask>
<path d="M4.309 55.44C4.309 55.0773 4.38833 54.7883 4.547 54.573C4.70567 54.3577 4.94933 54.25 5.278 54.25C5.59533 54.25 5.839 54.3407 6.009 54.522C6.179 54.692 6.30933 54.8393 6.4 54.964L9.188 58.891L11.976 54.964C12.01 54.9073 12.0553 54.8393 12.112 54.76C12.18 54.6807 12.2593 54.6013 12.35 54.522C12.4407 54.4427 12.5483 54.3803 12.673 54.335C12.7977 54.2783 12.9393 54.25 13.098 54.25C13.4267 54.25 13.6703 54.3577 13.829 54.573C13.9877 54.7883 14.067 55.0773 14.067 55.44V65.776C14.067 66.1613 13.9933 66.4787 13.846 66.728C13.71 66.966 13.4323 67.085 13.013 67.085C12.605 67.085 12.3273 66.966 12.18 66.728C12.044 66.4787 11.976 66.1613 11.976 65.776V58.585C11.67 59.0157 11.381 59.418 11.109 59.792C10.8483 60.166 10.5707 60.5683 10.276 60.999C10.1173 61.2143 9.95867 61.4013 9.8 61.56C9.64133 61.7073 9.43733 61.781 9.188 61.781C8.92733 61.781 8.71767 61.7073 8.559 61.56C8.41167 61.4127 8.25867 61.2257 8.1 60.999L6.4 58.585V65.776C6.4 66.1613 6.32633 66.4787 6.179 66.728C6.043 66.966 5.771 67.085 5.363 67.085C4.94367 67.085 4.66033 66.966 4.513 66.728C4.377 66.4787 4.309 66.1613 4.309 65.776V55.44ZM16.6942 62.784C16.4675 62.444 16.2862 62.121 16.1502 61.815C16.0255 61.509 15.9632 61.1407 15.9632 60.71C15.9632 60.336 16.0085 60.0017 16.0992 59.707C16.1898 59.4123 16.3428 59.1007 16.5582 58.772L18.5642 55.678C18.8475 55.2473 19.2045 54.9017 19.6352 54.641C20.0772 54.3803 20.5928 54.25 21.1822 54.25C21.7715 54.25 22.2815 54.3803 22.7122 54.641C23.1542 54.9017 23.5168 55.2473 23.8002 55.678L25.8062 58.772C26.0215 59.1007 26.1745 59.4123 26.2652 59.707C26.3558 59.9903 26.4012 60.3247 26.4012 60.71C26.4012 61.1407 26.3332 61.509 26.1972 61.815C26.0725 62.121 25.8968 62.444 25.6702 62.784L23.8172 65.623C23.5338 66.0423 23.1768 66.3937 22.7462 66.677C22.3268 66.949 21.8055 67.085 21.1822 67.085C20.5588 67.085 20.0318 66.949 19.6012 66.677C19.1818 66.3937 18.8305 66.0423 18.5472 65.623L16.6942 62.784ZM21.1822 64.994C21.3862 64.994 21.5562 64.943 21.6922 64.841C21.8395 64.739 21.9585 64.62 22.0492 64.484L23.9022 61.662C24.0268 61.4807 24.1232 61.3163 24.1912 61.169C24.2705 61.0103 24.3102 60.8573 24.3102 60.71C24.3102 60.5513 24.2875 60.4153 24.2422 60.302C24.2082 60.1887 24.1402 60.0527 24.0382 59.894L22.0492 56.834C21.9585 56.698 21.8338 56.5847 21.6752 56.494C21.5278 56.392 21.3635 56.341 21.1822 56.341C21.0008 56.341 20.8308 56.392 20.6722 56.494C20.5248 56.5847 20.4058 56.698 20.3152 56.834L18.3262 59.877C18.2242 60.0357 18.1505 60.1773 18.1052 60.302C18.0712 60.4153 18.0542 60.5513 18.0542 60.71C18.0542 60.8573 18.0882 61.0103 18.1562 61.169C18.2355 61.3163 18.3375 61.4807 18.4622 61.662L20.2982 64.467C20.3888 64.6143 20.5078 64.739 20.6552 64.841C20.8025 64.943 20.9782 64.994 21.1822 64.994ZM29.5903 67C29.1143 67 28.7799 66.9037 28.5873 66.711C28.3946 66.5183 28.2983 66.184 28.2983 65.708V55.627C28.2983 55.151 28.3946 54.8167 28.5873 54.624C28.7799 54.4313 29.1143 54.335 29.5903 54.335H32.3273C32.9959 54.335 33.5229 54.471 33.9083 54.743C34.3049 55.0037 34.6393 55.4173 34.9113 55.984L36.3223 58.874C36.4583 59.1573 36.5659 59.4407 36.6453 59.724C36.7246 60.0073 36.7643 60.3247 36.7643 60.676C36.7643 60.948 36.7303 61.2313 36.6623 61.526C36.5943 61.8207 36.4809 62.1323 36.3223 62.461L34.9113 65.351C34.6279 65.929 34.2936 66.3483 33.9083 66.609C33.5229 66.8697 33.0016 67 32.3443 67H29.5903ZM30.3893 64.909H32.1573C32.3839 64.909 32.5596 64.875 32.6843 64.807C32.8203 64.739 32.9506 64.586 33.0753 64.348L34.3333 61.764C34.4239 61.5827 34.5033 61.407 34.5713 61.237C34.6393 61.0557 34.6733 60.863 34.6733 60.659C34.6733 60.455 34.6393 60.268 34.5713 60.098C34.5033 59.9167 34.4239 59.7353 34.3333 59.554L33.0753 56.987C32.9506 56.749 32.8203 56.596 32.6843 56.528C32.5596 56.46 32.3839 56.426 32.1573 56.426H30.3893V64.909ZM39.9662 67C39.4902 67 39.1559 66.9037 38.9632 66.711C38.7706 66.5183 38.6742 66.184 38.6742 65.708V55.627C38.6742 55.151 38.7706 54.8167 38.9632 54.624C39.1559 54.4313 39.4902 54.335 39.9662 54.335H45.2022C45.5876 54.335 45.8992 54.4087 46.1372 54.556C46.3866 54.692 46.5112 54.9697 46.5112 55.389C46.5112 55.797 46.3866 56.0747 46.1372 56.222C45.8992 56.358 45.5876 56.426 45.2022 56.426H40.7652V59.265H43.7742C44.1596 59.265 44.4712 59.3387 44.7092 59.486C44.9586 59.622 45.0832 59.8997 45.0832 60.319C45.0832 60.727 44.9586 61.0047 44.7092 61.152C44.4712 61.288 44.1596 61.356 43.7742 61.356H40.7652V64.909H45.2022C45.5876 64.909 45.8992 64.9827 46.1372 65.13C46.3866 65.266 46.5112 65.5437 46.5112 65.963C46.5112 66.371 46.3866 66.6487 46.1372 66.796C45.8992 66.932 45.5876 67 45.2022 67H39.9662ZM49.4789 67C49.0029 67 48.6686 66.9037 48.4759 66.711C48.2833 66.5183 48.1869 66.184 48.1869 65.708V55.559C48.1869 55.1737 48.2663 54.862 48.4249 54.624C48.5949 54.3747 48.8669 54.25 49.2409 54.25C49.6036 54.25 49.8643 54.3747 50.0229 54.624C50.1929 54.862 50.2779 55.1737 50.2779 55.559V64.909H54.0689C54.4543 64.909 54.7659 64.9827 55.0039 65.13C55.2533 65.266 55.3779 65.538 55.3779 65.946C55.3779 66.3653 55.2533 66.6487 55.0039 66.796C54.7659 66.932 54.4543 67 54.0689 67H49.4789ZM57.6266 67C57.2412 67 56.9239 66.932 56.6746 66.796C56.4366 66.6487 56.3176 66.371 56.3176 65.963C56.3176 65.5437 56.4366 65.266 56.6746 65.13C56.9239 64.9827 57.2412 64.909 57.6266 64.909H58.9356V56.426H57.6266C57.2412 56.426 56.9239 56.358 56.6746 56.222C56.4366 56.0747 56.3176 55.797 56.3176 55.389C56.3176 54.9697 56.4366 54.692 56.6746 54.556C56.9239 54.4087 57.2412 54.335 57.6266 54.335H62.3356C62.7209 54.335 63.0326 54.4087 63.2706 54.556C63.5199 54.692 63.6446 54.9697 63.6446 55.389C63.6446 55.797 63.5199 56.0747 63.2706 56.222C63.0326 56.358 62.7209 56.426 62.3356 56.426H61.0266V64.909H62.3356C62.7209 64.909 63.0326 64.9827 63.2706 65.13C63.5199 65.266 63.6446 65.5437 63.6446 65.963C63.6446 66.371 63.5199 66.6487 63.2706 66.796C63.0326 66.932 62.7209 67 62.3356 67H57.6266ZM65.3861 55.593C65.3861 55.2077 65.4541 54.8903 65.5901 54.641C65.7375 54.3803 65.9981 54.25 66.3721 54.25C66.5535 54.25 66.7121 54.2783 66.8481 54.335C66.9841 54.3917 67.1088 54.4823 67.2221 54.607C67.3355 54.7203 67.4431 54.8677 67.5451 55.049C67.6585 55.2303 67.7831 55.4457 67.9191 55.695L71.5571 62.138V55.559C71.5571 55.1737 71.6251 54.862 71.7611 54.624C71.9085 54.3747 72.1918 54.25 72.6111 54.25C73.0191 54.25 73.2911 54.3747 73.4271 54.624C73.5745 54.862 73.6481 55.1737 73.6481 55.559V65.742C73.6481 66.1273 73.5745 66.4503 73.4271 66.711C73.2911 66.9603 73.0361 67.085 72.6621 67.085C72.4921 67.085 72.3448 67.0623 72.2201 67.017C72.1068 66.9717 71.9935 66.898 71.8801 66.796C71.7668 66.6827 71.6478 66.5353 71.5231 66.354C71.4098 66.1613 71.2738 65.9233 71.1151 65.64L67.4771 59.197V65.776C67.4771 66.1613 67.4035 66.4787 67.2561 66.728C67.1201 66.966 66.8481 67.085 66.4401 67.085C66.0208 67.085 65.7375 66.966 65.5901 66.728C65.4541 66.4787 65.3861 66.1613 65.3861 65.776V55.593ZM79.9662 67C79.3088 67 78.7875 66.8697 78.4022 66.609C78.0168 66.3483 77.6825 65.929 77.3992 65.351L75.9882 62.461C75.8295 62.1323 75.7162 61.8207 75.6482 61.526C75.5802 61.2313 75.5462 60.948 75.5462 60.676C75.5462 60.3247 75.5858 60.0073 75.6652 59.724C75.7445 59.4407 75.8522 59.1573 75.9882 58.874L77.3992 55.984C77.6712 55.4173 77.9998 55.0037 78.3852 54.743C78.7818 54.471 79.3088 54.335 79.9662 54.335H83.4002C83.7855 54.335 84.0972 54.4087 84.3352 54.556C84.5845 54.692 84.7092 54.964 84.7092 55.372C84.7092 55.7913 84.5845 56.0747 84.3352 56.222C84.0972 56.358 83.7855 56.426 83.4002 56.426H80.1532C79.9265 56.426 79.7452 56.46 79.6092 56.528C79.4845 56.596 79.3598 56.749 79.2352 56.987L77.9772 59.554C77.8865 59.7353 77.8072 59.9167 77.7392 60.098C77.6712 60.268 77.6372 60.455 77.6372 60.659C77.6372 60.863 77.6712 61.0557 77.7392 61.237C77.8072 61.407 77.8865 61.5827 77.9772 61.764L79.2352 64.348C79.3598 64.586 79.4845 64.739 79.6092 64.807C79.7452 64.875 79.9265 64.909 80.1532 64.909H81.8022C82.0628 64.909 82.2498 64.8523 82.3632 64.739C82.4765 64.6257 82.5332 64.4443 82.5332 64.195V62.461H81.4622C81.0768 62.461 80.7595 62.393 80.5102 62.257C80.2722 62.1097 80.1532 61.832 80.1532 61.424C80.1532 61.0047 80.2722 60.727 80.5102 60.591C80.7595 60.4437 81.0768 60.37 81.4622 60.37H83.3322C83.8082 60.37 84.1425 60.4663 84.3352 60.659C84.5278 60.8517 84.6242 61.186 84.6242 61.662V64.229C84.6242 64.6597 84.5562 65.045 84.4202 65.385C84.2842 65.725 84.0915 66.014 83.8422 66.252C83.5928 66.49 83.2925 66.677 82.9412 66.813C82.6012 66.9377 82.2215 67 81.8022 67H79.9662ZM93.8492 62.308H96.9092L95.3792 58.007L93.8492 62.308ZM92.4552 66.201C92.3532 66.4843 92.2229 66.7053 92.0642 66.864C91.9055 67.0227 91.7015 67.102 91.4522 67.102C91.0669 67.102 90.7835 66.9943 90.6022 66.779C90.4322 66.5637 90.3472 66.3427 90.3472 66.116C90.3472 66.0027 90.3585 65.895 90.3812 65.793C90.4152 65.6797 90.4549 65.5607 90.5002 65.436L94.1552 55.321C94.2572 55.0263 94.3989 54.777 94.5802 54.573C94.7729 54.3577 95.0392 54.25 95.3792 54.25C95.7192 54.25 95.9799 54.3577 96.1612 54.573C96.3539 54.777 96.5012 55.0263 96.6032 55.321L100.258 65.436C100.304 65.5607 100.338 65.6797 100.36 65.793C100.394 65.895 100.411 66.0027 100.411 66.116C100.411 66.3427 100.321 66.5637 100.139 66.779C99.9692 66.9943 99.6915 67.102 99.3062 67.102C99.0569 67.102 98.8529 67.0227 98.6942 66.864C98.5355 66.7053 98.4052 66.4843 98.3032 66.201L97.6572 64.399H93.1012L92.4552 66.201ZM107.229 59.707C107.58 59.707 107.824 59.639 107.96 59.503C108.096 59.3557 108.164 59.112 108.164 58.772V57.344C108.164 57.004 108.09 56.766 107.943 56.63C107.807 56.494 107.569 56.426 107.229 56.426H104.084V59.707H107.229ZM104.084 65.776C104.084 66.1613 104.01 66.4787 103.863 66.728C103.727 66.966 103.455 67.085 103.047 67.085C102.627 67.085 102.344 66.966 102.197 66.728C102.061 66.4787 101.993 66.1613 101.993 65.776V55.627C101.993 55.151 102.089 54.8167 102.282 54.624C102.474 54.4313 102.809 54.335 103.285 54.335H107.178C107.654 54.335 108.09 54.3973 108.487 54.522C108.895 54.6467 109.246 54.8733 109.541 55.202C109.688 55.3833 109.807 55.5533 109.898 55.712C110 55.8707 110.073 56.035 110.119 56.205C110.175 56.375 110.209 56.5563 110.221 56.749C110.243 56.9303 110.255 57.1287 110.255 57.344V58.704C110.255 59.146 110.209 59.537 110.119 59.877C110.039 60.217 109.847 60.5683 109.541 60.931C109.246 61.2597 108.895 61.4863 108.487 61.611C108.09 61.7357 107.654 61.798 107.178 61.798H104.084V65.776ZM117.273 59.707C117.624 59.707 117.868 59.639 118.004 59.503C118.14 59.3557 118.208 59.112 118.208 58.772V57.344C118.208 57.004 118.134 56.766 117.987 56.63C117.851 56.494 117.613 56.426 117.273 56.426H114.128V59.707H117.273ZM114.128 65.776C114.128 66.1613 114.054 66.4787 113.907 66.728C113.771 66.966 113.499 67.085 113.091 67.085C112.671 67.085 112.388 66.966 112.241 66.728C112.105 66.4787 112.037 66.1613 112.037 65.776V55.627C112.037 55.151 112.133 54.8167 112.326 54.624C112.518 54.4313 112.853 54.335 113.329 54.335H117.222C117.698 54.335 118.134 54.3973 118.531 54.522C118.939 54.6467 119.29 54.8733 119.585 55.202C119.732 55.3833 119.851 55.5533 119.942 55.712C120.044 55.8707 120.117 56.035 120.163 56.205C120.219 56.375 120.253 56.5563 120.265 56.749C120.287 56.9303 120.299 57.1287 120.299 57.344V58.704C120.299 59.146 120.253 59.537 120.163 59.877C120.083 60.217 119.891 60.5683 119.585 60.931C119.29 61.2597 118.939 61.4863 118.531 61.611C118.134 61.7357 117.698 61.798 117.222 61.798H114.128V65.776Z" fill="#1C1C1C"/>
<path d="M4.547 54.573L5.35206 55.1662L5.35206 55.1662L4.547 54.573ZM6.009 54.522L5.27946 55.2059L5.29049 55.2177L5.30189 55.2291L6.009 54.522ZM6.4 54.964L7.21545 54.3851L7.20874 54.3758L6.4 54.964ZM9.188 58.891L8.3726 59.4699L9.188 60.6184L10.0034 59.4699L9.188 58.891ZM11.976 54.964L12.7914 55.5429L12.8137 55.5115L12.8335 55.4785L11.976 54.964ZM12.112 54.76L11.3527 54.1092L11.324 54.1428L11.2983 54.1788L12.112 54.76ZM12.35 54.522L13.0085 55.2746L13.0085 55.2746L12.35 54.522ZM12.673 54.335L13.0147 55.2748L13.0513 55.2615L13.0868 55.2454L12.673 54.335ZM13.829 54.573L13.0239 55.1662L13.0239 55.1662L13.829 54.573ZM13.846 66.728L12.9851 66.2193L12.9814 66.2255L12.9778 66.2319L13.846 66.728ZM12.18 66.728L11.3021 67.2069L11.3153 67.231L11.3297 67.2544L12.18 66.728ZM11.976 58.585H12.976V55.4511L11.1608 58.0058L11.976 58.585ZM11.109 59.792L10.3003 59.2038L10.2944 59.212L10.2886 59.2202L11.109 59.792ZM10.276 60.999L11.0811 61.5922L11.0914 61.5781L11.1013 61.5637L10.276 60.999ZM9.8 61.56L10.4805 62.2928L10.494 62.2802L10.5071 62.2671L9.8 61.56ZM8.559 61.56L7.85189 62.2671L7.86498 62.2802L7.87855 62.2928L8.559 61.56ZM8.1 60.999L8.91924 60.4255L8.91761 60.4232L8.1 60.999ZM6.4 58.585L7.21761 58.0092L5.4 55.4282V58.585H6.4ZM6.179 66.728L5.31807 66.2193L5.31437 66.2255L5.31076 66.2319L6.179 66.728ZM4.513 66.728L3.6351 67.2069L3.64827 67.231L3.66273 67.2544L4.513 66.728ZM5.309 55.44C5.309 55.216 5.35818 55.1579 5.35206 55.1662L3.74194 53.9798C3.41848 54.4188 3.309 54.9387 3.309 55.44H5.309ZM5.35206 55.1662C5.34227 55.1795 5.32763 55.1957 5.30797 55.2115C5.2883 55.2273 5.2689 55.2384 5.25291 55.2454C5.22134 55.2594 5.22119 55.25 5.278 55.25V53.25C4.71294 53.25 4.13264 53.4496 3.74194 53.9798L5.35206 55.1662ZM5.278 55.25C5.34304 55.25 5.36134 55.2594 5.35002 55.2552C5.34396 55.253 5.3325 55.2479 5.31828 55.2386C5.30391 55.2291 5.2906 55.2178 5.27946 55.2059L6.73854 53.8381C6.33041 53.4027 5.7907 53.25 5.278 53.25V55.25ZM5.30189 55.2291C5.45296 55.3802 5.54333 55.4863 5.59126 55.5522L7.20874 54.3758C7.07533 54.1924 6.90504 54.0038 6.71611 53.8149L5.30189 55.2291ZM5.5846 55.5429L8.3726 59.4699L10.0034 58.3121L7.2154 54.3851L5.5846 55.5429ZM10.0034 59.4699L12.7914 55.5429L11.1606 54.3851L8.3726 58.3121L10.0034 59.4699ZM12.8335 55.4785C12.849 55.4526 12.878 55.408 12.9257 55.3412L11.2983 54.1788C11.2326 54.2706 11.171 54.3621 11.1185 54.4495L12.8335 55.4785ZM12.8713 55.4108C12.9039 55.3727 12.9485 55.3271 13.0085 55.2746L11.6915 53.7694C11.5702 53.8756 11.4561 53.9886 11.3527 54.1092L12.8713 55.4108ZM13.0085 55.2746C13.0036 55.2789 13.0001 55.281 12.9998 55.2812C12.9996 55.2813 13.004 55.2787 13.0147 55.2748L12.3313 53.3952C12.1021 53.4785 11.8842 53.6008 11.6915 53.7694L13.0085 55.2746ZM13.0868 55.2454C13.0815 55.2478 13.077 55.2494 13.0737 55.2505C13.0704 55.2515 13.0687 55.2519 13.0689 55.2518C13.0692 55.2518 13.0782 55.25 13.098 55.25V53.25C12.8191 53.25 12.5329 53.3002 12.2592 53.4246L13.0868 55.2454ZM13.098 55.25C13.1548 55.25 13.1547 55.2594 13.1231 55.2454C13.1071 55.2384 13.0877 55.2273 13.068 55.2115C13.0484 55.1957 13.0337 55.1795 13.0239 55.1662L14.6341 53.9798C14.2434 53.4496 13.6631 53.25 13.098 53.25V55.25ZM13.0239 55.1662C13.0178 55.1579 13.067 55.216 13.067 55.44H15.067C15.067 54.9387 14.9575 54.4188 14.6341 53.9798L13.0239 55.1662ZM13.067 55.44V65.776H15.067V55.44H13.067ZM13.067 65.776C13.067 66.0397 13.0161 66.1668 12.9851 66.2193L14.7069 67.2367C14.9706 66.7905 15.067 66.283 15.067 65.776H13.067ZM12.9778 66.2319C12.9999 66.1932 13.0296 66.1569 13.0641 66.1271C13.0978 66.0981 13.1268 66.083 13.1418 66.0766C13.1558 66.0706 13.155 66.0731 13.1326 66.077C13.1102 66.0808 13.0715 66.085 13.013 66.085V68.085C13.5858 68.085 14.3176 67.9183 14.7142 67.2241L12.9778 66.2319ZM13.013 66.085C12.9588 66.085 12.923 66.081 12.9024 66.0774C12.882 66.0739 12.8808 66.0715 12.8927 66.0766C12.9055 66.0821 12.9298 66.0947 12.9581 66.1185C12.987 66.1427 13.0117 66.1717 13.0303 66.2016L11.3297 67.2544C11.7345 67.9083 12.4308 68.085 13.013 68.085V66.085ZM13.0579 66.2491C13.0255 66.1898 12.976 66.0511 12.976 65.776H10.976C10.976 66.2716 11.0625 66.7676 11.3021 67.2069L13.0579 66.2491ZM12.976 65.776V58.585H10.976V65.776H12.976ZM11.1608 58.0058C10.8567 58.4339 10.5698 58.8332 10.3003 59.2038L11.9177 60.3802C12.1922 60.0028 12.4833 59.5975 12.7912 59.1642L11.1608 58.0058ZM10.2886 59.2202C10.0261 59.5969 9.74676 60.0016 9.45069 60.4343L11.1013 61.5637C11.3946 61.1351 11.6706 60.7351 11.9294 60.3638L10.2886 59.2202ZM9.47094 60.4058C9.33656 60.5882 9.21014 60.7357 9.09289 60.8529L10.5071 62.2671C10.7072 62.067 10.8981 61.8405 11.0811 61.5922L9.47094 60.4058ZM9.11955 60.8272C9.12807 60.8193 9.13906 60.8107 9.15213 60.8027C9.1652 60.7948 9.17772 60.789 9.18836 60.7852C9.21024 60.7773 9.21392 60.781 9.188 60.781V62.781C9.64875 62.781 10.1088 62.6379 10.4805 62.2928L9.11955 60.8272ZM9.188 60.781C9.15147 60.781 9.14843 60.7759 9.16674 60.7823C9.17586 60.7855 9.18818 60.7909 9.20206 60.7992C9.216 60.8076 9.22869 60.8172 9.23945 60.8272L7.87855 62.2928C8.25853 62.6456 8.72933 62.781 9.188 62.781V60.781ZM9.26611 60.8529C9.17082 60.7576 9.05462 60.6189 8.91923 60.4255L7.28077 61.5725C7.46271 61.8324 7.65251 62.0677 7.85189 62.2671L9.26611 60.8529ZM8.91761 60.4232L7.21761 58.0092L5.58239 59.1608L7.28239 61.5748L8.91761 60.4232ZM5.4 58.585V65.776H7.4V58.585H5.4ZM5.4 65.776C5.4 66.0397 5.34905 66.1668 5.31807 66.2193L7.03993 67.2367C7.30362 66.7905 7.4 66.283 7.4 65.776H5.4ZM5.31076 66.2319C5.33129 66.1959 5.35936 66.161 5.393 66.1316C5.42598 66.1027 5.4553 66.087 5.47218 66.0796C5.488 66.0727 5.4899 66.0744 5.47112 66.0777C5.45219 66.081 5.41732 66.085 5.363 66.085V68.085C5.93833 68.085 6.65511 67.9104 7.04724 67.2241L5.31076 66.2319ZM5.363 66.085C5.30461 66.085 5.265 66.0808 5.24098 66.0767C5.21707 66.0727 5.21318 66.0695 5.22323 66.0738C5.2342 66.0784 5.25824 66.0903 5.28719 66.1143C5.31684 66.1389 5.34311 66.1691 5.36327 66.2016L3.66273 67.2544C4.07222 67.9158 4.78258 68.085 5.363 68.085V66.085ZM5.3909 66.2491C5.35851 66.1898 5.309 66.0511 5.309 65.776H3.309C3.309 66.2716 3.39549 66.7676 3.6351 67.2069L5.3909 66.2491ZM5.309 65.776V55.44H3.309V65.776H5.309ZM16.6942 62.784L17.5316 62.2374L17.5262 62.2293L16.6942 62.784ZM16.1502 61.815L15.2241 62.1923L15.23 62.2068L15.2364 62.2211L16.1502 61.815ZM16.5582 58.772L17.3946 59.32L17.3972 59.316L16.5582 58.772ZM18.5642 55.678L17.7287 55.1284L17.7251 55.134L18.5642 55.678ZM19.6352 54.641L19.1271 53.7796L19.1174 53.7855L19.6352 54.641ZM22.7122 54.641L22.1943 55.4966L22.2042 55.5024L22.7122 54.641ZM23.8002 55.678L24.6393 55.134L24.6356 55.1284L23.8002 55.678ZM25.8062 58.772L24.9671 59.316L24.9697 59.32L25.8062 58.772ZM26.2652 59.707L25.3093 60.0011L25.3127 60.0118L26.2652 59.707ZM26.1972 61.815L25.2834 61.4089L25.277 61.4232L25.2711 61.4377L26.1972 61.815ZM25.6702 62.784L24.8381 62.2293L24.8328 62.2374L25.6702 62.784ZM23.8172 65.623L24.6458 66.1829L24.6502 66.1763L24.6546 66.1696L23.8172 65.623ZM22.7462 66.677L23.2904 67.516L23.2958 67.5124L22.7462 66.677ZM19.6012 66.677L19.0413 67.5056L19.0541 67.5142L19.0672 67.5225L19.6012 66.677ZM18.5472 65.623L17.7098 66.1696L17.7141 66.1763L17.7186 66.1829L18.5472 65.623ZM21.6922 64.841L21.123 64.0188L21.1073 64.0296L21.0922 64.041L21.6922 64.841ZM22.0492 64.484L22.8812 65.0387L22.8851 65.0329L22.0492 64.484ZM23.9022 61.662L23.0781 61.0955L23.0721 61.1042L23.0663 61.1131L23.9022 61.662ZM24.1912 61.169L23.2967 60.7218L23.2898 60.7358L23.2832 60.7499L24.1912 61.169ZM24.2422 60.302L23.2843 60.5893L23.2971 60.632L23.3137 60.6734L24.2422 60.302ZM24.0382 59.894L24.8794 59.3532L24.8766 59.349L24.0382 59.894ZM22.0492 56.834L22.8877 56.289L22.8812 56.2793L22.0492 56.834ZM21.6752 56.494L21.106 57.3162L21.1415 57.3408L21.179 57.3622L21.6752 56.494ZM20.6722 56.494L21.1963 57.3457L21.2046 57.3405L21.2129 57.3352L20.6722 56.494ZM20.3152 56.834L19.4831 56.2793L19.4781 56.2869L20.3152 56.834ZM18.3262 59.877L17.4891 59.3299L17.485 59.3362L18.3262 59.877ZM18.1052 60.302L17.1654 59.9603L17.1556 59.9872L17.1473 60.0147L18.1052 60.302ZM18.1562 61.169L17.237 61.5629L17.2546 61.6039L17.2757 61.6431L18.1562 61.169ZM18.4622 61.662L19.2989 61.1143L19.2926 61.1048L19.2862 61.0955L18.4622 61.662ZM20.2982 64.467L21.1498 63.9429L21.1425 63.931L21.1349 63.9193L20.2982 64.467ZM20.6552 64.841L21.2244 64.0188L21.2244 64.0188L20.6552 64.841ZM17.5262 62.2293C17.3244 61.9265 17.1726 61.6533 17.064 61.4089L15.2364 62.2211C15.3997 62.5887 15.6106 62.9614 15.8621 63.3387L17.5262 62.2293ZM17.0763 61.4377C17.0127 61.2818 16.9632 61.0487 16.9632 60.71H14.9632C14.9632 61.2327 15.0382 61.7362 15.2241 62.1923L17.0763 61.4377ZM16.9632 60.71C16.9632 60.4152 16.9991 60.1827 17.0549 60.0011L15.1434 59.4129C15.0179 59.8206 14.9632 60.2568 14.9632 60.71H16.9632ZM17.0549 60.0011C17.1116 59.8169 17.2174 59.5905 17.3946 59.32L15.7217 58.224C15.4682 58.6108 15.2681 59.0077 15.1434 59.4129L17.0549 60.0011ZM17.3972 59.316L19.4032 56.222L17.7251 55.134L15.7191 58.228L17.3972 59.316ZM19.3996 56.2276C19.6032 55.9182 19.8527 55.6782 20.153 55.4965L19.1174 53.7855C18.5563 54.1251 18.0918 54.5765 17.7287 55.1284L19.3996 56.2276ZM20.1431 55.5024C20.4096 55.3452 20.7445 55.25 21.1822 55.25V53.25C20.4411 53.25 19.7448 53.4154 19.1272 53.7796L20.1431 55.5024ZM21.1822 55.25C21.6205 55.25 21.9448 55.3455 22.1944 55.4965L23.23 53.7855C22.6182 53.4152 21.9225 53.25 21.1822 53.25V55.25ZM22.2042 55.5024C22.514 55.6851 22.7649 55.9239 22.9647 56.2276L24.6356 55.1284C24.2687 54.5708 23.7943 54.1182 23.2201 53.7796L22.2042 55.5024ZM22.9611 56.222L24.9671 59.316L26.6452 58.228L24.6392 55.134L22.9611 56.222ZM24.9697 59.32C25.1469 59.5905 25.2527 59.8169 25.3094 60.0011L27.2209 59.4129C27.0963 59.0077 26.8961 58.6108 26.6426 58.224L24.9697 59.32ZM25.3127 60.0118C25.3642 60.1724 25.4012 60.3993 25.4012 60.71H27.4012C27.4012 60.2501 27.3475 59.8082 27.2176 59.4022L25.3127 60.0118ZM25.4012 60.71C25.4012 61.0392 25.3487 61.2617 25.2834 61.4089L27.111 62.2211C27.3176 61.7563 27.4012 61.2421 27.4012 60.71H25.4012ZM25.2711 61.4377C25.1768 61.669 25.0359 61.9326 24.8381 62.2293L26.5022 63.3387C26.7577 62.9554 26.9682 62.573 27.1233 62.1923L25.2711 61.4377ZM24.8328 62.2374L22.9798 65.0764L24.6546 66.1696L26.5076 63.3306L24.8328 62.2374ZM22.9886 65.0631C22.7805 65.371 22.5191 65.6294 22.1965 65.8416L23.2958 67.5124C23.8346 67.1579 24.2871 66.7136 24.6458 66.1829L22.9886 65.0631ZM22.202 65.838C21.9805 65.9817 21.6601 66.085 21.1822 66.085V68.085C21.9509 68.085 22.6731 67.9163 23.2904 67.516L22.202 65.838ZM21.1822 66.085C20.7054 66.085 20.3736 65.9821 20.1352 65.8315L19.0672 67.5225C19.6901 67.9159 20.4122 68.085 21.1822 68.085V66.085ZM20.161 65.8484C19.8476 65.6367 19.5875 65.3765 19.3758 65.0631L17.7186 66.1829C18.0735 66.7081 18.516 67.1507 19.0413 67.5056L20.161 65.8484ZM19.3846 65.0764L17.5316 62.2374L15.8568 63.3306L17.7098 66.1696L19.3846 65.0764ZM21.1822 65.994C21.558 65.994 21.9506 65.8972 22.2922 65.641L21.0922 64.041C21.1224 64.0183 21.1526 64.0047 21.1753 63.9979C21.1962 63.9916 21.2011 63.994 21.1822 63.994V65.994ZM22.2614 65.6632C22.5024 65.4963 22.7141 65.2893 22.8812 65.0387L21.2171 63.9293C21.2029 63.9507 21.1766 63.9817 21.123 64.0188L22.2614 65.6632ZM22.8851 65.0329L24.7381 62.2109L23.0663 61.1131L21.2133 63.9351L22.8851 65.0329ZM24.7262 62.2285C24.8725 62.0158 25.0007 61.8013 25.0991 61.5881L23.2832 60.7499C23.2456 60.8314 23.1812 60.9456 23.0781 61.0955L24.7262 62.2285ZM25.0856 61.6162C25.2203 61.3467 25.3102 61.0411 25.3102 60.71H23.3102C23.3102 60.6931 23.3125 60.6838 23.3124 60.6843C23.3122 60.6853 23.3088 60.6976 23.2967 60.7218L25.0856 61.6162ZM25.3102 60.71C25.3102 60.4604 25.2751 60.1916 25.1706 59.9306L23.3137 60.6734C23.3065 60.6554 23.3058 60.6473 23.3068 60.6534C23.3078 60.6597 23.3102 60.6777 23.3102 60.71H25.3102ZM25.2 60.0147C25.1281 59.775 25.0057 59.5498 24.8793 59.3532L23.197 60.4348C23.233 60.4907 23.2566 60.5329 23.2712 60.5622C23.2864 60.5925 23.2877 60.6006 23.2843 60.5893L25.2 60.0147ZM24.8766 59.349L22.8876 56.289L21.2107 57.379L23.1997 60.439L24.8766 59.349ZM22.8812 56.2793C22.6947 55.9996 22.4487 55.7843 22.1713 55.6258L21.179 57.3622C21.2003 57.3744 21.211 57.3833 21.215 57.3869C21.2187 57.3903 21.2185 57.3908 21.2171 57.3887L22.8812 56.2793ZM22.2444 55.6718C21.9277 55.4526 21.5643 55.341 21.1822 55.341V57.341C21.1778 57.341 21.1639 57.3402 21.145 57.3343C21.126 57.3284 21.1124 57.3207 21.106 57.3162L22.2444 55.6718ZM21.1822 55.341C20.8011 55.341 20.4445 55.4515 20.1314 55.6528L21.2129 57.3352C21.2186 57.3315 21.216 57.3341 21.206 57.3371C21.2015 57.3384 21.1966 57.3395 21.1919 57.3402C21.1873 57.3409 21.1839 57.341 21.1822 57.341V55.341ZM20.1481 55.6423C19.8852 55.8041 19.6584 56.0163 19.4831 56.2793L21.1472 57.3887C21.1532 57.3797 21.1645 57.3652 21.1963 57.3457L20.1481 55.6423ZM19.4781 56.2869L17.4891 59.3299L19.1632 60.4241L21.1522 57.3811L19.4781 56.2869ZM17.485 59.3362C17.3582 59.5335 17.2442 59.7434 17.1654 59.9603L19.045 60.6437C19.0568 60.6113 19.0902 60.5378 19.1673 60.4178L17.485 59.3362ZM17.1473 60.0147C17.0777 60.2468 17.0542 60.4849 17.0542 60.71H19.0542C19.0542 60.6658 19.0566 60.6341 19.0592 60.613C19.0618 60.5919 19.0643 60.585 19.063 60.5893L17.1473 60.0147ZM17.0542 60.71C17.0542 61.014 17.1247 61.3009 17.237 61.5629L19.0753 60.7751C19.0516 60.7198 19.0542 60.7007 19.0542 60.71H17.0542ZM17.2757 61.6431C17.3765 61.8303 17.499 62.0261 17.6381 62.2285L19.2862 61.0955C19.176 60.9352 19.0945 60.8023 19.0366 60.6949L17.2757 61.6431ZM17.6255 62.2097L19.4615 65.0147L21.1349 63.9193L19.2989 61.1143L17.6255 62.2097ZM19.4465 64.9911C19.6123 65.2605 19.829 65.4853 20.086 65.6632L21.2244 64.0188C21.1866 63.9927 21.1654 63.9682 21.1498 63.9429L19.4465 64.9911ZM20.086 65.6632C20.423 65.8965 20.8039 65.994 21.1822 65.994V63.994C21.1638 63.994 21.1637 63.9918 21.1762 63.9954C21.1823 63.9972 21.1901 64 21.1991 64.0042C21.208 64.0084 21.2166 64.0134 21.2244 64.0188L20.086 65.6632ZM28.5873 66.711L27.8802 67.4181L27.8802 67.4181L28.5873 66.711ZM28.5873 54.624L27.8802 53.9169L27.8802 53.9169L28.5873 54.624ZM33.9083 54.743L33.3316 55.56L33.3452 55.5696L33.3591 55.5787L33.9083 54.743ZM34.9113 55.984L34.0097 56.4167L34.0126 56.4227L34.9113 55.984ZM36.3223 58.874L37.2238 58.4413L37.2209 58.4353L36.3223 58.874ZM36.6453 59.724L35.6823 59.9936L35.6823 59.9936L36.6453 59.724ZM36.6623 61.526L35.6879 61.3011L35.6879 61.3011L36.6623 61.526ZM36.3223 62.461L37.2209 62.8997L37.2228 62.8957L36.3223 62.461ZM34.9113 65.351L35.8092 65.7912L35.8099 65.7897L34.9113 65.351ZM33.9083 66.609L33.3479 65.7807L33.3479 65.7807L33.9083 66.609ZM30.3893 64.909H29.3893V65.909H30.3893V64.909ZM32.6843 64.807L32.237 63.9126L32.2211 63.9206L32.2054 63.9291L32.6843 64.807ZM33.0753 64.348L33.9611 64.812L33.9679 64.799L33.9744 64.7857L33.0753 64.348ZM34.3333 61.764L33.4388 61.3168L33.4341 61.3263L34.3333 61.764ZM34.5713 61.237L35.4997 61.6084L35.5038 61.5983L35.5076 61.5881L34.5713 61.237ZM34.5713 60.098L33.6349 60.4491L33.6387 60.4593L33.6428 60.4694L34.5713 60.098ZM34.3333 59.554L33.4353 59.9941L33.4388 60.0012L34.3333 59.554ZM33.0753 56.987L33.9732 56.5469L33.9673 56.5349L33.9611 56.523L33.0753 56.987ZM32.6843 56.528L32.2054 57.4059L32.2211 57.4144L32.237 57.4224L32.6843 56.528ZM30.3893 56.426V55.426H29.3893V56.426H30.3893ZM29.5903 66C29.4141 66 29.3104 65.9815 29.2594 65.9668C29.2108 65.9528 29.2424 65.9519 29.2944 66.0039L27.8802 67.4181C28.3591 67.897 29.0325 68 29.5903 68V66ZM29.2944 66.0039C29.3463 66.0559 29.3454 66.0875 29.3314 66.0389C29.3167 65.9879 29.2983 65.8842 29.2983 65.708H27.2983C27.2983 66.2658 27.4012 66.9392 27.8802 67.4181L29.2944 66.0039ZM29.2983 65.708V55.627H27.2983V65.708H29.2983ZM29.2983 55.627C29.2983 55.4508 29.3167 55.3471 29.3314 55.2961C29.3454 55.2475 29.3463 55.2791 29.2944 55.3311L27.8802 53.9169C27.4012 54.3958 27.2983 55.0692 27.2983 55.627H29.2983ZM29.2944 55.3311C29.2424 55.3831 29.2108 55.3822 29.2594 55.3682C29.3104 55.3535 29.4141 55.335 29.5903 55.335V53.335C29.0325 53.335 28.3591 53.4379 27.8802 53.9169L29.2944 55.3311ZM29.5903 55.335H32.3273V53.335H29.5903V55.335ZM32.3273 55.335C32.8726 55.335 33.1721 55.4474 33.3316 55.56L34.4849 53.926C33.8737 53.4946 33.1192 53.335 32.3273 53.335V55.335ZM33.3591 55.5787C33.5622 55.7122 33.7916 55.9622 34.0097 56.4167L35.8128 55.5513C35.4869 54.8724 35.0477 54.2951 34.4574 53.9073L33.3591 55.5787ZM34.0126 56.4227L35.4236 59.3127L37.2209 58.4353L35.8099 55.5453L34.0126 56.4227ZM35.4207 59.3067C35.5332 59.5411 35.6197 59.77 35.6823 59.9936L37.6082 59.4544C37.5122 59.1113 37.3833 58.7735 37.2238 58.4413L35.4207 59.3067ZM35.6823 59.9936C35.7328 60.1741 35.7643 60.3987 35.7643 60.676H37.7643C37.7643 60.2506 37.7163 59.8405 37.6082 59.4544L35.6823 59.9936ZM35.7643 60.676C35.7643 60.8644 35.7407 61.0721 35.6879 61.3011L37.6366 61.7509C37.7198 61.3905 37.7643 61.0316 37.7643 60.676H35.7643ZM35.6879 61.3011C35.6396 61.5102 35.5544 61.7513 35.4217 62.0263L37.2228 62.8957C37.4074 62.5134 37.5489 62.1311 37.6366 61.7509L35.6879 61.3011ZM35.4236 62.0223L34.0126 64.9123L35.8099 65.7897L37.2209 62.8997L35.4236 62.0223ZM34.0133 64.9108C33.7787 65.3895 33.5438 65.6482 33.3479 65.7807L34.4686 67.4373C35.0433 67.0485 35.4772 66.4685 35.8092 65.7912L34.0133 64.9108ZM33.3479 65.7807C33.1834 65.892 32.8812 66 32.3443 66V68C33.122 68 33.8625 67.8473 34.4686 67.4373L33.3479 65.7807ZM32.3443 66H29.5903V68H32.3443V66ZM30.3893 65.909H32.1573V63.909H30.3893V65.909ZM32.1573 65.909C32.4616 65.909 32.829 65.8671 33.1631 65.6849L32.2054 63.9291C32.23 63.9157 32.249 63.9083 32.2596 63.9047C32.2701 63.9012 32.2739 63.9008 32.269 63.9017C32.2642 63.9027 32.2527 63.9046 32.2335 63.9062C32.2144 63.9078 32.1892 63.909 32.1573 63.909V65.909ZM33.1315 65.7014C33.5515 65.4914 33.805 65.11 33.9611 64.812L32.1894 63.884C32.1709 63.9194 32.1552 63.9457 32.1431 63.9643C32.1309 63.983 32.1238 63.9916 32.1228 63.9928C32.1217 63.994 32.1292 63.985 32.1466 63.9705C32.1642 63.9559 32.1941 63.9341 32.237 63.9126L33.1315 65.7014ZM33.9744 64.7857L35.2324 62.2017L33.4341 61.3263L32.1761 63.9103L33.9744 64.7857ZM35.2277 62.2112C35.3295 62.0077 35.4204 61.8067 35.4997 61.6084L33.6428 60.8656C33.5861 61.0073 33.5184 61.1577 33.4388 61.3168L35.2277 62.2112ZM35.5076 61.5881C35.6199 61.2886 35.6733 60.9764 35.6733 60.659H33.6733C33.6733 60.7496 33.6586 60.8227 33.6349 60.8859L35.5076 61.5881ZM35.6733 60.659C35.6733 60.3423 35.6201 60.0275 35.4997 59.7266L33.6428 60.4694C33.6584 60.5085 33.6733 60.5677 33.6733 60.659H35.6733ZM35.5076 59.7469C35.4268 59.5313 35.3333 59.3179 35.2277 59.1068L33.4388 60.0012C33.5146 60.1527 33.5798 60.302 33.6349 60.4491L35.5076 59.7469ZM35.2312 59.1139L33.9732 56.5469L32.1773 57.4271L33.4353 59.9941L35.2312 59.1139ZM33.9611 56.523C33.805 56.225 33.5515 55.8436 33.1315 55.6336L32.237 57.4224C32.1941 57.4009 32.1642 57.3791 32.1466 57.3645C32.1292 57.35 32.1217 57.341 32.1228 57.3422C32.1238 57.3434 32.1309 57.352 32.1431 57.3707C32.1552 57.3893 32.1709 57.4156 32.1894 57.451L33.9611 56.523ZM33.1631 55.6501C32.829 55.4679 32.4616 55.426 32.1573 55.426V57.426C32.1892 57.426 32.2144 57.4272 32.2335 57.4288C32.2527 57.4304 32.2642 57.4323 32.269 57.4333C32.2739 57.4342 32.2701 57.4338 32.2596 57.4303C32.249 57.4267 32.23 57.4193 32.2054 57.4059L33.1631 55.6501ZM32.1573 55.426H30.3893V57.426H32.1573V55.426ZM29.3893 56.426V64.909H31.3893V56.426H29.3893ZM38.9632 66.711L38.2561 67.4181L38.2561 67.4181L38.9632 66.711ZM38.9632 54.624L38.2561 53.9169L38.2561 53.9169L38.9632 54.624ZM46.1372 54.556L45.6109 55.4063L45.6343 55.4207L45.6584 55.4339L46.1372 54.556ZM46.1372 56.222L46.6334 57.0902L46.6397 57.0866L46.646 57.0829L46.1372 56.222ZM40.7652 56.426V55.426H39.7652V56.426H40.7652ZM40.7652 59.265H39.7652V60.265H40.7652V59.265ZM44.7092 59.486L44.1829 60.3363L44.2063 60.3507L44.2304 60.3639L44.7092 59.486ZM44.7092 61.152L45.2054 62.0202L45.2117 62.0166L45.218 62.0129L44.7092 61.152ZM40.7652 61.356V60.356H39.7652V61.356H40.7652ZM40.7652 64.909H39.7652V65.909H40.7652V64.909ZM46.1372 65.13L45.6109 65.9803L45.6343 65.9947L45.6584 66.0079L46.1372 65.13ZM46.1372 66.796L46.6334 67.6642L46.6397 67.6606L46.646 67.6569L46.1372 66.796ZM39.9662 66C39.7901 66 39.6863 65.9815 39.6354 65.9668C39.5867 65.9528 39.6184 65.9519 39.6703 66.0039L38.2561 67.4181C38.7351 67.897 39.4084 68 39.9662 68V66ZM39.6703 66.0039C39.7223 66.0559 39.7214 66.0875 39.7074 66.0389C39.6927 65.9879 39.6742 65.8842 39.6742 65.708H37.6742C37.6742 66.2658 37.7772 66.9392 38.2561 67.4181L39.6703 66.0039ZM39.6742 65.708V55.627H37.6742V65.708H39.6742ZM39.6742 55.627C39.6742 55.4508 39.6927 55.3471 39.7074 55.2961C39.7214 55.2475 39.7223 55.2791 39.6703 55.3311L38.2561 53.9169C37.7772 54.3958 37.6742 55.0692 37.6742 55.627H39.6742ZM39.6703 55.3311C39.6184 55.3831 39.5867 55.3822 39.6354 55.3682C39.6863 55.3535 39.7901 55.335 39.9662 55.335V53.335C39.4084 53.335 38.7351 53.4379 38.2561 53.9169L39.6703 55.3311ZM39.9662 55.335H45.2022V53.335H39.9662V55.335ZM45.2022 55.335C45.469 55.335 45.5799 55.3871 45.6109 55.4063L46.6636 53.7057C46.2186 53.4303 45.7062 53.335 45.2022 53.335V55.335ZM45.6584 55.4339C45.6239 55.4151 45.5891 55.3884 45.5591 55.3552C45.5296 55.3226 45.5132 55.2931 45.5055 55.2758C45.4982 55.2597 45.5 55.2578 45.5035 55.2771C45.507 55.2967 45.5112 55.3327 45.5112 55.389H47.5112C47.5112 54.7965 47.3263 54.0655 46.6161 53.6781L45.6584 55.4339ZM45.5112 55.389C45.5112 55.4974 45.4938 55.5196 45.5055 55.4937C45.5122 55.4786 45.526 55.4539 45.5501 55.4264C45.5746 55.3986 45.6023 55.3766 45.6285 55.3611L46.646 57.0829C47.3164 56.6868 47.5112 55.9902 47.5112 55.389H45.5112ZM45.6411 55.3538C45.6033 55.3754 45.4805 55.426 45.2022 55.426V57.426C45.6947 57.426 46.1952 57.3406 46.6334 57.0902L45.6411 55.3538ZM45.2022 55.426H40.7652V57.426H45.2022V55.426ZM39.7652 56.426V59.265H41.7652V56.426H39.7652ZM40.7652 60.265H43.7742V58.265H40.7652V60.265ZM43.7742 60.265C44.041 60.265 44.1519 60.3171 44.1829 60.3363L45.2356 58.6357C44.7906 58.3603 44.2782 58.265 43.7742 58.265V60.265ZM44.2304 60.3639C44.1959 60.3451 44.1611 60.3184 44.1311 60.2852C44.1016 60.2526 44.0852 60.2231 44.0775 60.2058C44.0702 60.1897 44.072 60.1878 44.0755 60.2071C44.079 60.2267 44.0832 60.2628 44.0832 60.319H46.0832C46.0832 59.7265 45.8983 58.9955 45.1881 58.6081L44.2304 60.3639ZM44.0832 60.319C44.0832 60.4274 44.0658 60.4496 44.0775 60.4237C44.0842 60.4086 44.098 60.3839 44.1221 60.3564C44.1466 60.3286 44.1743 60.3066 44.2005 60.2911L45.218 62.0129C45.8884 61.6168 46.0832 60.9202 46.0832 60.319H44.0832ZM44.2131 60.2838C44.1753 60.3054 44.0525 60.356 43.7742 60.356V62.356C44.2667 62.356 44.7672 62.2706 45.2054 62.0202L44.2131 60.2838ZM43.7742 60.356H40.7652V62.356H43.7742V60.356ZM39.7652 61.356V64.909H41.7652V61.356H39.7652ZM40.7652 65.909H45.2022V63.909H40.7652V65.909ZM45.2022 65.909C45.469 65.909 45.5799 65.9611 45.6109 65.9803L46.6636 64.2797C46.2186 64.0043 45.7062 63.909 45.2022 63.909V65.909ZM45.6584 66.0079C45.6239 65.9891 45.5891 65.9624 45.5591 65.9292C45.5296 65.8966 45.5132 65.8671 45.5055 65.8498C45.4982 65.8337 45.5 65.8318 45.5035 65.8511C45.507 65.8707 45.5112 65.9068 45.5112 65.963H47.5112C47.5112 65.3705 47.3263 64.6395 46.6161 64.2521L45.6584 66.0079ZM45.5112 65.963C45.5112 66.0714 45.4938 66.0936 45.5055 66.0677C45.5122 66.0526 45.526 66.0279 45.5501 66.0004C45.5746 65.9726 45.6023 65.9506 45.6285 65.9351L46.646 67.6569C47.3164 67.2608 47.5112 66.5642 47.5112 65.963H45.5112ZM45.6411 65.9278C45.6033 65.9494 45.4805 66 45.2022 66V68C45.6947 68 46.1952 67.9146 46.6334 67.6642L45.6411 65.9278ZM45.2022 66H39.9662V68H45.2022V66ZM48.4759 66.711L47.7688 67.4181L47.7688 67.4181L48.4759 66.711ZM48.4249 54.624L47.5987 54.0606L47.5929 54.0693L48.4249 54.624ZM50.0229 54.624L49.1793 55.1609L49.1936 55.1835L49.2092 55.2052L50.0229 54.624ZM50.2779 64.909H49.2779V65.909H50.2779V64.909ZM55.0039 65.13L54.4776 65.9803L54.5009 65.9947L54.5251 66.0079L55.0039 65.13ZM55.0039 66.796L55.5001 67.6642L55.5064 67.6606L55.5127 67.6569L55.0039 66.796ZM49.4789 66C49.3028 66 49.199 65.9815 49.1481 65.9668C49.0994 65.9528 49.1311 65.9519 49.183 66.0039L47.7688 67.4181C48.2478 67.897 48.9211 68 49.4789 68V66ZM49.183 66.0039C49.235 66.0559 49.2341 66.0875 49.2201 66.0389C49.2054 65.9879 49.1869 65.8842 49.1869 65.708H47.1869C47.1869 66.2658 47.2899 66.9392 47.7688 67.4181L49.183 66.0039ZM49.1869 65.708V55.559H47.1869V65.708H49.1869ZM49.1869 55.559C49.1869 55.3042 49.2398 55.2044 49.257 55.1787L47.5929 54.0693C47.2927 54.5196 47.1869 55.0432 47.1869 55.559H49.1869ZM49.2512 55.1873C49.245 55.1963 49.234 55.2098 49.2175 55.2238C49.201 55.2377 49.185 55.2471 49.1731 55.2526C49.15 55.2632 49.1628 55.25 49.2409 55.25V53.25C48.6259 53.25 48.0003 53.4716 47.5987 54.0607L49.2512 55.1873ZM49.2409 55.25C49.31 55.25 49.3112 55.262 49.277 55.2456C49.2596 55.2373 49.2391 55.2244 49.2192 55.2067C49.1994 55.189 49.1865 55.1722 49.1793 55.1609L50.8666 54.0871C50.481 53.4813 49.8561 53.25 49.2409 53.25V55.25ZM49.2092 55.2052C49.2248 55.2271 49.2779 55.3165 49.2779 55.559H51.2779C51.2779 55.0309 51.1611 54.4969 50.8367 54.0428L49.2092 55.2052ZM49.2779 55.559V64.909H51.2779V55.559H49.2779ZM50.2779 65.909H54.0689V63.909H50.2779V65.909ZM54.0689 65.909C54.3357 65.909 54.4466 65.9611 54.4776 65.9803L55.5303 64.2797C55.0853 64.0043 54.5729 63.909 54.0689 63.909V65.909ZM54.5251 66.0079C54.4933 65.9906 54.46 65.9655 54.4304 65.9332C54.4012 65.9014 54.3841 65.8718 54.3754 65.8527C54.3602 65.8195 54.3779 65.8365 54.3779 65.946H56.3779C56.3779 65.3507 56.1845 64.6349 55.4828 64.2521L54.5251 66.0079ZM54.3779 65.946C54.3779 66.0021 54.3737 66.0391 54.3699 66.0603C54.3662 66.0813 54.3637 66.0825 54.3691 66.0703C54.3749 66.057 54.3881 66.0325 54.4125 66.0043C54.4374 65.9757 54.4664 65.9521 54.4952 65.9351L55.5127 67.6569C56.1912 67.256 56.3779 66.545 56.3779 65.946H54.3779ZM54.5078 65.9278C54.47 65.9494 54.3472 66 54.0689 66V68C54.5614 68 55.0619 67.9146 55.5001 67.6642L54.5078 65.9278ZM54.0689 66H49.4789V68H54.0689V66ZM56.6746 66.796L56.1482 67.6463L56.1716 67.6607L56.1957 67.6739L56.6746 66.796ZM56.6746 65.13L57.1707 65.9982L57.177 65.9946L57.1833 65.9909L56.6746 65.13ZM58.9356 64.909V65.909H59.9356V64.909H58.9356ZM58.9356 56.426H59.9356V55.426H58.9356V56.426ZM56.6746 56.222L56.1482 57.0723L56.1716 57.0867L56.1957 57.0999L56.6746 56.222ZM56.6746 54.556L57.1707 55.4242L57.177 55.4206L57.1833 55.4169L56.6746 54.556ZM63.2706 54.556L62.7442 55.4063L62.7676 55.4207L62.7917 55.4339L63.2706 54.556ZM63.2706 56.222L63.7667 57.0902L63.773 57.0866L63.7793 57.0829L63.2706 56.222ZM61.0266 56.426V55.426H60.0266V56.426H61.0266ZM61.0266 64.909H60.0266V65.909H61.0266V64.909ZM63.2706 65.13L62.7442 65.9803L62.7676 65.9947L62.7917 66.0079L63.2706 65.13ZM63.2706 66.796L63.7667 67.6642L63.773 67.6606L63.7793 67.6569L63.2706 66.796ZM57.6266 66C57.3515 66 57.2128 65.9505 57.1534 65.9181L56.1957 67.6739C56.635 67.9135 57.131 68 57.6266 68V66ZM57.2009 65.9457C57.2309 65.9643 57.2598 65.989 57.2841 66.0179C57.3079 66.0462 57.3205 66.0705 57.326 66.0833C57.3311 66.0952 57.3287 66.094 57.3252 66.0736C57.3216 66.053 57.3176 66.0172 57.3176 65.963H55.3176C55.3176 66.5452 55.4943 67.2415 56.1482 67.6463L57.2009 65.9457ZM57.3176 65.963C57.3176 65.9045 57.3218 65.8658 57.3256 65.8434C57.3294 65.821 57.3319 65.8202 57.326 65.8342C57.3196 65.8492 57.3045 65.8782 57.2754 65.9119C57.2457 65.9464 57.2094 65.9761 57.1707 65.9982L56.1784 64.2618C55.4842 64.6584 55.3176 65.3902 55.3176 65.963H57.3176ZM57.1833 65.9909C57.2357 65.96 57.3629 65.909 57.6266 65.909V63.909C57.1196 63.909 56.6121 64.0054 56.1658 64.2691L57.1833 65.9909ZM57.6266 65.909H58.9356V63.909H57.6266V65.909ZM59.9356 64.909V56.426H57.9356V64.909H59.9356ZM58.9356 55.426H57.6266V57.426H58.9356V55.426ZM57.6266 55.426C57.3515 55.426 57.2128 55.3765 57.1534 55.3441L56.1957 57.0999C56.635 57.3395 57.131 57.426 57.6266 57.426V55.426ZM57.2009 55.3717C57.2309 55.3903 57.2598 55.415 57.2841 55.4439C57.3079 55.4722 57.3205 55.4965 57.326 55.5093C57.3311 55.5212 57.3287 55.52 57.3252 55.4996C57.3216 55.479 57.3176 55.4432 57.3176 55.389H55.3176C55.3176 55.9712 55.4943 56.6675 56.1482 57.0723L57.2009 55.3717ZM57.3176 55.389C57.3176 55.3305 57.3218 55.2918 57.3256 55.2694C57.3294 55.247 57.3319 55.2462 57.326 55.2602C57.3196 55.2752 57.3045 55.3042 57.2754 55.3379C57.2457 55.3724 57.2094 55.4021 57.1707 55.4242L56.1784 53.6878C55.4842 54.0844 55.3176 54.8162 55.3176 55.389H57.3176ZM57.1833 55.4169C57.2357 55.3859 57.3629 55.335 57.6266 55.335V53.335C57.1196 53.335 56.6121 53.4314 56.1658 53.6951L57.1833 55.4169ZM57.6266 55.335H62.3356V53.335H57.6266V55.335ZM62.3356 55.335C62.6023 55.335 62.7132 55.3871 62.7442 55.4063L63.7969 53.7057C63.3519 53.4303 62.8395 53.335 62.3356 53.335V55.335ZM62.7917 55.4339C62.7573 55.4151 62.7225 55.3884 62.6924 55.3552C62.6629 55.3226 62.6466 55.2931 62.6388 55.2758C62.6316 55.2597 62.6334 55.2578 62.6368 55.2771C62.6403 55.2967 62.6446 55.3327 62.6446 55.389H64.6446C64.6446 54.7965 64.4597 54.0655 63.7494 53.6781L62.7917 55.4339ZM62.6446 55.389C62.6446 55.4974 62.6272 55.5196 62.6388 55.4937C62.6456 55.4786 62.6593 55.4539 62.6835 55.4264C62.708 55.3986 62.7356 55.3766 62.7618 55.3611L63.7793 57.0829C64.4497 56.6868 64.6446 55.9902 64.6446 55.389H62.6446ZM62.7744 55.3538C62.7366 55.3754 62.6138 55.426 62.3356 55.426V57.426C62.828 57.426 63.3285 57.3406 63.7667 57.0902L62.7744 55.3538ZM62.3356 55.426H61.0266V57.426H62.3356V55.426ZM60.0266 56.426V64.909H62.0266V56.426H60.0266ZM61.0266 65.909H62.3356V63.909H61.0266V65.909ZM62.3356 65.909C62.6023 65.909 62.7132 65.9611 62.7442 65.9803L63.7969 64.2797C63.3519 64.0043 62.8395 63.909 62.3356 63.909V65.909ZM62.7917 66.0079C62.7573 65.9891 62.7225 65.9624 62.6924 65.9292C62.6629 65.8966 62.6466 65.8671 62.6388 65.8498C62.6316 65.8337 62.6334 65.8318 62.6368 65.8511C62.6403 65.8707 62.6446 65.9068 62.6446 65.963H64.6446C64.6446 65.3705 64.4597 64.6395 63.7494 64.2521L62.7917 66.0079ZM62.6446 65.963C62.6446 66.0714 62.6272 66.0936 62.6388 66.0677C62.6456 66.0526 62.6593 66.0279 62.6835 66.0004C62.708 65.9726 62.7356 65.9506 62.7618 65.9351L63.7793 67.6569C64.4497 67.2608 64.6446 66.5642 64.6446 65.963H62.6446ZM62.7744 65.9278C62.7366 65.9494 62.6138 66 62.3356 66V68C62.828 68 63.3285 67.9146 63.7667 67.6642L62.7744 65.9278ZM62.3356 66H57.6266V68H62.3356V66ZM65.5901 54.641L64.7196 54.1489L64.7159 54.1555L64.7123 54.1621L65.5901 54.641ZM66.8481 54.335L67.2328 53.4119L67.2328 53.4119L66.8481 54.335ZM67.2221 54.607L66.4822 55.2797L66.4982 55.2973L66.515 55.3141L67.2221 54.607ZM67.5451 55.049L66.6736 55.5393L66.6849 55.5594L66.6972 55.579L67.5451 55.049ZM67.9191 55.695L67.0413 56.1739L67.0448 56.1803L67.0484 56.1867L67.9191 55.695ZM71.5571 62.138L70.6864 62.6297L72.5571 65.9429V62.138H71.5571ZM71.7611 54.624L70.9002 54.1153L70.8965 54.1215L70.8929 54.1279L71.7611 54.624ZM73.4271 54.624L72.5493 55.1029L72.5624 55.127L72.5769 55.1504L73.4271 54.624ZM73.4271 66.711L72.5566 66.2189L72.5529 66.2255L72.5493 66.2321L73.4271 66.711ZM72.2201 67.017L71.8488 67.9455L71.8635 67.9514L71.8784 67.9568L72.2201 67.017ZM71.8801 66.796L71.173 67.5031L71.1916 67.5217L71.2112 67.5393L71.8801 66.796ZM71.5231 66.354L70.6612 66.861L70.6791 66.8914L70.6991 66.9205L71.5231 66.354ZM71.1151 65.64L71.9877 65.1514L71.9859 65.1483L71.1151 65.64ZM67.4771 59.197L68.3479 58.7053L66.4771 55.3921V59.197H67.4771ZM67.2561 66.728L66.3952 66.2193L66.3915 66.2255L66.3879 66.2319L67.2561 66.728ZM65.5901 66.728L64.7123 67.2069L64.7254 67.231L64.7399 67.2544L65.5901 66.728ZM66.3861 55.593C66.3861 55.3179 66.4357 55.1792 66.468 55.1199L64.7123 54.1621C64.4726 54.6014 64.3861 55.0974 64.3861 55.593H66.3861ZM66.4607 55.1331C66.4524 55.1478 66.4373 55.1694 66.4138 55.1919C66.3901 55.2146 66.3651 55.2313 66.3434 55.2422C66.3012 55.2633 66.2978 55.25 66.3721 55.25V53.25C65.7427 53.25 65.0906 53.4925 64.7196 54.1489L66.4607 55.1331ZM66.3721 55.25C66.451 55.25 66.474 55.2624 66.4635 55.2581L67.2328 53.4119C66.9503 53.2942 66.6559 53.25 66.3721 53.25V55.25ZM66.4635 55.2581C66.4562 55.255 66.4534 55.2527 66.4555 55.2542C66.4579 55.256 66.4672 55.2631 66.4822 55.2797L67.9621 53.9343C67.7643 53.7167 67.5223 53.5326 67.2328 53.4119L66.4635 55.2581ZM66.515 55.3141C66.5481 55.3471 66.6037 55.4151 66.6736 55.5393L68.4167 54.5587C68.2826 54.3202 68.1229 54.0935 67.9293 53.8999L66.515 55.3141ZM66.6972 55.579C66.7973 55.7392 66.9119 55.9366 67.0413 56.1739L68.797 55.2161C68.6544 54.9547 68.5197 54.7215 68.3931 54.519L66.6972 55.579ZM67.0484 56.1867L70.6864 62.6297L72.4279 61.6463L68.7899 55.2033L67.0484 56.1867ZM72.5571 62.138V55.559H70.5571V62.138H72.5571ZM72.5571 55.559C72.5571 55.2808 72.6078 55.158 72.6294 55.1201L70.8929 54.1279C70.6425 54.566 70.5571 55.0666 70.5571 55.559H72.5571ZM72.6221 55.1327C72.605 55.1615 72.5815 55.1905 72.5528 55.2154C72.5247 55.2398 72.5001 55.253 72.4869 55.2588C72.4746 55.2642 72.4759 55.2617 72.4968 55.258C72.518 55.2542 72.555 55.25 72.6111 55.25V53.25C72.0121 53.25 71.3012 53.4367 70.9002 54.1153L72.6221 55.1327ZM72.6111 55.25C72.7207 55.25 72.7377 55.2678 72.7045 55.2526C72.6854 55.2438 72.6558 55.2267 72.6239 55.1975C72.5916 55.1679 72.5666 55.1346 72.5493 55.1029L74.305 54.1451C73.9223 53.4434 73.2064 53.25 72.6111 53.25V55.25ZM72.5769 55.1504C72.5961 55.1814 72.6481 55.2923 72.6481 55.559H74.6481C74.6481 55.0551 74.5529 54.5426 74.2774 54.0976L72.5769 55.1504ZM72.6481 55.559V65.742H74.6481V55.559H72.6481ZM72.6481 65.742C72.6481 66.0032 72.5981 66.1455 72.5566 66.2189L74.2977 67.2031C74.5509 66.7552 74.6481 66.2514 74.6481 65.742H72.6481ZM72.5493 66.2321C72.5621 66.2086 72.5824 66.1799 72.6116 66.152C72.6408 66.1241 72.6705 66.105 72.6947 66.0931C72.7402 66.0708 72.7433 66.085 72.6621 66.085V68.085C73.2681 68.085 73.9378 67.8631 74.305 67.1899L72.5493 66.2321ZM72.6621 66.085C72.5775 66.085 72.5511 66.0733 72.5619 66.0772L71.8784 67.9568C72.1386 68.0514 72.4068 68.085 72.6621 68.085V66.085ZM72.5915 66.0885C72.6109 66.0963 72.5959 66.0948 72.5491 66.0527L71.2112 67.5393C71.3911 67.7012 71.6027 67.847 71.8488 67.9455L72.5915 66.0885ZM72.5873 66.0889C72.5297 66.0313 72.4491 65.9356 72.3472 65.7875L70.6991 66.9205C70.8466 67.135 71.0039 67.334 71.173 67.5031L72.5873 66.0889ZM72.3851 65.847C72.2765 65.6625 72.1443 65.431 71.9877 65.1514L70.2426 66.1286C70.4034 66.4156 70.5431 66.6602 70.6612 66.861L72.3851 65.847ZM71.9859 65.1483L68.3479 58.7053L66.6064 59.6887L70.2444 66.1317L71.9859 65.1483ZM66.4771 59.197V65.776H68.4771V59.197H66.4771ZM66.4771 65.776C66.4771 66.0397 66.4262 66.1668 66.3952 66.2193L68.1171 67.2367C68.3808 66.7905 68.4771 66.283 68.4771 65.776H66.4771ZM66.3879 66.2319C66.4084 66.1959 66.4365 66.161 66.4701 66.1316C66.5031 66.1027 66.5324 66.087 66.5493 66.0796C66.5652 66.0727 66.567 66.0744 66.5483 66.0777C66.5293 66.081 66.4945 66.085 66.4401 66.085V68.085C67.0155 68.085 67.7323 67.9104 68.1244 67.2241L66.3879 66.2319ZM66.4401 66.085C66.3818 66.085 66.3421 66.0808 66.3181 66.0767C66.2942 66.0727 66.2903 66.0695 66.3004 66.0738C66.3113 66.0784 66.3354 66.0903 66.3643 66.1143C66.394 66.1389 66.4203 66.1691 66.4404 66.2016L64.7399 67.2544C65.1494 67.9158 65.8597 68.085 66.4401 68.085V66.085ZM66.468 66.2491C66.4357 66.1898 66.3861 66.0511 66.3861 65.776H64.3861C64.3861 66.2716 64.4726 66.7676 64.7123 67.2069L66.468 66.2491ZM66.3861 65.776V55.593H64.3861V65.776H66.3861ZM78.4022 66.609L77.8419 67.4373L77.8419 67.4373L78.4022 66.609ZM77.3992 65.351L76.5006 65.7897L76.5013 65.7912L77.3992 65.351ZM75.9882 62.461L75.0876 62.8958L75.0896 62.8997L75.9882 62.461ZM75.6482 61.526L76.6226 61.3011L76.6226 61.3011L75.6482 61.526ZM75.6652 59.724L74.7022 59.4544L74.7022 59.4544L75.6652 59.724ZM75.9882 58.874L75.0895 58.4353L75.0866 58.4413L75.9882 58.874ZM77.3992 55.984L78.2978 56.4227L78.3007 56.4167L77.3992 55.984ZM78.3852 54.743L78.9455 55.5713L78.9507 55.5677L78.3852 54.743ZM84.3352 54.556L83.8088 55.4063L83.8322 55.4207L83.8563 55.4339L84.3352 54.556ZM84.3352 56.222L84.8313 57.0902L84.8376 57.0866L84.8439 57.0829L84.3352 56.222ZM79.6092 56.528L79.162 55.6336L79.146 55.6416L79.1303 55.6501L79.6092 56.528ZM79.2352 56.987L78.3493 56.523L78.3431 56.5349L78.3372 56.5469L79.2352 56.987ZM77.9772 59.554L78.8716 60.0012L78.8751 59.9941L77.9772 59.554ZM77.7392 60.098L78.6676 60.4694L78.6717 60.4593L78.6755 60.4491L77.7392 60.098ZM77.7392 61.237L76.8028 61.5881L76.8067 61.5983L76.8107 61.6084L77.7392 61.237ZM77.9772 61.764L78.8763 61.3263L78.8716 61.3168L77.9772 61.764ZM79.2352 64.348L78.3361 64.7857L78.3425 64.799L78.3493 64.812L79.2352 64.348ZM79.6092 64.807L79.1303 65.6849L79.146 65.6934L79.162 65.7014L79.6092 64.807ZM82.3632 64.739L83.0703 65.4461L83.0703 65.4461L82.3632 64.739ZM82.5332 62.461H83.5332V61.461H82.5332V62.461ZM80.5102 62.257L79.9838 63.1073L80.0072 63.1217L80.0313 63.1349L80.5102 62.257ZM80.5102 60.591L81.0063 61.4592L81.0126 61.4556L81.0189 61.4519L80.5102 60.591ZM84.3352 60.659L85.0423 59.9519L85.0423 59.9519L84.3352 60.659ZM84.4202 65.385L85.3486 65.7564L85.3486 65.7564L84.4202 65.385ZM83.8422 66.252L83.1517 65.5286L83.1517 65.5286L83.8422 66.252ZM82.9412 66.813L83.2854 67.7519L83.2938 67.7488L83.3022 67.7456L82.9412 66.813ZM79.9662 66C79.4293 66 79.1271 65.892 78.9625 65.7807L77.8419 67.4373C78.448 67.8473 79.1884 68 79.9662 68V66ZM78.9625 65.7807C78.7666 65.6482 78.5317 65.3895 78.2971 64.9108L76.5013 65.7912C76.8333 66.4685 77.2671 67.0485 77.8419 67.4373L78.9625 65.7807ZM78.2978 64.9123L76.8868 62.0223L75.0896 62.8997L76.5006 65.7897L78.2978 64.9123ZM76.8887 62.0263C76.756 61.7513 76.6708 61.5102 76.6226 61.3011L74.6738 61.7509C74.7615 62.1311 74.903 62.5134 75.0876 62.8957L76.8887 62.0263ZM76.6226 61.3011C76.5697 61.0721 76.5462 60.8644 76.5462 60.676H74.5462C74.5462 61.0316 74.5906 61.3905 74.6738 61.7509L76.6226 61.3011ZM76.5462 60.676C76.5462 60.3987 76.5776 60.1741 76.6281 59.9936L74.7022 59.4544C74.5941 59.8405 74.5462 60.2506 74.5462 60.676H76.5462ZM76.6281 59.9936C76.6908 59.77 76.7772 59.5411 76.8897 59.3067L75.0866 58.4413C74.9272 58.7735 74.7983 59.1113 74.7022 59.4544L76.6281 59.9936ZM76.8868 59.3127L78.2978 56.4227L76.5006 55.5453L75.0896 58.4353L76.8868 59.3127ZM78.3007 56.4167C78.5219 55.9558 78.7497 55.7037 78.9455 55.5713L77.8249 53.9147C77.25 54.3036 76.8204 54.8789 76.4976 55.5513L78.3007 56.4167ZM78.9507 55.5677C79.1299 55.4448 79.4386 55.335 79.9662 55.335V53.335C79.1791 53.335 78.4337 53.4972 77.8196 53.9183L78.9507 55.5677ZM79.9662 55.335H83.4002V53.335H79.9662V55.335ZM83.4002 55.335C83.6669 55.335 83.7778 55.3871 83.8088 55.4063L84.8615 53.7057C84.4165 53.4303 83.9041 53.335 83.4002 53.335V55.335ZM83.8563 55.4339C83.8246 55.4166 83.7912 55.3915 83.7616 55.3592C83.7324 55.3274 83.7154 55.2978 83.7066 55.2787C83.6914 55.2455 83.7092 55.2625 83.7092 55.372H85.7092C85.7092 54.7767 85.5157 54.0609 84.814 53.6781L83.8563 55.4339ZM83.7092 55.372C83.7092 55.4281 83.7049 55.4651 83.7012 55.4863C83.6975 55.5073 83.695 55.5085 83.7004 55.4963C83.7062 55.483 83.7193 55.4585 83.7438 55.4303C83.7686 55.4017 83.7976 55.3781 83.8264 55.3611L84.8439 57.0829C85.5224 56.682 85.7092 55.971 85.7092 55.372H83.7092ZM83.839 55.3538C83.8012 55.3754 83.6784 55.426 83.4002 55.426V57.426C83.8926 57.426 84.3931 57.3406 84.8313 57.0902L83.839 55.3538ZM83.4002 55.426H80.1532V57.426H83.4002V55.426ZM80.1532 55.426C79.8412 55.426 79.4881 55.4705 79.162 55.6336L80.0564 57.4224C80.0258 57.4377 80.0134 57.4378 80.0315 57.4344C80.0495 57.431 80.0882 57.426 80.1532 57.426V55.426ZM79.1303 55.6501C78.7357 55.8654 78.4963 56.2425 78.3493 56.523L80.121 57.451C80.141 57.4128 80.1581 57.3836 80.1718 57.3621C80.1857 57.3404 80.1945 57.329 80.1974 57.3254C80.2005 57.3216 80.1948 57.3293 80.179 57.3433C80.1632 57.3573 80.1332 57.3812 80.088 57.4059L79.1303 55.6501ZM78.3372 56.5469L77.0792 59.1139L78.8751 59.9941L80.1331 57.4271L78.3372 56.5469ZM77.0827 59.1068C76.9772 59.3179 76.8837 59.5313 76.8028 59.7469L78.6755 60.4491C78.7307 60.302 78.7958 60.1527 78.8716 60.0012L77.0827 59.1068ZM76.8107 59.7266C76.6903 60.0275 76.6372 60.3423 76.6372 60.659H78.6372C78.6372 60.5677 78.652 60.5085 78.6676 60.4694L76.8107 59.7266ZM76.6372 60.659C76.6372 60.9764 76.6905 61.2886 76.8028 61.5881L78.6755 60.8859C78.6518 60.8227 78.6372 60.7496 78.6372 60.659H76.6372ZM76.8107 61.6084C76.89 61.8067 76.981 62.0077 77.0827 62.2112L78.8716 61.3168C78.792 61.1577 78.7243 61.0073 78.6676 60.8656L76.8107 61.6084ZM77.0781 62.2017L78.3361 64.7857L80.1343 63.9103L78.8763 61.3263L77.0781 62.2017ZM78.3493 64.812C78.4963 65.0925 78.7357 65.4696 79.1303 65.6849L80.088 63.9291C80.1332 63.9538 80.1632 63.9777 80.179 63.9917C80.1948 64.0057 80.2005 64.0134 80.1974 64.0096C80.1945 64.006 80.1857 63.9946 80.1718 63.9729C80.1581 63.9514 80.141 63.9222 80.121 63.884L78.3493 64.812ZM79.162 65.7014C79.4881 65.8645 79.8412 65.909 80.1532 65.909V63.909C80.0882 63.909 80.0495 63.904 80.0315 63.9006C80.0134 63.8972 80.0258 63.8973 80.0564 63.9126L79.162 65.7014ZM80.1532 65.909H81.8022V63.909H80.1532V65.909ZM81.8022 65.909C82.1693 65.909 82.681 65.8354 83.0703 65.4461L81.6561 64.0319C81.7386 63.9493 81.8181 63.9185 81.8479 63.9095C81.8738 63.9016 81.8649 63.909 81.8022 63.909V65.909ZM83.0703 65.4461C83.4527 65.0636 83.5332 64.5661 83.5332 64.195H81.5332C81.5332 64.2482 81.5266 64.2504 81.5362 64.2197C81.5472 64.1846 81.5791 64.1089 81.6561 64.0319L83.0703 65.4461ZM83.5332 64.195V62.461H81.5332V64.195H83.5332ZM82.5332 61.461H81.4622V63.461H82.5332V61.461ZM81.4622 61.461C81.1871 61.461 81.0484 61.4115 80.989 61.3791L80.0313 63.1349C80.4706 63.3745 80.9666 63.461 81.4622 63.461V61.461ZM81.0365 61.4067C81.0665 61.4253 81.0954 61.45 81.1197 61.4789C81.1435 61.5072 81.1561 61.5315 81.1616 61.5443C81.1667 61.5562 81.1643 61.555 81.1608 61.5346C81.1572 61.514 81.1532 61.4782 81.1532 61.424H79.1532C79.1532 62.0062 79.3299 62.7025 79.9838 63.1073L81.0365 61.4067ZM81.1532 61.424C81.1532 61.3655 81.1574 61.3268 81.1612 61.3044C81.165 61.282 81.1675 61.2812 81.1616 61.2952C81.1551 61.3102 81.1401 61.3392 81.111 61.3729C81.0813 61.4074 81.045 61.4371 81.0063 61.4592L80.014 59.7228C79.3198 60.1194 79.1532 60.8512 79.1532 61.424H81.1532ZM81.0189 61.4519C81.0713 61.421 81.1985 61.37 81.4622 61.37V59.37C80.9552 59.37 80.4477 59.4664 80.0014 59.7301L81.0189 61.4519ZM81.4622 61.37H83.3322V59.37H81.4622V61.37ZM83.3322 61.37C83.5083 61.37 83.6121 61.3885 83.6631 61.4032C83.7117 61.4172 83.68 61.4181 83.6281 61.3661L85.0423 59.9519C84.5633 59.473 83.89 59.37 83.3322 59.37V61.37ZM83.6281 61.3661C83.5761 61.3141 83.577 61.2825 83.591 61.3311C83.6057 61.3821 83.6242 61.4858 83.6242 61.662H85.6242C85.6242 61.1042 85.5212 60.4308 85.0423 59.9519L83.6281 61.3661ZM83.6242 61.662V64.229H85.6242V61.662H83.6242ZM83.6242 64.229C83.6242 64.5545 83.5729 64.8106 83.4917 65.0136L85.3486 65.7564C85.5394 65.2794 85.6242 64.7649 85.6242 64.229H83.6242ZM83.4917 65.0136C83.4055 65.229 83.291 65.3957 83.1517 65.5286L84.5326 66.9754C84.892 66.6323 85.1628 66.221 85.3486 65.7564L83.4917 65.0136ZM83.1517 65.5286C83.0059 65.6678 82.8205 65.7874 82.5802 65.8804L83.3022 67.7456C83.7645 67.5666 84.1798 67.3122 84.5326 66.9754L83.1517 65.5286ZM82.5969 65.8741C82.3831 65.9525 82.1223 66 81.8022 66V68C82.3207 68 82.8192 67.9228 83.2854 67.7519L82.5969 65.8741ZM81.8022 66H79.9662V68H81.8022V66ZM93.8492 62.308L92.907 61.9728L92.4321 63.308H93.8492V62.308ZM96.9092 62.308V63.308H98.3263L97.8514 61.9728L96.9092 62.308ZM95.3792 58.007L96.3214 57.6718L95.3792 55.0233L94.437 57.6718L95.3792 58.007ZM92.4552 66.201L93.3961 66.5397L93.3965 66.5385L92.4552 66.201ZM92.0642 66.864L91.3571 66.1569L91.3571 66.1569L92.0642 66.864ZM90.6022 66.779L89.8173 67.3986L89.8271 67.411L89.8373 67.4231L90.6022 66.779ZM90.3812 65.793L89.4234 65.5057L89.4129 65.5405L89.405 65.5761L90.3812 65.793ZM90.5002 65.436L91.44 65.7777L91.4407 65.7758L90.5002 65.436ZM94.1552 55.321L95.0958 55.6609L95.1002 55.6481L94.1552 55.321ZM94.5802 54.573L93.8349 53.9062L93.8328 53.9086L94.5802 54.573ZM96.1612 54.573L95.3963 55.2171L95.4146 55.2389L95.4342 55.2596L96.1612 54.573ZM96.6032 55.321L95.6581 55.6481L95.6627 55.6608L96.6032 55.321ZM100.258 65.436L99.3177 65.7758L99.3184 65.7777L100.258 65.436ZM100.36 65.793L99.3796 65.9891L99.3918 66.0502L99.4115 66.1092L100.36 65.793ZM100.139 66.779L99.3743 66.1349L99.3641 66.147L99.3543 66.1594L100.139 66.779ZM98.6942 66.864L97.9871 67.5711L97.9871 67.5711L98.6942 66.864ZM98.3032 66.201L97.3619 66.5385L97.3623 66.5397L98.3032 66.201ZM97.6572 64.399L98.5985 64.0615L98.361 63.399H97.6572V64.399ZM93.1012 64.399V63.399H92.3974L92.1599 64.0615L93.1012 64.399ZM93.8492 63.308H96.9092V61.308H93.8492V63.308ZM97.8514 61.9728L96.3214 57.6718L94.437 58.3422L95.967 62.6432L97.8514 61.9728ZM94.437 57.6718L92.907 61.9728L94.7914 62.6432L96.3214 58.3422L94.437 57.6718ZM91.5143 65.8623C91.446 66.0521 91.3824 66.1315 91.3571 66.1569L92.7713 67.5711C93.0633 67.2791 93.2604 66.9166 93.3961 66.5397L91.5143 65.8623ZM91.3571 66.1569C91.364 66.15 91.3744 66.1411 91.388 66.1321C91.4018 66.1231 91.4161 66.1158 91.4297 66.1105C91.4582 66.0994 91.47 66.102 91.4522 66.102V68.102C91.9344 68.102 92.4034 67.939 92.7713 67.5711L91.3571 66.1569ZM91.4522 66.102C91.3494 66.102 91.308 66.0873 91.3059 66.0865C91.3059 66.0865 91.3147 66.0899 91.3281 66.0992C91.3418 66.1088 91.3555 66.1211 91.3671 66.1349L89.8373 67.4231C90.2717 67.939 90.8864 68.102 91.4522 68.102V66.102ZM91.3871 66.1594C91.3547 66.1184 91.3455 66.0959 91.3443 66.0928C91.3437 66.0912 91.3446 66.0933 91.3456 66.0984C91.3466 66.1036 91.3472 66.1098 91.3472 66.116H89.3472C89.3472 66.6119 89.5382 67.0451 89.8173 67.3986L91.3871 66.1594ZM91.3472 66.116C91.3472 66.0695 91.3518 66.035 91.3574 66.0099L89.405 65.5761C89.3652 65.755 89.3472 65.9358 89.3472 66.116H91.3472ZM91.339 66.0803C91.3669 65.9873 91.4004 65.8866 91.44 65.7777L89.5604 65.0943C89.5093 65.2348 89.4635 65.372 89.4234 65.5057L91.339 66.0803ZM91.4407 65.7758L95.0957 55.6608L93.2147 54.9812L89.5597 65.0962L91.4407 65.7758ZM95.1002 55.6481C95.1652 55.4602 95.2452 55.33 95.3276 55.2374L93.8328 53.9086C93.5525 54.224 93.3492 54.5925 93.2102 54.9939L95.1002 55.6481ZM95.3254 55.2398C95.3244 55.2409 95.3206 55.2449 95.314 55.2495C95.3074 55.2541 95.3018 55.2568 95.2992 55.2579C95.2936 55.2601 95.3145 55.25 95.3792 55.25V53.25C94.8098 53.25 94.2512 53.441 93.835 53.9062L95.3254 55.2398ZM95.3792 55.25C95.4445 55.25 95.4608 55.2603 95.4479 55.255C95.4415 55.2524 95.4315 55.2473 95.4203 55.2391C95.4091 55.2309 95.401 55.2228 95.3963 55.2171L96.9261 53.9289C96.5153 53.441 95.9468 53.25 95.3792 53.25V55.25ZM95.4342 55.2596C95.5192 55.3496 95.5974 55.4724 95.6582 55.6481L97.5482 54.9939C97.405 54.5803 97.1885 54.2044 96.8882 53.8864L95.4342 55.2596ZM95.6627 55.6608L99.3177 65.7758L101.199 65.0962L97.5437 54.9812L95.6627 55.6608ZM99.3184 65.7777C99.3489 65.8617 99.3682 65.9319 99.3796 65.9891L101.341 65.5969C101.307 65.4274 101.258 65.2596 101.198 65.0943L99.3184 65.7777ZM99.4115 66.1092C99.4109 66.1073 99.4107 66.106 99.4107 66.1062C99.4107 66.1065 99.4112 66.1095 99.4112 66.116H101.411C101.411 65.901 101.379 65.6861 101.309 65.4768L99.4115 66.1092ZM99.4112 66.116C99.4112 66.1055 99.4123 66.0953 99.4141 66.0864C99.4159 66.0777 99.4178 66.0727 99.418 66.0722C99.4184 66.0714 99.4097 66.0928 99.3743 66.1349L100.904 67.4231C101.199 67.0725 101.411 66.6312 101.411 66.116H99.4112ZM99.3543 66.1594C99.3696 66.14 99.3877 66.1229 99.4064 66.1094C99.4247 66.0962 99.4382 66.0903 99.4419 66.0889C99.4451 66.0876 99.4374 66.0911 99.4147 66.0947C99.3919 66.0984 99.3565 66.102 99.3062 66.102V68.102C99.8671 68.102 100.496 67.9407 100.924 67.3986L99.3543 66.1594ZM99.3062 66.102C99.2884 66.102 99.3002 66.0994 99.3286 66.1105C99.3423 66.1158 99.3566 66.1231 99.3704 66.1321C99.384 66.1411 99.3944 66.15 99.4013 66.1569L97.9871 67.5711C98.355 67.939 98.8239 68.102 99.3062 68.102V66.102ZM99.4013 66.1569C99.3759 66.1315 99.3124 66.0521 99.2441 65.8623L97.3623 66.5397C97.498 66.9166 97.6951 67.2791 97.9871 67.5711L99.4013 66.1569ZM99.2445 65.8635L98.5985 64.0615L96.7159 64.7365L97.3619 66.5385L99.2445 65.8635ZM97.6572 63.399H93.1012V65.399H97.6572V63.399ZM92.1599 64.0615L91.5139 65.8635L93.3965 66.5385L94.0425 64.7365L92.1599 64.0615ZM107.96 59.503L108.667 60.2101L108.681 60.196L108.694 60.1813L107.96 59.503ZM107.943 56.63L107.235 57.3371L107.25 57.3512L107.264 57.3648L107.943 56.63ZM104.084 56.426V55.426H103.084V56.426H104.084ZM104.084 59.707H103.084V60.707H104.084V59.707ZM103.863 66.728L103.002 66.2193L102.998 66.2255L102.994 66.2319L103.863 66.728ZM102.197 66.728L101.319 67.2069L101.332 67.231L101.346 67.2544L102.197 66.728ZM102.282 54.624L101.574 53.9169L101.574 53.9169L102.282 54.624ZM108.487 54.522L108.187 55.476L108.194 55.4784L108.487 54.522ZM109.541 55.202L110.317 54.5714L110.301 54.5525L110.285 54.5345L109.541 55.202ZM109.898 55.712L109.029 56.2081L109.042 56.2308L109.056 56.2528L109.898 55.712ZM110.119 56.205L109.152 56.4627L109.16 56.4922L109.17 56.5212L110.119 56.205ZM110.221 56.749L109.222 56.8077L109.224 56.8405L109.228 56.873L110.221 56.749ZM110.119 59.877L109.152 59.6193L109.148 59.6345L109.145 59.6498L110.119 59.877ZM109.541 60.931L110.285 61.5985L110.295 61.5874L110.305 61.5759L109.541 60.931ZM108.487 61.611L108.194 60.6546L108.187 60.657L108.487 61.611ZM104.084 61.798V60.798H103.084V61.798H104.084ZM107.229 60.707C107.646 60.707 108.238 60.6385 108.667 60.2101L107.252 58.7959C107.339 58.7098 107.413 58.6909 107.406 58.6928C107.404 58.6933 107.39 58.6972 107.358 58.7007C107.327 58.7042 107.285 58.707 107.229 58.707V60.707ZM108.694 60.1813C109.086 59.7572 109.164 59.2012 109.164 58.772H107.164C107.164 58.8242 107.161 58.8641 107.158 58.8932C107.154 58.9225 107.15 58.9374 107.149 58.941C107.147 58.9491 107.161 58.894 107.225 58.8247L108.694 60.1813ZM109.164 58.772V57.344H107.164V58.772H109.164ZM109.164 57.344C109.164 56.9094 109.078 56.3171 108.621 55.8952L107.264 57.3648C107.181 57.2876 107.156 57.215 107.153 57.2062C107.152 57.2021 107.155 57.2103 107.158 57.2346C107.161 57.2586 107.164 57.2945 107.164 57.344H109.164ZM108.65 55.9229C108.226 55.499 107.646 55.426 107.229 55.426V57.426C107.281 57.426 107.32 57.4286 107.348 57.4319C107.375 57.4352 107.388 57.4386 107.387 57.4385C107.387 57.4384 107.37 57.4336 107.343 57.4186C107.314 57.4033 107.276 57.3775 107.235 57.3371L108.65 55.9229ZM107.229 55.426H104.084V57.426H107.229V55.426ZM103.084 56.426V59.707H105.084V56.426H103.084ZM104.084 60.707H107.229V58.707H104.084V60.707ZM103.084 65.776C103.084 66.0397 103.033 66.1668 103.002 66.2193L104.724 67.2367C104.987 66.7905 105.084 66.283 105.084 65.776H103.084ZM102.994 66.2319C103.015 66.1959 103.043 66.161 103.077 66.1316C103.11 66.1027 103.139 66.087 103.156 66.0796C103.172 66.0727 103.173 66.0744 103.155 66.0777C103.136 66.081 103.101 66.085 103.047 66.085V68.085C103.622 68.085 104.339 67.9104 104.731 67.2241L102.994 66.2319ZM103.047 66.085C102.988 66.085 102.949 66.0808 102.925 66.0767C102.901 66.0727 102.897 66.0695 102.907 66.0738C102.918 66.0784 102.942 66.0903 102.971 66.1143C103 66.1389 103.027 66.1691 103.047 66.2016L101.346 67.2544C101.756 67.9158 102.466 68.085 103.047 68.085V66.085ZM103.074 66.2491C103.042 66.1898 102.993 66.0511 102.993 65.776H100.993C100.993 66.2716 101.079 66.7676 101.319 67.2069L103.074 66.2491ZM102.993 65.776V55.627H100.993V65.776H102.993ZM102.993 55.627C102.993 55.4508 103.011 55.3471 103.026 55.2961C103.04 55.2475 103.041 55.2791 102.989 55.3311L101.574 53.9169C101.096 54.3958 100.993 55.0692 100.993 55.627H102.993ZM102.989 55.3311C102.937 55.3831 102.905 55.3822 102.954 55.3682C103.005 55.3535 103.108 55.335 103.285 55.335V53.335C102.727 53.335 102.053 53.4379 101.574 53.9169L102.989 55.3311ZM103.285 55.335H107.178V53.335H103.285V55.335ZM107.178 55.335C107.566 55.335 107.9 55.3859 108.187 55.476L108.786 53.568C108.28 53.4088 107.741 53.335 107.178 53.335V55.335ZM108.194 55.4784C108.422 55.5479 108.619 55.6716 108.796 55.8695L110.285 54.5345C109.873 54.075 109.367 53.7455 108.779 53.5656L108.194 55.4784ZM108.764 55.8326C108.886 55.9827 108.972 56.1076 109.029 56.2081L110.766 55.2159C110.642 54.999 110.489 54.784 110.317 54.5714L108.764 55.8326ZM109.056 56.2528C109.106 56.3304 109.136 56.3999 109.152 56.4627L111.085 55.9473C111.011 55.6701 110.893 55.4109 110.739 55.1712L109.056 56.2528ZM109.17 56.5212C109.197 56.6018 109.216 56.696 109.222 56.8077L111.219 56.6903C111.203 56.4167 111.154 56.1482 111.067 55.8888L109.17 56.5212ZM109.228 56.873C109.245 57.0067 109.255 57.163 109.255 57.344H111.255C111.255 57.0943 111.241 56.8539 111.213 56.625L109.228 56.873ZM109.255 57.344V58.704H111.255V57.344H109.255ZM109.255 58.704C109.255 59.0801 109.216 59.3816 109.152 59.6193L111.085 60.1347C111.203 59.6924 111.255 59.2119 111.255 58.704H109.255ZM109.145 59.6498C109.112 59.7909 109.015 60.0029 108.776 60.2861L110.305 61.5759C110.678 61.1337 110.967 60.6431 111.092 60.1042L109.145 59.6498ZM108.796 60.2635C108.619 60.4614 108.422 60.5851 108.194 60.6546L108.779 62.5674C109.367 62.3875 109.873 62.058 110.285 61.5985L108.796 60.2635ZM108.187 60.657C107.9 60.7471 107.566 60.798 107.178 60.798V62.798C107.741 62.798 108.28 62.7242 108.786 62.565L108.187 60.657ZM107.178 60.798H104.084V62.798H107.178V60.798ZM103.084 61.798V65.776H105.084V61.798H103.084ZM118.004 59.503L118.711 60.2101L118.725 60.196L118.738 60.1813L118.004 59.503ZM117.987 56.63L117.279 57.3371L117.294 57.3512L117.308 57.3648L117.987 56.63ZM114.128 56.426V55.426H113.128V56.426H114.128ZM114.128 59.707H113.128V60.707H114.128V59.707ZM113.907 66.728L113.046 66.2193L113.042 66.2255L113.038 66.2319L113.907 66.728ZM112.241 66.728L111.363 67.2069L111.376 67.231L111.39 67.2544L112.241 66.728ZM112.326 54.624L111.618 53.9169L111.618 53.9169L112.326 54.624ZM118.531 54.522L118.231 55.476L118.238 55.4784L118.531 54.522ZM119.585 55.202L120.361 54.5714L120.345 54.5525L120.329 54.5345L119.585 55.202ZM119.942 55.712L119.073 56.2081L119.086 56.2308L119.1 56.2528L119.942 55.712ZM120.163 56.205L119.196 56.4627L119.204 56.4922L119.214 56.5212L120.163 56.205ZM120.265 56.749L119.266 56.8077L119.268 56.8405L119.272 56.873L120.265 56.749ZM120.163 59.877L119.196 59.6193L119.192 59.6345L119.189 59.6498L120.163 59.877ZM119.585 60.931L120.329 61.5985L120.339 61.5874L120.349 61.5759L119.585 60.931ZM118.531 61.611L118.238 60.6546L118.231 60.657L118.531 61.611ZM114.128 61.798V60.798H113.128V61.798H114.128ZM117.273 60.707C117.69 60.707 118.282 60.6385 118.711 60.2101L117.296 58.7959C117.383 58.7098 117.457 58.6909 117.45 58.6928C117.448 58.6933 117.433 58.6972 117.402 58.7007C117.371 58.7042 117.329 58.707 117.273 58.707V60.707ZM118.738 60.1813C119.13 59.7572 119.208 59.2012 119.208 58.772H117.208C117.208 58.8242 117.205 58.8641 117.202 58.8932C117.198 58.9225 117.194 58.9374 117.193 58.941C117.191 58.9491 117.205 58.894 117.269 58.8247L118.738 60.1813ZM119.208 58.772V57.344H117.208V58.772H119.208ZM119.208 57.344C119.208 56.9094 119.122 56.3171 118.665 55.8952L117.308 57.3648C117.225 57.2876 117.2 57.215 117.197 57.2062C117.196 57.2021 117.199 57.2103 117.202 57.2346C117.205 57.2586 117.208 57.2945 117.208 57.344H119.208ZM118.694 55.9229C118.27 55.499 117.69 55.426 117.273 55.426V57.426C117.325 57.426 117.364 57.4286 117.392 57.4319C117.419 57.4352 117.432 57.4386 117.431 57.4385C117.431 57.4384 117.414 57.4336 117.387 57.4186C117.358 57.4033 117.32 57.3775 117.279 57.3371L118.694 55.9229ZM117.273 55.426H114.128V57.426H117.273V55.426ZM113.128 56.426V59.707H115.128V56.426H113.128ZM114.128 60.707H117.273V58.707H114.128V60.707ZM113.128 65.776C113.128 66.0397 113.077 66.1668 113.046 66.2193L114.767 67.2367C115.031 66.7905 115.128 66.283 115.128 65.776H113.128ZM113.038 66.2319C113.059 66.1959 113.087 66.161 113.121 66.1316C113.154 66.1027 113.183 66.087 113.2 66.0796C113.216 66.0727 113.217 66.0744 113.199 66.0777C113.18 66.081 113.145 66.085 113.091 66.085V68.085C113.666 68.085 114.383 67.9104 114.775 67.2241L113.038 66.2319ZM113.091 66.085C113.032 66.085 112.993 66.0808 112.969 66.0767C112.945 66.0727 112.941 66.0695 112.951 66.0738C112.962 66.0784 112.986 66.0903 113.015 66.1143C113.044 66.1389 113.071 66.1691 113.091 66.2016L111.39 67.2544C111.8 67.9158 112.51 68.085 113.091 68.085V66.085ZM113.118 66.2491C113.086 66.1898 113.037 66.0511 113.037 65.776H111.037C111.037 66.2716 111.123 66.7676 111.363 67.2069L113.118 66.2491ZM113.037 65.776V55.627H111.037V65.776H113.037ZM113.037 55.627C113.037 55.4508 113.055 55.3471 113.07 55.2961C113.084 55.2475 113.085 55.2791 113.033 55.3311L111.618 53.9169C111.139 54.3958 111.037 55.0692 111.037 55.627H113.037ZM113.033 55.3311C112.981 55.3831 112.949 55.3822 112.998 55.3682C113.049 55.3535 113.152 55.335 113.329 55.335V53.335C112.771 53.335 112.097 53.4379 111.618 53.9169L113.033 55.3311ZM113.329 55.335H117.222V53.335H113.329V55.335ZM117.222 55.335C117.61 55.335 117.944 55.3859 118.231 55.476L118.83 53.568C118.324 53.4088 117.785 53.335 117.222 53.335V55.335ZM118.238 55.4784C118.466 55.5479 118.663 55.6716 118.84 55.8695L120.329 54.5345C119.917 54.075 119.411 53.7455 118.823 53.5656L118.238 55.4784ZM118.808 55.8326C118.93 55.9827 119.016 56.1076 119.073 56.2081L120.81 55.2159C120.686 54.999 120.533 54.784 120.361 54.5714L118.808 55.8326ZM119.1 56.2528C119.15 56.3304 119.18 56.3999 119.196 56.4627L121.129 55.9473C121.055 55.6701 120.937 55.4109 120.783 55.1712L119.1 56.2528ZM119.214 56.5212C119.241 56.6018 119.26 56.696 119.266 56.8077L121.263 56.6903C121.247 56.4167 121.198 56.1482 121.111 55.8888L119.214 56.5212ZM119.272 56.873C119.289 57.0067 119.299 57.163 119.299 57.344H121.299C121.299 57.0943 121.285 56.8539 121.257 56.625L119.272 56.873ZM119.299 57.344V58.704H121.299V57.344H119.299ZM119.299 58.704C119.299 59.0801 119.26 59.3816 119.196 59.6193L121.129 60.1347C121.247 59.6924 121.299 59.2119 121.299 58.704H119.299ZM119.189 59.6498C119.156 59.7909 119.059 60.0029 118.82 60.2861L120.349 61.5759C120.722 61.1337 121.011 60.6431 121.136 60.1042L119.189 59.6498ZM118.84 60.2635C118.663 60.4614 118.466 60.5851 118.238 60.6546L118.823 62.5674C119.411 62.3875 119.917 62.058 120.329 61.5985L118.84 60.2635ZM118.231 60.657C117.944 60.7471 117.61 60.798 117.222 60.798V62.798C117.785 62.798 118.324 62.7242 118.83 62.565L118.231 60.657ZM117.222 60.798H114.128V62.798H117.222V60.798ZM113.128 61.798V65.776H115.128V61.798H113.128Z" fill="#FEFEFA" mask="url(#path-6-outside-3_123_205)"/>
</svg>
