{
  "accessors": [
    {
      "bufferView": 0,
      "byteOffset": 0,
      "count": 96,
      "componentType": 5126,
      "type": "VEC3",
      "min": [
        -0.004853750113397837,
        0.0010000000474974513,
        -0.0004350999952293933
      ],
      "max": [
        -0.002889602677896619,
        0.0020000000949949026,
        0.003979939967393875
      ]
    },
    {
      "bufferView": 0,
      "byteOffset": 12,
      "count": 96,
      "componentType": 5126,
      "type": "VEC3"
    },
    {
      "bufferView": 1,
      "byteOffset": 0,
      "count": 6,
      "componentType": 5126,
      "type": "VEC3",
      "min": [
        -0.004853750113397837,
        0.0010000000474974513,
        -0.0004350999952293933
      ],
      "max": [
        -0.004643749911338091,
        0.0020000000949949026,
        0.003979939967393875
      ]
    },
    {
      "bufferView": 1,
      "byteOffset": 12,
      "count": 6,
      "componentType": 5126,
      "type": "VEC3"
    },
    {
      "bufferView": 2,
      "byteOffset": 0,
      "count": 45,
      "componentType": 5126,
      "type": "VEC3",
      "min": [
        -0.004853750113397837,
        0.0010000000474974513,
        -0.0004350999952293933
      ],
      "max": [
        -0.002889602677896619,
        0.0010000000474974513,
        0.003979939967393875
      ]
    },
    {
      "bufferView": 2,
      "byteOffset": 12,
      "count": 45,
      "componentType": 5126,
      "type": "VEC3"
    },
    {
      "bufferView": 3,
      "byteOffset": 0,
      "count": 45,
      "componentType": 5126,
      "type": "VEC3",
      "min": [
        -0.004853750113397837,
        0.0020000000949949026,
        -0.0004350999952293933
      ],
      "max": [
        -0.002889602677896619,
        0.0020000000949949026,
        0.003979939967393875
      ]
    },
    {
      "bufferView": 3,
      "byteOffset": 12,
      "count": 45,
      "componentType": 5126,
      "type": "VEC3"
    },
    {
      "bufferView": 4,
      "byteOffset": 0,
      "count": 96,
      "componentType": 5126,
      "type": "VEC3",
      "min": [
        -0.013326220214366913,
        0.0010000000474974513,
        -0.005254484247416258
      ],
      "max": [
        -0.008966759778559208,
        0.0020000000949949026,
        -0.0030234800651669502
      ]
    },
    {
      "bufferView": 4,
      "byteOffset": 12,
      "count": 96,
      "componentType": 5126,
      "type": "VEC3"
    },
    {
      "bufferView": 5,
      "byteOffset": 0,
      "count": 6,
      "componentType": 5126,
      "type": "VEC3",
      "min": [
        -0.013326220214366913,
        0.0010000000474974513,
        -0.003752720076590776
      ],
      "max": [
        -0.008966759778559208,
        0.0020000000949949026,
        -0.0030234800651669502
      ]
    },
    {
      "bufferView": 5,
      "byteOffset": 12,
      "count": 6,
      "componentType": 5126,
      "type": "VEC3"
    },
    {
      "bufferView": 6,
      "byteOffset": 0,
      "count": 45,
      "componentType": 5126,
      "type": "VEC3",
      "min": [
        -0.013326220214366913,
        0.0010000000474974513,
        -0.005254484247416258
      ],
      "max": [
        -0.008966759778559208,
        0.0010000000474974513,
        -0.0030234800651669502
      ]
    },
    {
      "bufferView": 6,
      "byteOffset": 12,
      "count": 45,
      "componentType": 5126,
      "type": "VEC3"
    },
    {
      "bufferView": 7,
      "byteOffset": 0,
      "count": 45,
      "componentType": 5126,
      "type": "VEC3",
      "min": [
        -0.013326220214366913,
        0.0020000000949949026,
        -0.005254484247416258
      ],
      "max": [
        -0.008966759778559208,
        0.0020000000949949026,
        -0.0030234800651669502
      ]
    },
    {
      "bufferView": 7,
      "byteOffset": 12,
      "count": 45,
      "componentType": 5126,
      "type": "VEC3"
    }
  ],
  "asset": {
    "generator": "zoo.dev",
    "version": "2.0"
  },
  "buffers": [
    {
      "byteLength": 9216,
      "uri": "data:application/octet-stream;base64,"
    }
  ],
  "bufferViews": [
    {
      "buffer": 0,
      "byteLength": 2304,
      "byteOffset": 0,
      "byteStride": 24,
      "target": 34962
    },
    {
      "buffer": 0,
      "byteLength": 144,
      "byteOffset": 2304,
      "byteStride": 24,
      "target": 34962
    },
    {
      "buffer": 0,
      "byteLength": 1080,
      "byteOffset": 2448,
      "byteStride": 24,
      "target": 34962
    },
    {
      "buffer": 0,
      "byteLength": 1080,
      "byteOffset": 3528,
      "byteStride": 24,
      "target": 34962
    },
    {
      "buffer": 0,
      "byteLength": 2304,
      "byteOffset": 4608,
      "byteStride": 24,
      "target": 34962
    },
    {
      "buffer": 0,
      "byteLength": 144,
      "byteOffset": 6912,
      "byteStride": 24,
      "target": 34962
    },
    {
      "buffer": 0,
      "byteLength": 1080,
      "byteOffset": 7056,
      "byteStride": 24,
      "target": 34962
    },
    {
      "buffer": 0,
      "byteLength": 1080,
      "byteOffset": 8136,
      "byteStride": 24,
      "target": 34962
    }
  ],
  "scene": 0,
  "extensions": {
    "KITTYCAD_boundary_representation": {
      "solids": [
        {
          "shells": [
            [
              0,
              1
            ]
          ],
          "mesh": 0,
          "extras": {
            "KITTYCAD": {
              "material": 0
            }
          }
        },
        {
          "shells": [
            [
              1,
              1
            ]
          ],
          "mesh": 1,
          "extras": {
            "KITTYCAD": {
              "material": 1
            }
          }
        }
      ],
      "shells": [
        {
          "faces": [
            [
              0,
              1
            ],
            [
              1,
              1
            ],
            [
              2,
              1
            ],
            [
              3,
              1
            ]
          ]
        },
        {
          "faces": [
            [
              4,
              1
            ],
            [
              5,
              1
            ],
            [
              6,
              1
            ],
            [
              7,
              1
            ]
          ]
        }
      ],
      "faces": [
        {
          "surface": [
            0,
            1
          ],
          "loops": [
            [
              0,
              1
            ]
          ]
        },
        {
          "surface": [
            1,
            1
          ],
          "loops": [
            [
              1,
              1
            ]
          ]
        },
        {
          "surface": [
            2,
            -1
          ],
          "loops": [
            [
              2,
              1
            ]
          ]
        },
        {
          "surface": [
            3,
            1
          ],
          "loops": [
            [
              3,
              1
            ]
          ]
        },
        {
          "surface": [
            4,
            1
          ],
          "loops": [
            [
              4,
              1
            ]
          ]
        },
        {
          "surface": [
            5,
            -1
          ],
          "loops": [
            [
              5,
              1
            ]
          ]
        },
        {
          "surface": [
            6,
            1
          ],
          "loops": [
            [
              6,
              1
            ]
          ]
        },
        {
          "surface": [
            7,
            -1
          ],
          "loops": [
            [
              7,
              1
            ]
          ]
        }
      ],
      "loops": [
        {
          "edges": [
            [
              0,
              1
            ],
            [
              1,
              1
            ],
            [
              2,
              -1
            ],
            [
              3,
              -1
            ]
          ]
        },
        {
          "edges": [
            [
              4,
              1
            ],
            [
              3,
              1
            ],
            [
              5,
              -1
            ],
            [
              1,
              -1
            ]
          ]
        },
        {
          "edges": [
            [
              4,
              -1
            ],
            [
              0,
              -1
            ]
          ]
        },
        {
          "edges": [
            [
              2,
              1
            ],
            [
              5,
              1
            ]
          ]
        },
        {
          "edges": [
            [
              6,
              1
            ],
            [
              7,
              1
            ],
            [
              8,
              -1
            ],
            [
              9,
              -1
            ]
          ]
        },
        {
          "edges": [
            [
              8,
              1
            ],
            [
              10,
              1
            ],
            [
              6,
              -1
            ],
            [
              11,
              -1
            ]
          ]
        },
        {
          "edges": [
            [
              9,
              1
            ],
            [
              11,
              1
            ]
          ]
        },
        {
          "edges": [
            [
              10,
              -1
            ],
            [
              7,
              -1
            ]
          ]
        }
      ],
      "edges": [
        {
          "curve": [
            0,
            1
          ],
          "start": 0,
          "end": 1,
          "t": [
            0.0000003620124552212433,
            2.7997680466291937
          ]
        },
        {
          "curve": [
            1,
            1
          ],
          "start": 1,
          "end": 2,
          "t": [
            0,
            0.001
          ]
        },
        {
          "curve": [
            2,
            1
          ],
          "start": 3,
          "end": 2,
          "t": [
            0.0000003620124552212433,
            2.7997680466291937
          ]
        },
        {
          "curve": [
            3,
            1
          ],
          "start": 0,
          "end": 3,
          "t": [
            0,
            0.001
          ]
        },
        {
          "curve": [
            4,
            1
          ],
          "start": 1,
          "end": 0,
          "t": [
            0,
            0.004420031470657194
          ]
        },
        {
          "curve": [
            5,
            1
          ],
          "start": 2,
          "end": 3,
          "t": [
            0,
            0.004420031470657194
          ]
        },
        {
          "curve": [
            6,
            1
          ],
          "start": 4,
          "end": 5,
          "t": [
            0,
            0.001
          ]
        },
        {
          "curve": [
            7,
            1
          ],
          "start": 5,
          "end": 6,
          "t": [
            6.283184845276421,
            9.082954348396289
          ]
        },
        {
          "curve": [
            8,
            1
          ],
          "start": 7,
          "end": 6,
          "t": [
            0,
            0.001
          ]
        },
        {
          "curve": [
            9,
            1
          ],
          "start": 4,
          "end": 7,
          "t": [
            6.283184845276421,
            9.082954348396289
          ]
        },
        {
          "curve": [
            10,
            1
          ],
          "start": 6,
          "end": 5,
          "t": [
            0,
            0.00442003195341391
          ]
        },
        {
          "curve": [
            11,
            1
          ],
          "start": 7,
          "end": 4,
          "t": [
            0,
            0.00442003195341391
          ]
        }
      ],
      "vertices": [
        [
          -0.00464375,
          0.001,
          0.00397994
        ],
        [
          -0.00485375,
          0.001,
          -0.0004351
        ],
        [
          -0.00485375,
          0.002,
          -0.0004351
        ],
        [
          -0.00464375,
          0.002,
          0.00397994
        ],
        [
          -0.01332622,
          0.001,
          -0.00302348
        ],
        [
          -0.01332622,
          0.002,
          -0.00302348
        ],
        [
          -0.00896676,
          0.002,
          -0.00375272
        ],
        [
          -0.00896676,
          0.001,
          -0.00375272
        ]
      ],
      "surfaces": [
        {
          "type": "cylinder",
          "cylinder": {
            "xAxis": [
              0.21670772970222257,
              0,
              0.9762365286585564
            ],
            "yAxis": [
              0.9762365286585564,
              0,
              -0.21670772970222257
            ],
            "origin": [
              -0.00512976,
              0.0015,
              0.00179054
            ],
            "radius": 0.00224269
          }
        },
        {
          "type": "plane",
          "plane": {
            "xAxis": [
              0.047510089908904506,
              0,
              0.9988707580847724
            ],
            "yAxis": [
              0,
              1,
              -0
            ],
            "origin": [
              -0.00474875,
              0.0015,
              0.00177242
            ]
          }
        },
        {
          "type": "plane",
          "plane": {
            "xAxis": [
              1,
              0,
              0
            ],
            "yAxis": [
              0,
              0,
              -1
            ],
            "origin": [
              0,
              0.001,
              -0
            ]
          }
        },
        {
          "type": "plane",
          "plane": {
            "xAxis": [
              1,
              0,
              0
            ],
            "yAxis": [
              0,
              0,
              -1
            ],
            "origin": [
              0,
              0.002,
              -0
            ]
          }
        },
        {
          "type": "cylinder",
          "cylinder": {
            "xAxis": [
              -0.9999866440415236,
              0,
              -0.0051683400208882456
            ],
            "yAxis": [
              0.0051683400208882456,
              0,
              -0.9999866440415236
            ],
            "origin": [
              -0.01108355,
              0.0015,
              -0.00301189
            ],
            "radius": 0.00224269
          }
        },
        {
          "type": "plane",
          "plane": {
            "xAxis": [
              0.9862958068917635,
              0,
              -0.16498660948005725
            ],
            "yAxis": [
              0,
              -1,
              -0
            ],
            "origin": [
              -0.01114649,
              0.0015,
              -0.0033881
            ]
          }
        },
        {
          "type": "plane",
          "plane": {
            "xAxis": [
              1,
              0,
              0
            ],
            "yAxis": [
              0,
              -0,
              1
            ],
            "origin": [
              -0.01041935,
              0.001,
              -0.00840441
            ]
          }
        },
        {
          "type": "plane",
          "plane": {
            "xAxis": [
              1,
              0,
              0
            ],
            "yAxis": [
              0,
              -0,
              1
            ],
            "origin": [
              -0.01041935,
              0.002,
              -0.00840441
            ]
          }
        }
      ],
      "curves3D": [
        {
          "type": "circle",
          "circle": {
            "xAxis": [
              0.21670772970222257,
              0,
              0.9762365286585564
            ],
            "yAxis": [
              0.9762365286585564,
              0,
              -0.21670772970222257
            ],
            "origin": [
              -0.00512976,
              0.001,
              0.00179054
            ],
            "radius": 0.00224269
          }
        },
        {
          "type": "line",
          "line": {
            "origin": [
              -0.00485375,
              0.001,
              -0.0004351000000000001
            ],
            "direction": [
              0,
              1,
              0
            ]
          }
        },
        {
          "type": "circle",
          "circle": {
            "xAxis": [
              0.21670772970222257,
              0,
              0.9762365286585564
            ],
            "yAxis": [
              0.9762365286585564,
              0,
              -0.21670772970222257
            ],
            "origin": [
              -0.00512976,
              0.002,
              0.00179054
            ],
            "radius": 0.00224269
          }
        },
        {
          "type": "line",
          "line": {
            "origin": [
              -0.00464375,
              0.001,
              0.003979940000000001
            ],
            "direction": [
              0,
              1,
              0
            ]
          }
        },
        {
          "type": "line",
          "line": {
            "origin": [
              -0.00485375,
              0.001,
              -0.0004351
            ],
            "direction": [
              0.04751097393629557,
              0,
              0.9988707160366777
            ]
          }
        },
        {
          "type": "line",
          "line": {
            "origin": [
              -0.00485375,
              0.002,
              -0.0004351
            ],
            "direction": [
              0.04751097393629557,
              0,
              0.9988707160366777
            ]
          }
        },
        {
          "type": "line",
          "line": {
            "origin": [
              -0.01332622,
              0.001,
              -0.00302348
            ],
            "direction": [
              0,
              1,
              0
            ]
          }
        },
        {
          "type": "circle",
          "circle": {
            "xAxis": [
              -0.9999866440415236,
              0,
              -0.0051683400208882456
            ],
            "yAxis": [
              0.0051683400208882456,
              0,
              -0.9999866440415236
            ],
            "origin": [
              -0.01108355,
              0.002,
              -0.00301189
            ],
            "radius": 0.00224269
          }
        },
        {
          "type": "line",
          "line": {
            "origin": [
              -0.00896676,
              0.001,
              -0.00375272
            ],
            "direction": [
              0,
              1,
              0
            ]
          }
        },
        {
          "type": "circle",
          "circle": {
            "xAxis": [
              -0.9999866440415236,
              0,
              -0.0051683400208882456
            ],
            "yAxis": [
              0.0051683400208882456,
              0,
              -0.9999866440415236
            ],
            "origin": [
              -0.01108355,
              0.001,
              -0.00301189
            ],
            "radius": 0.00224269
          }
        },
        {
          "type": "line",
          "line": {
            "origin": [
              -0.00896676,
              0.002,
              -0.00375272
            ],
            "direction": [
              -0.9862960372114216,
              0,
              0.1649852326150619
            ]
          }
        },
        {
          "type": "line",
          "line": {
            "origin": [
              -0.00896676,
              0.001,
              -0.00375272
            ],
            "direction": [
              -0.9862960372114216,
              0,
              0.1649852326150619
            ]
          }
        }
      ]
    }
  },
  "extensionsUsed": [
    "KITTYCAD_boundary_representation"
  ],
  "materials": [
    {
      "alphaMode": "OPAQUE",
      "doubleSided": false,
      "pbrMetallicRoughness": {
        "baseColorFactor": [
          0.9,
          0.9,
          0.9,
          1
        ],
        "metallicFactor": 1,
        "roughnessFactor": 1
      },
      "emissiveFactor": [
        0,
        0,
        0
      ]
    },
    {
      "alphaMode": "OPAQUE",
      "doubleSided": false,
      "pbrMetallicRoughness": {
        "baseColorFactor": [
          0.9,
          0.9,
          0.9,
          1
        ],
        "metallicFactor": 1,
        "roughnessFactor": 1
      },
      "emissiveFactor": [
        0,
        0,
        0
      ]
    }
  ],
  "meshes": [
    {
      "primitives": [
        {
          "attributes": {
            "POSITION": 0,
            "NORMAL": 1
          },
          "material": 0
        },
        {
          "attributes": {
            "POSITION": 2,
            "NORMAL": 3
          },
          "material": 0
        },
        {
          "attributes": {
            "POSITION": 4,
            "NORMAL": 5
          },
          "material": 0
        },
        {
          "attributes": {
            "POSITION": 6,
            "NORMAL": 7
          },
          "material": 0
        }
      ]
    },
    {
      "primitives": [
        {
          "attributes": {
            "POSITION": 8,
            "NORMAL": 9
          },
          "material": 1
        },
        {
          "attributes": {
            "POSITION": 10,
            "NORMAL": 11
          },
          "material": 1
        },
        {
          "attributes": {
            "POSITION": 12,
            "NORMAL": 13
          },
          "material": 1
        },
        {
          "attributes": {
            "POSITION": 14,
            "NORMAL": 15
          },
          "material": 1
        }
      ]
    }
  ],
  "nodes": [
    {
      "children": [
        1
      ]
    },
    {
      "children": [
        2,
        3
      ]
    },
    {
      "extensions": {
        "KITTYCAD_boundary_representation": {
          "solid": 0
        }
      },
      "mesh": 0
    },
    {
      "extensions": {
        "KITTYCAD_boundary_representation": {
          "solid": 1
        }
      },
      "mesh": 1
    }
  ],
  "scenes": [
    {
      "nodes": [
        0
      ]
    }
  ]
}