{
  "accessors": [
    {
      "bufferView": 0,
      "byteOffset": 0,
      "count": 18,
      "componentType": 5126,
      "type": "VEC3",
      "min": [
        0,
        0,
        -0.0010000000474974513
      ],
      "max": [
        0.006000000052154064,
        0.00800000037997961,
        -0
      ]
    },
    {
      "bufferView": 0,
      "byteOffset": 12,
      "count": 18,
      "componentType": 5126,
      "type": "VEC3"
    },
    {
      "bufferView": 1,
      "byteOffset": 0,
      "count": 213,
      "componentType": 5126,
      "type": "VEC3",
      "min": [
        0,
        0,
        -0.004000000189989805
      ],
      "max": [
        0.00279999990016222,
        0.00800000037997961,
        -0
      ]
    },
    {
      "bufferView": 1,
      "byteOffset": 12,
      "count": 213,
      "componentType": 5126,
      "type": "VEC3"
    },
    {
      "bufferView": 2,
      "byteOffset": 0,
      "count": 15,
      "componentType": 5126,
      "type": "VEC3",
      "min": [
        0,
        0,
        -0.004000000189989805
      ],
      "max": [
        0.006000000052154064,
        0.00800000037997961,
        -0.0026000000070780516
      ]
    },
    {
      "bufferView": 2,
      "byteOffset": 12,
      "count": 15,
      "componentType": 5126,
      "type": "VEC3"
    },
    {
      "bufferView": 3,
      "byteOffset": 0,
      "count": 228,
      "componentType": 5126,
      "type": "VEC3",
      "min": [
        0.0031999999191612005,
        0,
        -0.004000000189989805
      ],
      "max": [
        0.006000000052154064,
        0.00800000037997961,
        -0
      ]
    },
    {
      "bufferView": 3,
      "byteOffset": 12,
      "count": 228,
      "componentType": 5126,
      "type": "VEC3"
    },
    {
      "bufferView": 4,
      "byteOffset": 0,
      "count": 12,
      "componentType": 5126,
      "type": "VEC3",
      "min": [
        0,
        0,
        -0.004000000189989805
      ],
      "max": [
        0.006000000052154064,
        0,
        -0
      ]
    },
    {
      "bufferView": 4,
      "byteOffset": 12,
      "count": 12,
      "componentType": 5126,
      "type": "VEC3"
    },
    {
      "bufferView": 5,
      "byteOffset": 0,
      "count": 12,
      "componentType": 5126,
      "type": "VEC3",
      "min": [
        0.0015999999595806005,
        0.00800000037997961,
        -0.0026000000070780516
      ],
      "max": [
        0.004399999976158142,
        0.00800000037997961,
        -0.0010000000474974513
      ]
    },
    {
      "bufferView": 5,
      "byteOffset": 12,
      "count": 12,
      "componentType": 5126,
      "type": "VEC3"
    }
  ],
  "asset": {
    "generator": "zoo.dev",
    "version": "2.0"
  },
  "buffers": [
    {
      "byteLength": 11952,
      "uri": "data:application/octet-stream;base64,"
    }
  ],
  "bufferViews": [
    {
      "buffer": 0,
      "byteLength": 432,
      "byteOffset": 0,
      "byteStride": 24,
      "target": 34962
    },
    {
      "buffer": 0,
      "byteLength": 5112,
      "byteOffset": 432,
      "byteStride": 24,
      "target": 34962
    },
    {
      "buffer": 0,
      "byteLength": 360,
      "byteOffset": 5544,
      "byteStride": 24,
      "target": 34962
    },
    {
      "buffer": 0,
      "byteLength": 5472,
      "byteOffset": 5904,
      "byteStride": 24,
      "target": 34962
    },
    {
      "buffer": 0,
      "byteLength": 288,
      "byteOffset": 11376,
      "byteStride": 24,
      "target": 34962
    },
    {
      "buffer": 0,
      "byteLength": 288,
      "byteOffset": 11664,
      "byteStride": 24,
      "target": 34962
    }
  ],
  "scene": 0,
  "extensions": {
    "KITTYCAD_boundary_representation": {
      "solids": [
        {
          "shells": [
            [
              0,
              1
            ]
          ],
          "mesh": 0,
          "extras": {
            "KITTYCAD": {
              "material": 0
            }
          }
        }
      ],
      "shells": [
        {
          "faces": [
            [
              0,
              1
            ],
            [
              1,
              1
            ],
            [
              2,
              1
            ],
            [
              3,
              1
            ],
            [
              4,
              1
            ],
            [
              5,
              1
            ]
          ]
        }
      ],
      "faces": [
        {
          "surface": [
            0,
            1
          ],
          "loops": [
            [
              0,
              1
            ]
          ]
        },
        {
          "surface": [
            1,
            1
          ],
          "loops": [
            [
              1,
              1
            ]
          ]
        },
        {
          "surface": [
            2,
            1
          ],
          "loops": [
            [
              2,
              1
            ]
          ]
        },
        {
          "surface": [
            3,
            1
          ],
          "loops": [
            [
              3,
              1
            ]
          ]
        },
        {
          "surface": [
            4,
            -1
          ],
          "loops": [
            [
              4,
              1
            ]
          ]
        },
        {
          "surface": [
            5,
            1
          ],
          "loops": [
            [
              5,
              1
            ]
          ]
        }
      ],
      "loops": [
        {
          "edges": [
            [
              0,
              -1
            ],
            [
              1,
              1
            ],
            [
              2,
              1
            ],
            [
              3,
              1
            ]
          ]
        },
        {
          "edges": [
            [
              2,
              -1
            ],
            [
              4,
              1
            ],
            [
              5,
              1
            ],
            [
              6,
              1
            ]
          ]
        },
        {
          "edges": [
            [
              5,
              -1
            ],
            [
              7,
              1
            ],
            [
              8,
              1
            ],
            [
              9,
              1
            ]
          ]
        },
        {
          "edges": [
            [
              8,
              -1
            ],
            [
              10,
              1
            ],
            [
              0,
              1
            ],
            [
              11,
              1
            ]
          ]
        },
        {
          "edges": [
            [
              3,
              -1
            ],
            [
              6,
              -1
            ],
            [
              9,
              -1
            ],
            [
              11,
              -1
            ]
          ]
        },
        {
          "edges": [
            [
              10,
              -1
            ],
            [
              7,
              -1
            ],
            [
              4,
              -1
            ],
            [
              1,
              -1
            ]
          ]
        }
      ],
      "edges": [
        {
          "curve": [
            0,
            1
          ],
          "start": 0,
          "end": 1,
          "t": [
            0,
            0.008219489035213806
          ]
        },
        {
          "curve": [
            1,
            1
          ],
          "start": 0,
          "end": 2,
          "t": [
            0,
            0.0028000000000000004
          ]
        },
        {
          "curve": [
            2,
            1
          ],
          "start": 2,
          "end": 3,
          "t": [
            0,
            0.008219489035213806
          ]
        },
        {
          "curve": [
            3,
            1
          ],
          "start": 3,
          "end": 1,
          "t": [
            0,
            0.006
          ]
        },
        {
          "curve": [
            4,
            1
          ],
          "start": 2,
          "end": 4,
          "t": [
            0,
            0.0019999999999999996
          ]
        },
        {
          "curve": [
            5,
            1
          ],
          "start": 4,
          "end": 5,
          "t": [
            0,
            0.008590692637965813
          ]
        },
        {
          "curve": [
            6,
            1
          ],
          "start": 5,
          "end": 3,
          "t": [
            0,
            0.004
          ]
        },
        {
          "curve": [
            7,
            1
          ],
          "start": 4,
          "end": 6,
          "t": [
            0,
            0.0004000000000000002
          ]
        },
        {
          "curve": [
            8,
            1
          ],
          "start": 6,
          "end": 7,
          "t": [
            0,
            0.008590692637965813
          ]
        },
        {
          "curve": [
            9,
            1
          ],
          "start": 7,
          "end": 5,
          "t": [
            0,
            0.006
          ]
        },
        {
          "curve": [
            10,
            1
          ],
          "start": 6,
          "end": 0,
          "t": [
            0,
            0.002
          ]
        },
        {
          "curve": [
            11,
            1
          ],
          "start": 1,
          "end": 7,
          "t": [
            0,
            0.004
          ]
        }
      ],
      "vertices": [
        [
          0.0044,
          0.008,
          -0.001
        ],
        [
          0.006,
          0,
          -0
        ],
        [
          0.0016,
          0.008,
          -0.001
        ],
        [
          0,
          0,
          -0
        ],
        [
          0.0028,
          0.008,
          -0.0026
        ],
        [
          0,
          0,
          -0.004
        ],
        [
          0.0032,
          0.008,
          -0.0026
        ],
        [
          0.006,
          0,
          -0.004
        ]
      ],
      "surfaces": [
        {
          "type": "plane",
          "plane": {
            "xAxis": [
              1,
              0,
              -0
            ],
            "yAxis": [
              -0,
              0.9922778773290524,
              -0.12403472966613156
            ],
            "origin": [
              0.003,
              0.004,
              -0.0005
            ]
          }
        },
        {
          "type": "nurbs",
          "nurbs": {
            "controlPoints": [
              [
                0,
                0,
                -0
              ],
              [
                0,
                0,
                -0.004
              ],
              [
                0.0016,
                0.008,
                -0.001
              ],
              [
                0.0028,
                0.008,
                -0.0026
              ]
            ],
            "numControlPoints": [
              2,
              2
            ],
            "numKnots": [
              4,
              4
            ],
            "knotVector": [
              0,
              0,
              1,
              1,
              0,
              0,
              1,
              1
            ],
            "order": [
              2,
              2
            ]
          }
        },
        {
          "type": "plane",
          "plane": {
            "xAxis": [
              1,
              0,
              0
            ],
            "yAxis": [
              0,
              -0.985030467537754,
              -0.17238032956910693
            ],
            "origin": [
              0.003,
              0.004,
              -0.0033
            ]
          }
        },
        {
          "type": "nurbs",
          "nurbs": {
            "controlPoints": [
              [
                0.006,
                0,
                -0.004
              ],
              [
                0.006,
                0,
                -0
              ],
              [
                0.0032,
                0.008,
                -0.0026
              ],
              [
                0.0044,
                0.008,
                -0.001
              ]
            ],
            "numControlPoints": [
              2,
              2
            ],
            "numKnots": [
              4,
              4
            ],
            "knotVector": [
              0,
              0,
              1,
              1,
              0,
              0,
              1,
              1
            ],
            "order": [
              2,
              2
            ]
          }
        },
        {
          "type": "plane",
          "plane": {
            "xAxis": [
              1,
              0,
              0
            ],
            "yAxis": [
              0,
              0,
              -1
            ],
            "origin": [
              0,
              0,
              -0
            ]
          }
        },
        {
          "type": "plane",
          "plane": {
            "xAxis": [
              1,
              0,
              0
            ],
            "yAxis": [
              0,
              0,
              -1
            ],
            "origin": [
              0,
              0.008,
              -0
            ]
          }
        }
      ],
      "curves3D": [
        {
          "type": "line",
          "line": {
            "origin": [
              0.0044,
              0.008,
              -0.001
            ],
            "direction": [
              0.19465930219570884,
              -0.9732965109785444,
              0.12166206387231804
            ]
          }
        },
        {
          "type": "line",
          "line": {
            "origin": [
              0.0044,
              0.008,
              -0.001
            ],
            "direction": [
              -1,
              0,
              0
            ]
          }
        },
        {
          "type": "line",
          "line": {
            "origin": [
              0.0016,
              0.008,
              -0.001
            ],
            "direction": [
              -0.19465930219570887,
              -0.9732965109785444,
              0.12166206387231804
            ]
          }
        },
        {
          "type": "line",
          "line": {
            "origin": [
              0,
              0,
              -0
            ],
            "direction": [
              1,
              0,
              -0
            ]
          }
        },
        {
          "type": "line",
          "line": {
            "origin": [
              0.0016,
              0.008,
              -0.001
            ],
            "direction": [
              0.6000000000000001,
              0,
              -0.8
            ]
          }
        },
        {
          "type": "line",
          "line": {
            "origin": [
              0.0028,
              0.008,
              -0.0026
            ],
            "direction": [
              -0.3259341380258032,
              -0.9312403943594376,
              -0.16296706901290162
            ]
          }
        },
        {
          "type": "line",
          "line": {
            "origin": [
              0,
              0,
              -0.004
            ],
            "direction": [
              0,
              0,
              1
            ]
          }
        },
        {
          "type": "line",
          "line": {
            "origin": [
              0.0028,
              0.008,
              -0.0026
            ],
            "direction": [
              1,
              0,
              -0
            ]
          }
        },
        {
          "type": "line",
          "line": {
            "origin": [
              0.0032,
              0.008,
              -0.0026
            ],
            "direction": [
              0.3259341380258032,
              -0.9312403943594376,
              -0.16296706901290162
            ]
          }
        },
        {
          "type": "line",
          "line": {
            "origin": [
              0.006,
              0,
              -0.004
            ],
            "direction": [
              -1,
              0,
              0
            ]
          }
        },
        {
          "type": "line",
          "line": {
            "origin": [
              0.0032,
              0.008,
              -0.0026
            ],
            "direction": [
              0.6000000000000001,
              0,
              0.7999999999999999
            ]
          }
        },
        {
          "type": "line",
          "line": {
            "origin": [
              0.006,
              0,
              -0
            ],
            "direction": [
              0,
              0,
              -1
            ]
          }
        }
      ]
    }
  },
  "extensionsUsed": [
    "KITTYCAD_boundary_representation"
  ],
  "materials": [
    {
      "alphaMode": "OPAQUE",
      "doubleSided": false,
      "pbrMetallicRoughness": {
        "baseColorFactor": [
          0.9,
          0.9,
          0.9,
          1
        ],
        "metallicFactor": 1,
        "roughnessFactor": 1
      },
      "emissiveFactor": [
        0,
        0,
        0
      ]
    }
  ],
  "meshes": [
    {
      "primitives": [
        {
          "attributes": {
            "POSITION": 0,
            "NORMAL": 1
          },
          "material": 0
        },
        {
          "attributes": {
            "POSITION": 2,
            "NORMAL": 3
          },
          "material": 0
        },
        {
          "attributes": {
            "POSITION": 4,
            "NORMAL": 5
          },
          "material": 0
        },
        {
          "attributes": {
            "POSITION": 6,
            "NORMAL": 7
          },
          "material": 0
        },
        {
          "attributes": {
            "POSITION": 8,
            "NORMAL": 9
          },
          "material": 0
        },
        {
          "attributes": {
            "POSITION": 10,
            "NORMAL": 11
          },
          "material": 0
        }
      ]
    }
  ],
  "nodes": [
    {
      "children": [
        1
      ]
    },
    {
      "children": [
        2
      ]
    },
    {
      "extensions": {
        "KITTYCAD_boundary_representation": {
          "solid": 0
        }
      },
      "mesh": 0
    }
  ],
  "scenes": [
    {
      "nodes": [
        0
      ]
    }
  ]
}