{
  "accessors": [
    {
      "bufferView": 0,
      "byteOffset": 0,
      "count": 384,
      "componentType": 5126,
      "type": "VEC3",
      "min": [
        -0.014999999664723871,
        -0.014999999664723871,
        0
      ],
      "max": [
        0.014999999664723871,
        0.0000000000000000024492935810932442,
        0.004999999888241291
      ]
    },
    {
      "bufferView": 0,
      "byteOffset": 12,
      "count": 384,
      "componentType": 5126,
      "type": "VEC3"
    },
    {
      "bufferView": 1,
      "byteOffset": 0,
      "count": 384,
      "componentType": 5126,
      "type": "VEC3",
      "min": [
        -0.019999999552965164,
        -0.0000000000000000024492935810932442,
        0
      ],
      "max": [
        0.019999999552965164,
        0.019999999552965164,
        0.004999999888241291
      ]
    },
    {
      "bufferView": 1,
      "byteOffset": 12,
      "count": 384,
      "componentType": 5126,
      "type": "VEC3"
    },
    {
      "bufferView": 2,
      "byteOffset": 0,
      "count": 768,
      "componentType": 5126,
      "type": "VEC3",
      "min": [
        -0.019999999552965164,
        -0.019999999552965164,
        0
      ],
      "max": [
        0.019999999552965164,
        0.019999999552965164,
        0
      ]
    },
    {
      "bufferView": 2,
      "byteOffset": 12,
      "count": 768,
      "componentType": 5126,
      "type": "VEC3"
    },
    {
      "bufferView": 3,
      "byteOffset": 0,
      "count": 384,
      "componentType": 5126,
      "type": "VEC3",
      "min": [
        -0.014999999664723871,
        -0.000000000000000001836970237518721,
        0
      ],
      "max": [
        0.014999999664723871,
        0.014999999664723871,
        0.004999999888241291
      ]
    },
    {
      "bufferView": 3,
      "byteOffset": 12,
      "count": 384,
      "componentType": 5126,
      "type": "VEC3"
    },
    {
      "bufferView": 4,
      "byteOffset": 0,
      "count": 384,
      "componentType": 5126,
      "type": "VEC3",
      "min": [
        -0.019999999552965164,
        -0.019999999552965164,
        0
      ],
      "max": [
        0.019999999552965164,
        0,
        0.004999999888241291
      ]
    },
    {
      "bufferView": 4,
      "byteOffset": 12,
      "count": 384,
      "componentType": 5126,
      "type": "VEC3"
    }
  ],
  "asset": {
    "generator": "zoo.dev",
    "version": "2.0"
  },
  "buffers": [
    {
      "byteLength": 55296,
      "uri": "data:application/octet-stream;base64,"
    }
  ],
  "bufferViews": [
    {
      "buffer": 0,
      "byteLength": 9216,
      "byteOffset": 0,
      "byteStride": 24,
      "target": 34962
    },
    {
      "buffer": 0,
      "byteLength": 9216,
      "byteOffset": 9216,
      "byteStride": 24,
      "target": 34962
    },
    {
      "buffer": 0,
      "byteLength": 18432,
      "byteOffset": 18432,
      "byteStride": 24,
      "target": 34962
    },
    {
      "buffer": 0,
      "byteLength": 9216,
      "byteOffset": 36864,
      "byteStride": 24,
      "target": 34962
    },
    {
      "buffer": 0,
      "byteLength": 9216,
      "byteOffset": 46080,
      "byteStride": 24,
      "target": 34962
    }
  ],
  "scene": 0,
  "extensions": {
    "KITTYCAD_boundary_representation": {
      "solids": [
        {
          "shells": [
            [
              0,
              1
            ]
          ],
          "mesh": 0,
          "extras": {
            "KITTYCAD": {
              "material": 0
            }
          }
        }
      ],
      "shells": [
        {
          "faces": [
            [
              0,
              1
            ],
            [
              1,
              1
            ],
            [
              2,
              1
            ],
            [
              3,
              1
            ],
            [
              4,
              1
            ]
          ]
        }
      ],
      "faces": [
        {
          "surface": [
            0,
            -1
          ],
          "loops": [
            [
              0,
              1
            ]
          ]
        },
        {
          "surface": [
            1,
            1
          ],
          "loops": [
            [
              1,
              1
            ]
          ]
        },
        {
          "surface": [
            2,
            1
          ],
          "loops": [
            [
              2,
              1
            ],
            [
              3,
              1
            ]
          ]
        },
        {
          "surface": [
            0,
            -1
          ],
          "loops": [
            [
              4,
              1
            ]
          ]
        },
        {
          "surface": [
            1,
            1
          ],
          "loops": [
            [
              5,
              1
            ]
          ]
        }
      ],
      "loops": [
        {
          "edges": [
            [
              0,
              -1
            ],
            [
              1,
              -1
            ],
            [
              2,
              1
            ],
            [
              3,
              -1
            ]
          ]
        },
        {
          "edges": [
            [
              4,
              1
            ],
            [
              5,
              1
            ],
            [
              6,
              -1
            ],
            [
              7,
              -1
            ]
          ]
        },
        {
          "edges": [
            [
              8,
              1
            ],
            [
              7,
              1
            ]
          ]
        },
        {
          "edges": [
            [
              9,
              1
            ],
            [
              3,
              1
            ]
          ]
        },
        {
          "edges": [
            [
              0,
              1
            ],
            [
              9,
              -1
            ],
            [
              2,
              -1
            ],
            [
              5,
              -1
            ]
          ]
        },
        {
          "edges": [
            [
              4,
              -1
            ],
            [
              8,
              -1
            ],
            [
              6,
              1
            ],
            [
              1,
              1
            ]
          ]
        }
      ],
      "edges": [
        {
          "curve": [
            0,
            -1
          ],
          "start": 0,
          "end": 1,
          "t": [
            0.0000000000000000026020852139652106,
            0.007071067811865475
          ]
        },
        {
          "curve": [
            1,
            1
          ],
          "start": 2,
          "end": 0,
          "t": [
            0,
            3.141592653589793
          ]
        },
        {
          "curve": [
            2,
            -1
          ],
          "start": 2,
          "end": 3,
          "t": [
            0.0000000000000000008673617379884035,
            0.007071067811865475
          ]
        },
        {
          "curve": [
            3,
            1
          ],
          "start": 1,
          "end": 3,
          "t": [
            3.141592653589793,
            6.283185307179586
          ]
        },
        {
          "curve": [
            4,
            -1
          ],
          "start": 4,
          "end": 0,
          "t": [
            0.0000000000000000026020852139652106,
            0.007071067811865475
          ]
        },
        {
          "curve": [
            1,
            1
          ],
          "start": 0,
          "end": 2,
          "t": [
            3.141592653589793,
            6.283185307179586
          ]
        },
        {
          "curve": [
            5,
            -1
          ],
          "start": 5,
          "end": 2,
          "t": [
            0.0000000000000000026020852139652106,
            0.007071067811865475
          ]
        },
        {
          "curve": [
            6,
            1
          ],
          "start": 4,
          "end": 5,
          "t": [
            3.141592653589793,
            6.283185307179586
          ]
        },
        {
          "curve": [
            6,
            1
          ],
          "start": 5,
          "end": 4,
          "t": [
            0,
            3.141592653589793
          ]
        },
        {
          "curve": [
            3,
            1
          ],
          "start": 3,
          "end": 1,
          "t": [
            0,
            3.141592653589793
          ]
        }
      ],
      "vertices": [
        [
          -0.015,
          -0.0000000000000000018369701987210296,
          0.005
        ],
        [
          -0.01,
          0.0000000000000000012246467991473532,
          0
        ],
        [
          0.015,
          0,
          0.005
        ],
        [
          0.01,
          0.0000000000000000024492935982947064,
          -0
        ],
        [
          -0.02,
          -0.0000000000000000024492935982947064,
          0
        ],
        [
          0.02,
          0,
          -0
        ]
      ],
      "surfaces": [
        {
          "type": "cone",
          "cone": {
            "xAxis": [
              1,
              0,
              0
            ],
            "yAxis": [
              0,
              1,
              0
            ],
            "origin": [
              0,
              0,
              0
            ],
            "radius": 0.009999999999999998,
            "semiAngle": 0.7853981633974483
          }
        },
        {
          "type": "cone",
          "cone": {
            "xAxis": [
              1,
              0,
              -0
            ],
            "yAxis": [
              0,
              -1,
              -0
            ],
            "origin": [
              0,
              0,
              0.005
            ],
            "radius": 0.014999999999999998,
            "semiAngle": 0.7853981633974483
          }
        },
        {
          "type": "plane",
          "plane": {
            "xAxis": [
              1,
              0,
              0
            ],
            "yAxis": [
              0,
              -1,
              0
            ],
            "origin": [
              0.02,
              0,
              -0
            ]
          }
        }
      ],
      "curves3D": [
        {
          "type": "line",
          "line": {
            "origin": [
              -0.009999999999999998,
              0.000000000000000001224646799147353,
              0
            ],
            "direction": [
              -0.7071067811865475,
              0.00000000000000008659560562354934,
              0.7071067811865477
            ]
          }
        },
        {
          "type": "circle",
          "circle": {
            "xAxis": [
              1,
              0,
              -0
            ],
            "yAxis": [
              0,
              -1,
              -0
            ],
            "origin": [
              0,
              0,
              0.005
            ],
            "radius": 0.015
          }
        },
        {
          "type": "line",
          "line": {
            "origin": [
              0.009999999999999998,
              0,
              0
            ],
            "direction": [
              0.7071067811865475,
              0,
              0.7071067811865477
            ]
          }
        },
        {
          "type": "circle",
          "circle": {
            "xAxis": [
              1,
              0,
              0
            ],
            "yAxis": [
              0,
              1,
              0
            ],
            "origin": [
              0,
              0,
              0
            ],
            "radius": 0.01
          }
        },
        {
          "type": "line",
          "line": {
            "origin": [
              -0.014999999999999998,
              -0.0000000000000000018369701987210296,
              0.005
            ],
            "direction": [
              -0.7071067811865475,
              -0.00000000000000008659560562354934,
              -0.7071067811865477
            ]
          }
        },
        {
          "type": "line",
          "line": {
            "origin": [
              0.014999999999999998,
              0,
              0.005
            ],
            "direction": [
              0.7071067811865475,
              0,
              -0.7071067811865477
            ]
          }
        },
        {
          "type": "circle",
          "circle": {
            "xAxis": [
              1,
              0,
              0
            ],
            "yAxis": [
              0,
              -1,
              0
            ],
            "origin": [
              0,
              0,
              0
            ],
            "radius": 0.02
          }
        }
      ]
    }
  },
  "extensionsUsed": [
    "KITTYCAD_boundary_representation"
  ],
  "materials": [
    {
      "alphaMode": "OPAQUE",
      "doubleSided": false,
      "pbrMetallicRoughness": {
        "baseColorFactor": [
          0.9,
          0.9,
          0.9,
          1
        ],
        "metallicFactor": 1,
        "roughnessFactor": 1
      },
      "emissiveFactor": [
        0,
        0,
        0
      ]
    }
  ],
  "meshes": [
    {
      "primitives": [
        {
          "attributes": {
            "POSITION": 0,
            "NORMAL": 1
          },
          "material": 0
        },
        {
          "attributes": {
            "POSITION": 2,
            "NORMAL": 3
          },
          "material": 0
        },
        {
          "attributes": {
            "POSITION": 4,
            "NORMAL": 5
          },
          "material": 0
        },
        {
          "attributes": {
            "POSITION": 6,
            "NORMAL": 7
          },
          "material": 0
        },
        {
          "attributes": {
            "POSITION": 8,
            "NORMAL": 9
          },
          "material": 0
        }
      ]
    }
  ],
  "nodes": [
    {
      "children": [
        1
      ]
    },
    {
      "children": [
        2
      ]
    },
    {
      "extensions": {
        "KITTYCAD_boundary_representation": {
          "solid": 0
        }
      },
      "mesh": 0
    }
  ],
  "scenes": [
    {
      "nodes": [
        0
      ]
    }
  ]
}