{
  "accessors": [
    {
      "bufferView": 0,
      "byteOffset": 0,
      "count": 42,
      "componentType": 5126,
      "type": "VEC3",
      "min": [
        0.30000001192092896,
        0,
        -0.6000000238418579
      ],
      "max": [
        0.6000000238418579,
        0.009999999776482582,
        -0.30000001192092896
      ]
    },
    {
      "bufferView": 0,
      "byteOffset": 12,
      "count": 42,
      "componentType": 5126,
      "type": "VEC3"
    },
    {
      "bufferView": 1,
      "byteOffset": 0,
      "count": 990,
      "componentType": 5126,
      "type": "VEC3",
      "min": [
        0.18782009184360504,
        0,
        -0.6000000238418579
      ],
      "max": [
        0.6000000238418579,
        0.009999999776482582,
        -0.18622741103172305
      ]
    },
    {
      "bufferView": 1,
      "byteOffset": 12,
      "count": 990,
      "componentType": 5126,
      "type": "VEC3"
    },
    {
      "bufferView": 2,
      "byteOffset": 0,
      "count": 510,
      "componentType": 5126,
      "type": "VEC3",
      "min": [
        0.18782009184360504,
        0,
        -0.6000000238418579
      ],
      "max": [
        0.6000000238418579,
        0,
        -0.18622741103172305
      ]
    },
    {
      "bufferView": 2,
      "byteOffset": 12,
      "count": 510,
      "componentType": 5126,
      "type": "VEC3"
    },
    {
      "bufferView": 3,
      "byteOffset": 0,
      "count": 510,
      "componentType": 5126,
      "type": "VEC3",
      "min": [
        0.18782009184360504,
        0.009999999776482582,
        -0.6000000238418579
      ],
      "max": [
        0.6000000238418579,
        0.009999999776482582,
        -0.18622741103172305
      ]
    },
    {
      "bufferView": 3,
      "byteOffset": 12,
      "count": 510,
      "componentType": 5126,
      "type": "VEC3"
    }
  ],
  "asset": {
    "generator": "zoo.dev",
    "version": "2.0"
  },
  "buffers": [
    {
      "byteLength": 49248,
      "uri": "data:application/octet-stream;base64,"
    }
  ],
  "bufferViews": [
    {
      "buffer": 0,
      "byteLength": 1008,
      "byteOffset": 0,
      "byteStride": 24,
      "target": 34962
    },
    {
      "buffer": 0,
      "byteLength": 23760,
      "byteOffset": 1008,
      "byteStride": 24,
      "target": 34962
    },
    {
      "buffer": 0,
      "byteLength": 12240,
      "byteOffset": 24768,
      "byteStride": 24,
      "target": 34962
    },
    {
      "buffer": 0,
      "byteLength": 12240,
      "byteOffset": 37008,
      "byteStride": 24,
      "target": 34962
    }
  ],
  "scene": 0,
  "extensions": {
    "KITTYCAD_boundary_representation": {
      "solids": [
        {
          "shells": [
            [
              0,
              1
            ]
          ],
          "mesh": 0,
          "extras": {
            "KITTYCAD": {
              "material": 0
            }
          }
        }
      ],
      "shells": [
        {
          "faces": [
            [
              0,
              1
            ],
            [
              1,
              1
            ],
            [
              2,
              1
            ],
            [
              3,
              1
            ]
          ]
        }
      ],
      "faces": [
        {
          "surface": [
            0,
            1
          ],
          "loops": [
            [
              0,
              1
            ]
          ]
        },
        {
          "surface": [
            1,
            1
          ],
          "loops": [
            [
              1,
              1
            ]
          ]
        },
        {
          "surface": [
            2,
            -1
          ],
          "loops": [
            [
              2,
              1
            ]
          ]
        },
        {
          "surface": [
            3,
            1
          ],
          "loops": [
            [
              3,
              1
            ]
          ]
        }
      ],
      "loops": [
        {
          "edges": [
            [
              0,
              1
            ],
            [
              1,
              1
            ],
            [
              2,
              -1
            ],
            [
              3,
              -1
            ]
          ]
        },
        {
          "edges": [
            [
              4,
              1
            ],
            [
              3,
              1
            ],
            [
              5,
              -1
            ],
            [
              1,
              -1
            ]
          ]
        },
        {
          "edges": [
            [
              4,
              -1
            ],
            [
              0,
              -1
            ]
          ]
        },
        {
          "edges": [
            [
              2,
              1
            ],
            [
              5,
              1
            ]
          ]
        }
      ],
      "edges": [
        {
          "curve": [
            0,
            1
          ],
          "start": 0,
          "end": 1,
          "t": [
            0,
            0.42426406871192845
          ]
        },
        {
          "curve": [
            1,
            1
          ],
          "start": 1,
          "end": 2,
          "t": [
            0,
            0.01
          ]
        },
        {
          "curve": [
            2,
            1
          ],
          "start": 3,
          "end": 2,
          "t": [
            0,
            0.42426406871192845
          ]
        },
        {
          "curve": [
            3,
            1
          ],
          "start": 0,
          "end": 3,
          "t": [
            0,
            0.01
          ]
        },
        {
          "curve": [
            4,
            1
          ],
          "start": 1,
          "end": 0,
          "t": [
            -1,
            -0
          ]
        },
        {
          "curve": [
            5,
            1
          ],
          "start": 2,
          "end": 3,
          "t": [
            -1,
            -0
          ]
        }
      ],
      "vertices": [
        [
          0.3,
          0,
          -0.3
        ],
        [
          0.6,
          0,
          -0.6
        ],
        [
          0.6,
          0.01,
          -0.6
        ],
        [
          0.3,
          0.01,
          -0.3
        ]
      ],
      "surfaces": [
        {
          "type": "plane",
          "plane": {
            "xAxis": [
              0.7071067811865476,
              0,
              -0.7071067811865476
            ],
            "yAxis": [
              -0,
              1,
              0
            ],
            "origin": [
              0.45,
              0.005,
              -0.45
            ]
          }
        },
        {
          "type": "nurbs",
          "nurbs": {
            "controlPoints": [
              [
                0.6,
                0,
                -0.6
              ],
              [
                0.6,
                0.01,
                -0.6
              ],
              [
                -0.3,
                0,
                0.1
              ],
              [
                -0.3,
                0.01,
                0.1
              ],
              [
                0.6,
                0,
                -0.3
              ],
              [
                0.6,
                0.01,
                -0.3
              ],
              [
                0.3,
                0,
                -0.3
              ],
              [
                0.3,
                0.01,
                -0.3
              ]
            ],
            "numControlPoints": [
              4,
              2
            ],
            "numKnots": [
              8,
              4
            ],
            "knotVector": [
              -1,
              -1,
              -1,
              -1,
              -0,
              -0,
              -0,
              -0,
              0,
              0,
              10,
              10
            ],
            "order": [
              4,
              2
            ]
          }
        },
        {
          "type": "plane",
          "plane": {
            "xAxis": [
              1,
              0,
              0
            ],
            "yAxis": [
              0,
              0,
              -1
            ],
            "origin": [
              0,
              0,
              -0
            ]
          }
        },
        {
          "type": "plane",
          "plane": {
            "xAxis": [
              1,
              0,
              0
            ],
            "yAxis": [
              0,
              0,
              -1
            ],
            "origin": [
              0,
              0.01,
              -0
            ]
          }
        }
      ],
      "curves3D": [
        {
          "type": "line",
          "line": {
            "origin": [
              0.3,
              0,
              -0.3
            ],
            "direction": [
              0.7071067811865476,
              0,
              -0.7071067811865476
            ]
          }
        },
        {
          "type": "line",
          "line": {
            "origin": [
              0.6,
              0,
              -0.6
            ],
            "direction": [
              0,
              1,
              0
            ]
          }
        },
        {
          "type": "line",
          "line": {
            "origin": [
              0.3,
              0.01,
              -0.3
            ],
            "direction": [
              0.7071067811865476,
              0,
              -0.7071067811865476
            ]
          }
        },
        {
          "type": "line",
          "line": {
            "origin": [
              0.3,
              0,
              -0.3
            ],
            "direction": [
              0,
              1,
              0
            ]
          }
        },
        {
          "type": "nurbs",
          "nurbs": {
            "controlPoints": [
              [
                0.6,
                0,
                -0.6
              ],
              [
                -0.3,
                0,
                0.1
              ],
              [
                0.6,
                0,
                -0.3
              ],
              [
                0.3,
                0,
                -0.3
              ]
            ],
            "order": 4,
            "knotVector": [
              -1,
              -1,
              -1,
              -1,
              -0,
              -0,
              -0,
              -0
            ]
          }
        },
        {
          "type": "nurbs",
          "nurbs": {
            "controlPoints": [
              [
                0.6,
                0.01,
                -0.6
              ],
              [
                -0.3,
                0.01,
                0.1
              ],
              [
                0.6,
                0.01,
                -0.3
              ],
              [
                0.3,
                0.01,
                -0.3
              ]
            ],
            "order": 4,
            "knotVector": [
              -1,
              -1,
              -1,
              -1,
              -0,
              -0,
              -0,
              -0
            ]
          }
        }
      ]
    }
  },
  "extensionsUsed": [
    "KITTYCAD_boundary_representation"
  ],
  "materials": [
    {
      "alphaMode": "OPAQUE",
      "doubleSided": false,
      "pbrMetallicRoughness": {
        "baseColorFactor": [
          0.9,
          0.9,
          0.9,
          1
        ],
        "metallicFactor": 1,
        "roughnessFactor": 1
      },
      "emissiveFactor": [
        0,
        0,
        0
      ]
    }
  ],
  "meshes": [
    {
      "primitives": [
        {
          "attributes": {
            "POSITION": 0,
            "NORMAL": 1
          },
          "material": 0
        },
        {
          "attributes": {
            "POSITION": 2,
            "NORMAL": 3
          },
          "material": 0
        },
        {
          "attributes": {
            "POSITION": 4,
            "NORMAL": 5
          },
          "material": 0
        },
        {
          "attributes": {
            "POSITION": 6,
            "NORMAL": 7
          },
          "material": 0
        }
      ]
    }
  ],
  "nodes": [
    {
      "children": [
        1
      ]
    },
    {
      "children": [
        2
      ]
    },
    {
      "extensions": {
        "KITTYCAD_boundary_representation": {
          "solid": 0
        }
      },
      "mesh": 0
    }
  ],
  "scenes": [
    {
      "nodes": [
        0
      ]
    }
  ]
}