{
  "accessors": [
    {
      "bufferView": 0,
      "byteOffset": 0,
      "count": 12,
      "componentType": 5126,
      "type": "VEC3",
      "min": [
        0.0013116099871695042,
        0,
        -0.0031417699065059423
      ],
      "max": [
        0.0033767600543797016,
        0.0020000000949949026,
        0.0004350300005171448
      ]
    },
    {
      "bufferView": 0,
      "byteOffset": 12,
      "count": 12,
      "componentType": 5126,
      "type": "VEC3"
    },
    {
      "bufferView": 1,
      "byteOffset": 0,
      "count": 6,
      "componentType": 5126,
      "type": "VEC3",
      "min": [
        0.0013116099871695042,
        0,
        -0.0031417699065059423
      ],
      "max": [
        0.0013116300106048584,
        0.0020000000949949026,
        -0.0007572600152343512
      ]
    },
    {
      "bufferView": 1,
      "byteOffset": 12,
      "count": 6,
      "componentType": 5126,
      "type": "VEC3"
    },
    {
      "bufferView": 2,
      "byteOffset": 0,
      "count": 6,
      "componentType": 5126,
      "type": "VEC3",
      "min": [
        0.0013116300106048584,
        0,
        -0.0007572600152343512
      ],
      "max": [
        0.0033767600543797016,
        0.0020000000949949026,
        0.0004350300005171448
      ]
    },
    {
      "bufferView": 2,
      "byteOffset": 12,
      "count": 6,
      "componentType": 5126,
      "type": "VEC3"
    },
    {
      "bufferView": 3,
      "byteOffset": 0,
      "count": 6,
      "componentType": 5126,
      "type": "VEC3",
      "min": [
        0.0013116099871695042,
        0,
        -0.0031417699065059423
      ],
      "max": [
        0.0033767600543797016,
        0,
        0.0004350300005171448
      ]
    },
    {
      "bufferView": 3,
      "byteOffset": 12,
      "count": 6,
      "componentType": 5126,
      "type": "VEC3"
    },
    {
      "bufferView": 4,
      "byteOffset": 0,
      "count": 6,
      "componentType": 5126,
      "type": "VEC3",
      "min": [
        0.0013116099871695042,
        0.0020000000949949026,
        -0.0031417699065059423
      ],
      "max": [
        0.0033767600543797016,
        0.0020000000949949026,
        0.0004350300005171448
      ]
    },
    {
      "bufferView": 4,
      "byteOffset": 12,
      "count": 6,
      "componentType": 5126,
      "type": "VEC3"
    }
  ],
  "asset": {
    "generator": "zoo.dev",
    "version": "2.0"
  },
  "buffers": [
    {
      "byteLength": 864,
      "uri": "data:application/octet-stream;base64,"
    }
  ],
  "bufferViews": [
    {
      "buffer": 0,
      "byteLength": 288,
      "byteOffset": 0,
      "byteStride": 24,
      "target": 34962
    },
    {
      "buffer": 0,
      "byteLength": 144,
      "byteOffset": 288,
      "byteStride": 24,
      "target": 34962
    },
    {
      "buffer": 0,
      "byteLength": 144,
      "byteOffset": 432,
      "byteStride": 24,
      "target": 34962
    },
    {
      "buffer": 0,
      "byteLength": 144,
      "byteOffset": 576,
      "byteStride": 24,
      "target": 34962
    },
    {
      "buffer": 0,
      "byteLength": 144,
      "byteOffset": 720,
      "byteStride": 24,
      "target": 34962
    }
  ],
  "scene": 0,
  "extensions": {
    "KITTYCAD_boundary_representation": {
      "solids": [
        {
          "shells": [
            [
              0,
              1
            ]
          ],
          "mesh": 0,
          "extras": {
            "KITTYCAD": {
              "material": 0
            }
          }
        }
      ],
      "shells": [
        {
          "faces": [
            [
              0,
              1
            ],
            [
              1,
              1
            ],
            [
              2,
              1
            ],
            [
              3,
              1
            ],
            [
              4,
              1
            ]
          ]
        }
      ],
      "faces": [
        {
          "surface": [
            0,
            1
          ],
          "loops": [
            [
              0,
              1
            ]
          ]
        },
        {
          "surface": [
            1,
            1
          ],
          "loops": [
            [
              1,
              1
            ]
          ]
        },
        {
          "surface": [
            2,
            1
          ],
          "loops": [
            [
              2,
              1
            ]
          ]
        },
        {
          "surface": [
            3,
            -1
          ],
          "loops": [
            [
              3,
              1
            ]
          ]
        },
        {
          "surface": [
            4,
            1
          ],
          "loops": [
            [
              4,
              1
            ]
          ]
        }
      ],
      "loops": [
        {
          "edges": [
            [
              0,
              1
            ],
            [
              1,
              1
            ],
            [
              2,
              -1
            ],
            [
              3,
              -1
            ]
          ]
        },
        {
          "edges": [
            [
              4,
              1
            ],
            [
              5,
              1
            ],
            [
              6,
              -1
            ],
            [
              1,
              -1
            ]
          ]
        },
        {
          "edges": [
            [
              7,
              1
            ],
            [
              3,
              1
            ],
            [
              8,
              -1
            ],
            [
              5,
              -1
            ]
          ]
        },
        {
          "edges": [
            [
              7,
              -1
            ],
            [
              4,
              -1
            ],
            [
              0,
              -1
            ]
          ]
        },
        {
          "edges": [
            [
              2,
              1
            ],
            [
              6,
              1
            ],
            [
              8,
              1
            ]
          ]
        }
      ],
      "edges": [
        {
          "curve": [
            0,
            1
          ],
          "start": 0,
          "end": 1,
          "t": [
            0,
            0.004130174664890094
          ]
        },
        {
          "curve": [
            1,
            1
          ],
          "start": 1,
          "end": 2,
          "t": [
            0,
            0.002
          ]
        },
        {
          "curve": [
            2,
            1
          ],
          "start": 3,
          "end": 2,
          "t": [
            0,
            0.004130174664890094
          ]
        },
        {
          "curve": [
            3,
            1
          ],
          "start": 0,
          "end": 3,
          "t": [
            0,
            0.002
          ]
        },
        {
          "curve": [
            4,
            1
          ],
          "start": 1,
          "end": 4,
          "t": [
            0,
            0.002384510000083874
          ]
        },
        {
          "curve": [
            5,
            1
          ],
          "start": 4,
          "end": 5,
          "t": [
            0,
            0.002
          ]
        },
        {
          "curve": [
            6,
            1
          ],
          "start": 2,
          "end": 5,
          "t": [
            0,
            0.002384510000083874
          ]
        },
        {
          "curve": [
            7,
            1
          ],
          "start": 4,
          "end": 0,
          "t": [
            0,
            0.0023846000421454327
          ]
        },
        {
          "curve": [
            8,
            1
          ],
          "start": 5,
          "end": 3,
          "t": [
            0,
            0.0023846000421454327
          ]
        }
      ],
      "vertices": [
        [
          0.00337676,
          0,
          0.00043503
        ],
        [
          0.00131161,
          0,
          -0.00314177
        ],
        [
          0.00131161,
          0.002,
          -0.00314177
        ],
        [
          0.00337676,
          0.002,
          0.00043503
        ],
        [
          0.00131163,
          0,
          -0.00075726
        ],
        [
          0.00131163,
          0.002,
          -0.00075726
        ]
      ],
      "surfaces": [
        {
          "type": "plane",
          "plane": {
            "xAxis": [
              0.5000146405246073,
              0,
              0.8660169509086111
            ],
            "yAxis": [
              0,
              -1,
              0
            ],
            "origin": [
              0.00234419,
              0.001,
              -0.00135337
            ]
          }
        },
        {
          "type": "plane",
          "plane": {
            "xAxis": [
              0.000006299999999874976,
              0,
              0.999999999980155
            ],
            "yAxis": [
              0,
              1,
              -0
            ],
            "origin": [
              0.00131162,
              0.001,
              -0.00194951
            ]
          }
        },
        {
          "type": "plane",
          "plane": {
            "xAxis": [
              0.8660285502404074,
              0,
              0.4999945501387972
            ],
            "yAxis": [
              0,
              1,
              -0
            ],
            "origin": [
              0.00234419,
              0.001,
              -0.00016112
            ]
          }
        },
        {
          "type": "plane",
          "plane": {
            "xAxis": [
              1,
              0,
              0
            ],
            "yAxis": [
              0,
              0,
              -1
            ],
            "origin": [
              0,
              0,
              -0
            ]
          }
        },
        {
          "type": "plane",
          "plane": {
            "xAxis": [
              1,
              0,
              0
            ],
            "yAxis": [
              0,
              0,
              -1
            ],
            "origin": [
              0,
              0.002,
              -0
            ]
          }
        }
      ],
      "curves3D": [
        {
          "type": "line",
          "line": {
            "origin": [
              0.00337676,
              0,
              0.00043503
            ],
            "direction": [
              -0.5000151731004225,
              0,
              -0.8660166434135977
            ]
          }
        },
        {
          "type": "line",
          "line": {
            "origin": [
              0.00131161,
              0,
              -0.00314177
            ],
            "direction": [
              0,
              1,
              0
            ]
          }
        },
        {
          "type": "line",
          "line": {
            "origin": [
              0.00337676,
              0.002,
              0.00043503
            ],
            "direction": [
              -0.5000151731004225,
              0,
              -0.8660166434135977
            ]
          }
        },
        {
          "type": "line",
          "line": {
            "origin": [
              0.00337676,
              0,
              0.00043503
            ],
            "direction": [
              0,
              1,
              0
            ]
          }
        },
        {
          "type": "line",
          "line": {
            "origin": [
              0.00131161,
              0,
              -0.00314177
            ],
            "direction": [
              0.000008387467445888074,
              0,
              0.9999999999648252
            ]
          }
        },
        {
          "type": "line",
          "line": {
            "origin": [
              0.00131163,
              0,
              -0.00075726
            ],
            "direction": [
              0,
              1,
              0
            ]
          }
        },
        {
          "type": "line",
          "line": {
            "origin": [
              0.00131161,
              0.002,
              -0.00314177
            ],
            "direction": [
              0.000008387467445888074,
              0,
              0.9999999999648252
            ]
          }
        },
        {
          "type": "line",
          "line": {
            "origin": [
              0.00131163,
              0,
              -0.00075726
            ],
            "direction": [
              0.8660278300347574,
              0,
              0.4999957975876293
            ]
          }
        },
        {
          "type": "line",
          "line": {
            "origin": [
              0.00131163,
              0.002,
              -0.00075726
            ],
            "direction": [
              0.8660278300347574,
              0,
              0.4999957975876293
            ]
          }
        }
      ]
    }
  },
  "extensionsUsed": [
    "KITTYCAD_boundary_representation"
  ],
  "materials": [
    {
      "alphaMode": "OPAQUE",
      "doubleSided": false,
      "pbrMetallicRoughness": {
        "baseColorFactor": [
          0.9,
          0.9,
          0.9,
          1
        ],
        "metallicFactor": 1,
        "roughnessFactor": 1
      },
      "emissiveFactor": [
        0,
        0,
        0
      ]
    }
  ],
  "meshes": [
    {
      "primitives": [
        {
          "attributes": {
            "POSITION": 0,
            "NORMAL": 1
          },
          "material": 0
        },
        {
          "attributes": {
            "POSITION": 2,
            "NORMAL": 3
          },
          "material": 0
        },
        {
          "attributes": {
            "POSITION": 4,
            "NORMAL": 5
          },
          "material": 0
        },
        {
          "attributes": {
            "POSITION": 6,
            "NORMAL": 7
          },
          "material": 0
        },
        {
          "attributes": {
            "POSITION": 8,
            "NORMAL": 9
          },
          "material": 0
        }
      ]
    }
  ],
  "nodes": [
    {
      "children": [
        1
      ]
    },
    {
      "children": [
        2
      ]
    },
    {
      "extensions": {
        "KITTYCAD_boundary_representation": {
          "solid": 0
        }
      },
      "mesh": 0
    }
  ],
  "scenes": [
    {
      "nodes": [
        0
      ]
    }
  ]
}