{
  "accessors": [
    {
      "bufferView": 0,
      "byteOffset": 0,
      "count": 6144,
      "componentType": 5126,
      "type": "VEC3",
      "min": [
        -0.014000000432133676,
        -0.009899495169520378,
        -0.014000000432133676
      ],
      "max": [
        -0.0042426404543221,
        0.009899495169520378,
        -0.009999972768127918
      ]
    },
    {
      "bufferView": 0,
      "byteOffset": 12,
      "count": 6144,
      "componentType": 5126,
      "type": "VEC3"
    },
    {
      "bufferView": 1,
      "byteOffset": 0,
      "count": 186,
      "componentType": 5126,
      "type": "VEC3",
      "min": [
        -0.009899495169520378,
        -0.009899495169520378,
        -0.014000000432133676
      ],
      "max": [
        -0.0042426404543221,
        -0.0042426404543221,
        -0.006000000052154064
      ]
    },
    {
      "bufferView": 1,
      "byteOffset": 12,
      "count": 186,
      "componentType": 5126,
      "type": "VEC3"
    },
    {
      "bufferView": 2,
      "byteOffset": 0,
      "count": 186,
      "componentType": 5126,
      "type": "VEC3",
      "min": [
        -0.009899495169520378,
        0.0042426404543221,
        -0.014000000432133676
      ],
      "max": [
        -0.0042426404543221,
        0.009899495169520378,
        -0.006000000052154064
      ]
    },
    {
      "bufferView": 2,
      "byteOffset": 12,
      "count": 186,
      "componentType": 5126,
      "type": "VEC3"
    },
    {
      "bufferView": 3,
      "byteOffset": 0,
      "count": 6144,
      "componentType": 5126,
      "type": "VEC3",
      "min": [
        -0.014000000432133676,
        -0.009899495169520378,
        -0.009999999776482582
      ],
      "max": [
        -0.0042426404543221,
        0.009899495169520378,
        -0.006000000052154064
      ]
    },
    {
      "bufferView": 3,
      "byteOffset": 12,
      "count": 6144,
      "componentType": 5126,
      "type": "VEC3"
    }
  ],
  "asset": {
    "generator": "zoo.dev",
    "version": "2.0"
  },
  "buffers": [
    {
      "byteLength": 303840,
      "uri": "data:application/octet-stream;base64,"
    }
  ],
  "bufferViews": [
    {
      "buffer": 0,
      "byteLength": 147456,
      "byteOffset": 0,
      "byteStride": 24,
      "target": 34962
    },
    {
      "buffer": 0,
      "byteLength": 4464,
      "byteOffset": 147456,
      "byteStride": 24,
      "target": 34962
    },
    {
      "buffer": 0,
      "byteLength": 4464,
      "byteOffset": 151920,
      "byteStride": 24,
      "target": 34962
    },
    {
      "buffer": 0,
      "byteLength": 147456,
      "byteOffset": 156384,
      "byteStride": 24,
      "target": 34962
    }
  ],
  "scene": 0,
  "extensions": {
    "KITTYCAD_boundary_representation": {
      "solids": [
        {
          "shells": [
            [
              0,
              1
            ]
          ],
          "mesh": 0,
          "extras": {
            "KITTYCAD": {
              "material": 0
            }
          }
        }
      ],
      "shells": [
        {
          "faces": [
            [
              0,
              1
            ],
            [
              1,
              1
            ],
            [
              2,
              1
            ],
            [
              3,
              1
            ]
          ]
        }
      ],
      "faces": [
        {
          "surface": [
            0,
            1
          ],
          "loops": [
            [
              0,
              1
            ]
          ]
        },
        {
          "surface": [
            1,
            -1
          ],
          "loops": [
            [
              1,
              1
            ]
          ]
        },
        {
          "surface": [
            2,
            1
          ],
          "loops": [
            [
              2,
              1
            ]
          ]
        },
        {
          "surface": [
            0,
            1
          ],
          "loops": [
            [
              3,
              1
            ]
          ]
        }
      ],
      "loops": [
        {
          "edges": [
            [
              0,
              1
            ],
            [
              1,
              1
            ],
            [
              2,
              -1
            ],
            [
              3,
              -1
            ]
          ]
        },
        {
          "edges": [
            [
              4,
              -1
            ],
            [
              1,
              -1
            ]
          ]
        },
        {
          "edges": [
            [
              3,
              1
            ],
            [
              5,
              1
            ]
          ]
        },
        {
          "edges": [
            [
              0,
              -1
            ],
            [
              5,
              -1
            ],
            [
              2,
              1
            ],
            [
              4,
              1
            ]
          ]
        }
      ],
      "edges": [
        {
          "curve": [
            0,
            -1
          ],
          "start": 0,
          "end": 1,
          "t": [
            0,
            1.5707963267948966
          ]
        },
        {
          "curve": [
            1,
            1
          ],
          "start": 1,
          "end": 2,
          "t": [
            0,
            3.141599531433145
          ]
        },
        {
          "curve": [
            2,
            -1
          ],
          "start": 3,
          "end": 2,
          "t": [
            0,
            1.5707963267948966
          ]
        },
        {
          "curve": [
            3,
            1
          ],
          "start": 0,
          "end": 3,
          "t": [
            0,
            3.141592653589793
          ]
        },
        {
          "curve": [
            1,
            1
          ],
          "start": 2,
          "end": 1,
          "t": [
            3.141599531433145,
            6.283185307179586
          ]
        },
        {
          "curve": [
            3,
            1
          ],
          "start": 3,
          "end": 0,
          "t": [
            3.141592653589793,
            6.283185307179586
          ]
        }
      ],
      "vertices": [
        [
          -0.004242640687119287,
          0.004242640687119284,
          -0.01
        ],
        [
          -0.004242640687119285,
          -0.004242640687119286,
          -0.01
        ],
        [
          -0.009899494936544764,
          -0.009899494936544769,
          -0.009999972488626592
        ],
        [
          -0.009899494936611668,
          0.00989949493661166,
          -0.01
        ]
      ],
      "surfaces": [
        {
          "type": "torus",
          "torus": {
            "xAxis": [
              -0.7071067811865475,
              -0.7071067811865476,
              -0
            ],
            "yAxis": [
              -0.7071067811865476,
              0.7071067811865475,
              0
            ],
            "origin": [
              0,
              0,
              -0.01
            ],
            "majorRadius": 0.01,
            "minorRadius": 0.004
          }
        },
        {
          "type": "plane",
          "plane": {
            "xAxis": [
              0.7071067811865475,
              0.7071067811865476,
              0
            ],
            "yAxis": [
              0,
              0,
              -1
            ],
            "origin": [
              0,
              0,
              -0
            ]
          }
        },
        {
          "type": "plane",
          "plane": {
            "xAxis": [
              0.7071067811865477,
              -0.7071067811865474,
              0
            ],
            "yAxis": [
              0,
              0,
              -1
            ],
            "origin": [
              0,
              0,
              -0
            ]
          }
        }
      ],
      "curves3D": [
        {
          "type": "circle",
          "circle": {
            "xAxis": [
              -0.7071067811865475,
              -0.7071067811865476,
              0
            ],
            "yAxis": [
              -0.7071067811865476,
              0.7071067811865475,
              0
            ],
            "origin": [
              0,
              0,
              -0.01
            ],
            "radius": 0.006
          }
        },
        {
          "type": "circle",
          "circle": {
            "xAxis": [
              0.7071067811865475,
              0.7071067811865476,
              -0
            ],
            "yAxis": [
              -0,
              0,
              -1
            ],
            "origin": [
              -0.0070710678118654745,
              -0.007071067811865475,
              -0.01
            ],
            "radius": 0.004
          }
        },
        {
          "type": "circle",
          "circle": {
            "xAxis": [
              -0.7071067811865475,
              -0.7071067811865476,
              -0
            ],
            "yAxis": [
              -0.7071067811865476,
              0.7071067811865475,
              0
            ],
            "origin": [
              0,
              0,
              -0.01
            ],
            "radius": 0.014
          }
        },
        {
          "type": "circle",
          "circle": {
            "xAxis": [
              0.7071067811865477,
              -0.7071067811865474,
              -0
            ],
            "yAxis": [
              0,
              0,
              -1
            ],
            "origin": [
              -0.007071067811865477,
              0.007071067811865473,
              -0.01
            ],
            "radius": 0.004
          }
        }
      ]
    }
  },
  "extensionsUsed": [
    "KITTYCAD_boundary_representation"
  ],
  "materials": [
    {
      "alphaMode": "OPAQUE",
      "doubleSided": false,
      "pbrMetallicRoughness": {
        "baseColorFactor": [
          0.9,
          0.9,
          0.9,
          1
        ],
        "metallicFactor": 1,
        "roughnessFactor": 1
      },
      "emissiveFactor": [
        0,
        0,
        0
      ]
    }
  ],
  "meshes": [
    {
      "primitives": [
        {
          "attributes": {
            "POSITION": 0,
            "NORMAL": 1
          },
          "material": 0
        },
        {
          "attributes": {
            "POSITION": 2,
            "NORMAL": 3
          },
          "material": 0
        },
        {
          "attributes": {
            "POSITION": 4,
            "NORMAL": 5
          },
          "material": 0
        },
        {
          "attributes": {
            "POSITION": 6,
            "NORMAL": 7
          },
          "material": 0
        }
      ]
    }
  ],
  "nodes": [
    {
      "children": [
        1
      ]
    },
    {
      "children": [
        2
      ]
    },
    {
      "extensions": {
        "KITTYCAD_boundary_representation": {
          "solid": 0
        }
      },
      "mesh": 0
    }
  ],
  "scenes": [
    {
      "nodes": [
        0
      ]
    }
  ]
}