{
  "accessors": [
    {
      "bufferView": 0,
      "byteOffset": 0,
      "count": 1623,
      "componentType": 5126,
      "type": "VEC3",
      "min": [
        -0.10000000149011612,
        0,
        -0.20000000298023224
      ],
      "max": [
        0,
        0.07500000298023224,
        -0.0949999988079071
      ]
    },
    {
      "bufferView": 0,
      "byteOffset": 12,
      "count": 1623,
      "componentType": 5126,
      "type": "VEC3"
    },
    {
      "bufferView": 1,
      "byteOffset": 0,
      "count": 2007,
      "componentType": 5126,
      "type": "VEC3",
      "min": [
        -0.10000000149011612,
        0,
        -0.0949999988079071
      ],
      "max": [
        0.10000000149011612,
        0.07500000298023224,
        -0
      ]
    },
    {
      "bufferView": 1,
      "byteOffset": 12,
      "count": 2007,
      "componentType": 5126,
      "type": "VEC3"
    },
    {
      "bufferView": 2,
      "byteOffset": 0,
      "count": 1482,
      "componentType": 5126,
      "type": "VEC3",
      "min": [
        0,
        0,
        -0.20000000298023224
      ],
      "max": [
        0.10000000149011612,
        0.07500000298023224,
        -0.0949999988079071
      ]
    },
    {
      "bufferView": 2,
      "byteOffset": 12,
      "count": 1482,
      "componentType": 5126,
      "type": "VEC3"
    },
    {
      "bufferView": 3,
      "byteOffset": 0,
      "count": 57,
      "componentType": 5126,
      "type": "VEC3",
      "min": [
        -0.014999999664723871,
        0.07500000298023224,
        -0.125
      ],
      "max": [
        0.014999999664723871,
        0.07500000298023224,
        -0.0949999988079071
      ]
    },
    {
      "bufferView": 3,
      "byteOffset": 12,
      "count": 57,
      "componentType": 5126,
      "type": "VEC3"
    },
    {
      "bufferView": 4,
      "byteOffset": 0,
      "count": 27,
      "componentType": 5126,
      "type": "VEC3",
      "min": [
        -0.10000000149011612,
        0,
        -0.20000000298023224
      ],
      "max": [
        0.10000000149011612,
        0,
        -0
      ]
    },
    {
      "bufferView": 4,
      "byteOffset": 12,
      "count": 27,
      "componentType": 5126,
      "type": "VEC3"
    }
  ],
  "asset": {
    "generator": "zoo.dev",
    "version": "2.0"
  },
  "buffers": [
    {
      "byteLength": 124704,
      "uri": "data:application/octet-stream;base64,"
    }
  ],
  "bufferViews": [
    {
      "buffer": 0,
      "byteLength": 38952,
      "byteOffset": 0,
      "byteStride": 24,
      "target": 34962
    },
    {
      "buffer": 0,
      "byteLength": 48168,
      "byteOffset": 38952,
      "byteStride": 24,
      "target": 34962
    },
    {
      "buffer": 0,
      "byteLength": 35568,
      "byteOffset": 87120,
      "byteStride": 24,
      "target": 34962
    },
    {
      "buffer": 0,
      "byteLength": 1368,
      "byteOffset": 122688,
      "byteStride": 24,
      "target": 34962
    },
    {
      "buffer": 0,
      "byteLength": 648,
      "byteOffset": 124056,
      "byteStride": 24,
      "target": 34962
    }
  ],
  "scene": 0,
  "extensions": {
    "KITTYCAD_boundary_representation": {
      "solids": [
        {
          "shells": [
            [
              0,
              1
            ]
          ],
          "mesh": 0,
          "extras": {
            "KITTYCAD": {
              "material": 0
            }
          }
        }
      ],
      "shells": [
        {
          "faces": [
            [
              0,
              1
            ],
            [
              1,
              1
            ],
            [
              2,
              1
            ],
            [
              3,
              1
            ],
            [
              4,
              1
            ]
          ]
        }
      ],
      "faces": [
        {
          "surface": [
            0,
            1
          ],
          "loops": [
            [
              0,
              1
            ]
          ]
        },
        {
          "surface": [
            1,
            1
          ],
          "loops": [
            [
              1,
              1
            ]
          ]
        },
        {
          "surface": [
            2,
            1
          ],
          "loops": [
            [
              2,
              1
            ]
          ]
        },
        {
          "surface": [
            3,
            1
          ],
          "loops": [
            [
              3,
              1
            ]
          ]
        },
        {
          "surface": [
            4,
            -1
          ],
          "loops": [
            [
              4,
              1
            ]
          ]
        }
      ],
      "loops": [
        {
          "edges": [
            [
              0,
              -1
            ],
            [
              1,
              1
            ],
            [
              2,
              1
            ],
            [
              3,
              1
            ]
          ]
        },
        {
          "edges": [
            [
              2,
              -1
            ],
            [
              4,
              1
            ],
            [
              5,
              1
            ],
            [
              6,
              1
            ]
          ]
        },
        {
          "edges": [
            [
              5,
              -1
            ],
            [
              7,
              1
            ],
            [
              0,
              1
            ],
            [
              8,
              1
            ]
          ]
        },
        {
          "edges": [
            [
              3,
              -1
            ],
            [
              6,
              -1
            ],
            [
              8,
              -1
            ]
          ]
        },
        {
          "edges": [
            [
              7,
              -1
            ],
            [
              4,
              -1
            ],
            [
              1,
              -1
            ]
          ]
        }
      ],
      "edges": [
        {
          "curve": [
            0,
            1
          ],
          "start": 0,
          "end": 1,
          "t": [
            0,
            0.10606601717798214
          ]
        },
        {
          "curve": [
            1,
            1
          ],
          "start": 0,
          "end": 2,
          "t": [
            -0.5,
            0.525
          ]
        },
        {
          "curve": [
            2,
            1
          ],
          "start": 2,
          "end": 3,
          "t": [
            0,
            0.11335784048754634
          ]
        },
        {
          "curve": [
            3,
            1
          ],
          "start": 3,
          "end": 1,
          "t": [
            0,
            0.03354101966249684
          ]
        },
        {
          "curve": [
            4,
            1
          ],
          "start": 2,
          "end": 4,
          "t": [
            -3.475,
            -1.525
          ]
        },
        {
          "curve": [
            5,
            1
          ],
          "start": 4,
          "end": 5,
          "t": [
            0,
            0.11335784048754634
          ]
        },
        {
          "curve": [
            6,
            1
          ],
          "start": 5,
          "end": 3,
          "t": [
            0,
            0.03
          ]
        },
        {
          "curve": [
            7,
            1
          ],
          "start": 4,
          "end": 0,
          "t": [
            -1.525,
            -0.5
          ]
        },
        {
          "curve": [
            8,
            1
          ],
          "start": 1,
          "end": 5,
          "t": [
            0,
            0.03354101966249684
          ]
        }
      ],
      "vertices": [
        [
          0,
          0,
          -0.2
        ],
        [
          0,
          0.075,
          -0.125
        ],
        [
          -0.1,
          0,
          -0.095
        ],
        [
          -0.015,
          0.075,
          -0.095
        ],
        [
          0.1,
          0,
          -0.095
        ],
        [
          0.015,
          0.075,
          -0.095
        ]
      ],
      "surfaces": [
        {
          "type": "nurbs",
          "nurbs": {
            "controlPoints": [
              [
                0,
                0.075,
                -0.125
              ],
              [
                -0.00731707,
                0.075,
                -0.11036585
              ],
              [
                -0.015,
                0.075,
                -0.095
              ],
              [
                0,
                0,
                -0.2
              ],
              [
                -0.1,
                0,
                -0.2
              ],
              [
                -0.1,
                0,
                -0.095
              ]
            ],
            "numControlPoints": [
              2,
              3
            ],
            "numKnots": [
              4,
              5
            ],
            "knotVector": [
              0,
              0,
              1,
              1,
              -0.5,
              -0.5,
              0,
              0.525,
              0.525
            ],
            "order": [
              2,
              2
            ]
          }
        },
        {
          "type": "nurbs",
          "nurbs": {
            "controlPoints": [
              [
                -0.015,
                0.075,
                -0.095
              ],
              [
                -0.00769231,
                0.075,
                -0.095
              ],
              [
                0.00769231,
                0.075,
                -0.095
              ],
              [
                0.015,
                0.075,
                -0.095
              ],
              [
                -0.1,
                0,
                -0.095
              ],
              [
                -0.1,
                0,
                -0
              ],
              [
                0.1,
                0,
                -0
              ],
              [
                0.1,
                0,
                -0.095
              ]
            ],
            "numControlPoints": [
              2,
              4
            ],
            "numKnots": [
              4,
              6
            ],
            "knotVector": [
              0,
              0,
              1,
              1,
              -3.475,
              -3.475,
              -3,
              -2,
              -1.525,
              -1.525
            ],
            "order": [
              2,
              2
            ]
          }
        },
        {
          "type": "nurbs",
          "nurbs": {
            "controlPoints": [
              [
                0.015,
                0.075,
                -0.095
              ],
              [
                0.00731707,
                0.075,
                -0.11036585
              ],
              [
                0,
                0.075,
                -0.125
              ],
              [
                0.1,
                0,
                -0.095
              ],
              [
                0.1,
                0,
                -0.2
              ],
              [
                0,
                0,
                -0.2
              ]
            ],
            "numControlPoints": [
              2,
              3
            ],
            "numKnots": [
              4,
              5
            ],
            "knotVector": [
              0,
              0,
              1,
              1,
              -1.525,
              -1.525,
              -1,
              -0.5,
              -0.5
            ],
            "order": [
              2,
              2
            ]
          }
        },
        {
          "type": "plane",
          "plane": {
            "xAxis": [
              1,
              0,
              0
            ],
            "yAxis": [
              0,
              0,
              -1
            ],
            "origin": [
              0,
              0.075,
              -0
            ]
          }
        },
        {
          "type": "plane",
          "plane": {
            "xAxis": [
              1,
              0,
              0
            ],
            "yAxis": [
              0,
              0,
              -1
            ],
            "origin": [
              0,
              0,
              -0
            ]
          }
        }
      ],
      "curves3D": [
        {
          "type": "line",
          "line": {
            "origin": [
              0,
              0,
              -0.2
            ],
            "direction": [
              0,
              0.7071067811865475,
              0.7071067811865476
            ]
          }
        },
        {
          "type": "nurbs",
          "nurbs": {
            "controlPoints": [
              [
                0,
                0,
                -0.2
              ],
              [
                -0.1,
                0,
                -0.2
              ],
              [
                -0.1,
                0,
                -0.095
              ]
            ],
            "order": 2,
            "knotVector": [
              -0.5,
              -0.5,
              0,
              0.525,
              0.525
            ]
          }
        },
        {
          "type": "line",
          "line": {
            "origin": [
              -0.1,
              0,
              -0.095
            ],
            "direction": [
              0.7498378553650926,
              0.6616216370868463,
              0
            ]
          }
        },
        {
          "type": "line",
          "line": {
            "origin": [
              -0.015,
              0.075,
              -0.095
            ],
            "direction": [
              0.447213595499958,
              0,
              -0.894427190999916
            ]
          }
        },
        {
          "type": "nurbs",
          "nurbs": {
            "controlPoints": [
              [
                -0.1,
                0,
                -0.095
              ],
              [
                -0.1,
                0,
                -0
              ],
              [
                0.1,
                0,
                -0
              ],
              [
                0.1,
                0,
                -0.095
              ]
            ],
            "order": 2,
            "knotVector": [
              -3.475,
              -3.475,
              -3,
              -2,
              -1.525,
              -1.525
            ]
          }
        },
        {
          "type": "line",
          "line": {
            "origin": [
              0.1,
              0,
              -0.095
            ],
            "direction": [
              -0.7498378553650926,
              0.6616216370868463,
              0
            ]
          }
        },
        {
          "type": "line",
          "line": {
            "origin": [
              0.015,
              0.075,
              -0.095
            ],
            "direction": [
              -1,
              0,
              0
            ]
          }
        },
        {
          "type": "nurbs",
          "nurbs": {
            "controlPoints": [
              [
                0.1,
                0,
                -0.095
              ],
              [
                0.1,
                0,
                -0.2
              ],
              [
                0,
                0,
                -0.2
              ]
            ],
            "order": 2,
            "knotVector": [
              -1.525,
              -1.525,
              -1,
              -0.5,
              -0.5
            ]
          }
        },
        {
          "type": "line",
          "line": {
            "origin": [
              0,
              0.075,
              -0.125
            ],
            "direction": [
              0.447213595499958,
              0,
              0.894427190999916
            ]
          }
        }
      ]
    }
  },
  "extensionsUsed": [
    "KITTYCAD_boundary_representation"
  ],
  "materials": [
    {
      "alphaMode": "OPAQUE",
      "doubleSided": false,
      "pbrMetallicRoughness": {
        "baseColorFactor": [
          0.9,
          0.9,
          0.9,
          1
        ],
        "metallicFactor": 1,
        "roughnessFactor": 1
      },
      "emissiveFactor": [
        0,
        0,
        0
      ]
    }
  ],
  "meshes": [
    {
      "primitives": [
        {
          "attributes": {
            "POSITION": 0,
            "NORMAL": 1
          },
          "material": 0
        },
        {
          "attributes": {
            "POSITION": 2,
            "NORMAL": 3
          },
          "material": 0
        },
        {
          "attributes": {
            "POSITION": 4,
            "NORMAL": 5
          },
          "material": 0
        },
        {
          "attributes": {
            "POSITION": 6,
            "NORMAL": 7
          },
          "material": 0
        },
        {
          "attributes": {
            "POSITION": 8,
            "NORMAL": 9
          },
          "material": 0
        }
      ]
    }
  ],
  "nodes": [
    {
      "children": [
        1
      ]
    },
    {
      "children": [
        2
      ]
    },
    {
      "extensions": {
        "KITTYCAD_boundary_representation": {
          "solid": 0
        }
      },
      "mesh": 0
    }
  ],
  "scenes": [
    {
      "nodes": [
        0
      ]
    }
  ]
}