{
  "accessors": [
    {
      "bufferView": 0,
      "byteOffset": 0,
      "count": 6,
      "componentType": 5126,
      "type": "VEC3",
      "min": [
        -0.002928930101916194,
        -0.002928930101916194,
        -0
      ],
      "max": [
        0,
        0,
        0.009999999776482582
      ]
    },
    {
      "bufferView": 0,
      "byteOffset": 12,
      "count": 6,
      "componentType": 5126,
      "type": "VEC3"
    },
    {
      "bufferView": 1,
      "byteOffset": 0,
      "count": 6,
      "componentType": 5126,
      "type": "VEC3",
      "min": [
        -0.002928930101916194,
        -0.002928930101916194,
        -0
      ],
      "max": [
        0.007071069907397032,
        -0.002928930101916194,
        0.009999999776482582
      ]
    },
    {
      "bufferView": 1,
      "byteOffset": 12,
      "count": 6,
      "componentType": 5126,
      "type": "VEC3"
    },
    {
      "bufferView": 2,
      "byteOffset": 0,
      "count": 96,
      "componentType": 5126,
      "type": "VEC3",
      "min": [
        0.007071069907397032,
        0.007071069907397032,
        0
      ],
      "max": [
        0.01707107201218605,
        0.009142139926552773,
        0.009999999776482582
      ]
    },
    {
      "bufferView": 2,
      "byteOffset": 12,
      "count": 96,
      "componentType": 5126,
      "type": "VEC3"
    },
    {
      "bufferView": 3,
      "byteOffset": 0,
      "count": 6,
      "componentType": 5126,
      "type": "VEC3",
      "min": [
        0,
        0,
        -0
      ],
      "max": [
        0.007071069907397032,
        0.007071069907397032,
        0.009999999776482582
      ]
    },
    {
      "bufferView": 3,
      "byteOffset": 12,
      "count": 6,
      "componentType": 5126,
      "type": "VEC3"
    },
    {
      "bufferView": 4,
      "byteOffset": 0,
      "count": 147,
      "componentType": 5126,
      "type": "VEC3",
      "min": [
        -0.002928930101916194,
        -0.004999999888241291,
        -0
      ],
      "max": [
        0.019142139703035355,
        0.009142139926552773,
        -0
      ]
    },
    {
      "bufferView": 4,
      "byteOffset": 12,
      "count": 147,
      "componentType": 5126,
      "type": "VEC3"
    },
    {
      "bufferView": 5,
      "byteOffset": 0,
      "count": 147,
      "componentType": 5126,
      "type": "VEC3",
      "min": [
        -0.002928930101916194,
        -0.004999999888241291,
        0.009999999776482582
      ],
      "max": [
        0.019142139703035355,
        0.009142139926552773,
        0.009999999776482582
      ]
    },
    {
      "bufferView": 5,
      "byteOffset": 12,
      "count": 147,
      "componentType": 5126,
      "type": "VEC3"
    },
    {
      "bufferView": 6,
      "byteOffset": 0,
      "count": 192,
      "componentType": 5126,
      "type": "VEC3",
      "min": [
        0.007071069907397032,
        -0.004999999888241291,
        0
      ],
      "max": [
        0.019142139703035355,
        0.007071071770042181,
        0.009999999776482582
      ]
    },
    {
      "bufferView": 6,
      "byteOffset": 12,
      "count": 192,
      "componentType": 5126,
      "type": "VEC3"
    }
  ],
  "asset": {
    "generator": "zoo.dev",
    "version": "2.0"
  },
  "buffers": [
    {
      "byteLength": 14400,
      "uri": "data:application/octet-stream;base64,"
    }
  ],
  "bufferViews": [
    {
      "buffer": 0,
      "byteLength": 144,
      "byteOffset": 0,
      "byteStride": 24,
      "target": 34962
    },
    {
      "buffer": 0,
      "byteLength": 144,
      "byteOffset": 144,
      "byteStride": 24,
      "target": 34962
    },
    {
      "buffer": 0,
      "byteLength": 2304,
      "byteOffset": 288,
      "byteStride": 24,
      "target": 34962
    },
    {
      "buffer": 0,
      "byteLength": 144,
      "byteOffset": 2592,
      "byteStride": 24,
      "target": 34962
    },
    {
      "buffer": 0,
      "byteLength": 3528,
      "byteOffset": 2736,
      "byteStride": 24,
      "target": 34962
    },
    {
      "buffer": 0,
      "byteLength": 3528,
      "byteOffset": 6264,
      "byteStride": 24,
      "target": 34962
    },
    {
      "buffer": 0,
      "byteLength": 4608,
      "byteOffset": 9792,
      "byteStride": 24,
      "target": 34962
    }
  ],
  "scene": 0,
  "extensions": {
    "KITTYCAD_boundary_representation": {
      "solids": [
        {
          "shells": [
            [
              0,
              1
            ]
          ],
          "mesh": 0,
          "extras": {
            "KITTYCAD": {
              "material": 0
            }
          }
        }
      ],
      "shells": [
        {
          "faces": [
            [
              0,
              1
            ],
            [
              1,
              1
            ],
            [
              2,
              1
            ],
            [
              3,
              1
            ],
            [
              4,
              1
            ],
            [
              5,
              1
            ],
            [
              6,
              1
            ]
          ]
        }
      ],
      "faces": [
        {
          "surface": [
            0,
            1
          ],
          "loops": [
            [
              0,
              1
            ]
          ]
        },
        {
          "surface": [
            1,
            1
          ],
          "loops": [
            [
              1,
              1
            ]
          ]
        },
        {
          "surface": [
            2,
            1
          ],
          "loops": [
            [
              2,
              1
            ]
          ]
        },
        {
          "surface": [
            3,
            1
          ],
          "loops": [
            [
              3,
              1
            ]
          ]
        },
        {
          "surface": [
            4,
            -1
          ],
          "loops": [
            [
              4,
              1
            ]
          ]
        },
        {
          "surface": [
            5,
            1
          ],
          "loops": [
            [
              5,
              1
            ]
          ]
        },
        {
          "surface": [
            2,
            1
          ],
          "loops": [
            [
              6,
              1
            ]
          ]
        }
      ],
      "loops": [
        {
          "edges": [
            [
              0,
              1
            ],
            [
              1,
              1
            ],
            [
              2,
              -1
            ],
            [
              3,
              -1
            ]
          ]
        },
        {
          "edges": [
            [
              4,
              1
            ],
            [
              5,
              1
            ],
            [
              6,
              -1
            ],
            [
              1,
              -1
            ]
          ]
        },
        {
          "edges": [
            [
              7,
              1
            ],
            [
              8,
              1
            ],
            [
              9,
              1
            ],
            [
              10,
              -1
            ]
          ]
        },
        {
          "edges": [
            [
              11,
              1
            ],
            [
              3,
              1
            ],
            [
              12,
              -1
            ],
            [
              9,
              -1
            ]
          ]
        },
        {
          "edges": [
            [
              11,
              -1
            ],
            [
              8,
              -1
            ],
            [
              13,
              -1
            ],
            [
              4,
              -1
            ],
            [
              0,
              -1
            ]
          ]
        },
        {
          "edges": [
            [
              2,
              1
            ],
            [
              6,
              1
            ],
            [
              14,
              1
            ],
            [
              10,
              1
            ],
            [
              12,
              1
            ]
          ]
        },
        {
          "edges": [
            [
              7,
              -1
            ],
            [
              14,
              -1
            ],
            [
              5,
              -1
            ],
            [
              13,
              1
            ]
          ]
        }
      ],
      "edges": [
        {
          "curve": [
            0,
            1
          ],
          "start": 0,
          "end": 1,
          "t": [
            0,
            0.004142132529241429
          ]
        },
        {
          "curve": [
            1,
            1
          ],
          "start": 1,
          "end": 2,
          "t": [
            0,
            0.01
          ]
        },
        {
          "curve": [
            2,
            1
          ],
          "start": 3,
          "end": 2,
          "t": [
            0,
            0.004142132529241429
          ]
        },
        {
          "curve": [
            3,
            1
          ],
          "start": 0,
          "end": 3,
          "t": [
            0,
            0.01
          ]
        },
        {
          "curve": [
            4,
            1
          ],
          "start": 1,
          "end": 4,
          "t": [
            0,
            0.01
          ]
        },
        {
          "curve": [
            5,
            1
          ],
          "start": 4,
          "end": 5,
          "t": [
            0,
            0.01
          ]
        },
        {
          "curve": [
            6,
            1
          ],
          "start": 2,
          "end": 5,
          "t": [
            0,
            0.01
          ]
        },
        {
          "curve": [
            7,
            -1
          ],
          "start": 6,
          "end": 7,
          "t": [
            -0.005,
            0.004999999999999999
          ]
        },
        {
          "curve": [
            8,
            1
          ],
          "start": 7,
          "end": 8,
          "t": [
            3.141592653589793,
            4.71238898038469
          ]
        },
        {
          "curve": [
            9,
            1
          ],
          "start": 8,
          "end": 9,
          "t": [
            0,
            0.01
          ]
        },
        {
          "curve": [
            10,
            1
          ],
          "start": 6,
          "end": 9,
          "t": [
            3.141592653589793,
            4.71238898038469
          ]
        },
        {
          "curve": [
            11,
            1
          ],
          "start": 8,
          "end": 0,
          "t": [
            0,
            0.01000000309448952
          ]
        },
        {
          "curve": [
            12,
            1
          ],
          "start": 9,
          "end": 3,
          "t": [
            0,
            0.01000000309448952
          ]
        },
        {
          "curve": [
            8,
            1
          ],
          "start": 4,
          "end": 7,
          "t": [
            0,
            3.141592653589793
          ]
        },
        {
          "curve": [
            10,
            1
          ],
          "start": 5,
          "end": 6,
          "t": [
            0,
            3.141592653589793
          ]
        }
      ],
      "vertices": [
        [
          0,
          0,
          -0
        ],
        [
          -0.00292893,
          -0.00292893,
          -0
        ],
        [
          -0.00292893,
          -0.00292893,
          0.01
        ],
        [
          0,
          0,
          0.01
        ],
        [
          0.00707107,
          -0.00292893,
          -0
        ],
        [
          0.00707107,
          -0.00292893,
          0.01
        ],
        [
          0.01707107154724476,
          0.007071071547244759,
          0.01
        ],
        [
          0.01707107154724476,
          0.007071071547244759,
          0
        ],
        [
          0.00707107,
          0.00707107,
          -0
        ],
        [
          0.00707107,
          0.00707107,
          0.01
        ]
      ],
      "surfaces": [
        {
          "type": "plane",
          "plane": {
            "xAxis": [
              0.7071067811865476,
              0.7071067811865476,
              0
            ],
            "yAxis": [
              0,
              0,
              -1
            ],
            "origin": [
              -0.00146447,
              -0.00146447,
              0.005
            ]
          }
        },
        {
          "type": "plane",
          "plane": {
            "xAxis": [
              1,
              0,
              0
            ],
            "yAxis": [
              -0,
              0,
              1
            ],
            "origin": [
              0.00207107,
              -0.00292893,
              0.005
            ]
          }
        },
        {
          "type": "cylinder",
          "cylinder": {
            "xAxis": [
              -0.7071067811865476,
              -0.7071067811865476,
              0
            ],
            "yAxis": [
              0.7071067811865476,
              -0.7071067811865476,
              0
            ],
            "origin": [
              0.01207107,
              0.00207107,
              0.005
            ],
            "radius": 0.00707107
          }
        },
        {
          "type": "plane",
          "plane": {
            "xAxis": [
              0.7071067811865476,
              0.7071067811865476,
              0
            ],
            "yAxis": [
              0,
              0,
              -1
            ],
            "origin": [
              0.00353553,
              0.00353553,
              0.005
            ]
          }
        },
        {
          "type": "plane",
          "plane": {
            "xAxis": [
              1,
              0,
              0
            ],
            "yAxis": [
              0,
              1,
              0
            ],
            "origin": [
              0,
              0,
              0
            ]
          }
        },
        {
          "type": "plane",
          "plane": {
            "xAxis": [
              1,
              0,
              -0
            ],
            "yAxis": [
              -0,
              1,
              0
            ],
            "origin": [
              0,
              0,
              0.01
            ]
          }
        }
      ],
      "curves3D": [
        {
          "type": "line",
          "line": {
            "origin": [
              0,
              0,
              -0
            ],
            "direction": [
              -0.7071067811865476,
              -0.7071067811865476,
              0
            ]
          }
        },
        {
          "type": "line",
          "line": {
            "origin": [
              -0.00292893,
              -0.00292893,
              -0
            ],
            "direction": [
              0,
              0,
              1
            ]
          }
        },
        {
          "type": "line",
          "line": {
            "origin": [
              0,
              0,
              0.01
            ],
            "direction": [
              -0.7071067811865476,
              -0.7071067811865476,
              0
            ]
          }
        },
        {
          "type": "line",
          "line": {
            "origin": [
              0,
              0,
              -0
            ],
            "direction": [
              0,
              0,
              1
            ]
          }
        },
        {
          "type": "line",
          "line": {
            "origin": [
              -0.00292893,
              -0.00292893,
              -0
            ],
            "direction": [
              1,
              0,
              -0
            ]
          }
        },
        {
          "type": "line",
          "line": {
            "origin": [
              0.007071069999999997,
              -0.002928930000000001,
              0
            ],
            "direction": [
              0,
              0,
              1
            ]
          }
        },
        {
          "type": "line",
          "line": {
            "origin": [
              -0.00292893,
              -0.00292893,
              0.01
            ],
            "direction": [
              1,
              0,
              -0
            ]
          }
        },
        {
          "type": "line",
          "line": {
            "origin": [
              0.01707107154724476,
              0.00707107154724476,
              0.005
            ],
            "direction": [
              0,
              0,
              1
            ]
          }
        },
        {
          "type": "circle",
          "circle": {
            "xAxis": [
              -0.7071067811865476,
              -0.7071067811865476,
              0
            ],
            "yAxis": [
              0.7071067811865476,
              -0.7071067811865476,
              0
            ],
            "origin": [
              0.01207107,
              0.00207107,
              0
            ],
            "radius": 0.00707107
          }
        },
        {
          "type": "line",
          "line": {
            "origin": [
              0.007071069999999998,
              0.0070710700000000005,
              0
            ],
            "direction": [
              0,
              0,
              1
            ]
          }
        },
        {
          "type": "circle",
          "circle": {
            "xAxis": [
              -0.7071067811865476,
              -0.7071067811865476,
              0
            ],
            "yAxis": [
              0.7071067811865476,
              -0.7071067811865476,
              0
            ],
            "origin": [
              0.01207107,
              0.00207107,
              0.01
            ],
            "radius": 0.00707107
          }
        },
        {
          "type": "line",
          "line": {
            "origin": [
              0.00707107,
              0.00707107,
              -0
            ],
            "direction": [
              -0.7071067811865476,
              -0.7071067811865476,
              0
            ]
          }
        },
        {
          "type": "line",
          "line": {
            "origin": [
              0.00707107,
              0.00707107,
              0.01
            ],
            "direction": [
              -0.7071067811865476,
              -0.7071067811865476,
              0
            ]
          }
        }
      ]
    }
  },
  "extensionsUsed": [
    "KITTYCAD_boundary_representation"
  ],
  "materials": [
    {
      "alphaMode": "OPAQUE",
      "doubleSided": false,
      "pbrMetallicRoughness": {
        "baseColorFactor": [
          0.9,
          0.9,
          0.9,
          1
        ],
        "metallicFactor": 1,
        "roughnessFactor": 1
      },
      "emissiveFactor": [
        0,
        0,
        0
      ]
    }
  ],
  "meshes": [
    {
      "primitives": [
        {
          "attributes": {
            "POSITION": 0,
            "NORMAL": 1
          },
          "material": 0
        },
        {
          "attributes": {
            "POSITION": 2,
            "NORMAL": 3
          },
          "material": 0
        },
        {
          "attributes": {
            "POSITION": 4,
            "NORMAL": 5
          },
          "material": 0
        },
        {
          "attributes": {
            "POSITION": 6,
            "NORMAL": 7
          },
          "material": 0
        },
        {
          "attributes": {
            "POSITION": 8,
            "NORMAL": 9
          },
          "material": 0
        },
        {
          "attributes": {
            "POSITION": 10,
            "NORMAL": 11
          },
          "material": 0
        },
        {
          "attributes": {
            "POSITION": 12,
            "NORMAL": 13
          },
          "material": 0
        }
      ]
    }
  ],
  "nodes": [
    {
      "children": [
        1
      ]
    },
    {
      "children": [
        2
      ]
    },
    {
      "extensions": {
        "KITTYCAD_boundary_representation": {
          "solid": 0
        }
      },
      "mesh": 0
    }
  ],
  "scenes": [
    {
      "nodes": [
        0
      ]
    }
  ]
}