{
  "accessors": [
    {
      "bufferView": 0,
      "byteOffset": 0,
      "count": 2640,
      "componentType": 5126,
      "type": "VEC3",
      "min": [
        -0.002029839903116226,
        -0.0020319970790296793,
        -0.004972465336322784
      ],
      "max": [
        0.0020317700691521168,
        0.0006704932311549783,
        0.005286872386932373
      ]
    },
    {
      "bufferView": 0,
      "byteOffset": 12,
      "count": 2640,
      "componentType": 5126,
      "type": "VEC3"
    }
  ],
  "asset": {
    "generator": "zoo.dev",
    "version": "2.0"
  },
  "buffers": [
    {
      "byteLength": 63360,
      "uri": "data:application/octet-stream;base64,"
    }
  ],
  "bufferViews": [
    {
      "buffer": 0,
      "byteLength": 63360,
      "byteOffset": 0,
      "byteStride": 24,
      "target": 34962
    }
  ],
  "scene": 0,
  "extensions": {
    "KITTYCAD_boundary_representation": {
      "solids": [
        {
          "shells": [
            [
              0,
              1
            ]
          ],
          "mesh": 0,
          "extras": {
            "KITTYCAD": {
              "material": 0
            }
          }
        }
      ],
      "shells": [
        {
          "faces": [
            [
              0,
              1
            ]
          ]
        }
      ],
      "faces": [
        {
          "surface": [
            0,
            -1
          ],
          "loops": [
            [
              0,
              1
            ]
          ]
        }
      ],
      "loops": [
        {
          "edges": [
            [
              0,
              -1
            ],
            [
              1,
              -1
            ],
            [
              2,
              -1
            ],
            [
              3,
              -1
            ]
          ]
        }
      ],
      "edges": [
        {
          "curve": [
            0,
            1
          ],
          "start": 0,
          "end": 1,
          "t": [
            0.000002182236214813503,
            3.0431522558342485
          ]
        },
        {
          "curve": [
            1,
            1
          ],
          "start": 2,
          "end": 0,
          "t": [
            -1,
            -0
          ]
        },
        {
          "curve": [
            2,
            1
          ],
          "start": 3,
          "end": 2,
          "t": [
            0.0000016417714098961726,
            3.053016775719954
          ]
        },
        {
          "curve": [
            3,
            1
          ],
          "start": 1,
          "end": 3,
          "t": [
            0,
            1
          ]
        }
      ],
      "vertices": [
        [
          0.00203016,
          0,
          -0.00303001
        ],
        [
          -0.00202984,
          -0,
          -0.00304999
        ],
        [
          0.00203177,
          -0.00005004,
          -0
        ],
        [
          -0.00202823,
          -0.00012989,
          -0
        ]
      ],
      "surfaces": [
        {
          "type": "nurbs",
          "nurbs": {
            "controlPoints": [
              [
                -0.00202984,
                -0,
                -0.00304999
              ],
              [
                -0.00198585,
                -0,
                -0.00386153
              ],
              [
                -0.00139445,
                -0,
                -0.004419
              ],
              [
                -0.00080304,
                -0,
                -0.00497646
              ],
              [
                0.00000968,
                -0,
                -0.00497246
              ],
              [
                0.0008224,
                -0,
                -0.00496846
              ],
              [
                0.00140828,
                -0,
                -0.0044052
              ],
              [
                0.00199417,
                -0,
                -0.00384194
              ],
              [
                0.00203016,
                -0,
                -0.00303001
              ],
              [
                -0.00200571,
                0.00012977,
                0.00762361
              ],
              [
                -0.00206184,
                0.00081239,
                0.00892091
              ],
              [
                -0.00145357,
                0.00109734,
                0.00942034
              ],
              [
                -0.00085759,
                0.00176285,
                0.01162998
              ],
              [
                0.00001797,
                0.00203014,
                0.01265982
              ],
              [
                0.00089599,
                0.00173524,
                0.01159357
              ],
              [
                0.00148875,
                0.00105681,
                0.00936326
              ],
              [
                0.00209151,
                0.00074489,
                0.00883321
              ],
              [
                0.00203178,
                0.00005,
                0.00752857
              ],
              [
                -0.00202823,
                -0.00012989,
                -0
              ],
              [
                -0.00197611,
                -0.00094382,
                -0
              ],
              [
                -0.00137579,
                -0.00149592,
                -0
              ],
              [
                -0.00077548,
                -0.00204803,
                -0
              ],
              [
                0.00003996,
                -0.00203199,
                -0
              ],
              [
                0.0008554,
                -0.00201596,
                -0
              ],
              [
                0.00143354,
                -0.00144067,
                -0
              ],
              [
                0.00201169,
                -0.00086539,
                -0
              ],
              [
                0.00203177,
                -0.00005004,
                -0
              ]
            ],
            "numControlPoints": [
              3,
              9
            ],
            "numKnots": [
              6,
              12
            ],
            "knotVector": [
              0,
              0,
              0,
              1,
              1,
              1,
              0,
              0,
              0,
              0.25,
              0.25,
              0.5,
              0.5,
              0.75,
              0.75,
              1,
              1,
              1
            ],
            "weights": [
              1,
              0.86214642,
              0.86214642,
              0.86214642,
              1,
              0.86214642,
              0.86214642,
              0.86214642,
              1,
              1,
              0.99971742,
              1.17307322,
              0.99971742,
              1,
              0.99971742,
              1.17307322,
              0.99971742,
              1,
              1,
              0.8612953,
              0.8612953,
              0.8612953,
              1,
              0.8612953,
              0.8612953,
              0.8612953,
              1
            ],
            "order": [
              3,
              3
            ]
          }
        }
      ],
      "curves3D": [
        {
          "type": "circle",
          "circle": {
            "xAxis": [
              0.9990190033016276,
              0,
              -0.044283530146351294
            ],
            "yAxis": [
              -0.044283530146351294,
              0,
              -0.9990190033016276
            ],
            "origin": [
              -0.00000033,
              -0,
              -0.00294
            ],
            "radius": 0.00203249
          }
        },
        {
          "type": "nurbs",
          "nurbs": {
            "controlPoints": [
              [
                0.00203177,
                -0.00005004,
                -0
              ],
              [
                0.00203178,
                0.00005,
                0.00752857
              ],
              [
                0.00203016,
                -0,
                -0.00303001
              ]
            ],
            "order": 3,
            "knotVector": [
              -1,
              -1,
              -1,
              -0,
              -0,
              -0
            ]
          }
        },
        {
          "type": "circle",
          "circle": {
            "xAxis": [
              -0.9979557623504716,
              -0.06390850015052281,
              0
            ],
            "yAxis": [
              0.06390850015052281,
              -0.9979557623504716,
              0
            ],
            "origin": [
              0,
              -0,
              0
            ],
            "radius": 0.00203239
          }
        },
        {
          "type": "nurbs",
          "nurbs": {
            "controlPoints": [
              [
                -0.00202984,
                -0,
                -0.00304999
              ],
              [
                -0.00200571,
                0.00012977,
                0.00762361
              ],
              [
                -0.00202823,
                -0.00012989,
                -0
              ]
            ],
            "order": 3,
            "knotVector": [
              0,
              0,
              0,
              1,
              1,
              1
            ]
          }
        }
      ]
    }
  },
  "extensionsUsed": [
    "KITTYCAD_boundary_representation"
  ],
  "materials": [
    {
      "alphaMode": "OPAQUE",
      "doubleSided": false,
      "pbrMetallicRoughness": {
        "baseColorFactor": [
          0.9,
          0.9,
          0.9,
          1
        ],
        "metallicFactor": 1,
        "roughnessFactor": 1
      },
      "emissiveFactor": [
        0,
        0,
        0
      ]
    }
  ],
  "meshes": [
    {
      "primitives": [
        {
          "attributes": {
            "POSITION": 0,
            "NORMAL": 1
          },
          "material": 0
        }
      ]
    }
  ],
  "nodes": [
    {
      "children": [
        1
      ]
    },
    {
      "children": [
        2
      ]
    },
    {
      "extensions": {
        "KITTYCAD_boundary_representation": {
          "solid": 0
        }
      },
      "mesh": 0
    }
  ],
  "scenes": [
    {
      "nodes": [
        0
      ]
    }
  ]
}