{
  "accessors": [
    {
      "bufferView": 0,
      "byteOffset": 0,
      "count": 384,
      "componentType": 5126,
      "type": "VEC3",
      "min": [
        -0.004089999943971634,
        0,
        -0.0000000000000000005008805566689152
      ],
      "max": [
        0.004089999943971634,
        0.004000000189989805,
        0.004089999943971634
      ]
    },
    {
      "bufferView": 0,
      "byteOffset": 12,
      "count": 384,
      "componentType": 5126,
      "type": "VEC3"
    },
    {
      "bufferView": 1,
      "byteOffset": 0,
      "count": 282,
      "componentType": 5126,
      "type": "VEC3",
      "min": [
        -0.004089999943971634,
        0,
        -0.004089999943971634
      ],
      "max": [
        0.004089999943971634,
        0,
        0.004089999943971634
      ]
    },
    {
      "bufferView": 1,
      "byteOffset": 12,
      "count": 282,
      "componentType": 5126,
      "type": "VEC3"
    },
    {
      "bufferView": 2,
      "byteOffset": 0,
      "count": 282,
      "componentType": 5126,
      "type": "VEC3",
      "min": [
        -0.0030900000128895044,
        0.004999999888241291,
        -0.0030900000128895044
      ],
      "max": [
        0.0030900000128895044,
        0.004999999888241291,
        0.0030900000128895044
      ]
    },
    {
      "bufferView": 2,
      "byteOffset": 12,
      "count": 282,
      "componentType": 5126,
      "type": "VEC3"
    },
    {
      "bufferView": 3,
      "byteOffset": 0,
      "count": 1878,
      "componentType": 5126,
      "type": "VEC3",
      "min": [
        -0.004089999943971634,
        0.004000000189989805,
        -0.0000000000000000005008805566689152
      ],
      "max": [
        0.004089999943971634,
        0.004999999888241291,
        0.004089999943971634
      ]
    },
    {
      "bufferView": 3,
      "byteOffset": 12,
      "count": 1878,
      "componentType": 5126,
      "type": "VEC3"
    },
    {
      "bufferView": 4,
      "byteOffset": 0,
      "count": 192,
      "componentType": 5126,
      "type": "VEC3",
      "min": [
        -0.004089999943971634,
        0,
        -0.004089999943971634
      ],
      "max": [
        0.004089999943971634,
        0.004000000189989805,
        -0
      ]
    },
    {
      "bufferView": 4,
      "byteOffset": 12,
      "count": 192,
      "componentType": 5126,
      "type": "VEC3"
    },
    {
      "bufferView": 5,
      "byteOffset": 0,
      "count": 1854,
      "componentType": 5126,
      "type": "VEC3",
      "min": [
        -0.004089999943971634,
        0.004000000189989805,
        -0.004089999943971634
      ],
      "max": [
        0.004089999943971634,
        0.004999999888241291,
        0.0000000000000000004551929932933505
      ]
    },
    {
      "bufferView": 5,
      "byteOffset": 12,
      "count": 1854,
      "componentType": 5126,
      "type": "VEC3"
    }
  ],
  "asset": {
    "generator": "zoo.dev",
    "version": "2.0"
  },
  "buffers": [
    {
      "byteLength": 116928,
      "uri": "data:application/octet-stream;base64,"
    }
  ],
  "bufferViews": [
    {
      "buffer": 0,
      "byteLength": 9216,
      "byteOffset": 0,
      "byteStride": 24,
      "target": 34962
    },
    {
      "buffer": 0,
      "byteLength": 6768,
      "byteOffset": 9216,
      "byteStride": 24,
      "target": 34962
    },
    {
      "buffer": 0,
      "byteLength": 6768,
      "byteOffset": 15984,
      "byteStride": 24,
      "target": 34962
    },
    {
      "buffer": 0,
      "byteLength": 45072,
      "byteOffset": 22752,
      "byteStride": 24,
      "target": 34962
    },
    {
      "buffer": 0,
      "byteLength": 4608,
      "byteOffset": 67824,
      "byteStride": 24,
      "target": 34962
    },
    {
      "buffer": 0,
      "byteLength": 44496,
      "byteOffset": 72432,
      "byteStride": 24,
      "target": 34962
    }
  ],
  "scene": 0,
  "extensions": {
    "KITTYCAD_boundary_representation": {
      "solids": [
        {
          "shells": [
            [
              0,
              1
            ]
          ],
          "mesh": 0,
          "extras": {
            "KITTYCAD": {
              "material": 0
            }
          }
        }
      ],
      "shells": [
        {
          "faces": [
            [
              0,
              1
            ],
            [
              1,
              1
            ],
            [
              2,
              1
            ],
            [
              3,
              1
            ],
            [
              4,
              1
            ],
            [
              5,
              1
            ]
          ]
        }
      ],
      "faces": [
        {
          "surface": [
            0,
            1
          ],
          "loops": [
            [
              0,
              1
            ]
          ]
        },
        {
          "surface": [
            1,
            -1
          ],
          "loops": [
            [
              1,
              1
            ]
          ]
        },
        {
          "surface": [
            2,
            1
          ],
          "loops": [
            [
              2,
              1
            ]
          ]
        },
        {
          "surface": [
            3,
            1
          ],
          "loops": [
            [
              3,
              1
            ]
          ]
        },
        {
          "surface": [
            0,
            1
          ],
          "loops": [
            [
              4,
              1
            ]
          ]
        },
        {
          "surface": [
            3,
            1
          ],
          "loops": [
            [
              5,
              1
            ]
          ]
        }
      ],
      "loops": [
        {
          "edges": [
            [
              0,
              1
            ],
            [
              1,
              1
            ],
            [
              2,
              -1
            ],
            [
              3,
              -1
            ]
          ]
        },
        {
          "edges": [
            [
              1,
              -1
            ],
            [
              4,
              -1
            ]
          ]
        },
        {
          "edges": [
            [
              5,
              -1
            ],
            [
              6,
              -1
            ]
          ]
        },
        {
          "edges": [
            [
              7,
              1
            ],
            [
              3,
              1
            ],
            [
              8,
              -1
            ],
            [
              6,
              1
            ]
          ]
        },
        {
          "edges": [
            [
              0,
              -1
            ],
            [
              9,
              -1
            ],
            [
              2,
              1
            ],
            [
              4,
              1
            ]
          ]
        },
        {
          "edges": [
            [
              7,
              -1
            ],
            [
              5,
              1
            ],
            [
              8,
              1
            ],
            [
              9,
              1
            ]
          ]
        }
      ],
      "edges": [
        {
          "curve": [
            0,
            -1
          ],
          "start": 0,
          "end": 1,
          "t": [
            -0.0025000000000000005,
            0.0014999999999999998
          ]
        },
        {
          "curve": [
            1,
            1
          ],
          "start": 1,
          "end": 2,
          "t": [
            3.141592653589793,
            6.283185307179586
          ]
        },
        {
          "curve": [
            2,
            -1
          ],
          "start": 3,
          "end": 2,
          "t": [
            -0.0025,
            0.0015000000000000002
          ]
        },
        {
          "curve": [
            3,
            1
          ],
          "start": 0,
          "end": 3,
          "t": [
            3.141592653589793,
            6.283185307179586
          ]
        },
        {
          "curve": [
            1,
            1
          ],
          "start": 2,
          "end": 1,
          "t": [
            0,
            3.141592653589793
          ]
        },
        {
          "curve": [
            4,
            1
          ],
          "start": 4,
          "end": 5,
          "t": [
            3.141592653589793,
            6.283185307179586
          ]
        },
        {
          "curve": [
            4,
            1
          ],
          "start": 5,
          "end": 4,
          "t": [
            0,
            3.141592653589793
          ]
        },
        {
          "curve": [
            5,
            -1
          ],
          "start": 4,
          "end": 0,
          "t": [
            0,
            1.5707963267948966
          ]
        },
        {
          "curve": [
            6,
            -1
          ],
          "start": 5,
          "end": 3,
          "t": [
            0,
            1.570796326794892
          ]
        },
        {
          "curve": [
            3,
            1
          ],
          "start": 3,
          "end": 0,
          "t": [
            0,
            3.141592653589793
          ]
        }
      ],
      "vertices": [
        [
          -0.00409,
          0.004,
          -0.0000000000000000005008805408512676
        ],
        [
          -0.00409,
          0,
          -0.0000000000000000001868620491145124
        ],
        [
          0.00409,
          0,
          -0
        ],
        [
          0.00409,
          0.004,
          -0
        ],
        [
          -0.00309,
          0.005,
          0.000000000000000000455192998280482
        ],
        [
          0.00309,
          0.005,
          -0.00000000000000000007677713734394989
        ]
      ],
      "surfaces": [
        {
          "type": "cylinder",
          "cylinder": {
            "xAxis": [
              1,
              0,
              -0.000000000000000038388568671974944
            ],
            "yAxis": [
              -0.000000000000000038388568671974944,
              0,
              -1
            ],
            "origin": [
              -0.00000000000000000015700924586837753,
              0.0025,
              0.00000000000000000015700924586837753
            ],
            "radius": 0.00409
          }
        },
        {
          "type": "plane",
          "plane": {
            "xAxis": [
              1,
              0,
              0
            ],
            "yAxis": [
              0,
              0,
              -1
            ],
            "origin": [
              0,
              0,
              -0
            ]
          }
        },
        {
          "type": "plane",
          "plane": {
            "xAxis": [
              1,
              0,
              0
            ],
            "yAxis": [
              0,
              0,
              -1
            ],
            "origin": [
              0,
              0.005,
              -0
            ]
          }
        },
        {
          "type": "torus",
          "torus": {
            "xAxis": [
              1,
              0,
              -0.000000000000000005922272978829676
            ],
            "yAxis": [
              -0.000000000000000005922272978829676,
              0,
              -1
            ],
            "origin": [
              0,
              0.003999999999999996,
              -0
            ],
            "majorRadius": 0.0030899999999999955,
            "minorRadius": 0.0010000000000000044
          }
        }
      ],
      "curves3D": [
        {
          "type": "line",
          "line": {
            "origin": [
              -0.00409,
              0.0025,
              -0.0000000000000000001868620491145124
            ],
            "direction": [
              0,
              1,
              0
            ]
          }
        },
        {
          "type": "circle",
          "circle": {
            "xAxis": [
              1,
              0,
              -0.000000000000000038388568671974944
            ],
            "yAxis": [
              -0.000000000000000038388568671974944,
              0,
              -1
            ],
            "origin": [
              -0.00000000000000000015700924586837753,
              0,
              0.00000000000000000015700924586837753
            ],
            "radius": 0.00409
          }
        },
        {
          "type": "line",
          "line": {
            "origin": [
              0.00409,
              0.0025,
              0.00000000000000000000000000000000002407412430484045
            ],
            "direction": [
              0,
              1,
              0
            ]
          }
        },
        {
          "type": "circle",
          "circle": {
            "xAxis": [
              1,
              0,
              0
            ],
            "yAxis": [
              0,
              0,
              -1
            ],
            "origin": [
              0,
              0.004,
              0
            ],
            "radius": 0.00409
          }
        },
        {
          "type": "circle",
          "circle": {
            "xAxis": [
              1,
              0,
              -0.000000000000000024846970014223266
            ],
            "yAxis": [
              0.000000000000000024846970014223266,
              0,
              1
            ],
            "origin": [
              0,
              0.005,
              -0
            ],
            "radius": 0.00309
          }
        },
        {
          "type": "circle",
          "circle": {
            "xAxis": [
              -1,
              0,
              -0.00000000000000011654240693590564
            ],
            "yAxis": [
              0,
              1,
              0
            ],
            "origin": [
              -0.0030899999999999955,
              0.003999999999999996,
              -0.00000000000000000036011603743194795
            ],
            "radius": 0.0010000000000000044
          }
        },
        {
          "type": "circle",
          "circle": {
            "xAxis": [
              1,
              0,
              -0.000000000000000005922272978829676
            ],
            "yAxis": [
              -0,
              1,
              0
            ],
            "origin": [
              0.0030899999999999955,
              0.003999999999999996,
              -0.00000000000000000001829982350458367
            ],
            "radius": 0.0010000000000000044
          }
        }
      ]
    }
  },
  "extensionsUsed": [
    "KITTYCAD_boundary_representation"
  ],
  "materials": [
    {
      "alphaMode": "OPAQUE",
      "doubleSided": false,
      "pbrMetallicRoughness": {
        "baseColorFactor": [
          0.9,
          0.9,
          0.9,
          1
        ],
        "metallicFactor": 1,
        "roughnessFactor": 1
      },
      "emissiveFactor": [
        0,
        0,
        0
      ]
    }
  ],
  "meshes": [
    {
      "primitives": [
        {
          "attributes": {
            "POSITION": 0,
            "NORMAL": 1
          },
          "material": 0
        },
        {
          "attributes": {
            "POSITION": 2,
            "NORMAL": 3
          },
          "material": 0
        },
        {
          "attributes": {
            "POSITION": 4,
            "NORMAL": 5
          },
          "material": 0
        },
        {
          "attributes": {
            "POSITION": 6,
            "NORMAL": 7
          },
          "material": 0
        },
        {
          "attributes": {
            "POSITION": 8,
            "NORMAL": 9
          },
          "material": 0
        },
        {
          "attributes": {
            "POSITION": 10,
            "NORMAL": 11
          },
          "material": 0
        }
      ]
    }
  ],
  "nodes": [
    {
      "children": [
        1
      ]
    },
    {
      "children": [
        2
      ]
    },
    {
      "extensions": {
        "KITTYCAD_boundary_representation": {
          "solid": 0
        }
      },
      "mesh": 0
    }
  ],
  "scenes": [
    {
      "nodes": [
        0
      ]
    }
  ]
}