{
  "accessors": [
    {
      "bufferView": 0,
      "byteOffset": 0,
      "count": 576,
      "componentType": 5126,
      "type": "VEC3",
      "min": [
        -0.007000000216066837,
        0,
        -0.007000000216066837
      ],
      "max": [
        0.007000000216066837,
        0,
        0.007000000216066837
      ]
    },
    {
      "bufferView": 0,
      "byteOffset": 12,
      "count": 576,
      "componentType": 5126,
      "type": "VEC3"
    },
    {
      "bufferView": 1,
      "byteOffset": 0,
      "count": 384,
      "componentType": 5126,
      "type": "VEC3",
      "min": [
        -0.004000000189989805,
        0,
        -0.0000000000000000004898587368981641
      ],
      "max": [
        0.004000000189989805,
        0.004000000189989805,
        0.004000000189989805
      ]
    },
    {
      "bufferView": 1,
      "byteOffset": 12,
      "count": 384,
      "componentType": 5126,
      "type": "VEC3"
    },
    {
      "bufferView": 2,
      "byteOffset": 0,
      "count": 576,
      "componentType": 5126,
      "type": "VEC3",
      "min": [
        -0.007000000216066837,
        0.004000000189989805,
        -0.007000000216066837
      ],
      "max": [
        0.007000000216066837,
        0.004000000189989805,
        0.007000000216066837
      ]
    },
    {
      "bufferView": 2,
      "byteOffset": 12,
      "count": 576,
      "componentType": 5126,
      "type": "VEC3"
    },
    {
      "bufferView": 3,
      "byteOffset": 0,
      "count": 288,
      "componentType": 5126,
      "type": "VEC3",
      "min": [
        -0.007000000216066837,
        0,
        -0.007000000216066837
      ],
      "max": [
        0.007000000216066837,
        0.004000000189989805,
        0.0000000000000000008572527637223931
      ]
    },
    {
      "bufferView": 3,
      "byteOffset": 12,
      "count": 288,
      "componentType": 5126,
      "type": "VEC3"
    },
    {
      "bufferView": 4,
      "byteOffset": 0,
      "count": 192,
      "componentType": 5126,
      "type": "VEC3",
      "min": [
        -0.004000000189989805,
        0,
        -0.004000000189989805
      ],
      "max": [
        0.004000000189989805,
        0.004000000189989805,
        -0
      ]
    },
    {
      "bufferView": 4,
      "byteOffset": 12,
      "count": 192,
      "componentType": 5126,
      "type": "VEC3"
    },
    {
      "bufferView": 5,
      "byteOffset": 0,
      "count": 288,
      "componentType": 5126,
      "type": "VEC3",
      "min": [
        -0.007000000216066837,
        0,
        -0.0000000000000000008572527637223931
      ],
      "max": [
        0.007000000216066837,
        0.004000000189989805,
        0.007000000216066837
      ]
    },
    {
      "bufferView": 5,
      "byteOffset": 12,
      "count": 288,
      "componentType": 5126,
      "type": "VEC3"
    }
  ],
  "asset": {
    "generator": "zoo.dev",
    "version": "2.0"
  },
  "buffers": [
    {
      "byteLength": 55296,
      "uri": "data:application/octet-stream;base64,"
    }
  ],
  "bufferViews": [
    {
      "buffer": 0,
      "byteLength": 13824,
      "byteOffset": 0,
      "byteStride": 24,
      "target": 34962
    },
    {
      "buffer": 0,
      "byteLength": 9216,
      "byteOffset": 13824,
      "byteStride": 24,
      "target": 34962
    },
    {
      "buffer": 0,
      "byteLength": 13824,
      "byteOffset": 23040,
      "byteStride": 24,
      "target": 34962
    },
    {
      "buffer": 0,
      "byteLength": 6912,
      "byteOffset": 36864,
      "byteStride": 24,
      "target": 34962
    },
    {
      "buffer": 0,
      "byteLength": 4608,
      "byteOffset": 43776,
      "byteStride": 24,
      "target": 34962
    },
    {
      "buffer": 0,
      "byteLength": 6912,
      "byteOffset": 48384,
      "byteStride": 24,
      "target": 34962
    }
  ],
  "scene": 0,
  "extensions": {
    "KITTYCAD_boundary_representation": {
      "solids": [
        {
          "shells": [
            [
              0,
              1
            ]
          ],
          "mesh": 0,
          "extras": {
            "KITTYCAD": {
              "material": 0
            }
          }
        }
      ],
      "shells": [
        {
          "faces": [
            [
              0,
              1
            ],
            [
              1,
              1
            ],
            [
              2,
              1
            ],
            [
              3,
              1
            ],
            [
              4,
              1
            ],
            [
              5,
              1
            ]
          ]
        }
      ],
      "faces": [
        {
          "surface": [
            0,
            -1
          ],
          "loops": [
            [
              0,
              1
            ],
            [
              1,
              1
            ]
          ]
        },
        {
          "surface": [
            1,
            -1
          ],
          "loops": [
            [
              2,
              1
            ]
          ]
        },
        {
          "surface": [
            2,
            1
          ],
          "loops": [
            [
              4,
              1
            ],
            [
              3,
              1
            ]
          ]
        },
        {
          "surface": [
            3,
            1
          ],
          "loops": [
            [
              5,
              1
            ]
          ]
        },
        {
          "surface": [
            1,
            -1
          ],
          "loops": [
            [
              6,
              1
            ]
          ]
        },
        {
          "surface": [
            3,
            1
          ],
          "loops": [
            [
              7,
              1
            ]
          ]
        }
      ],
      "loops": [
        {
          "edges": [
            [
              0,
              1
            ],
            [
              1,
              1
            ]
          ]
        },
        {
          "edges": [
            [
              2,
              1
            ],
            [
              3,
              1
            ]
          ]
        },
        {
          "edges": [
            [
              4,
              -1
            ],
            [
              5,
              1
            ],
            [
              6,
              1
            ],
            [
              3,
              -1
            ]
          ]
        },
        {
          "edges": [
            [
              5,
              -1
            ],
            [
              7,
              -1
            ]
          ]
        },
        {
          "edges": [
            [
              8,
              1
            ],
            [
              9,
              1
            ]
          ]
        },
        {
          "edges": [
            [
              10,
              1
            ],
            [
              8,
              -1
            ],
            [
              11,
              -1
            ],
            [
              1,
              -1
            ]
          ]
        },
        {
          "edges": [
            [
              4,
              1
            ],
            [
              2,
              -1
            ],
            [
              6,
              -1
            ],
            [
              7,
              1
            ]
          ]
        },
        {
          "edges": [
            [
              10,
              -1
            ],
            [
              0,
              -1
            ],
            [
              11,
              1
            ],
            [
              9,
              -1
            ]
          ]
        }
      ],
      "edges": [
        {
          "curve": [
            0,
            1
          ],
          "start": 0,
          "end": 1,
          "t": [
            0,
            3.141592653589793
          ]
        },
        {
          "curve": [
            0,
            1
          ],
          "start": 1,
          "end": 0,
          "t": [
            3.141592653589793,
            6.283185307179586
          ]
        },
        {
          "curve": [
            1,
            1
          ],
          "start": 2,
          "end": 3,
          "t": [
            0,
            3.141592653589793
          ]
        },
        {
          "curve": [
            1,
            1
          ],
          "start": 3,
          "end": 2,
          "t": [
            3.141592653589793,
            6.283185307179586
          ]
        },
        {
          "curve": [
            2,
            -1
          ],
          "start": 4,
          "end": 3,
          "t": [
            0,
            0.004
          ]
        },
        {
          "curve": [
            3,
            1
          ],
          "start": 4,
          "end": 5,
          "t": [
            3.141592653589793,
            6.283185307179586
          ]
        },
        {
          "curve": [
            4,
            -1
          ],
          "start": 5,
          "end": 2,
          "t": [
            0,
            0.004
          ]
        },
        {
          "curve": [
            3,
            1
          ],
          "start": 5,
          "end": 4,
          "t": [
            0,
            3.141592653589793
          ]
        },
        {
          "curve": [
            5,
            1
          ],
          "start": 6,
          "end": 7,
          "t": [
            0,
            3.141592653589793
          ]
        },
        {
          "curve": [
            5,
            1
          ],
          "start": 7,
          "end": 6,
          "t": [
            3.141592653589793,
            6.283185307179586
          ]
        },
        {
          "curve": [
            6,
            -1
          ],
          "start": 1,
          "end": 7,
          "t": [
            0,
            0.004
          ]
        },
        {
          "curve": [
            7,
            -1
          ],
          "start": 0,
          "end": 6,
          "t": [
            0,
            0.004
          ]
        }
      ],
      "vertices": [
        [
          0.007,
          0,
          0
        ],
        [
          -0.007,
          0,
          0.0000000000000000008572527594031474
        ],
        [
          0.004,
          0,
          -0
        ],
        [
          -0.004,
          0,
          -0.0000000000000000004898587196589414
        ],
        [
          -0.004,
          0.004,
          -0.0000000000000000004898587196589414
        ],
        [
          0.004,
          0.004,
          -0
        ],
        [
          0.007,
          0.004,
          -0
        ],
        [
          -0.007,
          0.004,
          -0.0000000000000000008572527594031474
        ]
      ],
      "surfaces": [
        {
          "type": "plane",
          "plane": {
            "xAxis": [
              1,
              0,
              0
            ],
            "yAxis": [
              0,
              0,
              -1
            ],
            "origin": [
              0.007,
              0,
              -0
            ]
          }
        },
        {
          "type": "cylinder",
          "cylinder": {
            "xAxis": [
              1,
              0,
              -0
            ],
            "yAxis": [
              -0,
              0,
              -1
            ],
            "origin": [
              0,
              0,
              -0
            ],
            "radius": 0.004
          }
        },
        {
          "type": "plane",
          "plane": {
            "xAxis": [
              1,
              0,
              0
            ],
            "yAxis": [
              0,
              0,
              -1
            ],
            "origin": [
              0.004,
              0.004,
              -0
            ]
          }
        },
        {
          "type": "cylinder",
          "cylinder": {
            "xAxis": [
              1,
              0,
              0
            ],
            "yAxis": [
              -0,
              0,
              1
            ],
            "origin": [
              0,
              0.004,
              -0
            ],
            "radius": 0.007
          }
        }
      ],
      "curves3D": [
        {
          "type": "circle",
          "circle": {
            "xAxis": [
              1,
              0,
              0
            ],
            "yAxis": [
              -0,
              0,
              1
            ],
            "origin": [
              0,
              0,
              0
            ],
            "radius": 0.007
          }
        },
        {
          "type": "circle",
          "circle": {
            "xAxis": [
              1,
              0,
              -0
            ],
            "yAxis": [
              -0,
              0,
              -1
            ],
            "origin": [
              0,
              0,
              -0
            ],
            "radius": 0.004
          }
        },
        {
          "type": "line",
          "line": {
            "origin": [
              -0.004,
              0,
              -0.0000000000000000004898587196589414
            ],
            "direction": [
              0,
              1,
              0
            ]
          }
        },
        {
          "type": "circle",
          "circle": {
            "xAxis": [
              1,
              0,
              0
            ],
            "yAxis": [
              0,
              0,
              -1
            ],
            "origin": [
              0,
              0.004,
              0
            ],
            "radius": 0.004
          }
        },
        {
          "type": "line",
          "line": {
            "origin": [
              0.004,
              0,
              0
            ],
            "direction": [
              0,
              1,
              0
            ]
          }
        },
        {
          "type": "circle",
          "circle": {
            "xAxis": [
              1,
              0,
              0
            ],
            "yAxis": [
              0,
              0,
              -1
            ],
            "origin": [
              0,
              0.004,
              0
            ],
            "radius": 0.007
          }
        },
        {
          "type": "line",
          "line": {
            "origin": [
              -0.007,
              0.004,
              0.0000000000000000008572527594031474
            ],
            "direction": [
              0,
              -1,
              0
            ]
          }
        },
        {
          "type": "line",
          "line": {
            "origin": [
              0.007,
              0.004,
              0
            ],
            "direction": [
              0,
              -1,
              0
            ]
          }
        }
      ]
    }
  },
  "extensionsUsed": [
    "KITTYCAD_boundary_representation"
  ],
  "materials": [
    {
      "alphaMode": "OPAQUE",
      "doubleSided": false,
      "pbrMetallicRoughness": {
        "baseColorFactor": [
          0.9,
          0.9,
          0.9,
          1
        ],
        "metallicFactor": 1,
        "roughnessFactor": 1
      },
      "emissiveFactor": [
        0,
        0,
        0
      ]
    }
  ],
  "meshes": [
    {
      "primitives": [
        {
          "attributes": {
            "POSITION": 0,
            "NORMAL": 1
          },
          "material": 0
        },
        {
          "attributes": {
            "POSITION": 2,
            "NORMAL": 3
          },
          "material": 0
        },
        {
          "attributes": {
            "POSITION": 4,
            "NORMAL": 5
          },
          "material": 0
        },
        {
          "attributes": {
            "POSITION": 6,
            "NORMAL": 7
          },
          "material": 0
        },
        {
          "attributes": {
            "POSITION": 8,
            "NORMAL": 9
          },
          "material": 0
        },
        {
          "attributes": {
            "POSITION": 10,
            "NORMAL": 11
          },
          "material": 0
        }
      ]
    }
  ],
  "nodes": [
    {
      "children": [
        1
      ]
    },
    {
      "children": [
        2
      ]
    },
    {
      "extensions": {
        "KITTYCAD_boundary_representation": {
          "solid": 0
        }
      },
      "mesh": 0
    }
  ],
  "scenes": [
    {
      "nodes": [
        0
      ]
    }
  ]
}