{
  "accessors": [
    {
      "bufferView": 0,
      "byteOffset": 0,
      "count": 6,
      "componentType": 5126,
      "type": "VEC3",
      "min": [
        0,
        0,
        -0
      ],
      "max": [
        0.004000000189989805,
        0,
        0.0020000000949949026
      ]
    },
    {
      "bufferView": 0,
      "byteOffset": 12,
      "count": 6,
      "componentType": 5126,
      "type": "VEC3"
    },
    {
      "bufferView": 1,
      "byteOffset": 0,
      "count": 192,
      "componentType": 5126,
      "type": "VEC3",
      "min": [
        0.004000000189989805,
        -0.004330129828304052,
        0
      ],
      "max": [
        0.011500000022351742,
        0.0006698700017295778,
        0.0020000000949949026
      ]
    },
    {
      "bufferView": 1,
      "byteOffset": 12,
      "count": 192,
      "componentType": 5126,
      "type": "VEC3"
    },
    {
      "bufferView": 2,
      "byteOffset": 0,
      "count": 6,
      "componentType": 5126,
      "type": "VEC3",
      "min": [
        0.011500000022351742,
        -0.004330129828304052,
        -0
      ],
      "max": [
        0.016499999910593033,
        -0.004330129828304052,
        0.0020000000949949026
      ]
    },
    {
      "bufferView": 2,
      "byteOffset": 12,
      "count": 6,
      "componentType": 5126,
      "type": "VEC3"
    },
    {
      "bufferView": 3,
      "byteOffset": 0,
      "count": 6,
      "componentType": 5126,
      "type": "VEC3",
      "min": [
        0.016499999910593033,
        -0.004330129828304052,
        -0
      ],
      "max": [
        0.016499999910593033,
        0.00566986994817853,
        0.0020000000949949026
      ]
    },
    {
      "bufferView": 3,
      "byteOffset": 12,
      "count": 6,
      "componentType": 5126,
      "type": "VEC3"
    }
  ],
  "asset": {
    "generator": "zoo.dev",
    "version": "2.0"
  },
  "buffers": [
    {
      "byteLength": 5040,
      "uri": "data:application/octet-stream;base64,"
    }
  ],
  "bufferViews": [
    {
      "buffer": 0,
      "byteLength": 144,
      "byteOffset": 0,
      "byteStride": 24,
      "target": 34962
    },
    {
      "buffer": 0,
      "byteLength": 4608,
      "byteOffset": 144,
      "byteStride": 24,
      "target": 34962
    },
    {
      "buffer": 0,
      "byteLength": 144,
      "byteOffset": 4752,
      "byteStride": 24,
      "target": 34962
    },
    {
      "buffer": 0,
      "byteLength": 144,
      "byteOffset": 4896,
      "byteStride": 24,
      "target": 34962
    }
  ],
  "scene": 0,
  "extensions": {
    "KITTYCAD_boundary_representation": {
      "solids": [
        {
          "shells": [
            [
              0,
              1
            ]
          ],
          "mesh": 0,
          "extras": {
            "KITTYCAD": {
              "material": 0
            }
          }
        }
      ],
      "shells": [
        {
          "faces": [
            [
              0,
              1
            ],
            [
              1,
              1
            ],
            [
              2,
              1
            ],
            [
              3,
              1
            ]
          ]
        }
      ],
      "faces": [
        {
          "surface": [
            0,
            1
          ],
          "loops": [
            [
              0,
              1
            ]
          ]
        },
        {
          "surface": [
            1,
            -1
          ],
          "loops": [
            [
              1,
              1
            ]
          ]
        },
        {
          "surface": [
            2,
            1
          ],
          "loops": [
            [
              2,
              1
            ]
          ]
        },
        {
          "surface": [
            3,
            1
          ],
          "loops": [
            [
              3,
              1
            ]
          ]
        }
      ],
      "loops": [
        {
          "edges": [
            [
              0,
              1
            ],
            [
              1,
              -1
            ],
            [
              2,
              1
            ],
            [
              3,
              1
            ]
          ]
        },
        {
          "edges": [
            [
              4,
              1
            ],
            [
              5,
              -1
            ],
            [
              6,
              1
            ],
            [
              1,
              1
            ]
          ]
        },
        {
          "edges": [
            [
              7,
              1
            ],
            [
              8,
              -1
            ],
            [
              9,
              1
            ],
            [
              5,
              1
            ]
          ]
        },
        {
          "edges": [
            [
              10,
              1
            ],
            [
              11,
              1
            ],
            [
              12,
              1
            ],
            [
              8,
              1
            ]
          ]
        }
      ],
      "edges": [
        {
          "curve": [
            0,
            1
          ],
          "start": 0,
          "end": 1,
          "t": [
            0,
            0.004
          ]
        },
        {
          "curve": [
            1,
            1
          ],
          "start": 2,
          "end": 1,
          "t": [
            0,
            0.002
          ]
        },
        {
          "curve": [
            2,
            1
          ],
          "start": 2,
          "end": 3,
          "t": [
            0,
            0.004
          ]
        },
        {
          "curve": [
            3,
            1
          ],
          "start": 3,
          "end": 0,
          "t": [
            0,
            0.002
          ]
        },
        {
          "curve": [
            4,
            1
          ],
          "start": 1,
          "end": 4,
          "t": [
            0.00000029999984606838754,
            2.094395104285415
          ]
        },
        {
          "curve": [
            5,
            1
          ],
          "start": 5,
          "end": 4,
          "t": [
            0,
            0.002
          ]
        },
        {
          "curve": [
            6,
            1
          ],
          "start": 5,
          "end": 2,
          "t": [
            0,
            2.0943948042855687
          ]
        },
        {
          "curve": [
            7,
            1
          ],
          "start": 4,
          "end": 6,
          "t": [
            0,
            0.005000000000000001
          ]
        },
        {
          "curve": [
            8,
            1
          ],
          "start": 7,
          "end": 6,
          "t": [
            0,
            0.002
          ]
        },
        {
          "curve": [
            9,
            1
          ],
          "start": 7,
          "end": 5,
          "t": [
            0,
            0.005000000000000001
          ]
        },
        {
          "curve": [
            10,
            1
          ],
          "start": 6,
          "end": 8,
          "t": [
            0,
            0.009999999999999998
          ]
        },
        {
          "curve": [
            11,
            1
          ],
          "start": 8,
          "end": 9,
          "t": [
            0,
            0.002
          ]
        },
        {
          "curve": [
            12,
            1
          ],
          "start": 9,
          "end": 7,
          "t": [
            0,
            0.009999999999999998
          ]
        }
      ],
      "vertices": [
        [
          0,
          0,
          -0
        ],
        [
          0.004,
          0,
          -0
        ],
        [
          0.004,
          0,
          0.002
        ],
        [
          0,
          0,
          0.002
        ],
        [
          0.0115,
          -0.00433013,
          -0
        ],
        [
          0.0115,
          -0.00433013,
          0.002
        ],
        [
          0.0165,
          -0.00433013,
          -0
        ],
        [
          0.0165,
          -0.00433013,
          0.002
        ],
        [
          0.0165,
          0.00566987,
          -0
        ],
        [
          0.0165,
          0.00566987,
          0.002
        ]
      ],
      "surfaces": [
        {
          "type": "plane",
          "plane": {
            "xAxis": [
              1,
              0,
              0
            ],
            "yAxis": [
              -0,
              0,
              1
            ],
            "origin": [
              0.002,
              0,
              0.001
            ]
          }
        },
        {
          "type": "cylinder",
          "cylinder": {
            "xAxis": [
              -0.5000000016387101,
              0.8660254028383291,
              0
            ],
            "yAxis": [
              0.8660254028383291,
              0.5000000016387101,
              0
            ],
            "origin": [
              0.0065,
              -0.00433013,
              0.001
            ],
            "radius": 0.005
          }
        },
        {
          "type": "plane",
          "plane": {
            "xAxis": [
              1,
              0,
              0
            ],
            "yAxis": [
              -0,
              0,
              1
            ],
            "origin": [
              0.014,
              -0.00433013,
              0.001
            ]
          }
        },
        {
          "type": "plane",
          "plane": {
            "xAxis": [
              0,
              1,
              0
            ],
            "yAxis": [
              -0,
              0,
              1
            ],
            "origin": [
              0.0165,
              0.00066987,
              0.001
            ]
          }
        }
      ],
      "curves3D": [
        {
          "type": "line",
          "line": {
            "origin": [
              0,
              0,
              -0
            ],
            "direction": [
              1,
              0,
              -0
            ]
          }
        },
        {
          "type": "line",
          "line": {
            "origin": [
              0.004,
              0,
              0.002
            ],
            "direction": [
              0,
              0,
              -1
            ]
          }
        },
        {
          "type": "line",
          "line": {
            "origin": [
              0.004,
              0,
              0.002
            ],
            "direction": [
              -1,
              0,
              0
            ]
          }
        },
        {
          "type": "line",
          "line": {
            "origin": [
              0,
              0,
              0.002
            ],
            "direction": [
              0,
              0,
              -1
            ]
          }
        },
        {
          "type": "circle",
          "circle": {
            "xAxis": [
              -0.5000000016387101,
              0.8660254028383291,
              0
            ],
            "yAxis": [
              0.8660254028383291,
              0.5000000016387101,
              0
            ],
            "origin": [
              0.0065,
              -0.00433013,
              0
            ],
            "radius": 0.005
          }
        },
        {
          "type": "line",
          "line": {
            "origin": [
              0.0115,
              -0.00433013,
              0.002
            ],
            "direction": [
              0,
              0,
              -1
            ]
          }
        },
        {
          "type": "circle",
          "circle": {
            "xAxis": [
              1,
              0,
              -0
            ],
            "yAxis": [
              -0,
              1,
              0
            ],
            "origin": [
              0.0065,
              -0.00433013,
              0.002
            ],
            "radius": 0.005
          }
        },
        {
          "type": "line",
          "line": {
            "origin": [
              0.0115,
              -0.00433013,
              -0
            ],
            "direction": [
              1,
              0,
              -0
            ]
          }
        },
        {
          "type": "line",
          "line": {
            "origin": [
              0.0165,
              -0.00433013,
              0.002
            ],
            "direction": [
              0,
              0,
              -1
            ]
          }
        },
        {
          "type": "line",
          "line": {
            "origin": [
              0.0165,
              -0.00433013,
              0.002
            ],
            "direction": [
              -1,
              0,
              0
            ]
          }
        },
        {
          "type": "line",
          "line": {
            "origin": [
              0.0165,
              -0.00433013,
              -0
            ],
            "direction": [
              0,
              1,
              0
            ]
          }
        },
        {
          "type": "line",
          "line": {
            "origin": [
              0.0165,
              0.00566987,
              -0
            ],
            "direction": [
              0,
              0,
              1
            ]
          }
        },
        {
          "type": "line",
          "line": {
            "origin": [
              0.0165,
              0.00566987,
              0.002
            ],
            "direction": [
              0,
              -1,
              0
            ]
          }
        }
      ]
    }
  },
  "extensionsUsed": [
    "KITTYCAD_boundary_representation"
  ],
  "materials": [
    {
      "alphaMode": "OPAQUE",
      "doubleSided": false,
      "pbrMetallicRoughness": {
        "baseColorFactor": [
          0.9,
          0.9,
          0.9,
          1
        ],
        "metallicFactor": 1,
        "roughnessFactor": 1
      },
      "emissiveFactor": [
        0,
        0,
        0
      ]
    }
  ],
  "meshes": [
    {
      "primitives": [
        {
          "attributes": {
            "POSITION": 0,
            "NORMAL": 1
          },
          "material": 0
        },
        {
          "attributes": {
            "POSITION": 2,
            "NORMAL": 3
          },
          "material": 0
        },
        {
          "attributes": {
            "POSITION": 4,
            "NORMAL": 5
          },
          "material": 0
        },
        {
          "attributes": {
            "POSITION": 6,
            "NORMAL": 7
          },
          "material": 0
        }
      ]
    }
  ],
  "nodes": [
    {
      "children": [
        1
      ]
    },
    {
      "children": [
        2
      ]
    },
    {
      "extensions": {
        "KITTYCAD_boundary_representation": {
          "solid": 0
        }
      },
      "mesh": 0
    }
  ],
  "scenes": [
    {
      "nodes": [
        0
      ]
    }
  ]
}