{
  "accessors": [
    {
      "bufferView": 0,
      "byteOffset": 0,
      "count": 1443,
      "componentType": 5126,
      "type": "VEC3",
      "min": [
        0.0016199999954551458,
        -0.0021476501133292913,
        -0.000006960000064282212
      ],
      "max": [
        0.0016199999954551458,
        0.02252263016998768,
        0.02764608897268772
      ]
    },
    {
      "bufferView": 0,
      "byteOffset": 12,
      "count": 1443,
      "componentType": 5126,
      "type": "VEC3"
    }
  ],
  "asset": {
    "generator": "zoo.dev",
    "version": "2.0"
  },
  "buffers": [
    {
      "byteLength": 34632,
      "uri": "data:application/octet-stream;base64,"
    }
  ],
  "bufferViews": [
    {
      "buffer": 0,
      "byteLength": 34632,
      "byteOffset": 0,
      "byteStride": 24,
      "target": 34962
    }
  ],
  "scene": 0,
  "extensions": {
    "KITTYCAD_boundary_representation": {
      "solids": [
        {
          "shells": [
            [
              0,
              1
            ]
          ],
          "mesh": 0,
          "extras": {
            "KITTYCAD": {
              "material": 0
            }
          }
        }
      ],
      "shells": [
        {
          "faces": [
            [
              0,
              1
            ]
          ]
        }
      ],
      "faces": [
        {
          "surface": [
            0,
            -1
          ],
          "loops": [
            [
              0,
              1
            ]
          ]
        }
      ],
      "loops": [
        {
          "edges": [
            [
              0,
              -1
            ],
            [
              1,
              -1
            ],
            [
              2,
              -1
            ],
            [
              3,
              -1
            ]
          ]
        }
      ],
      "edges": [
        {
          "curve": [
            0,
            1
          ],
          "start": 0,
          "end": 1,
          "t": [
            0,
            0.002449999411448909
          ]
        },
        {
          "curve": [
            1,
            1
          ],
          "start": 2,
          "end": 0,
          "t": [
            -1,
            -0
          ]
        },
        {
          "curve": [
            2,
            1
          ],
          "start": 3,
          "end": 2,
          "t": [
            0,
            0.0024499999208367324
          ]
        },
        {
          "curve": [
            3,
            1
          ],
          "start": 1,
          "end": 3,
          "t": [
            0,
            1
          ]
        }
      ],
      "vertices": [
        [
          0.00162,
          -0.00214765,
          0.0000086
        ],
        [
          0.00162,
          0.0003023,
          -0.00000696
        ],
        [
          0.00162,
          0.02252263,
          0.0165486
        ],
        [
          0.00162,
          0.02007268,
          0.01653296
        ]
      ],
      "surfaces": [
        {
          "type": "plane",
          "plane": {
            "xAxis": [
              -0,
              1,
              0
            ],
            "yAxis": [
              0,
              -0,
              1
            ],
            "origin": [
              0.00162,
              -0.00083253,
              0.01420074
            ]
          }
        }
      ],
      "curves3D": [
        {
          "type": "line",
          "line": {
            "origin": [
              0.00162,
              -0.00214765,
              0.0000086
            ],
            "direction": [
              0,
              0.9999798320568252,
              -0.006351021933837097
            ]
          }
        },
        {
          "type": "nurbs",
          "nurbs": {
            "controlPoints": [
              [
                0.00162,
                0.02252263,
                0.0165486
              ],
              [
                0.00162,
                0.02240848,
                0.01767156
              ],
              [
                0.00162,
                0.02192766,
                0.01932104
              ],
              [
                0.00162,
                0.0214292,
                0.02057248
              ],
              [
                0.00162,
                0.02053981,
                0.02219416
              ],
              [
                0.00162,
                0.01905665,
                0.02403563
              ],
              [
                0.00162,
                0.0170888,
                0.02565063
              ],
              [
                0.00162,
                0.0148582,
                0.02681772
              ],
              [
                0.00162,
                0.01250573,
                0.02749448
              ],
              [
                0.00162,
                0.0104781,
                0.02767396
              ],
              [
                0.00162,
                0.00906886,
                0.02760226
              ],
              [
                0.00162,
                0.0076714,
                0.02740676
              ],
              [
                0.00162,
                0.00571406,
                0.02684791
              ],
              [
                0.00162,
                0.00353154,
                0.0257394
              ],
              [
                0.00162,
                0.00156123,
                0.02417248
              ],
              [
                0.00162,
                -0.0000665,
                0.02221464
              ],
              [
                0.00162,
                -0.00124826,
                0.01999287
              ],
              [
                0.00162,
                -0.00193753,
                0.01763602
              ],
              [
                0.00162,
                -0.00214129,
                0.01565827
              ],
              [
                0.00162,
                -0.0020466,
                0.01410025
              ],
              [
                0.00162,
                -0.00206533,
                0.01369557
              ],
              [
                0.00162,
                -0.00206506,
                0.01286928
              ],
              [
                0.00162,
                -0.00207172,
                0.01199108
              ],
              [
                0.00162,
                -0.00207718,
                0.01110207
              ],
              [
                0.00162,
                -0.00208284,
                0.01021482
              ],
              [
                0.00162,
                -0.00208847,
                0.00932729
              ],
              [
                0.00162,
                -0.00209411,
                0.0084398
              ],
              [
                0.00162,
                -0.00209974,
                0.0075523
              ],
              [
                0.00162,
                -0.00210538,
                0.00666481
              ],
              [
                0.00162,
                -0.00211102,
                0.00577731
              ],
              [
                0.00162,
                -0.00211665,
                0.00488982
              ],
              [
                0.00162,
                -0.00212229,
                0.00400232
              ],
              [
                0.00162,
                -0.00212792,
                0.00311483
              ],
              [
                0.00162,
                -0.00213356,
                0.00222733
              ],
              [
                0.00162,
                -0.00214201,
                0.00089609
              ],
              [
                0.00162,
                -0.00214765,
                0.0000086
              ]
            ],
            "order": 3,
            "knotVector": [
              -1,
              -1,
              -1,
              -0.96875,
              -0.953125,
              -0.93359375,
              -0.90625,
              -0.875,
              -0.84375,
              -0.8125,
              -0.78125,
              -0.7578125,
              -0.7421875,
              -0.71875,
              -0.6875,
              -0.65625,
              -0.625,
              -0.59375,
              -0.5625,
              -0.53125,
              -0.5078125,
              -0.4921875,
              -0.46875,
              -0.4375,
              -0.40625,
              -0.375,
              -0.34375,
              -0.3125,
              -0.28125,
              -0.25,
              -0.21875,
              -0.1875,
              -0.15625,
              -0.125,
              -0.09375,
              -0.0625,
              -0,
              -0,
              -0
            ],
            "weights": [
              1,
              0.96366986,
              0.92279848,
              0.89725379,
              0.87170985,
              0.85467442,
              0.85470888,
              0.87267323,
              0.91017317,
              0.95189057,
              1.01202736,
              0.95189058,
              0.9101731,
              0.87267368,
              0.85470624,
              0.8546898,
              0.87275589,
              0.90969628,
              0.95426234,
              1.00601368,
              0.99762824,
              1.00047675,
              0.9999182,
              1.00001403,
              0.99999759,
              1.00000041,
              0.99999993,
              1.00000001,
              1,
              1,
              1,
              1,
              1,
              1,
              1,
              1
            ]
          }
        },
        {
          "type": "line",
          "line": {
            "origin": [
              0.00162,
              0.02007268,
              0.01653296
            ],
            "direction": [
              0,
              0.9999796241476138,
              0.006383673675654391
            ]
          }
        },
        {
          "type": "nurbs",
          "nurbs": {
            "controlPoints": [
              [
                0.00162,
                0.0003023,
                -0.00000696
              ],
              [
                0.00162,
                0.00030794,
                0.00088053
              ],
              [
                0.00162,
                0.00031639,
                0.00221178
              ],
              [
                0.00162,
                0.00032203,
                0.00309927
              ],
              [
                0.00162,
                0.00032766,
                0.00398677
              ],
              [
                0.00162,
                0.0003333,
                0.00487426
              ],
              [
                0.00162,
                0.00033894,
                0.00576176
              ],
              [
                0.00162,
                0.00034457,
                0.00664925
              ],
              [
                0.00162,
                0.00035021,
                0.00753675
              ],
              [
                0.00162,
                0.00035584,
                0.00842424
              ],
              [
                0.00162,
                0.00036148,
                0.00931173
              ],
              [
                0.00162,
                0.00036711,
                0.01019925
              ],
              [
                0.00162,
                0.00037278,
                0.0110866
              ],
              [
                0.00162,
                0.00037822,
                0.01197502
              ],
              [
                0.00162,
                0.000385,
                0.01285664
              ],
              [
                0.00162,
                0.00038406,
                0.01366545
              ],
              [
                0.00162,
                0.00040476,
                0.01412131
              ],
              [
                0.00162,
                0.00029731,
                0.0153484
              ],
              [
                0.00162,
                0.00042439,
                0.01694687
              ],
              [
                0.00162,
                0.00093301,
                0.01884952
              ],
              [
                0.00162,
                0.00183956,
                0.02065487
              ],
              [
                0.00162,
                0.0031089,
                0.0222565
              ],
              [
                0.00162,
                0.0046605,
                0.02355093
              ],
              [
                0.00162,
                0.00639101,
                0.02448149
              ],
              [
                0.00162,
                0.00795116,
                0.02496675
              ],
              [
                0.00162,
                0.00906887,
                0.02514991
              ],
              [
                0.00162,
                0.01019836,
                0.02523395
              ],
              [
                0.00162,
                0.0118288,
                0.02512806
              ],
              [
                0.00162,
                0.01372926,
                0.02462924
              ],
              [
                0.00162,
                0.01554115,
                0.02373466
              ],
              [
                0.00162,
                0.01715061,
                0.02247572
              ],
              [
                0.00162,
                0.0183754,
                0.02102593
              ],
              [
                0.00162,
                0.01911958,
                0.01974135
              ],
              [
                0.00162,
                0.01954311,
                0.0187465
              ],
              [
                0.00162,
                0.01995996,
                0.01743193
              ],
              [
                0.00162,
                0.02007268,
                0.01653296
              ]
            ],
            "order": 3,
            "knotVector": [
              0,
              0,
              0,
              0.0625,
              0.09375,
              0.125,
              0.15625,
              0.1875,
              0.21875,
              0.25,
              0.28125,
              0.3125,
              0.34375,
              0.375,
              0.40625,
              0.4375,
              0.46875,
              0.4921875,
              0.5078125,
              0.53125,
              0.5625,
              0.59375,
              0.625,
              0.65625,
              0.6875,
              0.71875,
              0.7421875,
              0.7578125,
              0.78125,
              0.8125,
              0.84375,
              0.875,
              0.90625,
              0.93359375,
              0.953125,
              0.96875,
              1,
              1,
              1
            ],
            "weights": [
              1,
              1,
              1,
              1,
              1,
              1,
              1,
              1,
              1.00000001,
              0.99999993,
              1.00000041,
              0.99999759,
              1.00001403,
              0.9999182,
              1.00047675,
              0.99762824,
              1.00601368,
              0.95426234,
              0.90969628,
              0.87275589,
              0.8546898,
              0.85470624,
              0.87267368,
              0.9101731,
              0.95189058,
              1.01202736,
              0.95189057,
              0.91017317,
              0.87267323,
              0.85470888,
              0.85467442,
              0.87170985,
              0.89725379,
              0.92279848,
              0.96366986,
              1
            ]
          }
        }
      ]
    }
  },
  "extensionsUsed": [
    "KITTYCAD_boundary_representation"
  ],
  "materials": [
    {
      "alphaMode": "OPAQUE",
      "doubleSided": false,
      "pbrMetallicRoughness": {
        "baseColorFactor": [
          0.9,
          0.9,
          0.9,
          1
        ],
        "metallicFactor": 1,
        "roughnessFactor": 1
      },
      "emissiveFactor": [
        0,
        0,
        0
      ]
    }
  ],
  "meshes": [
    {
      "primitives": [
        {
          "attributes": {
            "POSITION": 0,
            "NORMAL": 1
          },
          "material": 0
        }
      ]
    }
  ],
  "nodes": [
    {
      "children": [
        1
      ]
    },
    {
      "children": [
        2
      ]
    },
    {
      "extensions": {
        "KITTYCAD_boundary_representation": {
          "solid": 0
        }
      },
      "mesh": 0
    }
  ],
  "scenes": [
    {
      "nodes": [
        0
      ]
    }
  ]
}