{
  "accessors": [
    {
      "bufferView": 0,
      "byteOffset": 0,
      "count": 3336,
      "componentType": 5126,
      "type": "VEC3",
      "min": [
        -0.009999279864132404,
        -0.008660250343382359,
        0
      ],
      "max": [
        0.009999999776482582,
        0.00999942608177662,
        0.009999999776482582
      ]
    },
    {
      "bufferView": 0,
      "byteOffset": 12,
      "count": 3336,
      "componentType": 5126,
      "type": "VEC3"
    },
    {
      "bufferView": 1,
      "byteOffset": 0,
      "count": 3336,
      "componentType": 5126,
      "type": "VEC3",
      "min": [
        -0.009999279864132404,
        -0.00999942608177662,
        0
      ],
      "max": [
        0.009999999776482582,
        0.008660250343382359,
        0.009999999776482582
      ]
    },
    {
      "bufferView": 1,
      "byteOffset": 12,
      "count": 3336,
      "componentType": 5126,
      "type": "VEC3"
    },
    {
      "bufferView": 2,
      "byteOffset": 0,
      "count": 3336,
      "componentType": 5126,
      "type": "VEC3",
      "min": [
        -0.004999999888241291,
        -0.00999942608177662,
        0
      ],
      "max": [
        0.009999999776482582,
        0.00999942608177662,
        0.009999999776482582
      ]
    },
    {
      "bufferView": 2,
      "byteOffset": 12,
      "count": 3336,
      "componentType": 5126,
      "type": "VEC3"
    },
    {
      "bufferView": 3,
      "byteOffset": 0,
      "count": 30,
      "componentType": 5126,
      "type": "VEC3",
      "min": [
        -0.004999999888241291,
        -0.008660250343382359,
        0
      ],
      "max": [
        0.009999999776482582,
        0.008660250343382359,
        0
      ]
    },
    {
      "bufferView": 3,
      "byteOffset": 12,
      "count": 30,
      "componentType": 5126,
      "type": "VEC3"
    },
    {
      "bufferView": 4,
      "byteOffset": 0,
      "count": 30,
      "componentType": 5126,
      "type": "VEC3",
      "min": [
        -0.004999999888241291,
        -0.008660250343382359,
        0.009999999776482582
      ],
      "max": [
        0.009999999776482582,
        0.008660250343382359,
        0.009999999776482582
      ]
    },
    {
      "bufferView": 4,
      "byteOffset": 12,
      "count": 30,
      "componentType": 5126,
      "type": "VEC3"
    }
  ],
  "asset": {
    "generator": "zoo.dev",
    "version": "2.0"
  },
  "buffers": [
    {
      "byteLength": 241632,
      "uri": "data:application/octet-stream;base64,"
    }
  ],
  "bufferViews": [
    {
      "buffer": 0,
      "byteLength": 80064,
      "byteOffset": 0,
      "byteStride": 24,
      "target": 34962
    },
    {
      "buffer": 0,
      "byteLength": 80064,
      "byteOffset": 80064,
      "byteStride": 24,
      "target": 34962
    },
    {
      "buffer": 0,
      "byteLength": 80064,
      "byteOffset": 160128,
      "byteStride": 24,
      "target": 34962
    },
    {
      "buffer": 0,
      "byteLength": 720,
      "byteOffset": 240192,
      "byteStride": 24,
      "target": 34962
    },
    {
      "buffer": 0,
      "byteLength": 720,
      "byteOffset": 240912,
      "byteStride": 24,
      "target": 34962
    }
  ],
  "scene": 0,
  "extensions": {
    "KITTYCAD_boundary_representation": {
      "solids": [
        {
          "shells": [
            [
              0,
              1
            ]
          ],
          "mesh": 0,
          "extras": {
            "KITTYCAD": {
              "material": 0
            }
          }
        }
      ],
      "shells": [
        {
          "faces": [
            [
              0,
              1
            ],
            [
              1,
              1
            ],
            [
              2,
              1
            ],
            [
              3,
              1
            ],
            [
              4,
              1
            ]
          ]
        }
      ],
      "faces": [
        {
          "surface": [
            0,
            -1
          ],
          "loops": [
            [
              0,
              1
            ]
          ]
        },
        {
          "surface": [
            1,
            -1
          ],
          "loops": [
            [
              1,
              1
            ]
          ]
        },
        {
          "surface": [
            2,
            -1
          ],
          "loops": [
            [
              2,
              1
            ]
          ]
        },
        {
          "surface": [
            3,
            -1
          ],
          "loops": [
            [
              3,
              1
            ]
          ]
        },
        {
          "surface": [
            4,
            1
          ],
          "loops": [
            [
              4,
              1
            ]
          ]
        }
      ],
      "loops": [
        {
          "edges": [
            [
              0,
              -1
            ],
            [
              1,
              -1
            ],
            [
              2,
              -1
            ],
            [
              3,
              1
            ]
          ]
        },
        {
          "edges": [
            [
              4,
              -1
            ],
            [
              5,
              -1
            ],
            [
              6,
              -1
            ],
            [
              1,
              1
            ]
          ]
        },
        {
          "edges": [
            [
              7,
              -1
            ],
            [
              3,
              -1
            ],
            [
              8,
              -1
            ],
            [
              5,
              1
            ]
          ]
        },
        {
          "edges": [
            [
              7,
              1
            ],
            [
              4,
              1
            ],
            [
              0,
              1
            ]
          ]
        },
        {
          "edges": [
            [
              2,
              1
            ],
            [
              6,
              1
            ],
            [
              8,
              1
            ]
          ]
        }
      ],
      "edges": [
        {
          "curve": [
            0,
            1
          ],
          "start": 0,
          "end": 1,
          "t": [
            0,
            0.01732050605676693
          ]
        },
        {
          "curve": [
            1,
            1
          ],
          "start": 2,
          "end": 0,
          "t": [
            -1,
            -0
          ]
        },
        {
          "curve": [
            2,
            1
          ],
          "start": 3,
          "end": 2,
          "t": [
            0,
            0.0173205
          ]
        },
        {
          "curve": [
            3,
            1
          ],
          "start": 3,
          "end": 1,
          "t": [
            -1,
            -0
          ]
        },
        {
          "curve": [
            4,
            1
          ],
          "start": 4,
          "end": 0,
          "t": [
            0,
            0.0173205
          ]
        },
        {
          "curve": [
            5,
            1
          ],
          "start": 5,
          "end": 4,
          "t": [
            -1,
            -0
          ]
        },
        {
          "curve": [
            6,
            1
          ],
          "start": 2,
          "end": 5,
          "t": [
            0,
            0.01732050605676693
          ]
        },
        {
          "curve": [
            7,
            1
          ],
          "start": 1,
          "end": 4,
          "t": [
            0,
            0.01732050605676693
          ]
        },
        {
          "curve": [
            8,
            1
          ],
          "start": 5,
          "end": 3,
          "t": [
            0,
            0.01732050605676693
          ]
        }
      ],
      "vertices": [
        [
          -0.005,
          0.00866025,
          0
        ],
        [
          0.01,
          0,
          0
        ],
        [
          -0.005,
          -0.00866025,
          0.01
        ],
        [
          -0.005,
          0.00866025,
          0.01
        ],
        [
          -0.005,
          -0.00866025,
          0
        ],
        [
          0.01,
          -0,
          0.01
        ]
      ],
      "surfaces": [
        {
          "type": "nurbs",
          "nurbs": {
            "controlPoints": [
              [
                0.01,
                0,
                0
              ],
              [
                -0.005,
                0.00866025,
                0
              ],
              [
                0.00999097,
                0.00229544,
                0.00107143
              ],
              [
                -0.00698339,
                0.00750471,
                0.00107143
              ],
              [
                0.00835506,
                0.0056973,
                0.00285714
              ],
              [
                -0.00911154,
                0.00438704,
                0.00285714
              ],
              [
                0.00630497,
                0.00790599,
                0.00428571
              ],
              [
                -0.00999928,
                0.00150727,
                0.00428571
              ],
              [
                0.00369431,
                0.00941326,
                0.00571429
              ],
              [
                -0.00999928,
                -0.00150727,
                0.00571429
              ],
              [
                0.00075648,
                0.01008434,
                0.00714286
              ],
              [
                -0.00911154,
                -0.00438704,
                0.00714286
              ],
              [
                -0.00300758,
                0.00980015,
                0.00892857
              ],
              [
                -0.00698339,
                -0.00750471,
                0.00892857
              ],
              [
                -0.005,
                0.00866025,
                0.01
              ],
              [
                -0.005,
                -0.00866025,
                0.01
              ]
            ],
            "numControlPoints": [
              8,
              2
            ],
            "numKnots": [
              11,
              4
            ],
            "knotVector": [
              0,
              0,
              0,
              0.21428571,
              0.35714286,
              0.5,
              0.64285714,
              0.78571429,
              1,
              1,
              1,
              0,
              0,
              1,
              1
            ],
            "order": [
              3,
              2
            ]
          }
        },
        {
          "type": "nurbs",
          "nurbs": {
            "controlPoints": [
              [
                -0.005,
                0.00866025,
                0
              ],
              [
                -0.005,
                -0.00866025,
                0
              ],
              [
                -0.00698339,
                0.00750471,
                0.00107143
              ],
              [
                -0.00300758,
                -0.00980015,
                0.00107143
              ],
              [
                -0.00911154,
                0.00438704,
                0.00285714
              ],
              [
                0.00075648,
                -0.01008434,
                0.00285714
              ],
              [
                -0.00999928,
                0.00150727,
                0.00428571
              ],
              [
                0.00369431,
                -0.00941326,
                0.00428571
              ],
              [
                -0.00999928,
                -0.00150727,
                0.00571429
              ],
              [
                0.00630497,
                -0.00790599,
                0.00571429
              ],
              [
                -0.00911154,
                -0.00438704,
                0.00714286
              ],
              [
                0.00835506,
                -0.0056973,
                0.00714286
              ],
              [
                -0.00698339,
                -0.00750471,
                0.00892857
              ],
              [
                0.00999097,
                -0.00229544,
                0.00892857
              ],
              [
                -0.005,
                -0.00866025,
                0.01
              ],
              [
                0.01,
                -0,
                0.01
              ]
            ],
            "numControlPoints": [
              8,
              2
            ],
            "numKnots": [
              11,
              4
            ],
            "knotVector": [
              0,
              0,
              0,
              0.21428571,
              0.35714286,
              0.5,
              0.64285714,
              0.78571429,
              1,
              1,
              1,
              0,
              0,
              1,
              1
            ],
            "order": [
              3,
              2
            ]
          }
        },
        {
          "type": "nurbs",
          "nurbs": {
            "controlPoints": [
              [
                -0.005,
                -0.00866025,
                0
              ],
              [
                0.01,
                0,
                0
              ],
              [
                -0.00300758,
                -0.00980015,
                0.00107143
              ],
              [
                0.00999097,
                0.00229544,
                0.00107143
              ],
              [
                0.00075648,
                -0.01008434,
                0.00285714
              ],
              [
                0.00835506,
                0.0056973,
                0.00285714
              ],
              [
                0.00369431,
                -0.00941326,
                0.00428571
              ],
              [
                0.00630497,
                0.00790599,
                0.00428571
              ],
              [
                0.00630497,
                -0.00790599,
                0.00571429
              ],
              [
                0.00369431,
                0.00941326,
                0.00571429
              ],
              [
                0.00835506,
                -0.0056973,
                0.00714286
              ],
              [
                0.00075648,
                0.01008434,
                0.00714286
              ],
              [
                0.00999097,
                -0.00229544,
                0.00892857
              ],
              [
                -0.00300758,
                0.00980015,
                0.00892857
              ],
              [
                0.01,
                -0,
                0.01
              ],
              [
                -0.005,
                0.00866025,
                0.01
              ]
            ],
            "numControlPoints": [
              8,
              2
            ],
            "numKnots": [
              11,
              4
            ],
            "knotVector": [
              0,
              0,
              0,
              0.21428571,
              0.35714286,
              0.5,
              0.64285714,
              0.78571429,
              1,
              1,
              1,
              0,
              0,
              1,
              1
            ],
            "order": [
              3,
              2
            ]
          }
        },
        {
          "type": "plane",
          "plane": {
            "xAxis": [
              1,
              0,
              0
            ],
            "yAxis": [
              0,
              1,
              0
            ],
            "origin": [
              0,
              0,
              0
            ]
          }
        },
        {
          "type": "plane",
          "plane": {
            "xAxis": [
              1,
              0,
              0
            ],
            "yAxis": [
              0,
              1,
              -0
            ],
            "origin": [
              0,
              0,
              0.01
            ]
          }
        }
      ],
      "curves3D": [
        {
          "type": "line",
          "line": {
            "origin": [
              -0.005,
              0.00866025,
              0
            ],
            "direction": [
              0.8660255047305425,
              -0.4999998251561787,
              0
            ]
          }
        },
        {
          "type": "nurbs",
          "nurbs": {
            "controlPoints": [
              [
                -0.005,
                -0.00866025,
                0.01
              ],
              [
                -0.00698339,
                -0.00750471,
                0.00892857
              ],
              [
                -0.00911154,
                -0.00438704,
                0.00714286
              ],
              [
                -0.00999928,
                -0.00150727,
                0.00571429
              ],
              [
                -0.00999928,
                0.00150727,
                0.00428571
              ],
              [
                -0.00911154,
                0.00438704,
                0.00285714
              ],
              [
                -0.00698339,
                0.00750471,
                0.00107143
              ],
              [
                -0.005,
                0.00866025,
                0
              ]
            ],
            "order": 3,
            "knotVector": [
              -1,
              -1,
              -1,
              -0.78571429,
              -0.64285714,
              -0.5,
              -0.35714286,
              -0.21428571,
              -0,
              -0,
              -0
            ]
          }
        },
        {
          "type": "line",
          "line": {
            "origin": [
              -0.005,
              0.00866025,
              0.01
            ],
            "direction": [
              0,
              -1,
              0
            ]
          }
        },
        {
          "type": "nurbs",
          "nurbs": {
            "controlPoints": [
              [
                -0.005,
                0.00866025,
                0.01
              ],
              [
                -0.00300758,
                0.00980015,
                0.00892857
              ],
              [
                0.00075648,
                0.01008434,
                0.00714286
              ],
              [
                0.00369431,
                0.00941326,
                0.00571429
              ],
              [
                0.00630497,
                0.00790599,
                0.00428571
              ],
              [
                0.00835506,
                0.0056973,
                0.00285714
              ],
              [
                0.00999097,
                0.00229544,
                0.00107143
              ],
              [
                0.01,
                0,
                0
              ]
            ],
            "order": 3,
            "knotVector": [
              -1,
              -1,
              -1,
              -0.78571429,
              -0.64285714,
              -0.5,
              -0.35714286,
              -0.21428571,
              -0,
              -0,
              -0
            ]
          }
        },
        {
          "type": "line",
          "line": {
            "origin": [
              -0.005,
              -0.00866025,
              0
            ],
            "direction": [
              0,
              1,
              0
            ]
          }
        },
        {
          "type": "nurbs",
          "nurbs": {
            "controlPoints": [
              [
                0.01,
                -0,
                0.01
              ],
              [
                0.00999097,
                -0.00229544,
                0.00892857
              ],
              [
                0.00835506,
                -0.0056973,
                0.00714286
              ],
              [
                0.00630497,
                -0.00790599,
                0.00571429
              ],
              [
                0.00369431,
                -0.00941326,
                0.00428571
              ],
              [
                0.00075648,
                -0.01008434,
                0.00285714
              ],
              [
                -0.00300758,
                -0.00980015,
                0.00107143
              ],
              [
                -0.005,
                -0.00866025,
                0
              ]
            ],
            "order": 3,
            "knotVector": [
              -1,
              -1,
              -1,
              -0.78571429,
              -0.64285714,
              -0.5,
              -0.35714286,
              -0.21428571,
              -0,
              -0,
              -0
            ]
          }
        },
        {
          "type": "line",
          "line": {
            "origin": [
              -0.005,
              -0.00866025,
              0.01
            ],
            "direction": [
              0.8660255047305425,
              0.4999998251561787,
              0
            ]
          }
        },
        {
          "type": "line",
          "line": {
            "origin": [
              0.01,
              0,
              0
            ],
            "direction": [
              -0.8660255047305425,
              -0.4999998251561787,
              0
            ]
          }
        },
        {
          "type": "line",
          "line": {
            "origin": [
              0.01,
              -0,
              0.01
            ],
            "direction": [
              -0.8660255047305425,
              0.4999998251561787,
              0
            ]
          }
        }
      ]
    }
  },
  "extensionsUsed": [
    "KITTYCAD_boundary_representation"
  ],
  "materials": [
    {
      "alphaMode": "OPAQUE",
      "doubleSided": false,
      "pbrMetallicRoughness": {
        "baseColorFactor": [
          0.9,
          0.9,
          0.9,
          1
        ],
        "metallicFactor": 1,
        "roughnessFactor": 1
      },
      "emissiveFactor": [
        0,
        0,
        0
      ]
    }
  ],
  "meshes": [
    {
      "primitives": [
        {
          "attributes": {
            "POSITION": 0,
            "NORMAL": 1
          },
          "material": 0
        },
        {
          "attributes": {
            "POSITION": 2,
            "NORMAL": 3
          },
          "material": 0
        },
        {
          "attributes": {
            "POSITION": 4,
            "NORMAL": 5
          },
          "material": 0
        },
        {
          "attributes": {
            "POSITION": 6,
            "NORMAL": 7
          },
          "material": 0
        },
        {
          "attributes": {
            "POSITION": 8,
            "NORMAL": 9
          },
          "material": 0
        }
      ]
    }
  ],
  "nodes": [
    {
      "children": [
        1
      ]
    },
    {
      "children": [
        2
      ]
    },
    {
      "extensions": {
        "KITTYCAD_boundary_representation": {
          "solid": 0
        }
      },
      "mesh": 0
    }
  ],
  "scenes": [
    {
      "nodes": [
        0
      ]
    }
  ]
}