{
  "accessors": [
    {
      "bufferView": 0,
      "byteOffset": 0,
      "count": 3126,
      "componentType": 5126,
      "type": "VEC3",
      "min": [
        -0.0020302224438637495,
        -0.0020317467860877514,
        -0.004972465336322784
      ],
      "max": [
        0.0020319148898124695,
        0,
        0.00507512129843235
      ]
    },
    {
      "bufferView": 0,
      "byteOffset": 12,
      "count": 3126,
      "componentType": 5126,
      "type": "VEC3"
    }
  ],
  "asset": {
    "generator": "zoo.dev",
    "version": "2.0"
  },
  "buffers": [
    {
      "byteLength": 75024,
      "uri": "data:application/octet-stream;base64,"
    }
  ],
  "bufferViews": [
    {
      "buffer": 0,
      "byteLength": 75024,
      "byteOffset": 0,
      "byteStride": 24,
      "target": 34962
    }
  ],
  "scene": 0,
  "extensions": {
    "KITTYCAD_boundary_representation": {
      "solids": [
        {
          "shells": [
            [
              0,
              1
            ]
          ],
          "mesh": 0,
          "extras": {
            "KITTYCAD": {
              "material": 0
            }
          }
        }
      ],
      "shells": [
        {
          "faces": [
            [
              0,
              1
            ]
          ]
        }
      ],
      "faces": [
        {
          "surface": [
            0,
            -1
          ],
          "loops": [
            [
              0,
              1
            ]
          ]
        }
      ],
      "loops": [
        {
          "edges": [
            [
              0,
              -1
            ],
            [
              1,
              -1
            ],
            [
              2,
              -1
            ],
            [
              3,
              -1
            ]
          ]
        }
      ],
      "edges": [
        {
          "curve": [
            0,
            1
          ],
          "start": 0,
          "end": 1,
          "t": [
            0.000002182236214813503,
            3.0431522558342485
          ]
        },
        {
          "curve": [
            1,
            1
          ],
          "start": 2,
          "end": 0,
          "t": [
            -1,
            -0
          ]
        },
        {
          "curve": [
            2,
            1
          ],
          "start": 3,
          "end": 2,
          "t": [
            0.0000007966482320872894,
            3.1613903528280622
          ]
        },
        {
          "curve": [
            3,
            1
          ],
          "start": 1,
          "end": 3,
          "t": [
            0,
            1
          ]
        }
      ],
      "vertices": [
        [
          0.00203016,
          0,
          -0.00303001
        ],
        [
          -0.00202984,
          0,
          -0.00304999
        ],
        [
          0.0020316,
          0,
          0.00300997
        ],
        [
          -0.0020184,
          0,
          0.00305
        ]
      ],
      "surfaces": [
        {
          "type": "nurbs",
          "nurbs": {
            "controlPoints": [
              [
                -0.00202984,
                0,
                -0.00304999
              ],
              [
                -0.00198585,
                -0,
                -0.00386153
              ],
              [
                -0.00139445,
                -0,
                -0.004419
              ],
              [
                -0.00080304,
                0,
                -0.00497646
              ],
              [
                0.00000968,
                0,
                -0.00497246
              ],
              [
                0.0008224,
                -0,
                -0.00496846
              ],
              [
                0.00140828,
                -0,
                -0.0044052
              ],
              [
                0.00199417,
                -0,
                -0.00384194
              ],
              [
                0.00203016,
                -0,
                -0.00303001
              ],
              [
                -0.00203235,
                -0.00025977,
                0.00000002
              ],
              [
                -0.00194753,
                -0.00195868,
                -0.00015982
              ],
              [
                -0.00133888,
                -0.0032556,
                -0.00042906
              ],
              [
                -0.00073759,
                -0.00425023,
                -0.00024166
              ],
              [
                0.00006168,
                -0.00406399,
                -0.00005129
              ],
              [
                0.00086358,
                -0.00418367,
                -0.00023653
              ],
              [
                0.00143064,
                -0.00313536,
                -0.0004186
              ],
              [
                0.00200042,
                -0.00179593,
                -0.00014764
              ],
              [
                0.00203266,
                -0.00010009,
                0.00001004
              ],
              [
                -0.0020184,
                0,
                0.00305
              ],
              [
                -0.00201841,
                0,
                0.00389474
              ],
              [
                -0.00141815,
                0,
                0.00448911
              ],
              [
                -0.00081788,
                0,
                0.00508348
              ],
              [
                0.00002682,
                0,
                0.00507513
              ],
              [
                0.00087152,
                0,
                0.00506678
              ],
              [
                0.00145991,
                0,
                0.00446066
              ],
              [
                0.00204831,
                0,
                0.00385454
              ],
              [
                0.0020316,
                0,
                0.00300997
              ]
            ],
            "numControlPoints": [
              3,
              9
            ],
            "numKnots": [
              6,
              12
            ],
            "knotVector": [
              0,
              0,
              0,
              1,
              1,
              1,
              0,
              0,
              0,
              0.25,
              0.25,
              0.5,
              0.5,
              0.75,
              0.75,
              1,
              1,
              1
            ],
            "weights": [
              1,
              0.86214642,
              0.86214642,
              0.86214642,
              1,
              0.86214642,
              0.86214642,
              0.86214642,
              1,
              1,
              0.83005283,
              0.79151794,
              0.83005283,
              1,
              0.83005283,
              0.79151794,
              0.83005283,
              1,
              1,
              0.9229296,
              1,
              0.9229296,
              1,
              0.9229296,
              1,
              0.9229296,
              1
            ],
            "order": [
              3,
              3
            ]
          }
        }
      ],
      "curves3D": [
        {
          "type": "circle",
          "circle": {
            "xAxis": [
              0.9990190033016276,
              0,
              -0.044283530146351294
            ],
            "yAxis": [
              -0.044283530146351294,
              0,
              -0.9990190033016276
            ],
            "origin": [
              -0.00000033,
              -0,
              -0.00294
            ],
            "radius": 0.00203249
          }
        },
        {
          "type": "nurbs",
          "nurbs": {
            "controlPoints": [
              [
                0.0020316,
                0,
                0.00300997
              ],
              [
                0.00203266,
                -0.00010009,
                0.00001004
              ],
              [
                0.00203016,
                -0,
                -0.00303001
              ]
            ],
            "order": 3,
            "knotVector": [
              -1,
              -1,
              -1,
              -0,
              -0,
              -0
            ]
          }
        },
        {
          "type": "circle",
          "circle": {
            "xAxis": [
              -0.999999999878164,
              0,
              -0.000015609999998098145
            ],
            "yAxis": [
              -0.000015609999998098145,
              0,
              0.999999999878164
            ],
            "origin": [
              0.0000068,
              0,
              0.00305003
            ],
            "radius": 0.00202519
          }
        },
        {
          "type": "nurbs",
          "nurbs": {
            "controlPoints": [
              [
                -0.00202984,
                0,
                -0.00304999
              ],
              [
                -0.00203235,
                -0.00025977,
                0.00000002
              ],
              [
                -0.0020184,
                0,
                0.00305
              ]
            ],
            "order": 3,
            "knotVector": [
              0,
              0,
              0,
              1,
              1,
              1
            ]
          }
        }
      ]
    }
  },
  "extensionsUsed": [
    "KITTYCAD_boundary_representation"
  ],
  "materials": [
    {
      "alphaMode": "OPAQUE",
      "doubleSided": false,
      "pbrMetallicRoughness": {
        "baseColorFactor": [
          0.9,
          0.9,
          0.9,
          1
        ],
        "metallicFactor": 1,
        "roughnessFactor": 1
      },
      "emissiveFactor": [
        0,
        0,
        0
      ]
    }
  ],
  "meshes": [
    {
      "primitives": [
        {
          "attributes": {
            "POSITION": 0,
            "NORMAL": 1
          },
          "material": 0
        }
      ]
    }
  ],
  "nodes": [
    {
      "children": [
        1
      ]
    },
    {
      "children": [
        2
      ]
    },
    {
      "extensions": {
        "KITTYCAD_boundary_representation": {
          "solid": 0
        }
      },
      "mesh": 0
    }
  ],
  "scenes": [
    {
      "nodes": [
        0
      ]
    }
  ]
}