{
  "accessors": [
    {
      "bufferView": 0,
      "byteOffset": 0,
      "count": 6,
      "componentType": 5126,
      "type": "VEC3",
      "min": [
        0,
        0,
        -0
      ],
      "max": [
        0.009999999776482582,
        0,
        0.009999999776482582
      ]
    },
    {
      "bufferView": 0,
      "byteOffset": 12,
      "count": 6,
      "componentType": 5126,
      "type": "VEC3"
    },
    {
      "bufferView": 1,
      "byteOffset": 0,
      "count": 192,
      "componentType": 5126,
      "type": "VEC3",
      "min": [
        -0.02199999988079071,
        -0.015999048948287964,
        0
      ],
      "max": [
        -0.003221629187464714,
        0.0000000000000000006610048871772233,
        0.009999999776482582
      ]
    },
    {
      "bufferView": 1,
      "byteOffset": 12,
      "count": 192,
      "componentType": 5126,
      "type": "VEC3"
    },
    {
      "bufferView": 2,
      "byteOffset": 0,
      "count": 6,
      "componentType": 5126,
      "type": "VEC3",
      "min": [
        -0.003221629187464714,
        -0.015756923705339432,
        -0
      ],
      "max": [
        0,
        0,
        0.009999999776482582
      ]
    },
    {
      "bufferView": 2,
      "byteOffset": 12,
      "count": 6,
      "componentType": 5126,
      "type": "VEC3"
    },
    {
      "bufferView": 3,
      "byteOffset": 0,
      "count": 288,
      "componentType": 5126,
      "type": "VEC3",
      "min": [
        -0.02199999988079071,
        -0.015999048948287964,
        0
      ],
      "max": [
        0.009999999776482582,
        0.01600000075995922,
        0
      ]
    },
    {
      "bufferView": 3,
      "byteOffset": 12,
      "count": 288,
      "componentType": 5126,
      "type": "VEC3"
    },
    {
      "bufferView": 4,
      "byteOffset": 0,
      "count": 288,
      "componentType": 5126,
      "type": "VEC3",
      "min": [
        -0.02199999988079071,
        -0.015999048948287964,
        0.009999999776482582
      ],
      "max": [
        0.009999999776482582,
        0.01600000075995922,
        0.009999999776482582
      ]
    },
    {
      "bufferView": 4,
      "byteOffset": 12,
      "count": 288,
      "componentType": 5126,
      "type": "VEC3"
    },
    {
      "bufferView": 5,
      "byteOffset": 0,
      "count": 384,
      "componentType": 5126,
      "type": "VEC3",
      "min": [
        -0.02199999988079071,
        0,
        0
      ],
      "max": [
        0.009999999776482582,
        0.01600000075995922,
        0.009999999776482582
      ]
    },
    {
      "bufferView": 5,
      "byteOffset": 12,
      "count": 384,
      "componentType": 5126,
      "type": "VEC3"
    }
  ],
  "asset": {
    "generator": "zoo.dev",
    "version": "2.0"
  },
  "buffers": [
    {
      "byteLength": 27936,
      "uri": "data:application/octet-stream;base64,"
    }
  ],
  "bufferViews": [
    {
      "buffer": 0,
      "byteLength": 144,
      "byteOffset": 0,
      "byteStride": 24,
      "target": 34962
    },
    {
      "buffer": 0,
      "byteLength": 4608,
      "byteOffset": 144,
      "byteStride": 24,
      "target": 34962
    },
    {
      "buffer": 0,
      "byteLength": 144,
      "byteOffset": 4752,
      "byteStride": 24,
      "target": 34962
    },
    {
      "buffer": 0,
      "byteLength": 6912,
      "byteOffset": 4896,
      "byteStride": 24,
      "target": 34962
    },
    {
      "buffer": 0,
      "byteLength": 6912,
      "byteOffset": 11808,
      "byteStride": 24,
      "target": 34962
    },
    {
      "buffer": 0,
      "byteLength": 9216,
      "byteOffset": 18720,
      "byteStride": 24,
      "target": 34962
    }
  ],
  "scene": 0,
  "extensions": {
    "KITTYCAD_boundary_representation": {
      "solids": [
        {
          "shells": [
            [
              0,
              1
            ]
          ],
          "mesh": 0,
          "extras": {
            "KITTYCAD": {
              "material": 0
            }
          }
        }
      ],
      "shells": [
        {
          "faces": [
            [
              0,
              1
            ],
            [
              1,
              1
            ],
            [
              2,
              1
            ],
            [
              3,
              1
            ],
            [
              4,
              1
            ],
            [
              5,
              1
            ]
          ]
        }
      ],
      "faces": [
        {
          "surface": [
            0,
            1
          ],
          "loops": [
            [
              0,
              1
            ]
          ]
        },
        {
          "surface": [
            1,
            1
          ],
          "loops": [
            [
              1,
              1
            ]
          ]
        },
        {
          "surface": [
            2,
            1
          ],
          "loops": [
            [
              2,
              1
            ]
          ]
        },
        {
          "surface": [
            3,
            -1
          ],
          "loops": [
            [
              3,
              1
            ]
          ]
        },
        {
          "surface": [
            4,
            1
          ],
          "loops": [
            [
              4,
              1
            ]
          ]
        },
        {
          "surface": [
            1,
            1
          ],
          "loops": [
            [
              5,
              1
            ]
          ]
        }
      ],
      "loops": [
        {
          "edges": [
            [
              0,
              1
            ],
            [
              1,
              1
            ],
            [
              2,
              -1
            ],
            [
              3,
              -1
            ]
          ]
        },
        {
          "edges": [
            [
              4,
              1
            ],
            [
              5,
              1
            ],
            [
              6,
              1
            ],
            [
              7,
              -1
            ]
          ]
        },
        {
          "edges": [
            [
              8,
              1
            ],
            [
              3,
              1
            ],
            [
              9,
              -1
            ],
            [
              6,
              -1
            ]
          ]
        },
        {
          "edges": [
            [
              8,
              -1
            ],
            [
              5,
              -1
            ],
            [
              10,
              -1
            ],
            [
              0,
              -1
            ]
          ]
        },
        {
          "edges": [
            [
              2,
              1
            ],
            [
              11,
              1
            ],
            [
              7,
              1
            ],
            [
              9,
              1
            ]
          ]
        },
        {
          "edges": [
            [
              4,
              -1
            ],
            [
              11,
              -1
            ],
            [
              1,
              -1
            ],
            [
              10,
              1
            ]
          ]
        }
      ],
      "edges": [
        {
          "curve": [
            0,
            1
          ],
          "start": 0,
          "end": 1,
          "t": [
            0,
            0.01
          ]
        },
        {
          "curve": [
            1,
            1
          ],
          "start": 1,
          "end": 2,
          "t": [
            0,
            0.01
          ]
        },
        {
          "curve": [
            2,
            1
          ],
          "start": 3,
          "end": 2,
          "t": [
            0,
            0.01
          ]
        },
        {
          "curve": [
            3,
            1
          ],
          "start": 0,
          "end": 3,
          "t": [
            0,
            0.01
          ]
        },
        {
          "curve": [
            4,
            -1
          ],
          "start": 4,
          "end": 5,
          "t": [
            -0.005,
            0.004999999999999999
          ]
        },
        {
          "curve": [
            5,
            1
          ],
          "start": 5,
          "end": 6,
          "t": [
            3.141592653589793,
            4.886921905584122
          ]
        },
        {
          "curve": [
            6,
            1
          ],
          "start": 6,
          "end": 7,
          "t": [
            0,
            0.01
          ]
        },
        {
          "curve": [
            7,
            1
          ],
          "start": 4,
          "end": 7,
          "t": [
            3.141592653589793,
            4.886921905584122
          ]
        },
        {
          "curve": [
            8,
            1
          ],
          "start": 6,
          "end": 0,
          "t": [
            0,
            0.016082896190921257
          ]
        },
        {
          "curve": [
            9,
            1
          ],
          "start": 7,
          "end": 3,
          "t": [
            0,
            0.016082896190921257
          ]
        },
        {
          "curve": [
            5,
            1
          ],
          "start": 1,
          "end": 5,
          "t": [
            0,
            3.141592653589793
          ]
        },
        {
          "curve": [
            7,
            1
          ],
          "start": 2,
          "end": 4,
          "t": [
            0,
            3.141592653589793
          ]
        }
      ],
      "vertices": [
        [
          0,
          0,
          -0
        ],
        [
          0.01,
          0,
          -0
        ],
        [
          0.01,
          0,
          0.01
        ],
        [
          0,
          0,
          0.01
        ],
        [
          -0.022,
          0.0000000000000000006610048928112036,
          0.01
        ],
        [
          -0.022,
          0.0000000000000000006610048928112036,
          0
        ],
        [
          -0.0032216291573291204,
          -0.01575692404819533,
          -0
        ],
        [
          -0.0032216291573291204,
          -0.01575692404819533,
          0.01
        ]
      ],
      "surfaces": [
        {
          "type": "plane",
          "plane": {
            "xAxis": [
              1,
              0,
              0
            ],
            "yAxis": [
              -0,
              0,
              1
            ],
            "origin": [
              0.005,
              0,
              0.005
            ]
          }
        },
        {
          "type": "cylinder",
          "cylinder": {
            "xAxis": [
              1,
              0.000000000000000040575937057017546,
              -0
            ],
            "yAxis": [
              -0.000000000000000040575937057017546,
              1,
              0
            ],
            "origin": [
              -0.006000000000000001,
              -0.0000000000000000006492149929122807,
              0.005
            ],
            "radius": 0.016
          }
        },
        {
          "type": "plane",
          "plane": {
            "xAxis": [
              0.2003139931443268,
              0.979731751118935,
              0
            ],
            "yAxis": [
              -0,
              0,
              1
            ],
            "origin": [
              -0.0016108145786645598,
              -0.007878462024097664,
              0.005
            ]
          }
        },
        {
          "type": "plane",
          "plane": {
            "xAxis": [
              1,
              0,
              0
            ],
            "yAxis": [
              0,
              1,
              0
            ],
            "origin": [
              0,
              0,
              0
            ]
          }
        },
        {
          "type": "plane",
          "plane": {
            "xAxis": [
              1,
              0,
              -0
            ],
            "yAxis": [
              -0,
              1,
              0
            ],
            "origin": [
              0,
              0,
              0.01
            ]
          }
        }
      ],
      "curves3D": [
        {
          "type": "line",
          "line": {
            "origin": [
              0,
              0,
              -0
            ],
            "direction": [
              1,
              0,
              -0
            ]
          }
        },
        {
          "type": "line",
          "line": {
            "origin": [
              0.009999999999999998,
              -0.00000000000000000000000000000000009629649721936181,
              0
            ],
            "direction": [
              0,
              0,
              1
            ]
          }
        },
        {
          "type": "line",
          "line": {
            "origin": [
              0,
              0,
              0.01
            ],
            "direction": [
              1,
              0,
              -0
            ]
          }
        },
        {
          "type": "line",
          "line": {
            "origin": [
              0,
              0,
              -0
            ],
            "direction": [
              0,
              0,
              1
            ]
          }
        },
        {
          "type": "line",
          "line": {
            "origin": [
              -0.022,
              0.0000000000000000006610048928112035,
              0.005
            ],
            "direction": [
              0,
              0,
              1
            ]
          }
        },
        {
          "type": "circle",
          "circle": {
            "xAxis": [
              1,
              0.000000000000000040575937057017546,
              0
            ],
            "yAxis": [
              -0.000000000000000040575937057017546,
              1,
              0
            ],
            "origin": [
              -0.006000000000000001,
              -0.0000000000000000006492149929122807,
              0
            ],
            "radius": 0.016
          }
        },
        {
          "type": "line",
          "line": {
            "origin": [
              -0.0032216291573291204,
              -0.01575692404819533,
              0
            ],
            "direction": [
              0,
              0,
              1
            ]
          }
        },
        {
          "type": "circle",
          "circle": {
            "xAxis": [
              1,
              0.000000000000000040575937057017546,
              0
            ],
            "yAxis": [
              -0.000000000000000040575937057017546,
              1,
              0
            ],
            "origin": [
              -0.006000000000000001,
              -0.0000000000000000006492149929122807,
              0.01
            ],
            "radius": 0.016
          }
        },
        {
          "type": "line",
          "line": {
            "origin": [
              -0.0032216291573291204,
              -0.01575692404819533,
              -0
            ],
            "direction": [
              0.2003139931443268,
              0.979731751118935,
              0
            ]
          }
        },
        {
          "type": "line",
          "line": {
            "origin": [
              -0.0032216291573291204,
              -0.01575692404819533,
              0.01
            ],
            "direction": [
              0.2003139931443268,
              0.979731751118935,
              0
            ]
          }
        }
      ]
    }
  },
  "extensionsUsed": [
    "KITTYCAD_boundary_representation"
  ],
  "materials": [
    {
      "alphaMode": "OPAQUE",
      "doubleSided": false,
      "pbrMetallicRoughness": {
        "baseColorFactor": [
          0.9,
          0.9,
          0.9,
          1
        ],
        "metallicFactor": 1,
        "roughnessFactor": 1
      },
      "emissiveFactor": [
        0,
        0,
        0
      ]
    }
  ],
  "meshes": [
    {
      "primitives": [
        {
          "attributes": {
            "POSITION": 0,
            "NORMAL": 1
          },
          "material": 0
        },
        {
          "attributes": {
            "POSITION": 2,
            "NORMAL": 3
          },
          "material": 0
        },
        {
          "attributes": {
            "POSITION": 4,
            "NORMAL": 5
          },
          "material": 0
        },
        {
          "attributes": {
            "POSITION": 6,
            "NORMAL": 7
          },
          "material": 0
        },
        {
          "attributes": {
            "POSITION": 8,
            "NORMAL": 9
          },
          "material": 0
        },
        {
          "attributes": {
            "POSITION": 10,
            "NORMAL": 11
          },
          "material": 0
        }
      ]
    }
  ],
  "nodes": [
    {
      "children": [
        1
      ]
    },
    {
      "children": [
        2
      ]
    },
    {
      "extensions": {
        "KITTYCAD_boundary_representation": {
          "solid": 0
        }
      },
      "mesh": 0
    }
  ],
  "scenes": [
    {
      "nodes": [
        0
      ]
    }
  ]
}