{
  "accessors": [
    {
      "bufferView": 0,
      "byteOffset": 0,
      "count": 6,
      "componentType": 5126,
      "type": "VEC3",
      "min": [
        -0.0013165200361981988,
        0,
        -0.003949570003896952
      ],
      "max": [
        0,
        0.004999999888241291,
        0
      ]
    },
    {
      "bufferView": 0,
      "byteOffset": 12,
      "count": 6,
      "componentType": 5126,
      "type": "VEC3"
    },
    {
      "bufferView": 1,
      "byteOffset": 0,
      "count": 6,
      "componentType": 5126,
      "type": "VEC3",
      "min": [
        0,
        0,
        -0.0021419499535113573
      ],
      "max": [
        0.003569930093362927,
        0.004999999888241291,
        0
      ]
    },
    {
      "bufferView": 1,
      "byteOffset": 12,
      "count": 6,
      "componentType": 5126,
      "type": "VEC3"
    },
    {
      "bufferView": 2,
      "byteOffset": 0,
      "count": 96,
      "componentType": 5126,
      "type": "VEC3",
      "min": [
        -0.0013165200361981988,
        0,
        -0.004162658005952835
      ],
      "max": [
        0.003569930093362927,
        0.004999999888241291,
        -0.0021419499535113573
      ]
    },
    {
      "bufferView": 2,
      "byteOffset": 12,
      "count": 96,
      "componentType": 5126,
      "type": "VEC3"
    },
    {
      "bufferView": 3,
      "byteOffset": 0,
      "count": 48,
      "componentType": 5126,
      "type": "VEC3",
      "min": [
        -0.0013165200361981988,
        0,
        -0.004162658005952835
      ],
      "max": [
        0.003569930093362927,
        0,
        0
      ]
    },
    {
      "bufferView": 3,
      "byteOffset": 12,
      "count": 48,
      "componentType": 5126,
      "type": "VEC3"
    },
    {
      "bufferView": 4,
      "byteOffset": 0,
      "count": 48,
      "componentType": 5126,
      "type": "VEC3",
      "min": [
        -0.0013165200361981988,
        0.004999999888241291,
        -0.004162658005952835
      ],
      "max": [
        0.003569930093362927,
        0.004999999888241291,
        0
      ]
    },
    {
      "bufferView": 4,
      "byteOffset": 12,
      "count": 48,
      "componentType": 5126,
      "type": "VEC3"
    }
  ],
  "asset": {
    "generator": "zoo.dev",
    "version": "2.0"
  },
  "buffers": [
    {
      "byteLength": 4896,
      "uri": "data:application/octet-stream;base64,"
    }
  ],
  "bufferViews": [
    {
      "buffer": 0,
      "byteLength": 144,
      "byteOffset": 0,
      "byteStride": 24,
      "target": 34962
    },
    {
      "buffer": 0,
      "byteLength": 144,
      "byteOffset": 144,
      "byteStride": 24,
      "target": 34962
    },
    {
      "buffer": 0,
      "byteLength": 2304,
      "byteOffset": 288,
      "byteStride": 24,
      "target": 34962
    },
    {
      "buffer": 0,
      "byteLength": 1152,
      "byteOffset": 2592,
      "byteStride": 24,
      "target": 34962
    },
    {
      "buffer": 0,
      "byteLength": 1152,
      "byteOffset": 3744,
      "byteStride": 24,
      "target": 34962
    }
  ],
  "scene": 0,
  "extensions": {
    "KITTYCAD_boundary_representation": {
      "solids": [
        {
          "shells": [
            [
              0,
              1
            ]
          ],
          "mesh": 0,
          "extras": {
            "KITTYCAD": {
              "material": 0
            }
          }
        }
      ],
      "shells": [
        {
          "faces": [
            [
              0,
              1
            ],
            [
              1,
              1
            ],
            [
              2,
              1
            ],
            [
              3,
              1
            ],
            [
              4,
              1
            ]
          ]
        }
      ],
      "faces": [
        {
          "surface": [
            0,
            1
          ],
          "loops": [
            [
              0,
              1
            ]
          ]
        },
        {
          "surface": [
            1,
            1
          ],
          "loops": [
            [
              1,
              1
            ]
          ]
        },
        {
          "surface": [
            2,
            1
          ],
          "loops": [
            [
              2,
              1
            ]
          ]
        },
        {
          "surface": [
            3,
            -1
          ],
          "loops": [
            [
              3,
              1
            ]
          ]
        },
        {
          "surface": [
            4,
            1
          ],
          "loops": [
            [
              4,
              1
            ]
          ]
        }
      ],
      "loops": [
        {
          "edges": [
            [
              0,
              1
            ],
            [
              1,
              1
            ],
            [
              2,
              -1
            ],
            [
              3,
              -1
            ]
          ]
        },
        {
          "edges": [
            [
              4,
              1
            ],
            [
              5,
              1
            ],
            [
              6,
              -1
            ],
            [
              1,
              -1
            ]
          ]
        },
        {
          "edges": [
            [
              7,
              1
            ],
            [
              3,
              1
            ],
            [
              8,
              -1
            ],
            [
              5,
              -1
            ]
          ]
        },
        {
          "edges": [
            [
              7,
              -1
            ],
            [
              4,
              -1
            ],
            [
              0,
              -1
            ]
          ]
        },
        {
          "edges": [
            [
              2,
              1
            ],
            [
              6,
              1
            ],
            [
              8,
              1
            ]
          ]
        }
      ],
      "edges": [
        {
          "curve": [
            0,
            1
          ],
          "start": 0,
          "end": 1,
          "t": [
            0,
            0.004163211271999056
          ]
        },
        {
          "curve": [
            1,
            1
          ],
          "start": 1,
          "end": 2,
          "t": [
            0,
            0.005
          ]
        },
        {
          "curve": [
            2,
            1
          ],
          "start": 3,
          "end": 2,
          "t": [
            0,
            0.004163211271999056
          ]
        },
        {
          "curve": [
            3,
            1
          ],
          "start": 0,
          "end": 3,
          "t": [
            0,
            0.005
          ]
        },
        {
          "curve": [
            4,
            1
          ],
          "start": 1,
          "end": 4,
          "t": [
            0,
            0.004163213903632625
          ]
        },
        {
          "curve": [
            5,
            1
          ],
          "start": 4,
          "end": 5,
          "t": [
            0,
            0.005
          ]
        },
        {
          "curve": [
            6,
            1
          ],
          "start": 2,
          "end": 5,
          "t": [
            0,
            0.004163213903632625
          ]
        },
        {
          "curve": [
            7,
            1
          ],
          "start": 4,
          "end": 0,
          "t": [
            6.283183769186833,
            7.635312038283084
          ]
        },
        {
          "curve": [
            8,
            1
          ],
          "start": 5,
          "end": 3,
          "t": [
            6.283183769186833,
            7.635312038283084
          ]
        }
      ],
      "vertices": [
        [
          -0.00131652,
          0,
          -0.00394957
        ],
        [
          0,
          0,
          0
        ],
        [
          0,
          0.005,
          0
        ],
        [
          -0.00131652,
          0.005,
          -0.00394957
        ],
        [
          0.00356993,
          0,
          -0.00214195
        ],
        [
          0.00356993,
          0.005,
          -0.00214195
        ]
      ],
      "surfaces": [
        {
          "type": "plane",
          "plane": {
            "xAxis": [
              0.3162277900168379,
              0,
              0.9486832900505136
            ],
            "yAxis": [
              0,
              1,
              -0
            ],
            "origin": [
              -0.00065826,
              0.0025,
              -0.00197478
            ]
          }
        },
        {
          "type": "plane",
          "plane": {
            "xAxis": [
              0.8574929821831274,
              0,
              -0.5144956613098762
            ],
            "yAxis": [
              -0,
              1,
              0
            ],
            "origin": [
              0.00178496,
              0.0025,
              -0.00107098
            ]
          }
        },
        {
          "type": "cylinder",
          "cylinder": {
            "xAxis": [
              0.8574929821831274,
              0,
              -0.5144956613098761
            ],
            "yAxis": [
              -0.5144956613098761,
              0,
              -0.8574929821831274
            ],
            "origin": [
              0,
              0.0025,
              0
            ],
            "radius": 0.00416321
          }
        },
        {
          "type": "plane",
          "plane": {
            "xAxis": [
              1,
              0,
              0
            ],
            "yAxis": [
              0,
              0,
              -1
            ],
            "origin": [
              0,
              0,
              -0
            ]
          }
        },
        {
          "type": "plane",
          "plane": {
            "xAxis": [
              1,
              0,
              0
            ],
            "yAxis": [
              0,
              0,
              -1
            ],
            "origin": [
              0,
              0.005,
              -0
            ]
          }
        }
      ],
      "curves3D": [
        {
          "type": "line",
          "line": {
            "origin": [
              -0.00131652,
              0,
              -0.00394957
            ],
            "direction": [
              0.31622704541915897,
              0,
              0.948683538249436
            ]
          }
        },
        {
          "type": "line",
          "line": {
            "origin": [
              0,
              0,
              0
            ],
            "direction": [
              0,
              1,
              0
            ]
          }
        },
        {
          "type": "line",
          "line": {
            "origin": [
              -0.00131652,
              0.005,
              -0.00394957
            ],
            "direction": [
              0.31622704541915897,
              0,
              0.948683538249436
            ]
          }
        },
        {
          "type": "line",
          "line": {
            "origin": [
              -0.0013165200000000005,
              0,
              -0.00394957
            ],
            "direction": [
              0,
              1,
              0
            ]
          }
        },
        {
          "type": "line",
          "line": {
            "origin": [
              0,
              0,
              0
            ],
            "direction": [
              0.8574937734727122,
              0,
              -0.5144943424912746
            ]
          }
        },
        {
          "type": "line",
          "line": {
            "origin": [
              0.00356993,
              0,
              -0.0021419499999999997
            ],
            "direction": [
              0,
              1,
              0
            ]
          }
        },
        {
          "type": "line",
          "line": {
            "origin": [
              0,
              0.005,
              0
            ],
            "direction": [
              0.8574937734727122,
              0,
              -0.5144943424912746
            ]
          }
        },
        {
          "type": "circle",
          "circle": {
            "xAxis": [
              0.8574929821831274,
              0,
              -0.5144956613098761
            ],
            "yAxis": [
              -0.5144956613098761,
              0,
              -0.8574929821831274
            ],
            "origin": [
              0,
              0,
              0
            ],
            "radius": 0.00416321
          }
        },
        {
          "type": "circle",
          "circle": {
            "xAxis": [
              0.8574929821831274,
              0,
              -0.5144956613098761
            ],
            "yAxis": [
              -0.5144956613098761,
              0,
              -0.8574929821831274
            ],
            "origin": [
              0,
              0.005,
              0
            ],
            "radius": 0.00416321
          }
        }
      ]
    }
  },
  "extensionsUsed": [
    "KITTYCAD_boundary_representation"
  ],
  "materials": [
    {
      "alphaMode": "OPAQUE",
      "doubleSided": false,
      "pbrMetallicRoughness": {
        "baseColorFactor": [
          0.9,
          0.9,
          0.9,
          1
        ],
        "metallicFactor": 1,
        "roughnessFactor": 1
      },
      "emissiveFactor": [
        0,
        0,
        0
      ]
    }
  ],
  "meshes": [
    {
      "primitives": [
        {
          "attributes": {
            "POSITION": 0,
            "NORMAL": 1
          },
          "material": 0
        },
        {
          "attributes": {
            "POSITION": 2,
            "NORMAL": 3
          },
          "material": 0
        },
        {
          "attributes": {
            "POSITION": 4,
            "NORMAL": 5
          },
          "material": 0
        },
        {
          "attributes": {
            "POSITION": 6,
            "NORMAL": 7
          },
          "material": 0
        },
        {
          "attributes": {
            "POSITION": 8,
            "NORMAL": 9
          },
          "material": 0
        }
      ]
    }
  ],
  "nodes": [
    {
      "children": [
        1
      ]
    },
    {
      "children": [
        2
      ]
    },
    {
      "extensions": {
        "KITTYCAD_boundary_representation": {
          "solid": 0
        }
      },
      "mesh": 0
    }
  ],
  "scenes": [
    {
      "nodes": [
        0
      ]
    }
  ]
}