{
  "accessors": [
    {
      "bufferView": 0,
      "byteOffset": 0,
      "count": 768,
      "componentType": 5126,
      "type": "VEC3",
      "min": [
        -0.001879385206848383,
        0,
        -0.0009999560425058007
      ],
      "max": [
        0.0020000000949949026,
        0.009999999776482582,
        -0
      ]
    },
    {
      "bufferView": 0,
      "byteOffset": 12,
      "count": 768,
      "componentType": 5126,
      "type": "VEC3"
    },
    {
      "bufferView": 1,
      "byteOffset": 0,
      "count": 12,
      "componentType": 5126,
      "type": "VEC3",
      "min": [
        -0.001879385206848383,
        0,
        -0.00034202015376649797
      ],
      "max": [
        0.0020000000949949026,
        0.009999999776482582,
        -0
      ]
    },
    {
      "bufferView": 1,
      "byteOffset": 12,
      "count": 12,
      "componentType": 5126,
      "type": "VEC3"
    },
    {
      "bufferView": 2,
      "byteOffset": 0,
      "count": 384,
      "componentType": 5126,
      "type": "VEC3",
      "min": [
        -0.001879385206848383,
        0,
        -0.0009999560425058007
      ],
      "max": [
        0.0020000000949949026,
        0,
        -0
      ]
    },
    {
      "bufferView": 2,
      "byteOffset": 12,
      "count": 384,
      "componentType": 5126,
      "type": "VEC3"
    },
    {
      "bufferView": 3,
      "byteOffset": 0,
      "count": 384,
      "componentType": 5126,
      "type": "VEC3",
      "min": [
        -0.001879385206848383,
        0.009999999776482582,
        -0.0009999560425058007
      ],
      "max": [
        0.0020000000949949026,
        0.009999999776482582,
        -0
      ]
    },
    {
      "bufferView": 3,
      "byteOffset": 12,
      "count": 384,
      "componentType": 5126,
      "type": "VEC3"
    }
  ],
  "asset": {
    "generator": "zoo.dev",
    "version": "2.0"
  },
  "buffers": [
    {
      "byteLength": 37152,
      "uri": "data:application/octet-stream;base64,"
    }
  ],
  "bufferViews": [
    {
      "buffer": 0,
      "byteLength": 18432,
      "byteOffset": 0,
      "byteStride": 24,
      "target": 34962
    },
    {
      "buffer": 0,
      "byteLength": 288,
      "byteOffset": 18432,
      "byteStride": 24,
      "target": 34962
    },
    {
      "buffer": 0,
      "byteLength": 9216,
      "byteOffset": 18720,
      "byteStride": 24,
      "target": 34962
    },
    {
      "buffer": 0,
      "byteLength": 9216,
      "byteOffset": 27936,
      "byteStride": 24,
      "target": 34962
    }
  ],
  "scene": 0,
  "extensions": {
    "KITTYCAD_boundary_representation": {
      "solids": [
        {
          "shells": [
            [
              0,
              1
            ]
          ],
          "mesh": 0,
          "extras": {
            "KITTYCAD": {
              "material": 0
            }
          }
        }
      ],
      "shells": [
        {
          "faces": [
            [
              0,
              1
            ],
            [
              1,
              1
            ],
            [
              2,
              1
            ],
            [
              3,
              1
            ]
          ]
        }
      ],
      "faces": [
        {
          "surface": [
            0,
            1
          ],
          "loops": [
            [
              0,
              1
            ]
          ]
        },
        {
          "surface": [
            1,
            1
          ],
          "loops": [
            [
              1,
              1
            ]
          ]
        },
        {
          "surface": [
            2,
            -1
          ],
          "loops": [
            [
              2,
              1
            ]
          ]
        },
        {
          "surface": [
            3,
            1
          ],
          "loops": [
            [
              3,
              1
            ]
          ]
        }
      ],
      "loops": [
        {
          "edges": [
            [
              0,
              1
            ],
            [
              1,
              1
            ],
            [
              2,
              -1
            ],
            [
              3,
              -1
            ]
          ]
        },
        {
          "edges": [
            [
              4,
              1
            ],
            [
              3,
              1
            ],
            [
              5,
              -1
            ],
            [
              1,
              -1
            ]
          ]
        },
        {
          "edges": [
            [
              4,
              -1
            ],
            [
              0,
              -1
            ]
          ]
        },
        {
          "edges": [
            [
              2,
              1
            ],
            [
              5,
              1
            ]
          ]
        }
      ],
      "edges": [
        {
          "curve": [
            0,
            1
          ],
          "start": 0,
          "end": 1,
          "t": [
            0,
            1
          ]
        },
        {
          "curve": [
            1,
            1
          ],
          "start": 1,
          "end": 2,
          "t": [
            0,
            0.01
          ]
        },
        {
          "curve": [
            2,
            1
          ],
          "start": 3,
          "end": 2,
          "t": [
            0,
            1
          ]
        },
        {
          "curve": [
            3,
            1
          ],
          "start": 0,
          "end": 3,
          "t": [
            0,
            0.01
          ]
        },
        {
          "curve": [
            4,
            1
          ],
          "start": 1,
          "end": 0,
          "t": [
            0,
            0.0038944329023576376
          ]
        },
        {
          "curve": [
            5,
            1
          ],
          "start": 2,
          "end": 3,
          "t": [
            0,
            0.0038944329023576376
          ]
        }
      ],
      "vertices": [
        [
          0.002,
          0,
          -0
        ],
        [
          -0.0018793852415718167,
          0,
          -0.0003420201433256689
        ],
        [
          -0.0018793852415718167,
          0.01,
          -0.0003420201433256689
        ],
        [
          0.002,
          0.01,
          -0
        ]
      ],
      "surfaces": [
        {
          "type": "nurbs",
          "nurbs": {
            "controlPoints": [
              [
                0.002,
                0,
                -0
              ],
              [
                0.002,
                0.01,
                -0
              ],
              [
                0.002,
                0,
                -0.0008390996304312104
              ],
              [
                0.002,
                0.009999999999999998,
                -0.0008390996304312104
              ],
              [
                0.00034729635533386094,
                0,
                -0.0009848077522661386
              ],
              [
                0.00034729635533386094,
                0.01,
                -0.0009848077522661386
              ],
              [
                -0.0013054072893322782,
                0,
                -0.0011305158741010666
              ],
              [
                -0.0013054072893322782,
                0.009999999999999998,
                -0.0011305158741010666
              ],
              [
                -0.0018793852415718167,
                0,
                -0.0003420201433256689
              ],
              [
                -0.0018793852415718167,
                0.01,
                -0.0003420201433256689
              ]
            ],
            "numControlPoints": [
              5,
              2
            ],
            "numKnots": [
              8,
              4
            ],
            "knotVector": [
              0,
              0,
              0,
              0.5,
              0.5,
              1,
              1,
              1,
              0,
              0,
              10,
              10
            ],
            "weights": [
              1,
              1,
              0.7660444431189781,
              0.7660444431189781,
              1,
              1,
              0.7660444431189781,
              0.7660444431189781,
              1,
              1
            ],
            "order": [
              3,
              2
            ]
          }
        },
        {
          "type": "plane",
          "plane": {
            "xAxis": [
              0.9961361098873442,
              0,
              0.08782283631555558
            ],
            "yAxis": [
              0,
              1,
              -0
            ],
            "origin": [
              0.00006030737921409168,
              0.004999999999999999,
              -0.00017101007166283442
            ]
          }
        },
        {
          "type": "plane",
          "plane": {
            "xAxis": [
              1,
              0,
              0
            ],
            "yAxis": [
              0,
              0,
              -1
            ],
            "origin": [
              0,
              0,
              -0
            ]
          }
        },
        {
          "type": "plane",
          "plane": {
            "xAxis": [
              1,
              0,
              0
            ],
            "yAxis": [
              0,
              0,
              -1
            ],
            "origin": [
              0,
              0.01,
              -0
            ]
          }
        }
      ],
      "curves3D": [
        {
          "type": "nurbs",
          "nurbs": {
            "controlPoints": [
              [
                0.002,
                0,
                -0
              ],
              [
                0.002,
                0,
                -0.0008390996304312104
              ],
              [
                0.00034729635533386094,
                0,
                -0.0009848077522661386
              ],
              [
                -0.0013054072893322782,
                0,
                -0.0011305158741010666
              ],
              [
                -0.0018793852415718167,
                0,
                -0.0003420201433256689
              ]
            ],
            "order": 3,
            "knotVector": [
              0,
              0,
              0,
              0.5,
              0.5,
              1,
              1,
              1
            ],
            "weights": [
              1,
              0.7660444431189781,
              1,
              0.7660444431189781,
              1
            ]
          }
        },
        {
          "type": "line",
          "line": {
            "origin": [
              -0.0018793852415718167,
              0,
              -0.0003420201433256689
            ],
            "direction": [
              0,
              1,
              0
            ]
          }
        },
        {
          "type": "nurbs",
          "nurbs": {
            "controlPoints": [
              [
                0.002,
                0.01,
                -0
              ],
              [
                0.002,
                0.009999999999999998,
                -0.0008390996304312104
              ],
              [
                0.00034729635533386094,
                0.01,
                -0.0009848077522661386
              ],
              [
                -0.0013054072893322782,
                0.009999999999999998,
                -0.0011305158741010666
              ],
              [
                -0.0018793852415718167,
                0.01,
                -0.0003420201433256689
              ]
            ],
            "order": 3,
            "knotVector": [
              0,
              0,
              0,
              0.5,
              0.5,
              1,
              1,
              1
            ],
            "weights": [
              1,
              0.7660444431189781,
              1,
              0.7660444431189781,
              1
            ]
          }
        },
        {
          "type": "line",
          "line": {
            "origin": [
              0.002,
              0,
              -0
            ],
            "direction": [
              0,
              1,
              0
            ]
          }
        },
        {
          "type": "line",
          "line": {
            "origin": [
              -0.0018793852415718167,
              0,
              -0.0003420201433256689
            ],
            "direction": [
              0.9961361098873442,
              0,
              0.08782283631555558
            ]
          }
        },
        {
          "type": "line",
          "line": {
            "origin": [
              -0.0018793852415718167,
              0.01,
              -0.0003420201433256689
            ],
            "direction": [
              0.9961361098873442,
              0,
              0.08782283631555558
            ]
          }
        }
      ]
    }
  },
  "extensionsUsed": [
    "KITTYCAD_boundary_representation"
  ],
  "materials": [
    {
      "alphaMode": "OPAQUE",
      "doubleSided": false,
      "pbrMetallicRoughness": {
        "baseColorFactor": [
          0.9,
          0.9,
          0.9,
          1
        ],
        "metallicFactor": 1,
        "roughnessFactor": 1
      },
      "emissiveFactor": [
        0,
        0,
        0
      ]
    }
  ],
  "meshes": [
    {
      "primitives": [
        {
          "attributes": {
            "POSITION": 0,
            "NORMAL": 1
          },
          "material": 0
        },
        {
          "attributes": {
            "POSITION": 2,
            "NORMAL": 3
          },
          "material": 0
        },
        {
          "attributes": {
            "POSITION": 4,
            "NORMAL": 5
          },
          "material": 0
        },
        {
          "attributes": {
            "POSITION": 6,
            "NORMAL": 7
          },
          "material": 0
        }
      ]
    }
  ],
  "nodes": [
    {
      "children": [
        1
      ]
    },
    {
      "children": [
        2
      ]
    },
    {
      "extensions": {
        "KITTYCAD_boundary_representation": {
          "solid": 0
        }
      },
      "mesh": 0
    }
  ],
  "scenes": [
    {
      "nodes": [
        0
      ]
    }
  ]
}