{
  "accessors": [
    {
      "bufferView": 0,
      "byteOffset": 0,
      "count": 36,
      "componentType": 5126,
      "type": "VEC3",
      "min": [
        -0.0033400000538676977,
        -0.0018899999558925629,
        -0
      ],
      "max": [
        -0.0011728700483217835,
        -0.0018065300537273288,
        0.002389279892668128
      ]
    },
    {
      "bufferView": 0,
      "byteOffset": 12,
      "count": 36,
      "componentType": 5126,
      "type": "VEC3"
    },
    {
      "bufferView": 1,
      "byteOffset": 0,
      "count": 48,
      "componentType": 5126,
      "type": "VEC3",
      "min": [
        -0.0033400000538676977,
        -0.0018899999558925629,
        -0
      ],
      "max": [
        -0.0025681699626147747,
        0.0006380599807016551,
        0.002389279892668128
      ]
    },
    {
      "bufferView": 1,
      "byteOffset": 12,
      "count": 48,
      "componentType": 5126,
      "type": "VEC3"
    },
    {
      "bufferView": 2,
      "byteOffset": 0,
      "count": 36,
      "componentType": 5126,
      "type": "VEC3",
      "min": [
        -0.0033400000538676977,
        0.0005600000149570405,
        -0
      ],
      "max": [
        -0.001222879975102842,
        0.0006380599807016551,
        0.002234450075775385
      ]
    },
    {
      "bufferView": 2,
      "byteOffset": 12,
      "count": 36,
      "componentType": 5126,
      "type": "VEC3"
    },
    {
      "bufferView": 3,
      "byteOffset": 0,
      "count": 24,
      "componentType": 5126,
      "type": "VEC3",
      "min": [
        -0.0016199999954551458,
        -0.0018899999558925629,
        -0
      ],
      "max": [
        -0.0011728700483217835,
        0.0006029399810358882,
        0.0013841500040143728
      ]
    },
    {
      "bufferView": 3,
      "byteOffset": 12,
      "count": 24,
      "componentType": 5126,
      "type": "VEC3"
    },
    {
      "bufferView": 4,
      "byteOffset": 0,
      "count": 6,
      "componentType": 5126,
      "type": "VEC3",
      "min": [
        -0.0033400000538676977,
        -0.0018899999558925629,
        -0
      ],
      "max": [
        -0.0016199999954551458,
        0.0005600000149570405,
        -0
      ]
    },
    {
      "bufferView": 4,
      "byteOffset": 12,
      "count": 6,
      "componentType": 5126,
      "type": "VEC3"
    },
    {
      "bufferView": 5,
      "byteOffset": 0,
      "count": 6,
      "componentType": 5126,
      "type": "VEC3",
      "min": [
        -0.00261818990111351,
        -0.0018416499951854348,
        0.001229319954290986
      ],
      "max": [
        -0.0011728700483217835,
        0.0006380599807016551,
        0.002389279892668128
      ]
    },
    {
      "bufferView": 5,
      "byteOffset": 12,
      "count": 6,
      "componentType": 5126,
      "type": "VEC3"
    }
  ],
  "asset": {
    "generator": "zoo.dev",
    "version": "2.0"
  },
  "buffers": [
    {
      "byteLength": 3744,
      "uri": "data:application/octet-stream;base64,"
    }
  ],
  "bufferViews": [
    {
      "buffer": 0,
      "byteLength": 864,
      "byteOffset": 0,
      "byteStride": 24,
      "target": 34962
    },
    {
      "buffer": 0,
      "byteLength": 1152,
      "byteOffset": 864,
      "byteStride": 24,
      "target": 34962
    },
    {
      "buffer": 0,
      "byteLength": 864,
      "byteOffset": 2016,
      "byteStride": 24,
      "target": 34962
    },
    {
      "buffer": 0,
      "byteLength": 576,
      "byteOffset": 2880,
      "byteStride": 24,
      "target": 34962
    },
    {
      "buffer": 0,
      "byteLength": 144,
      "byteOffset": 3456,
      "byteStride": 24,
      "target": 34962
    },
    {
      "buffer": 0,
      "byteLength": 144,
      "byteOffset": 3600,
      "byteStride": 24,
      "target": 34962
    }
  ],
  "scene": 0,
  "extensions": {
    "KITTYCAD_boundary_representation": {
      "solids": [
        {
          "shells": [
            [
              0,
              1
            ]
          ],
          "mesh": 0,
          "extras": {
            "KITTYCAD": {
              "material": 0
            }
          }
        }
      ],
      "shells": [
        {
          "faces": [
            [
              0,
              1
            ],
            [
              1,
              1
            ],
            [
              2,
              1
            ],
            [
              3,
              1
            ],
            [
              4,
              1
            ],
            [
              5,
              1
            ]
          ]
        }
      ],
      "faces": [
        {
          "surface": [
            0,
            1
          ],
          "loops": [
            [
              0,
              1
            ]
          ]
        },
        {
          "surface": [
            1,
            1
          ],
          "loops": [
            [
              1,
              1
            ]
          ]
        },
        {
          "surface": [
            2,
            -1
          ],
          "loops": [
            [
              2,
              1
            ]
          ]
        },
        {
          "surface": [
            3,
            -1
          ],
          "loops": [
            [
              3,
              1
            ]
          ]
        },
        {
          "surface": [
            4,
            -1
          ],
          "loops": [
            [
              4,
              1
            ]
          ]
        },
        {
          "surface": [
            5,
            1
          ],
          "loops": [
            [
              5,
              1
            ]
          ]
        }
      ],
      "loops": [
        {
          "edges": [
            [
              0,
              -1
            ],
            [
              1,
              1
            ],
            [
              2,
              -1
            ],
            [
              3,
              -1
            ]
          ]
        },
        {
          "edges": [
            [
              2,
              1
            ],
            [
              4,
              1
            ],
            [
              5,
              -1
            ],
            [
              6,
              -1
            ]
          ]
        },
        {
          "edges": [
            [
              5,
              1
            ],
            [
              7,
              1
            ],
            [
              8,
              -1
            ],
            [
              9,
              -1
            ]
          ]
        },
        {
          "edges": [
            [
              8,
              1
            ],
            [
              10,
              1
            ],
            [
              0,
              1
            ],
            [
              11,
              -1
            ]
          ]
        },
        {
          "edges": [
            [
              3,
              1
            ],
            [
              6,
              1
            ],
            [
              9,
              1
            ],
            [
              11,
              1
            ]
          ]
        },
        {
          "edges": [
            [
              10,
              -1
            ],
            [
              7,
              -1
            ],
            [
              4,
              -1
            ],
            [
              1,
              -1
            ]
          ]
        }
      ],
      "edges": [
        {
          "curve": [
            0,
            1
          ],
          "start": 0,
          "end": 1,
          "t": [
            5.654867813923566,
            6.283185307179586
          ]
        },
        {
          "curve": [
            1,
            1
          ],
          "start": 0,
          "end": 2,
          "t": [
            0,
            0.0017199947154860678
          ]
        },
        {
          "curve": [
            2,
            1
          ],
          "start": 3,
          "end": 2,
          "t": [
            0,
            0.6283186132864972
          ]
        },
        {
          "curve": [
            3,
            1
          ],
          "start": 1,
          "end": 3,
          "t": [
            0,
            0.0017200000000000002
          ]
        },
        {
          "curve": [
            4,
            1
          ],
          "start": 2,
          "end": 4,
          "t": [
            0,
            0.002449998897428323
          ]
        },
        {
          "curve": [
            5,
            1
          ],
          "start": 5,
          "end": 4,
          "t": [
            0,
            0.6283170575710358
          ]
        },
        {
          "curve": [
            6,
            1
          ],
          "start": 3,
          "end": 5,
          "t": [
            0,
            0.00245
          ]
        },
        {
          "curve": [
            7,
            1
          ],
          "start": 4,
          "end": 6,
          "t": [
            0,
            0.0017200028277302335
          ]
        },
        {
          "curve": [
            8,
            1
          ],
          "start": 7,
          "end": 6,
          "t": [
            0,
            0.6283173186065101
          ]
        },
        {
          "curve": [
            9,
            1
          ],
          "start": 5,
          "end": 7,
          "t": [
            0,
            0.0017200000000000002
          ]
        },
        {
          "curve": [
            10,
            1
          ],
          "start": 6,
          "end": 0,
          "t": [
            0,
            0.002449998693285366
          ]
        },
        {
          "curve": [
            11,
            1
          ],
          "start": 7,
          "end": 1,
          "t": [
            0,
            0.00245
          ]
        }
      ],
      "vertices": [
        [
          -0.00117287,
          -0.00184165,
          0.00138415
        ],
        [
          -0.00162,
          -0.00189,
          -0
        ],
        [
          -0.00256817,
          -0.00180653,
          0.00238928
        ],
        [
          -0.00334,
          -0.00189,
          -0
        ],
        [
          -0.00261819,
          0.00063806,
          0.00223445
        ],
        [
          -0.00334,
          0.00056,
          -0
        ],
        [
          -0.00122288,
          0.00060294,
          0.00122932
        ],
        [
          -0.00162,
          0.00056,
          -0
        ]
      ],
      "surfaces": [
        {
          "type": "cone",
          "cone": {
            "xAxis": [
              -0.9942035576556442,
              -0.10751411974647912,
              -0
            ],
            "yAxis": [
              -0,
              0,
              1
            ],
            "origin": [
              0.00072121,
              -0.00163682,
              -0
            ],
            "radius": 0.00235486,
            "semiAngle": 1.463074
          }
        },
        {
          "type": "cone",
          "cone": {
            "xAxis": [
              -0.9942035576556442,
              -0.10751411974647912,
              0
            ],
            "yAxis": [
              0,
              -0,
              -1
            ],
            "origin": [
              0.00043945,
              0.00096871,
              -0
            ],
            "radius": 0.00380148,
            "semiAngle": 0.10772233
          }
        },
        {
          "type": "cone",
          "cone": {
            "xAxis": [
              -0.9942035576556442,
              -0.10751411974647912,
              -0
            ],
            "yAxis": [
              -0,
              0,
              1
            ],
            "origin": [
              0.00045933,
              0.00078486,
              -0
            ],
            "radius": 0.00209145,
            "semiAngle": 1.463074
          }
        },
        {
          "type": "cone",
          "cone": {
            "xAxis": [
              -0.9942035576556442,
              -0.10751411974647912,
              0
            ],
            "yAxis": [
              0,
              -0,
              -1
            ],
            "origin": [
              0.00045933,
              0.00078486,
              -0
            ],
            "radius": 0.00209145,
            "semiAngle": 0.10772233
          }
        },
        {
          "type": "plane",
          "plane": {
            "xAxis": [
              1,
              0,
              0
            ],
            "yAxis": [
              0,
              1,
              0
            ],
            "origin": [
              0,
              0,
              0
            ]
          }
        },
        {
          "type": "plane",
          "plane": {
            "xAxis": [
              0.8114814408689133,
              -0.04550923879715346,
              -0.582603450306824
            ],
            "yAxis": [
              0.000000000000000006938893903907228,
              0.9969630256893648,
              -0.0778763469116697
            ],
            "origin": [
              0.00010273,
              0.00001111,
              0.00031802
            ]
          }
        }
      ],
      "curves3D": [
        {
          "type": "circle",
          "circle": {
            "xAxis": [
              -0.9942035576556442,
              -0.10751411974647912,
              0
            ],
            "yAxis": [
              0,
              -0,
              -1
            ],
            "origin": [
              0.0007212100000000001,
              -0.0016368200000000002,
              0
            ],
            "radius": 0.00235486
          }
        },
        {
          "type": "line",
          "line": {
            "origin": [
              -0.00117287,
              -0.00184165,
              0.00138415
            ],
            "direction": [
              -0.8112234226287668,
              0.020418667385309498,
              0.5843797024201625
            ]
          }
        },
        {
          "type": "circle",
          "circle": {
            "xAxis": [
              -0.9942035576556442,
              -0.10751411974647912,
              0
            ],
            "yAxis": [
              0,
              0,
              1
            ],
            "origin": [
              0.0007013299999999999,
              -0.0014529699999999994,
              0
            ],
            "radius": 0.00406489
          }
        },
        {
          "type": "line",
          "line": {
            "origin": [
              -0.00162,
              -0.00189,
              0
            ],
            "direction": [
              -1,
              0,
              0
            ]
          }
        },
        {
          "type": "line",
          "line": {
            "origin": [
              -0.0025681699999999994,
              -0.00180653,
              0.00238928
            ],
            "direction": [
              -0.020416335718560608,
              0.9977922857704136,
              -0.06319594680737198
            ]
          }
        },
        {
          "type": "circle",
          "circle": {
            "xAxis": [
              -0.9942035576556442,
              -0.10751411974647912,
              0
            ],
            "yAxis": [
              0,
              0,
              1
            ],
            "origin": [
              0.00043945,
              0.00096871,
              0
            ],
            "radius": 0.00380148
          }
        },
        {
          "type": "line",
          "line": {
            "origin": [
              -0.0033400000000000005,
              -0.00189,
              0
            ],
            "direction": [
              0,
              1,
              0
            ]
          }
        },
        {
          "type": "line",
          "line": {
            "origin": [
              -0.0026181900000000003,
              0.00063806,
              0.00223445
            ],
            "direction": [
              0.8112254105077792,
              -0.020418571082435548,
              -0.5843769462439777
            ]
          }
        },
        {
          "type": "circle",
          "circle": {
            "xAxis": [
              -0.9942035576556442,
              -0.10751411974647912,
              0
            ],
            "yAxis": [
              0,
              0,
              1
            ],
            "origin": [
              0.00045933,
              0.00078486,
              0
            ],
            "radius": 0.00209145
          }
        },
        {
          "type": "line",
          "line": {
            "origin": [
              -0.0033400000000000005,
              0.00056,
              0
            ],
            "direction": [
              1,
              0,
              -0
            ]
          }
        },
        {
          "type": "line",
          "line": {
            "origin": [
              -0.0012228799999999998,
              0.0006029400000000002,
              0.00122932
            ],
            "direction": [
              0.020412255784895292,
              -0.9977923689101592,
              0.06319595207309205
            ]
          }
        },
        {
          "type": "line",
          "line": {
            "origin": [
              -0.0016200000000000003,
              0.00056,
              0
            ],
            "direction": [
              0,
              -1,
              0
            ]
          }
        }
      ]
    }
  },
  "extensionsUsed": [
    "KITTYCAD_boundary_representation"
  ],
  "materials": [
    {
      "alphaMode": "OPAQUE",
      "doubleSided": false,
      "pbrMetallicRoughness": {
        "baseColorFactor": [
          0.9,
          0.9,
          0.9,
          1
        ],
        "metallicFactor": 1,
        "roughnessFactor": 1
      },
      "emissiveFactor": [
        0,
        0,
        0
      ]
    }
  ],
  "meshes": [
    {
      "primitives": [
        {
          "attributes": {
            "POSITION": 0,
            "NORMAL": 1
          },
          "material": 0
        },
        {
          "attributes": {
            "POSITION": 2,
            "NORMAL": 3
          },
          "material": 0
        },
        {
          "attributes": {
            "POSITION": 4,
            "NORMAL": 5
          },
          "material": 0
        },
        {
          "attributes": {
            "POSITION": 6,
            "NORMAL": 7
          },
          "material": 0
        },
        {
          "attributes": {
            "POSITION": 8,
            "NORMAL": 9
          },
          "material": 0
        },
        {
          "attributes": {
            "POSITION": 10,
            "NORMAL": 11
          },
          "material": 0
        }
      ]
    }
  ],
  "nodes": [
    {
      "children": [
        1
      ]
    },
    {
      "children": [
        2
      ]
    },
    {
      "extensions": {
        "KITTYCAD_boundary_representation": {
          "solid": 0
        }
      },
      "mesh": 0
    }
  ],
  "scenes": [
    {
      "nodes": [
        0
      ]
    }
  ]
}