{
  "accessors": [
    {
      "bufferView": 0,
      "byteOffset": 0,
      "count": 12285,
      "componentType": 5126,
      "type": "VEC3",
      "min": [
        -0.019999999552965164,
        0.029999999329447743,
        -0.004999999888241291
      ],
      "max": [
        0.019999999552965164,
        0.05000000074505806,
        0.0000000000000000006123233952733111
      ]
    },
    {
      "bufferView": 0,
      "byteOffset": 12,
      "count": 12285,
      "componentType": 5126,
      "type": "VEC3"
    },
    {
      "bufferView": 1,
      "byteOffset": 0,
      "count": 12285,
      "componentType": 5126,
      "type": "VEC3",
      "min": [
        -0.019999999552965164,
        0.029999999329447743,
        -0.0000000000000000006123233952733111
      ],
      "max": [
        0.019999999552965164,
        0.05000000074505806,
        0.004999999888241291
      ]
    },
    {
      "bufferView": 1,
      "byteOffset": 12,
      "count": 12285,
      "componentType": 5126,
      "type": "VEC3"
    },
    {
      "bufferView": 2,
      "byteOffset": 0,
      "count": 12288,
      "componentType": 5126,
      "type": "VEC3",
      "min": [
        -0.019999999552965164,
        0.009999999776482582,
        -0.004999999888241291
      ],
      "max": [
        0.019999999552965164,
        0.029999999329447743,
        0.0000000000000000006123233952733111
      ]
    },
    {
      "bufferView": 2,
      "byteOffset": 12,
      "count": 12288,
      "componentType": 5126,
      "type": "VEC3"
    },
    {
      "bufferView": 3,
      "byteOffset": 0,
      "count": 12288,
      "componentType": 5126,
      "type": "VEC3",
      "min": [
        -0.019999999552965164,
        0.009999999776482582,
        -0.0000000000000000006123233952733111
      ],
      "max": [
        0.019999999552965164,
        0.029999999329447743,
        0.004999999888241291
      ]
    },
    {
      "bufferView": 3,
      "byteOffset": 12,
      "count": 12288,
      "componentType": 5126,
      "type": "VEC3"
    }
  ],
  "asset": {
    "generator": "zoo.dev",
    "version": "2.0"
  },
  "buffers": [
    {
      "byteLength": 1179504,
      "uri": "data:application/octet-stream;base64,"
    }
  ],
  "bufferViews": [
    {
      "buffer": 0,
      "byteLength": 294840,
      "byteOffset": 0,
      "byteStride": 24,
      "target": 34962
    },
    {
      "buffer": 0,
      "byteLength": 294840,
      "byteOffset": 294840,
      "byteStride": 24,
      "target": 34962
    },
    {
      "buffer": 0,
      "byteLength": 294912,
      "byteOffset": 589680,
      "byteStride": 24,
      "target": 34962
    },
    {
      "buffer": 0,
      "byteLength": 294912,
      "byteOffset": 884592,
      "byteStride": 24,
      "target": 34962
    }
  ],
  "scene": 0,
  "extensions": {
    "KITTYCAD_boundary_representation": {
      "solids": [
        {
          "shells": [
            [
              0,
              1
            ]
          ],
          "mesh": 0,
          "extras": {
            "KITTYCAD": {
              "material": 0
            }
          }
        }
      ],
      "shells": [
        {
          "faces": [
            [
              0,
              1
            ],
            [
              1,
              1
            ],
            [
              2,
              1
            ],
            [
              3,
              1
            ]
          ]
        }
      ],
      "faces": [
        {
          "surface": [
            0,
            1
          ],
          "loops": [
            [
              0,
              1
            ]
          ]
        },
        {
          "surface": [
            0,
            1
          ],
          "loops": [
            [
              1,
              1
            ]
          ]
        },
        {
          "surface": [
            0,
            1
          ],
          "loops": [
            [
              2,
              1
            ]
          ]
        },
        {
          "surface": [
            0,
            1
          ],
          "loops": [
            [
              3,
              1
            ]
          ]
        }
      ],
      "loops": [
        {
          "edges": [
            [
              0,
              1
            ],
            [
              1,
              1
            ],
            [
              2,
              1
            ],
            [
              3,
              1
            ]
          ]
        },
        {
          "edges": [
            [
              0,
              -1
            ],
            [
              4,
              1
            ],
            [
              2,
              -1
            ],
            [
              5,
              1
            ]
          ]
        },
        {
          "edges": [
            [
              6,
              1
            ],
            [
              3,
              -1
            ],
            [
              7,
              1
            ],
            [
              1,
              -1
            ]
          ]
        },
        {
          "edges": [
            [
              6,
              -1
            ],
            [
              5,
              -1
            ],
            [
              7,
              -1
            ],
            [
              4,
              -1
            ]
          ]
        }
      ],
      "edges": [
        {
          "curve": [
            0,
            -1
          ],
          "start": 0,
          "end": 1,
          "t": [
            3.141592653589793,
            6.283185307179586
          ]
        },
        {
          "curve": [
            1,
            -1
          ],
          "start": 1,
          "end": 2,
          "t": [
            0,
            3.141592653589793
          ]
        },
        {
          "curve": [
            2,
            1
          ],
          "start": 2,
          "end": 3,
          "t": [
            3.141592653589793,
            6.283185307179586
          ]
        },
        {
          "curve": [
            3,
            1
          ],
          "start": 3,
          "end": 0,
          "t": [
            0,
            3.141592653589793
          ]
        },
        {
          "curve": [
            4,
            1
          ],
          "start": 0,
          "end": 3,
          "t": [
            3.141592653589793,
            6.283185307179586
          ]
        },
        {
          "curve": [
            1,
            -1
          ],
          "start": 2,
          "end": 1,
          "t": [
            3.141592653589793,
            6.283185307179586
          ]
        },
        {
          "curve": [
            5,
            -1
          ],
          "start": 1,
          "end": 0,
          "t": [
            0,
            3.141592653589793
          ]
        },
        {
          "curve": [
            6,
            1
          ],
          "start": 3,
          "end": 2,
          "t": [
            0,
            3.141592653589793
          ]
        }
      ],
      "vertices": [
        [
          0.009999999999999998,
          0.03,
          -0.0000000000000000006123233995736766
        ],
        [
          -0.009999999999999997,
          0.03,
          -0.0000000000000000006123233995736767
        ],
        [
          -0.02,
          0.029999999999999995,
          0
        ],
        [
          0.02,
          0.03,
          0.0000000000000000006123233995736766
        ]
      ],
      "surfaces": [
        {
          "type": "torus",
          "torus": {
            "xAxis": [
              1,
              0,
              -0
            ],
            "yAxis": [
              0,
              -1,
              -0
            ],
            "origin": [
              0,
              0.03,
              -0
            ],
            "majorRadius": 0.015,
            "minorRadius": 0.005
          }
        }
      ],
      "curves3D": [
        {
          "type": "circle",
          "circle": {
            "xAxis": [
              1,
              0,
              0
            ],
            "yAxis": [
              0,
              -1,
              0
            ],
            "origin": [
              0,
              0.03,
              -0.0000000000000000006123233995736766
            ],
            "radius": 0.009999999999999998
          }
        },
        {
          "type": "circle",
          "circle": {
            "xAxis": [
              -1,
              -0.00000000000000012246467991473532,
              0
            ],
            "yAxis": [
              0,
              -0,
              -1
            ],
            "origin": [
              -0.015,
              0.029999999999999995,
              0
            ],
            "radius": 0.005
          }
        },
        {
          "type": "circle",
          "circle": {
            "xAxis": [
              1,
              0,
              -0
            ],
            "yAxis": [
              0,
              -1,
              -0
            ],
            "origin": [
              0,
              0.03,
              -0
            ],
            "radius": 0.02
          }
        },
        {
          "type": "circle",
          "circle": {
            "xAxis": [
              1,
              0.00000000000000024492935982947064,
              0
            ],
            "yAxis": [
              0,
              0,
              -1
            ],
            "origin": [
              0.015,
              0.03,
              0
            ],
            "radius": 0.005
          }
        },
        {
          "type": "circle",
          "circle": {
            "xAxis": [
              1,
              0.00000000000000024492935982947064,
              0
            ],
            "yAxis": [
              0,
              0,
              -1
            ],
            "origin": [
              0.015,
              0.03,
              0
            ],
            "radius": 0.005
          }
        },
        {
          "type": "circle",
          "circle": {
            "xAxis": [
              1,
              0,
              0
            ],
            "yAxis": [
              0,
              -1,
              0
            ],
            "origin": [
              0,
              0.03,
              -0.0000000000000000006123233995736766
            ],
            "radius": 0.009999999999999998
          }
        },
        {
          "type": "circle",
          "circle": {
            "xAxis": [
              1,
              0,
              -0
            ],
            "yAxis": [
              0,
              -1,
              -0
            ],
            "origin": [
              0,
              0.03,
              -0
            ],
            "radius": 0.02
          }
        }
      ]
    }
  },
  "extensionsUsed": [
    "KITTYCAD_boundary_representation"
  ],
  "materials": [
    {
      "alphaMode": "OPAQUE",
      "doubleSided": false,
      "pbrMetallicRoughness": {
        "baseColorFactor": [
          0.9,
          0.9,
          0.9,
          1
        ],
        "metallicFactor": 1,
        "roughnessFactor": 1
      },
      "emissiveFactor": [
        0,
        0,
        0
      ]
    }
  ],
  "meshes": [
    {
      "primitives": [
        {
          "attributes": {
            "POSITION": 0,
            "NORMAL": 1
          },
          "material": 0
        },
        {
          "attributes": {
            "POSITION": 2,
            "NORMAL": 3
          },
          "material": 0
        },
        {
          "attributes": {
            "POSITION": 4,
            "NORMAL": 5
          },
          "material": 0
        },
        {
          "attributes": {
            "POSITION": 6,
            "NORMAL": 7
          },
          "material": 0
        }
      ]
    }
  ],
  "nodes": [
    {
      "children": [
        1
      ]
    },
    {
      "children": [
        2
      ]
    },
    {
      "extensions": {
        "KITTYCAD_boundary_representation": {
          "solid": 0
        }
      },
      "mesh": 0
    }
  ],
  "scenes": [
    {
      "nodes": [
        0
      ]
    }
  ]
}