{
  "accessors": [
    {
      "bufferView": 0,
      "byteOffset": 0,
      "count": 744,
      "componentType": 5126,
      "type": "VEC3",
      "min": [
        -0.0015999999595806005,
        0,
        -0.003000000026077032
      ],
      "max": [
        0.0015999999595806005,
        0.0020000000949949026,
        -0
      ]
    },
    {
      "bufferView": 0,
      "byteOffset": 12,
      "count": 744,
      "componentType": 5126,
      "type": "VEC3"
    },
    {
      "bufferView": 1,
      "byteOffset": 0,
      "count": 6,
      "componentType": 5126,
      "type": "VEC3",
      "min": [
        -0.0020000000949949026,
        0.0020000000949949026,
        -0.003000000026077032
      ],
      "max": [
        0.0020000000949949026,
        0.004000000189989805,
        -0.003000000026077032
      ]
    },
    {
      "bufferView": 1,
      "byteOffset": 12,
      "count": 6,
      "componentType": 5126,
      "type": "VEC3"
    },
    {
      "bufferView": 2,
      "byteOffset": 0,
      "count": 6,
      "componentType": 5126,
      "type": "VEC3",
      "min": [
        -0.0010000000474974513,
        0,
        -0
      ],
      "max": [
        0.0010000000474974513,
        0,
        0.0020000000949949026
      ]
    },
    {
      "bufferView": 2,
      "byteOffset": 12,
      "count": 6,
      "componentType": 5126,
      "type": "VEC3"
    }
  ],
  "asset": {
    "generator": "zoo.dev",
    "version": "2.0"
  },
  "buffers": [
    {
      "byteLength": 18144,
      "uri": "data:application/octet-stream;base64,"
    }
  ],
  "bufferViews": [
    {
      "buffer": 0,
      "byteLength": 17856,
      "byteOffset": 0,
      "byteStride": 24,
      "target": 34962
    },
    {
      "buffer": 0,
      "byteLength": 144,
      "byteOffset": 17856,
      "byteStride": 24,
      "target": 34962
    },
    {
      "buffer": 0,
      "byteLength": 144,
      "byteOffset": 18000,
      "byteStride": 24,
      "target": 34962
    }
  ],
  "scene": 0,
  "extensions": {
    "KITTYCAD_boundary_representation": {
      "solids": [
        {
          "shells": [
            [
              0,
              1
            ]
          ],
          "mesh": 0,
          "extras": {
            "KITTYCAD": {
              "material": 0
            }
          }
        },
        {
          "shells": [
            [
              1,
              1
            ]
          ],
          "mesh": 1,
          "extras": {
            "KITTYCAD": {
              "material": 1
            }
          }
        },
        {
          "shells": [
            [
              2,
              1
            ]
          ],
          "mesh": 2,
          "extras": {
            "KITTYCAD": {
              "material": 2
            }
          }
        }
      ],
      "shells": [
        {
          "faces": [
            [
              0,
              1
            ]
          ]
        },
        {
          "faces": [
            [
              1,
              1
            ]
          ]
        },
        {
          "faces": [
            [
              2,
              1
            ]
          ]
        }
      ],
      "faces": [
        {
          "surface": [
            0,
            1
          ],
          "loops": [
            [
              0,
              1
            ]
          ]
        },
        {
          "surface": [
            1,
            1
          ],
          "loops": [
            [
              1,
              1
            ]
          ]
        },
        {
          "surface": [
            2,
            -1
          ],
          "loops": [
            [
              2,
              1
            ]
          ]
        }
      ],
      "loops": [
        {
          "edges": [
            [
              0,
              1
            ],
            [
              1,
              1
            ],
            [
              2,
              1
            ],
            [
              3,
              1
            ]
          ]
        },
        {
          "edges": [
            [
              4,
              1
            ],
            [
              5,
              1
            ],
            [
              6,
              1
            ],
            [
              7,
              1
            ]
          ]
        },
        {
          "edges": [
            [
              8,
              -1
            ],
            [
              9,
              -1
            ],
            [
              10,
              -1
            ],
            [
              11,
              -1
            ]
          ]
        }
      ],
      "edges": [
        {
          "curve": [
            0,
            1
          ],
          "start": 0,
          "end": 1,
          "t": [
            0,
            1
          ]
        },
        {
          "curve": [
            1,
            1
          ],
          "start": 1,
          "end": 2,
          "t": [
            0,
            0.002
          ]
        },
        {
          "curve": [
            2,
            1
          ],
          "start": 2,
          "end": 3,
          "t": [
            -1,
            -0
          ]
        },
        {
          "curve": [
            3,
            1
          ],
          "start": 3,
          "end": 0,
          "t": [
            0,
            0.003199999898672104
          ]
        },
        {
          "curve": [
            4,
            1
          ],
          "start": 4,
          "end": 5,
          "t": [
            0,
            0.004
          ]
        },
        {
          "curve": [
            5,
            1
          ],
          "start": 5,
          "end": 6,
          "t": [
            0,
            0.002
          ]
        },
        {
          "curve": [
            6,
            1
          ],
          "start": 6,
          "end": 7,
          "t": [
            0,
            0.004
          ]
        },
        {
          "curve": [
            7,
            1
          ],
          "start": 7,
          "end": 4,
          "t": [
            0,
            0.002
          ]
        },
        {
          "curve": [
            8,
            1
          ],
          "start": 8,
          "end": 9,
          "t": [
            0,
            0.002
          ]
        },
        {
          "curve": [
            9,
            1
          ],
          "start": 10,
          "end": 8,
          "t": [
            0,
            0.002
          ]
        },
        {
          "curve": [
            10,
            1
          ],
          "start": 11,
          "end": 10,
          "t": [
            0,
            0.002
          ]
        },
        {
          "curve": [
            11,
            1
          ],
          "start": 9,
          "end": 11,
          "t": [
            0,
            0.002
          ]
        }
      ],
      "vertices": [
        [
          -0.0015999999940395355,
          0.002,
          -0.003
        ],
        [
          -0.001,
          0,
          -0
        ],
        [
          0.001,
          0,
          -0
        ],
        [
          0.0015999999046325685,
          0.002,
          -0.003
        ],
        [
          -0.002,
          0.002,
          -0.003
        ],
        [
          0.002,
          0.002,
          -0.003
        ],
        [
          0.002,
          0.004,
          -0.003
        ],
        [
          -0.002,
          0.004,
          -0.003
        ],
        [
          -0.001,
          0,
          0.002
        ],
        [
          -0.001,
          0,
          -0
        ],
        [
          0.001,
          0,
          0.002
        ],
        [
          0.001,
          0,
          -0
        ]
      ],
      "surfaces": [
        {
          "type": "nurbs",
          "nurbs": {
            "controlPoints": [
              [
                -0.0015999999940395355,
                0.002,
                -0.003
              ],
              [
                0.0015999999046325685,
                0.002,
                -0.003
              ],
              [
                -0.0015999999940395355,
                0.001,
                -0.003
              ],
              [
                0.0015999999046325685,
                0.001,
                -0.003
              ],
              [
                -0.001,
                0,
                -0.001
              ],
              [
                0.001,
                0,
                -0.001
              ],
              [
                -0.001,
                0,
                -0
              ],
              [
                0.001,
                0,
                -0
              ]
            ],
            "numControlPoints": [
              4,
              2
            ],
            "numKnots": [
              8,
              4
            ],
            "knotVector": [
              0,
              0,
              0,
              0,
              1,
              1,
              1,
              1,
              0,
              0,
              1,
              1
            ],
            "order": [
              4,
              2
            ]
          }
        },
        {
          "type": "plane",
          "plane": {
            "xAxis": [
              1,
              0,
              -0
            ],
            "yAxis": [
              -0,
              1,
              0
            ],
            "origin": [
              0,
              0.003,
              -0.003
            ]
          }
        },
        {
          "type": "plane",
          "plane": {
            "xAxis": [
              1,
              0,
              0
            ],
            "yAxis": [
              -0,
              0,
              1
            ],
            "origin": [
              0,
              0,
              0.001
            ]
          }
        }
      ],
      "curves3D": [
        {
          "type": "nurbs",
          "nurbs": {
            "controlPoints": [
              [
                -0.0015999999940395355,
                0.002,
                -0.003
              ],
              [
                -0.0015999999940395355,
                0.001,
                -0.003
              ],
              [
                -0.001,
                0,
                -0.001
              ],
              [
                -0.001,
                0,
                -0
              ]
            ],
            "order": 4,
            "knotVector": [
              0,
              0,
              0,
              0,
              1,
              1,
              1,
              1
            ]
          }
        },
        {
          "type": "line",
          "line": {
            "origin": [
              -0.001,
              0,
              -0
            ],
            "direction": [
              1,
              0,
              -0
            ]
          }
        },
        {
          "type": "nurbs",
          "nurbs": {
            "controlPoints": [
              [
                0.001,
                0,
                -0
              ],
              [
                0.001,
                0,
                -0.001
              ],
              [
                0.0015999999046325685,
                0.001,
                -0.003
              ],
              [
                0.0015999999046325685,
                0.002,
                -0.003
              ]
            ],
            "order": 4,
            "knotVector": [
              -1,
              -1,
              -1,
              -1,
              -0,
              -0,
              -0,
              -0
            ]
          }
        },
        {
          "type": "line",
          "line": {
            "origin": [
              0.0015999999046325685,
              0.002,
              -0.003
            ],
            "direction": [
              -1,
              0,
              0
            ]
          }
        },
        {
          "type": "line",
          "line": {
            "origin": [
              -0.002,
              0.002,
              -0.003
            ],
            "direction": [
              1,
              0,
              -0
            ]
          }
        },
        {
          "type": "line",
          "line": {
            "origin": [
              0.002,
              0.002,
              -0.003
            ],
            "direction": [
              0,
              1,
              0
            ]
          }
        },
        {
          "type": "line",
          "line": {
            "origin": [
              0.002,
              0.004,
              -0.003
            ],
            "direction": [
              -1,
              0,
              0
            ]
          }
        },
        {
          "type": "line",
          "line": {
            "origin": [
              -0.002,
              0.004,
              -0.003
            ],
            "direction": [
              0,
              -1,
              0
            ]
          }
        },
        {
          "type": "line",
          "line": {
            "origin": [
              -0.001,
              0,
              0.002
            ],
            "direction": [
              0,
              0,
              -1
            ]
          }
        },
        {
          "type": "line",
          "line": {
            "origin": [
              0.001,
              0,
              0.002
            ],
            "direction": [
              -1,
              0,
              0
            ]
          }
        },
        {
          "type": "line",
          "line": {
            "origin": [
              0.001,
              0,
              -0
            ],
            "direction": [
              0,
              0,
              1
            ]
          }
        },
        {
          "type": "line",
          "line": {
            "origin": [
              -0.001,
              0,
              -0
            ],
            "direction": [
              1,
              0,
              -0
            ]
          }
        }
      ]
    }
  },
  "extensionsUsed": [
    "KITTYCAD_boundary_representation"
  ],
  "materials": [
    {
      "alphaMode": "OPAQUE",
      "doubleSided": false,
      "pbrMetallicRoughness": {
        "baseColorFactor": [
          0.9,
          0.9,
          0.9,
          1
        ],
        "metallicFactor": 1,
        "roughnessFactor": 1
      },
      "emissiveFactor": [
        0,
        0,
        0
      ]
    },
    {
      "alphaMode": "OPAQUE",
      "doubleSided": false,
      "pbrMetallicRoughness": {
        "baseColorFactor": [
          0.9,
          0.9,
          0.9,
          1
        ],
        "metallicFactor": 1,
        "roughnessFactor": 1
      },
      "emissiveFactor": [
        0,
        0,
        0
      ]
    },
    {
      "alphaMode": "OPAQUE",
      "doubleSided": false,
      "pbrMetallicRoughness": {
        "baseColorFactor": [
          0.9,
          0.9,
          0.9,
          1
        ],
        "metallicFactor": 1,
        "roughnessFactor": 1
      },
      "emissiveFactor": [
        0,
        0,
        0
      ]
    }
  ],
  "meshes": [
    {
      "primitives": [
        {
          "attributes": {
            "POSITION": 0,
            "NORMAL": 1
          },
          "material": 0
        }
      ]
    },
    {
      "primitives": [
        {
          "attributes": {
            "POSITION": 2,
            "NORMAL": 3
          },
          "material": 1
        }
      ]
    },
    {
      "primitives": [
        {
          "attributes": {
            "POSITION": 4,
            "NORMAL": 5
          },
          "material": 2
        }
      ]
    }
  ],
  "nodes": [
    {
      "children": [
        1
      ]
    },
    {
      "children": [
        2,
        3,
        4
      ]
    },
    {
      "extensions": {
        "KITTYCAD_boundary_representation": {
          "solid": 0
        }
      },
      "mesh": 0
    },
    {
      "extensions": {
        "KITTYCAD_boundary_representation": {
          "solid": 1
        }
      },
      "mesh": 1
    },
    {
      "extensions": {
        "KITTYCAD_boundary_representation": {
          "solid": 2
        }
      },
      "mesh": 2
    }
  ],
  "scenes": [
    {
      "nodes": [
        0
      ]
    }
  ]
}