{
  "accessors": [
    {
      "bufferView": 0,
      "byteOffset": 0,
      "count": 384,
      "componentType": 5126,
      "type": "VEC3",
      "min": [
        -0.057999998331069946,
        0,
        -0.009999999776482582
      ],
      "max": [
        0,
        0.009999999776482582,
        0.009999999776482582
      ]
    },
    {
      "bufferView": 0,
      "byteOffset": 12,
      "count": 384,
      "componentType": 5126,
      "type": "VEC3"
    },
    {
      "bufferView": 1,
      "byteOffset": 0,
      "count": 384,
      "componentType": 5126,
      "type": "VEC3",
      "min": [
        -0.057999998331069946,
        -0.009999999776482582,
        -0.009999999776482582
      ],
      "max": [
        0,
        0,
        0.009999999776482582
      ]
    },
    {
      "bufferView": 1,
      "byteOffset": 12,
      "count": 384,
      "componentType": 5126,
      "type": "VEC3"
    },
    {
      "bufferView": 2,
      "byteOffset": 0,
      "count": 378,
      "componentType": 5126,
      "type": "VEC3",
      "min": [
        -0.057999998331069946,
        -0.009999999776482582,
        -0.009999999776482582
      ],
      "max": [
        -0.057999998331069946,
        0.009999999776482582,
        0.009999999776482582
      ]
    },
    {
      "bufferView": 2,
      "byteOffset": 12,
      "count": 378,
      "componentType": 5126,
      "type": "VEC3"
    },
    {
      "bufferView": 3,
      "byteOffset": 0,
      "count": 378,
      "componentType": 5126,
      "type": "VEC3",
      "min": [
        0,
        -0.009999999776482582,
        -0.009999999776482582
      ],
      "max": [
        0,
        0.009999999776482582,
        0.009999999776482582
      ]
    },
    {
      "bufferView": 3,
      "byteOffset": 12,
      "count": 378,
      "componentType": 5126,
      "type": "VEC3"
    },
    {
      "bufferView": 4,
      "byteOffset": 0,
      "count": 384,
      "componentType": 5126,
      "type": "VEC3",
      "min": [
        0,
        -0.017999999225139618,
        -0.017999999225139618
      ],
      "max": [
        0.035999998450279236,
        0.000000000000000002204364160945374,
        0.017999999225139618
      ]
    },
    {
      "bufferView": 4,
      "byteOffset": 12,
      "count": 384,
      "componentType": 5126,
      "type": "VEC3"
    },
    {
      "bufferView": 5,
      "byteOffset": 0,
      "count": 378,
      "componentType": 5126,
      "type": "VEC3",
      "min": [
        0,
        -0.017999999225139618,
        -0.017999999225139618
      ],
      "max": [
        0,
        0.017999999225139618,
        0.017999999225139618
      ]
    },
    {
      "bufferView": 5,
      "byteOffset": 12,
      "count": 378,
      "componentType": 5126,
      "type": "VEC3"
    },
    {
      "bufferView": 6,
      "byteOffset": 0,
      "count": 378,
      "componentType": 5126,
      "type": "VEC3",
      "min": [
        0.035999998450279236,
        -0.017999999225139618,
        -0.017999999225139618
      ],
      "max": [
        0.035999998450279236,
        0.017999999225139618,
        0.017999999225139618
      ]
    },
    {
      "bufferView": 6,
      "byteOffset": 12,
      "count": 378,
      "componentType": 5126,
      "type": "VEC3"
    },
    {
      "bufferView": 7,
      "byteOffset": 0,
      "count": 384,
      "componentType": 5126,
      "type": "VEC3",
      "min": [
        0,
        0,
        -0.017999999225139618
      ],
      "max": [
        0.035999998450279236,
        0.017999999225139618,
        0.017999999225139618
      ]
    },
    {
      "bufferView": 7,
      "byteOffset": 12,
      "count": 384,
      "componentType": 5126,
      "type": "VEC3"
    }
  ],
  "asset": {
    "generator": "zoo.dev",
    "version": "2.0"
  },
  "buffers": [
    {
      "byteLength": 73152,
      "uri": "data:application/octet-stream;base64,"
    }
  ],
  "bufferViews": [
    {
      "buffer": 0,
      "byteLength": 9216,
      "byteOffset": 0,
      "byteStride": 24,
      "target": 34962
    },
    {
      "buffer": 0,
      "byteLength": 9216,
      "byteOffset": 9216,
      "byteStride": 24,
      "target": 34962
    },
    {
      "buffer": 0,
      "byteLength": 9072,
      "byteOffset": 18432,
      "byteStride": 24,
      "target": 34962
    },
    {
      "buffer": 0,
      "byteLength": 9072,
      "byteOffset": 27504,
      "byteStride": 24,
      "target": 34962
    },
    {
      "buffer": 0,
      "byteLength": 9216,
      "byteOffset": 36576,
      "byteStride": 24,
      "target": 34962
    },
    {
      "buffer": 0,
      "byteLength": 9072,
      "byteOffset": 45792,
      "byteStride": 24,
      "target": 34962
    },
    {
      "buffer": 0,
      "byteLength": 9072,
      "byteOffset": 54864,
      "byteStride": 24,
      "target": 34962
    },
    {
      "buffer": 0,
      "byteLength": 9216,
      "byteOffset": 63936,
      "byteStride": 24,
      "target": 34962
    }
  ],
  "scene": 0,
  "extensions": {
    "KITTYCAD_boundary_representation": {
      "solids": [
        {
          "shells": [
            [
              0,
              1
            ]
          ],
          "mesh": 0,
          "extras": {
            "KITTYCAD": {
              "material": 0
            }
          }
        },
        {
          "shells": [
            [
              1,
              1
            ]
          ],
          "mesh": 1,
          "extras": {
            "KITTYCAD": {
              "material": 1
            }
          }
        }
      ],
      "shells": [
        {
          "faces": [
            [
              0,
              1
            ],
            [
              1,
              1
            ],
            [
              2,
              1
            ],
            [
              3,
              1
            ]
          ]
        },
        {
          "faces": [
            [
              4,
              1
            ],
            [
              5,
              1
            ],
            [
              6,
              1
            ],
            [
              7,
              1
            ]
          ]
        }
      ],
      "faces": [
        {
          "surface": [
            0,
            1
          ],
          "loops": [
            [
              0,
              1
            ]
          ]
        },
        {
          "surface": [
            1,
            1
          ],
          "loops": [
            [
              1,
              1
            ]
          ]
        },
        {
          "surface": [
            2,
            -1
          ],
          "loops": [
            [
              2,
              1
            ]
          ]
        },
        {
          "surface": [
            3,
            1
          ],
          "loops": [
            [
              3,
              1
            ]
          ]
        },
        {
          "surface": [
            4,
            1
          ],
          "loops": [
            [
              4,
              1
            ]
          ]
        },
        {
          "surface": [
            5,
            -1
          ],
          "loops": [
            [
              5,
              1
            ]
          ]
        },
        {
          "surface": [
            6,
            1
          ],
          "loops": [
            [
              6,
              1
            ]
          ]
        },
        {
          "surface": [
            4,
            1
          ],
          "loops": [
            [
              7,
              1
            ]
          ]
        }
      ],
      "loops": [
        {
          "edges": [
            [
              0,
              1
            ],
            [
              1,
              -1
            ],
            [
              2,
              -1
            ],
            [
              3,
              -1
            ]
          ]
        },
        {
          "edges": [
            [
              4,
              1
            ],
            [
              3,
              1
            ],
            [
              5,
              -1
            ],
            [
              1,
              1
            ]
          ]
        },
        {
          "edges": [
            [
              2,
              1
            ],
            [
              5,
              1
            ]
          ]
        },
        {
          "edges": [
            [
              4,
              -1
            ],
            [
              0,
              -1
            ]
          ]
        },
        {
          "edges": [
            [
              6,
              1
            ],
            [
              7,
              1
            ],
            [
              8,
              -1
            ],
            [
              9,
              -1
            ]
          ]
        },
        {
          "edges": [
            [
              7,
              -1
            ],
            [
              10,
              -1
            ]
          ]
        },
        {
          "edges": [
            [
              11,
              1
            ],
            [
              9,
              1
            ]
          ]
        },
        {
          "edges": [
            [
              6,
              -1
            ],
            [
              11,
              -1
            ],
            [
              8,
              1
            ],
            [
              10,
              1
            ]
          ]
        }
      ],
      "edges": [
        {
          "curve": [
            0,
            1
          ],
          "start": 0,
          "end": 1,
          "t": [
            0,
            3.141592653589793
          ]
        },
        {
          "curve": [
            1,
            1
          ],
          "start": 2,
          "end": 1,
          "t": [
            0,
            0.058
          ]
        },
        {
          "curve": [
            2,
            1
          ],
          "start": 3,
          "end": 2,
          "t": [
            0,
            3.141592653589793
          ]
        },
        {
          "curve": [
            3,
            1
          ],
          "start": 0,
          "end": 3,
          "t": [
            0,
            0.058
          ]
        },
        {
          "curve": [
            4,
            1
          ],
          "start": 1,
          "end": 0,
          "t": [
            0,
            3.141592653589793
          ]
        },
        {
          "curve": [
            5,
            1
          ],
          "start": 2,
          "end": 3,
          "t": [
            0,
            3.141592653589793
          ]
        },
        {
          "curve": [
            6,
            -1
          ],
          "start": 4,
          "end": 5,
          "t": [
            -0.018,
            0.018
          ]
        },
        {
          "curve": [
            7,
            1
          ],
          "start": 5,
          "end": 6,
          "t": [
            3.141592653589793,
            6.283185307179586
          ]
        },
        {
          "curve": [
            8,
            -1
          ],
          "start": 7,
          "end": 6,
          "t": [
            -0.018,
            0.018
          ]
        },
        {
          "curve": [
            9,
            1
          ],
          "start": 4,
          "end": 7,
          "t": [
            3.141592653589793,
            6.283185307179586
          ]
        },
        {
          "curve": [
            7,
            1
          ],
          "start": 6,
          "end": 5,
          "t": [
            0,
            3.141592653589793
          ]
        },
        {
          "curve": [
            9,
            1
          ],
          "start": 7,
          "end": 4,
          "t": [
            0,
            3.141592653589793
          ]
        }
      ],
      "vertices": [
        [
          0,
          0,
          0.01
        ],
        [
          0,
          0,
          -0.01
        ],
        [
          -0.058,
          0,
          -0.01
        ],
        [
          -0.058,
          0,
          0.01
        ],
        [
          0.036,
          0.000000000000000002204364238465236,
          0.018
        ],
        [
          0,
          0.000000000000000002204364238465236,
          0.018
        ],
        [
          0,
          0,
          -0.018
        ],
        [
          0.036,
          0,
          -0.018
        ]
      ],
      "surfaces": [
        {
          "type": "cylinder",
          "cylinder": {
            "xAxis": [
              0,
              0,
              1
            ],
            "yAxis": [
              0,
              1,
              -0
            ],
            "origin": [
              -0.029,
              -0,
              -0
            ],
            "radius": 0.01
          }
        },
        {
          "type": "cylinder",
          "cylinder": {
            "xAxis": [
              0,
              0,
              -1
            ],
            "yAxis": [
              0,
              -1,
              -0
            ],
            "origin": [
              -0.029,
              0,
              -0
            ],
            "radius": 0.01
          }
        },
        {
          "type": "plane",
          "plane": {
            "xAxis": [
              -0,
              1,
              0
            ],
            "yAxis": [
              0,
              -0,
              1
            ],
            "origin": [
              -0.058,
              0,
              -0
            ]
          }
        },
        {
          "type": "plane",
          "plane": {
            "xAxis": [
              -0,
              1,
              0
            ],
            "yAxis": [
              0,
              -0,
              1
            ],
            "origin": [
              0,
              0,
              -0
            ]
          }
        },
        {
          "type": "cylinder",
          "cylinder": {
            "xAxis": [
              0,
              0,
              -1
            ],
            "yAxis": [
              0,
              1,
              0
            ],
            "origin": [
              0.018,
              -0,
              0
            ],
            "radius": 0.018
          }
        },
        {
          "type": "plane",
          "plane": {
            "xAxis": [
              -0,
              1,
              0
            ],
            "yAxis": [
              0,
              -0,
              1
            ],
            "origin": [
              0,
              0,
              -0
            ]
          }
        },
        {
          "type": "plane",
          "plane": {
            "xAxis": [
              -0,
              1,
              0
            ],
            "yAxis": [
              0,
              -0,
              1
            ],
            "origin": [
              0.036,
              0,
              -0
            ]
          }
        }
      ],
      "curves3D": [
        {
          "type": "circle",
          "circle": {
            "xAxis": [
              0,
              0,
              1
            ],
            "yAxis": [
              0,
              1,
              -0
            ],
            "origin": [
              0,
              0,
              0
            ],
            "radius": 0.01
          }
        },
        {
          "type": "line",
          "line": {
            "origin": [
              -0.058,
              0,
              -0.01
            ],
            "direction": [
              1,
              0,
              -0
            ]
          }
        },
        {
          "type": "circle",
          "circle": {
            "xAxis": [
              0,
              0,
              1
            ],
            "yAxis": [
              0,
              1,
              -0
            ],
            "origin": [
              -0.058,
              0,
              0
            ],
            "radius": 0.01
          }
        },
        {
          "type": "line",
          "line": {
            "origin": [
              0,
              0,
              0.01
            ],
            "direction": [
              -1,
              0,
              0
            ]
          }
        },
        {
          "type": "circle",
          "circle": {
            "xAxis": [
              0,
              0,
              -1
            ],
            "yAxis": [
              -0,
              -1,
              -0
            ],
            "origin": [
              0,
              0,
              0
            ],
            "radius": 0.01
          }
        },
        {
          "type": "circle",
          "circle": {
            "xAxis": [
              0,
              0,
              -1
            ],
            "yAxis": [
              -0,
              -1,
              -0
            ],
            "origin": [
              -0.058,
              0,
              0
            ],
            "radius": 0.01
          }
        },
        {
          "type": "line",
          "line": {
            "origin": [
              0.018,
              0.000000000000000002204364238465236,
              0.018
            ],
            "direction": [
              1,
              0,
              -0
            ]
          }
        },
        {
          "type": "circle",
          "circle": {
            "xAxis": [
              0,
              0,
              -1
            ],
            "yAxis": [
              -0,
              1,
              0
            ],
            "origin": [
              0,
              0,
              0
            ],
            "radius": 0.018
          }
        },
        {
          "type": "line",
          "line": {
            "origin": [
              0.018,
              0,
              -0.018
            ],
            "direction": [
              1,
              0,
              -0
            ]
          }
        },
        {
          "type": "circle",
          "circle": {
            "xAxis": [
              0,
              0,
              -1
            ],
            "yAxis": [
              -0,
              1,
              0
            ],
            "origin": [
              0.036,
              0,
              0
            ],
            "radius": 0.018
          }
        }
      ]
    }
  },
  "extensionsUsed": [
    "KITTYCAD_boundary_representation"
  ],
  "materials": [
    {
      "alphaMode": "OPAQUE",
      "doubleSided": false,
      "pbrMetallicRoughness": {
        "baseColorFactor": [
          0.9,
          0.9,
          0.9,
          1
        ],
        "metallicFactor": 1,
        "roughnessFactor": 1
      },
      "emissiveFactor": [
        0,
        0,
        0
      ]
    },
    {
      "alphaMode": "OPAQUE",
      "doubleSided": false,
      "pbrMetallicRoughness": {
        "baseColorFactor": [
          0.9,
          0.9,
          0.9,
          1
        ],
        "metallicFactor": 1,
        "roughnessFactor": 1
      },
      "emissiveFactor": [
        0,
        0,
        0
      ]
    }
  ],
  "meshes": [
    {
      "primitives": [
        {
          "attributes": {
            "POSITION": 0,
            "NORMAL": 1
          },
          "material": 0
        },
        {
          "attributes": {
            "POSITION": 2,
            "NORMAL": 3
          },
          "material": 0
        },
        {
          "attributes": {
            "POSITION": 4,
            "NORMAL": 5
          },
          "material": 0
        },
        {
          "attributes": {
            "POSITION": 6,
            "NORMAL": 7
          },
          "material": 0
        }
      ]
    },
    {
      "primitives": [
        {
          "attributes": {
            "POSITION": 8,
            "NORMAL": 9
          },
          "material": 1
        },
        {
          "attributes": {
            "POSITION": 10,
            "NORMAL": 11
          },
          "material": 1
        },
        {
          "attributes": {
            "POSITION": 12,
            "NORMAL": 13
          },
          "material": 1
        },
        {
          "attributes": {
            "POSITION": 14,
            "NORMAL": 15
          },
          "material": 1
        }
      ]
    }
  ],
  "nodes": [
    {
      "children": [
        1
      ]
    },
    {
      "children": [
        2,
        3
      ]
    },
    {
      "extensions": {
        "KITTYCAD_boundary_representation": {
          "solid": 0
        }
      },
      "mesh": 0
    },
    {
      "extensions": {
        "KITTYCAD_boundary_representation": {
          "solid": 1
        }
      },
      "mesh": 1
    }
  ],
  "scenes": [
    {
      "nodes": [
        0
      ]
    }
  ]
}