{
  "accessors": [
    {
      "bufferView": 0,
      "byteOffset": 0,
      "count": 2739,
      "componentType": 5126,
      "type": "VEC3",
      "min": [
        -0.0020000000949949026,
        -0.0019996322225779295,
        -0.004999999888241291
      ],
      "max": [
        0.0020000000949949026,
        0,
        0.004999999888241291
      ]
    },
    {
      "bufferView": 0,
      "byteOffset": 12,
      "count": 2739,
      "componentType": 5126,
      "type": "VEC3"
    }
  ],
  "asset": {
    "generator": "zoo.dev",
    "version": "2.0"
  },
  "buffers": [
    {
      "byteLength": 65736,
      "uri": "data:application/octet-stream;base64,"
    }
  ],
  "bufferViews": [
    {
      "buffer": 0,
      "byteLength": 65736,
      "byteOffset": 0,
      "byteStride": 24,
      "target": 34962
    }
  ],
  "scene": 0,
  "extensions": {
    "KITTYCAD_boundary_representation": {
      "solids": [
        {
          "shells": [
            [
              0,
              1
            ]
          ],
          "mesh": 0,
          "extras": {
            "KITTYCAD": {
              "material": 0
            }
          }
        }
      ],
      "shells": [
        {
          "faces": [
            [
              0,
              1
            ]
          ]
        }
      ],
      "faces": [
        {
          "surface": [
            0,
            1
          ],
          "loops": [
            [
              0,
              1
            ]
          ]
        }
      ],
      "loops": [
        {
          "edges": [
            [
              0,
              1
            ],
            [
              1,
              1
            ],
            [
              2,
              1
            ],
            [
              3,
              1
            ]
          ]
        }
      ],
      "edges": [
        {
          "curve": [
            0,
            1
          ],
          "start": 0,
          "end": 1,
          "t": [
            0,
            0.006
          ]
        },
        {
          "curve": [
            1,
            1
          ],
          "start": 1,
          "end": 2,
          "t": [
            0,
            3.141592653589793
          ]
        },
        {
          "curve": [
            2,
            1
          ],
          "start": 2,
          "end": 3,
          "t": [
            0,
            0.006000000000000001
          ]
        },
        {
          "curve": [
            3,
            1
          ],
          "start": 3,
          "end": 0,
          "t": [
            0,
            3.141592653589793
          ]
        }
      ],
      "vertices": [
        [
          0.002,
          0,
          -0.003
        ],
        [
          0.002,
          0,
          0.003
        ],
        [
          -0.002,
          0,
          0.0030000000000000005
        ],
        [
          -0.002,
          0,
          -0.0030000000000000005
        ]
      ],
      "surfaces": [
        {
          "type": "nurbs",
          "nurbs": {
            "controlPoints": [
              [
                0.002,
                -0,
                -0.003
              ],
              [
                0.002,
                -0,
                -0.004999999999999998
              ],
              [
                0.00000000000000000012246467991473536,
                -0,
                -0.005
              ],
              [
                -0.001999999999999999,
                -0,
                -0.004999999999999998
              ],
              [
                -0.002,
                -0,
                -0.0030000000000000005
              ],
              [
                0.002,
                0,
                -0
              ],
              [
                0.002,
                -0.003999999999999999,
                -0
              ],
              [
                0.00000000000000000012246467991473534,
                -0.004,
                -0
              ],
              [
                -0.0019999999999999996,
                -0.003999999999999999,
                -0
              ],
              [
                -0.002,
                -0.0000000000000000004898587196589414,
                -0
              ],
              [
                0.002,
                0,
                0.003
              ],
              [
                0.002,
                0,
                0.005
              ],
              [
                0.00000000000000000012246467991473531,
                0,
                0.005
              ],
              [
                -0.002,
                0,
                0.005
              ],
              [
                -0.002,
                0,
                0.0030000000000000005
              ]
            ],
            "numControlPoints": [
              3,
              5
            ],
            "numKnots": [
              6,
              8
            ],
            "knotVector": [
              0,
              0,
              0,
              1,
              1,
              1,
              0,
              0,
              0,
              0.5,
              0.5,
              1,
              1,
              1
            ],
            "weights": [
              1,
              0.7071067811865478,
              1,
              0.7071067811865478,
              1,
              1,
              0.7071067811865477,
              1,
              0.7071067811865477,
              1,
              1,
              0.7071067811865476,
              1,
              0.7071067811865476,
              1
            ],
            "order": [
              3,
              3
            ]
          }
        }
      ],
      "curves3D": [
        {
          "type": "line",
          "line": {
            "origin": [
              0.002,
              0,
              -0.003
            ],
            "direction": [
              0,
              0,
              1
            ]
          }
        },
        {
          "type": "circle",
          "circle": {
            "xAxis": [
              1,
              0,
              0
            ],
            "yAxis": [
              -0,
              0,
              1
            ],
            "origin": [
              -0,
              -0,
              0.003
            ],
            "radius": 0.002
          }
        },
        {
          "type": "line",
          "line": {
            "origin": [
              -0.002,
              0,
              0.0030000000000000005
            ],
            "direction": [
              0,
              0,
              -1
            ]
          }
        },
        {
          "type": "circle",
          "circle": {
            "xAxis": [
              -1,
              0,
              -0.00000000000000022204460492503126
            ],
            "yAxis": [
              0.00000000000000022204460492503126,
              0,
              -1
            ],
            "origin": [
              0.0000000000000000004440892098500626,
              -0,
              -0.003
            ],
            "radius": 0.0020000000000000005
          }
        }
      ]
    }
  },
  "extensionsUsed": [
    "KITTYCAD_boundary_representation"
  ],
  "materials": [
    {
      "alphaMode": "OPAQUE",
      "doubleSided": false,
      "pbrMetallicRoughness": {
        "baseColorFactor": [
          0.9,
          0.9,
          0.9,
          1
        ],
        "metallicFactor": 1,
        "roughnessFactor": 1
      },
      "emissiveFactor": [
        0,
        0,
        0
      ]
    }
  ],
  "meshes": [
    {
      "primitives": [
        {
          "attributes": {
            "POSITION": 0,
            "NORMAL": 1
          },
          "material": 0
        }
      ]
    }
  ],
  "nodes": [
    {
      "children": [
        1
      ]
    },
    {
      "children": [
        2
      ]
    },
    {
      "extensions": {
        "KITTYCAD_boundary_representation": {
          "solid": 0
        }
      },
      "mesh": 0
    }
  ],
  "scenes": [
    {
      "nodes": [
        0
      ]
    }
  ]
}