{
  "accessors": [
    {
      "bufferView": 0,
      "byteOffset": 0,
      "count": 399,
      "componentType": 5126,
      "type": "VEC3",
      "min": [
        0,
        0.20000000298023224,
        -0.03449999913573265
      ],
      "max": [
        0.27125677466392517,
        0.20000000298023224,
        0.10001090168952942
      ]
    },
    {
      "bufferView": 0,
      "byteOffset": 12,
      "count": 399,
      "componentType": 5126,
      "type": "VEC3"
    }
  ],
  "asset": {
    "generator": "zoo.dev",
    "version": "2.0"
  },
  "buffers": [
    {
      "byteLength": 9576,
      "uri": "data:application/octet-stream;base64,"
    }
  ],
  "bufferViews": [
    {
      "buffer": 0,
      "byteLength": 9576,
      "byteOffset": 0,
      "byteStride": 24,
      "target": 34962
    }
  ],
  "scene": 0,
  "extensions": {
    "KITTYCAD_boundary_representation": {
      "solids": [
        {
          "shells": [
            [
              0,
              1
            ]
          ],
          "mesh": 0,
          "extras": {
            "KITTYCAD": {
              "material": 0
            }
          }
        }
      ],
      "shells": [
        {
          "faces": [
            [
              0,
              1
            ]
          ]
        }
      ],
      "faces": [
        {
          "surface": [
            0,
            1
          ],
          "loops": [
            [
              0,
              1
            ]
          ]
        }
      ],
      "loops": [
        {
          "edges": [
            [
              0,
              1
            ],
            [
              1,
              1
            ],
            [
              2,
              1
            ],
            [
              3,
              1
            ]
          ]
        }
      ],
      "edges": [
        {
          "curve": [
            0,
            1
          ],
          "start": 0,
          "end": 1,
          "t": [
            0,
            1
          ]
        },
        {
          "curve": [
            1,
            1
          ],
          "start": 1,
          "end": 2,
          "t": [
            0,
            0.10000000186148496
          ]
        },
        {
          "curve": [
            2,
            1
          ],
          "start": 2,
          "end": 3,
          "t": [
            -1,
            -0
          ]
        },
        {
          "curve": [
            3,
            1
          ],
          "start": 3,
          "end": 0,
          "t": [
            0,
            0.1
          ]
        }
      ],
      "vertices": [
        [
          0,
          0.2,
          0.1
        ],
        [
          0.27125677,
          0.2,
          0.04950121
        ],
        [
          0.217,
          0.2,
          -0.0345
        ],
        [
          0,
          0.2,
          -0
        ]
      ],
      "surfaces": [
        {
          "type": "plane",
          "plane": {
            "xAxis": [
              1,
              0,
              0
            ],
            "yAxis": [
              0,
              0,
              -1
            ],
            "origin": [
              0.1,
              0.2,
              0.05
            ]
          }
        }
      ],
      "curves3D": [
        {
          "type": "nurbs",
          "nurbs": {
            "controlPoints": [
              [
                -0,
                0.2,
                0.1
              ],
              [
                0.01250004,
                0.2,
                0.1
              ],
              [
                0.03124995,
                0.2,
                0.1
              ],
              [
                0.04375032,
                0.2,
                0.09999999
              ],
              [
                0.05624811,
                0.2,
                0.10000006
              ],
              [
                0.06876117,
                0.2,
                0.09999966
              ],
              [
                0.08118408,
                0.2,
                0.10000195
              ],
              [
                0.09251922,
                0.2,
                0.09999027
              ],
              [
                0.09915331,
                0.2,
                0.10002464
              ],
              [
                0.11434972,
                0.2,
                0.09981125
              ],
              [
                0.13360835,
                0.2,
                0.09839966
              ],
              [
                0.15612742,
                0.2,
                0.09517991
              ],
              [
                0.17834464,
                0.2,
                0.09033411
              ],
              [
                0.20020047,
                0.2,
                0.08389025
              ],
              [
                0.22150416,
                0.2,
                0.07589815
              ],
              [
                0.25231577,
                0.2,
                0.06173531
              ],
              [
                0.27125677,
                0.2,
                0.04950121
              ]
            ],
            "order": 3,
            "knotVector": [
              0,
              0,
              0,
              0.125,
              0.1875,
              0.25,
              0.3125,
              0.375,
              0.4375,
              0.484375,
              0.515625,
              0.5625,
              0.625,
              0.6875,
              0.75,
              0.8125,
              0.875,
              1,
              1,
              1
            ],
            "weights": [
              1,
              0.99999996,
              1.00000006,
              0.99999966,
              1.00000197,
              0.99998851,
              1.00006698,
              0.9996668,
              1.00084483,
              0.99357457,
              0.98731375,
              0.98212406,
              0.97958689,
              0.97958436,
              0.9821367,
              0.98979232,
              1
            ]
          }
        },
        {
          "type": "line",
          "line": {
            "origin": [
              0.27125677,
              0.2,
              0.04950121
            ],
            "direction": [
              -0.5425676899001839,
              0,
              -0.8400120843633013
            ]
          }
        },
        {
          "type": "nurbs",
          "nurbs": {
            "controlPoints": [
              [
                0.217,
                0.2,
                -0.0345
              ],
              [
                0.20405979,
                0.2,
                -0.02614185
              ],
              [
                0.1830098,
                0.2,
                -0.01646601
              ],
              [
                0.16845529,
                0.2,
                -0.01100594
              ],
              [
                0.15352468,
                0.2,
                -0.00660359
              ],
              [
                0.13834064,
                0.2,
                -0.00329301
              ],
              [
                0.12298827,
                0.2,
                -0.00109333
              ],
              [
                0.10966727,
                0.2,
                -0.00012895
              ],
              [
                0.0997645,
                0.2,
                0.00001683
              ],
              [
                0.09227789,
                0.2,
                -0.00000665
              ],
              [
                0.08123257,
                0.2,
                0.00000134
              ],
              [
                0.06875285,
                0.2,
                -0.00000023
              ],
              [
                0.05624954,
                0.2,
                0.00000004
              ],
              [
                0.04375008,
                0.2,
                -0.00000001
              ],
              [
                0.03124999,
                0.2,
                0
              ],
              [
                0.01250001,
                0.2,
                -0
              ],
              [
                -0,
                0.2,
                0
              ]
            ],
            "order": 3,
            "knotVector": [
              -1,
              -1,
              -1,
              -0.875,
              -0.8125,
              -0.75,
              -0.6875,
              -0.625,
              -0.5625,
              -0.515625,
              -0.484375,
              -0.4375,
              -0.375,
              -0.3125,
              -0.25,
              -0.1875,
              -0.125,
              -0,
              -0,
              -0
            ],
            "weights": [
              1,
              0.98979232,
              0.9821367,
              0.97958436,
              0.97958689,
              0.98212406,
              0.98731375,
              0.99357457,
              1.00084483,
              0.9996668,
              1.00006698,
              0.99998851,
              1.00000197,
              0.99999966,
              1.00000006,
              0.99999996,
              1
            ]
          }
        },
        {
          "type": "line",
          "line": {
            "origin": [
              0,
              0.2,
              -0
            ],
            "direction": [
              0,
              0,
              1
            ]
          }
        }
      ]
    }
  },
  "extensionsUsed": [
    "KITTYCAD_boundary_representation"
  ],
  "materials": [
    {
      "alphaMode": "OPAQUE",
      "doubleSided": false,
      "pbrMetallicRoughness": {
        "baseColorFactor": [
          0.9,
          0.9,
          0.9,
          1
        ],
        "metallicFactor": 1,
        "roughnessFactor": 1
      },
      "emissiveFactor": [
        0,
        0,
        0
      ]
    }
  ],
  "meshes": [
    {
      "primitives": [
        {
          "attributes": {
            "POSITION": 0,
            "NORMAL": 1
          },
          "material": 0
        }
      ]
    }
  ],
  "nodes": [
    {
      "children": [
        1
      ]
    },
    {
      "children": [
        2
      ]
    },
    {
      "extensions": {
        "KITTYCAD_boundary_representation": {
          "solid": 0
        }
      },
      "mesh": 0
    }
  ],
  "scenes": [
    {
      "nodes": [
        0
      ]
    }
  ]
}