{
  "accessors": [
    {
      "bufferView": 0,
      "byteOffset": 0,
      "count": 390,
      "componentType": 5126,
      "type": "VEC3",
      "min": [
        -0,
        0.20000000298023224,
        -0.03449999913573265
      ],
      "max": [
        0.27125677466392517,
        0.20000000298023224,
        0.10000000149011612
      ]
    },
    {
      "bufferView": 0,
      "byteOffset": 12,
      "count": 390,
      "componentType": 5126,
      "type": "VEC3"
    }
  ],
  "asset": {
    "generator": "zoo.dev",
    "version": "2.0"
  },
  "buffers": [
    {
      "byteLength": 9360,
      "uri": "data:application/octet-stream;base64,"
    }
  ],
  "bufferViews": [
    {
      "buffer": 0,
      "byteLength": 9360,
      "byteOffset": 0,
      "byteStride": 24,
      "target": 34962
    }
  ],
  "scene": 0,
  "extensions": {
    "KITTYCAD_boundary_representation": {
      "solids": [
        {
          "shells": [
            [
              0,
              1
            ]
          ],
          "mesh": 0,
          "extras": {
            "KITTYCAD": {
              "material": 0
            }
          }
        }
      ],
      "shells": [
        {
          "faces": [
            [
              0,
              1
            ]
          ]
        }
      ],
      "faces": [
        {
          "surface": [
            0,
            -1
          ],
          "loops": [
            [
              0,
              1
            ]
          ]
        }
      ],
      "loops": [
        {
          "edges": [
            [
              0,
              -1
            ],
            [
              1,
              -1
            ],
            [
              2,
              -1
            ],
            [
              3,
              -1
            ]
          ]
        }
      ],
      "edges": [
        {
          "curve": [
            0,
            1
          ],
          "start": 0,
          "end": 1,
          "t": [
            0,
            0.10000000186148496
          ]
        },
        {
          "curve": [
            1,
            1
          ],
          "start": 2,
          "end": 0,
          "t": [
            0,
            2
          ]
        },
        {
          "curve": [
            2,
            1
          ],
          "start": 3,
          "end": 2,
          "t": [
            0,
            0.1
          ]
        },
        {
          "curve": [
            3,
            1
          ],
          "start": 1,
          "end": 3,
          "t": [
            -2,
            -0
          ]
        }
      ],
      "vertices": [
        [
          0.217,
          0.2,
          -0.0345
        ],
        [
          0.27125677,
          0.2,
          0.04950121
        ],
        [
          -0,
          0.2,
          -0
        ],
        [
          -0,
          0.2,
          0.1
        ]
      ],
      "surfaces": [
        {
          "type": "plane",
          "plane": {
            "xAxis": [
              1,
              0,
              0
            ],
            "yAxis": [
              -0,
              0,
              1
            ],
            "origin": [
              0.1,
              0.2,
              0.05
            ]
          }
        }
      ],
      "curves3D": [
        {
          "type": "line",
          "line": {
            "origin": [
              0.217,
              0.2,
              -0.0345
            ],
            "direction": [
              0.5425676899001839,
              0,
              0.8400120843633013
            ]
          }
        },
        {
          "type": "nurbs",
          "nurbs": {
            "controlPoints": [
              [
                -0,
                0.2,
                -0
              ],
              [
                0.0125,
                0.2,
                -0
              ],
              [
                0.0375,
                0.2,
                -0
              ],
              [
                0.075,
                0.2,
                -0
              ],
              [
                0.1,
                0.2,
                -0
              ],
              [
                0.13097258,
                0.2,
                0.00002258
              ],
              [
                0.19099491,
                0.2,
                -0.01767631
              ],
              [
                0.217,
                0.2,
                -0.0345
              ]
            ],
            "order": 3,
            "knotVector": [
              0,
              0,
              0,
              0.25,
              0.5,
              1,
              1,
              1.5,
              2,
              2,
              2
            ],
            "weights": [
              2,
              2,
              2,
              2,
              2,
              1.97958473,
              1.97958473,
              2
            ]
          }
        },
        {
          "type": "line",
          "line": {
            "origin": [
              -0,
              0.2,
              0.1
            ],
            "direction": [
              0,
              0,
              -1
            ]
          }
        },
        {
          "type": "nurbs",
          "nurbs": {
            "controlPoints": [
              [
                0.27125677,
                0.2,
                0.04950121
              ],
              [
                0.23319226,
                0.2,
                0.0741266
              ],
              [
                0.14533559,
                0.2,
                0.10003306
              ],
              [
                0.1,
                0.2,
                0.1
              ],
              [
                0.075,
                0.2,
                0.1
              ],
              [
                0.0375,
                0.2,
                0.1
              ],
              [
                0.0125,
                0.2,
                0.1
              ],
              [
                -0,
                0.2,
                0.1
              ]
            ],
            "order": 3,
            "knotVector": [
              -2,
              -2,
              -2,
              -1.5,
              -1,
              -1,
              -0.5,
              -0.25,
              -0,
              -0,
              -0
            ],
            "weights": [
              2,
              1.97958473,
              1.97958473,
              2,
              2,
              2,
              2,
              2
            ]
          }
        }
      ]
    }
  },
  "extensionsUsed": [
    "KITTYCAD_boundary_representation"
  ],
  "materials": [
    {
      "alphaMode": "OPAQUE",
      "doubleSided": false,
      "pbrMetallicRoughness": {
        "baseColorFactor": [
          0.9,
          0.9,
          0.9,
          1
        ],
        "metallicFactor": 1,
        "roughnessFactor": 1
      },
      "emissiveFactor": [
        0,
        0,
        0
      ]
    }
  ],
  "meshes": [
    {
      "primitives": [
        {
          "attributes": {
            "POSITION": 0,
            "NORMAL": 1
          },
          "material": 0
        }
      ]
    }
  ],
  "nodes": [
    {
      "children": [
        1
      ]
    },
    {
      "children": [
        2
      ]
    },
    {
      "extensions": {
        "KITTYCAD_boundary_representation": {
          "solid": 0
        }
      },
      "mesh": 0
    }
  ],
  "scenes": [
    {
      "nodes": [
        0
      ]
    }
  ]
}