{
  "accessors": [
    {
      "bufferView": 0,
      "byteOffset": 0,
      "count": 192,
      "componentType": 5126,
      "type": "VEC3",
      "min": [
        -0.23262999951839447,
        0,
        -0.0629199966788292
      ],
      "max": [
        -0.16737000644207,
        0.23181000351905823,
        -0.03029000014066696
      ]
    },
    {
      "bufferView": 0,
      "byteOffset": 12,
      "count": 192,
      "componentType": 5126,
      "type": "VEC3"
    },
    {
      "bufferView": 1,
      "byteOffset": 0,
      "count": 186,
      "componentType": 5126,
      "type": "VEC3",
      "min": [
        -0.23262999951839447,
        0,
        -0.0629199966788292
      ],
      "max": [
        -0.16737000644207,
        0,
        0.0023399998899549246
      ]
    },
    {
      "bufferView": 1,
      "byteOffset": 12,
      "count": 186,
      "componentType": 5126,
      "type": "VEC3"
    },
    {
      "bufferView": 2,
      "byteOffset": 0,
      "count": 2856,
      "componentType": 5126,
      "type": "VEC3",
      "min": [
        -0.23262999951839447,
        0.23181000351905823,
        -0.07999999821186066
      ],
      "max": [
        -0.20000000298023224,
        0.31415000557899475,
        0.0023399998899549246
      ]
    },
    {
      "bufferView": 2,
      "byteOffset": 12,
      "count": 2856,
      "componentType": 5126,
      "type": "VEC3"
    },
    {
      "bufferView": 3,
      "byteOffset": 0,
      "count": 192,
      "componentType": 5126,
      "type": "VEC3",
      "min": [
        -0.23262999951839447,
        0.2488899976015091,
        -0.46492999792099
      ],
      "max": [
        -0.16737000644207,
        0.2815200090408325,
        -0.07999999821186066
      ]
    },
    {
      "bufferView": 3,
      "byteOffset": 12,
      "count": 192,
      "componentType": 5126,
      "type": "VEC3"
    },
    {
      "bufferView": 4,
      "byteOffset": 0,
      "count": 186,
      "componentType": 5126,
      "type": "VEC3",
      "min": [
        -0.23262999951839447,
        0.2488899976015091,
        -0.46492999792099
      ],
      "max": [
        -0.16737000644207,
        0.31415000557899475,
        -0.46492999792099
      ]
    },
    {
      "bufferView": 4,
      "byteOffset": 12,
      "count": 186,
      "componentType": 5126,
      "type": "VEC3"
    },
    {
      "bufferView": 5,
      "byteOffset": 0,
      "count": 192,
      "componentType": 5126,
      "type": "VEC3",
      "min": [
        -0.23262999951839447,
        0,
        -0.03029000014066696
      ],
      "max": [
        -0.16737000644207,
        0.23181000351905823,
        0.0023399998899549246
      ]
    },
    {
      "bufferView": 5,
      "byteOffset": 12,
      "count": 192,
      "componentType": 5126,
      "type": "VEC3"
    },
    {
      "bufferView": 6,
      "byteOffset": 0,
      "count": 2856,
      "componentType": 5126,
      "type": "VEC3",
      "min": [
        -0.20000000298023224,
        0.23181000351905823,
        -0.07999999821186066
      ],
      "max": [
        -0.16737000644207,
        0.31415000557899475,
        0.0023399998899549246
      ]
    },
    {
      "bufferView": 6,
      "byteOffset": 12,
      "count": 2856,
      "componentType": 5126,
      "type": "VEC3"
    },
    {
      "bufferView": 7,
      "byteOffset": 0,
      "count": 192,
      "componentType": 5126,
      "type": "VEC3",
      "min": [
        -0.23262999951839447,
        0.2815200090408325,
        -0.46492999792099
      ],
      "max": [
        -0.16737000644207,
        0.31415000557899475,
        -0.07999999821186066
      ]
    },
    {
      "bufferView": 7,
      "byteOffset": 12,
      "count": 192,
      "componentType": 5126,
      "type": "VEC3"
    }
  ],
  "asset": {
    "generator": "zoo.dev",
    "version": "2.0"
  },
  "buffers": [
    {
      "byteLength": 164448,
      "uri": "data:application/octet-stream;base64,"
    }
  ],
  "bufferViews": [
    {
      "buffer": 0,
      "byteLength": 4608,
      "byteOffset": 0,
      "byteStride": 24,
      "target": 34962
    },
    {
      "buffer": 0,
      "byteLength": 4464,
      "byteOffset": 4608,
      "byteStride": 24,
      "target": 34962
    },
    {
      "buffer": 0,
      "byteLength": 68544,
      "byteOffset": 9072,
      "byteStride": 24,
      "target": 34962
    },
    {
      "buffer": 0,
      "byteLength": 4608,
      "byteOffset": 77616,
      "byteStride": 24,
      "target": 34962
    },
    {
      "buffer": 0,
      "byteLength": 4464,
      "byteOffset": 82224,
      "byteStride": 24,
      "target": 34962
    },
    {
      "buffer": 0,
      "byteLength": 4608,
      "byteOffset": 86688,
      "byteStride": 24,
      "target": 34962
    },
    {
      "buffer": 0,
      "byteLength": 68544,
      "byteOffset": 91296,
      "byteStride": 24,
      "target": 34962
    },
    {
      "buffer": 0,
      "byteLength": 4608,
      "byteOffset": 159840,
      "byteStride": 24,
      "target": 34962
    }
  ],
  "scene": 0,
  "extensions": {
    "KITTYCAD_boundary_representation": {
      "solids": [
        {
          "shells": [
            [
              0,
              1
            ]
          ],
          "mesh": 0,
          "extras": {
            "KITTYCAD": {
              "material": 0
            }
          }
        }
      ],
      "shells": [
        {
          "faces": [
            [
              0,
              1
            ],
            [
              1,
              1
            ],
            [
              2,
              1
            ],
            [
              3,
              1
            ],
            [
              4,
              1
            ],
            [
              5,
              1
            ],
            [
              6,
              1
            ],
            [
              7,
              1
            ]
          ]
        }
      ],
      "faces": [
        {
          "surface": [
            0,
            1
          ],
          "loops": [
            [
              0,
              1
            ]
          ]
        },
        {
          "surface": [
            1,
            -1
          ],
          "loops": [
            [
              1,
              1
            ]
          ]
        },
        {
          "surface": [
            2,
            1
          ],
          "loops": [
            [
              2,
              1
            ]
          ]
        },
        {
          "surface": [
            3,
            1
          ],
          "loops": [
            [
              3,
              1
            ]
          ]
        },
        {
          "surface": [
            4,
            1
          ],
          "loops": [
            [
              4,
              1
            ]
          ]
        },
        {
          "surface": [
            0,
            1
          ],
          "loops": [
            [
              5,
              1
            ]
          ]
        },
        {
          "surface": [
            2,
            1
          ],
          "loops": [
            [
              6,
              1
            ]
          ]
        },
        {
          "surface": [
            3,
            1
          ],
          "loops": [
            [
              7,
              1
            ]
          ]
        }
      ],
      "loops": [
        {
          "edges": [
            [
              0,
              1
            ],
            [
              1,
              1
            ],
            [
              2,
              -1
            ],
            [
              3,
              1
            ],
            [
              4,
              1
            ]
          ]
        },
        {
          "edges": [
            [
              1,
              -1
            ],
            [
              5,
              -1
            ]
          ]
        },
        {
          "edges": [
            [
              6,
              1
            ],
            [
              3,
              -1
            ],
            [
              7,
              -1
            ],
            [
              8,
              -1
            ],
            [
              9,
              -1
            ],
            [
              10,
              -1
            ]
          ]
        },
        {
          "edges": [
            [
              11,
              1
            ],
            [
              12,
              1
            ],
            [
              10,
              1
            ],
            [
              13,
              -1
            ],
            [
              14,
              -1
            ]
          ]
        },
        {
          "edges": [
            [
              15,
              1
            ],
            [
              14,
              1
            ]
          ]
        },
        {
          "edges": [
            [
              0,
              -1
            ],
            [
              16,
              1
            ],
            [
              7,
              1
            ],
            [
              2,
              1
            ],
            [
              5,
              1
            ]
          ]
        },
        {
          "edges": [
            [
              6,
              -1
            ],
            [
              12,
              -1
            ],
            [
              17,
              -1
            ],
            [
              8,
              1
            ],
            [
              16,
              -1
            ],
            [
              4,
              -1
            ]
          ]
        },
        {
          "edges": [
            [
              11,
              -1
            ],
            [
              15,
              -1
            ],
            [
              13,
              1
            ],
            [
              9,
              1
            ],
            [
              17,
              1
            ]
          ]
        }
      ],
      "edges": [
        {
          "curve": [
            0,
            -1
          ],
          "start": 0,
          "end": 1,
          "t": [
            -0.115905,
            0.115905
          ]
        },
        {
          "curve": [
            1,
            1
          ],
          "start": 1,
          "end": 2,
          "t": [
            3.141592653589793,
            6.283185307179586
          ]
        },
        {
          "curve": [
            2,
            -1
          ],
          "start": 3,
          "end": 2,
          "t": [
            -0.115905,
            0.115905
          ]
        },
        {
          "curve": [
            3,
            1
          ],
          "start": 3,
          "end": 4,
          "t": [
            0,
            1.5707963267948966
          ]
        },
        {
          "curve": [
            3,
            1
          ],
          "start": 4,
          "end": 0,
          "t": [
            1.5707963267948966,
            3.141592653589795
          ]
        },
        {
          "curve": [
            1,
            1
          ],
          "start": 2,
          "end": 1,
          "t": [
            0,
            3.141592653589793
          ]
        },
        {
          "curve": [
            4,
            -1
          ],
          "start": 5,
          "end": 4,
          "t": [
            0,
            1.5707963267948974
          ]
        },
        {
          "curve": [
            3,
            1
          ],
          "start": 6,
          "end": 3,
          "t": [
            4.71238898038469,
            6.283185307179586
          ]
        },
        {
          "curve": [
            5,
            -1
          ],
          "start": 7,
          "end": 6,
          "t": [
            0,
            1.5707963267948966
          ]
        },
        {
          "curve": [
            6,
            1
          ],
          "start": 8,
          "end": 7,
          "t": [
            0,
            1.5707963267948966
          ]
        },
        {
          "curve": [
            6,
            1
          ],
          "start": 5,
          "end": 8,
          "t": [
            4.71238898038469,
            6.283185307179586
          ]
        },
        {
          "curve": [
            7,
            -1
          ],
          "start": 9,
          "end": 10,
          "t": [
            -0.192465,
            0.192465
          ]
        },
        {
          "curve": [
            6,
            1
          ],
          "start": 10,
          "end": 5,
          "t": [
            3.141592653589793,
            4.71238898038469
          ]
        },
        {
          "curve": [
            8,
            -1
          ],
          "start": 11,
          "end": 8,
          "t": [
            -0.192465,
            0.192465
          ]
        },
        {
          "curve": [
            9,
            1
          ],
          "start": 9,
          "end": 11,
          "t": [
            3.141592653589793,
            6.283185307179586
          ]
        },
        {
          "curve": [
            9,
            1
          ],
          "start": 11,
          "end": 9,
          "t": [
            0,
            3.141592653589793
          ]
        },
        {
          "curve": [
            3,
            1
          ],
          "start": 0,
          "end": 6,
          "t": [
            3.141592653589795,
            4.71238898038469
          ]
        },
        {
          "curve": [
            6,
            1
          ],
          "start": 7,
          "end": 10,
          "t": [
            1.5707963267948966,
            3.141592653589793
          ]
        }
      ],
      "vertices": [
        [
          -0.16737000000000002,
          0.23181,
          -0.030289999999999952
        ],
        [
          -0.16736999999999996,
          0,
          -0.03028999999999997
        ],
        [
          -0.23263,
          0,
          -0.030290000000000015
        ],
        [
          -0.23263,
          0.23181,
          -0.030290000000000015
        ],
        [
          -0.2,
          0.23181,
          -0.06292
        ],
        [
          -0.2,
          0.24889,
          -0.08000000000000002
        ],
        [
          -0.2,
          0.23181,
          0.002339999999999988
        ],
        [
          -0.2,
          0.31415,
          -0.08000000000000002
        ],
        [
          -0.23263,
          0.28152,
          -0.08
        ],
        [
          -0.16737000000000002,
          0.28152,
          -0.46493
        ],
        [
          -0.16737000000000002,
          0.28152,
          -0.08000000000000002
        ],
        [
          -0.23263,
          0.28152,
          -0.46493
        ]
      ],
      "surfaces": [
        {
          "type": "cylinder",
          "cylinder": {
            "xAxis": [
              -1,
              0,
              -0.0000000000000006532725121913267
            ],
            "yAxis": [
              -0.0000000000000006532725121913267,
              0,
              1
            ],
            "origin": [
              -0.2,
              0.115905,
              -0.03028999999999999
            ],
            "radius": 0.03263000000000003
          }
        },
        {
          "type": "plane",
          "plane": {
            "xAxis": [
              1,
              0,
              0
            ],
            "yAxis": [
              0,
              0,
              -1
            ],
            "origin": [
              0,
              0,
              -0
            ]
          }
        },
        {
          "type": "torus",
          "torus": {
            "xAxis": [
              0,
              0,
              1
            ],
            "yAxis": [
              0,
              1,
              -0
            ],
            "origin": [
              -0.2,
              0.23181,
              -0.08
            ],
            "majorRadius": 0.04970999999999998,
            "minorRadius": 0.03263
          }
        },
        {
          "type": "cylinder",
          "cylinder": {
            "xAxis": [
              -1,
              0,
              -0
            ],
            "yAxis": [
              0,
              1,
              0
            ],
            "origin": [
              -0.2,
              0.28152,
              -0.272465
            ],
            "radius": 0.03262999999999999
          }
        },
        {
          "type": "plane",
          "plane": {
            "xAxis": [
              1,
              0,
              0
            ],
            "yAxis": [
              0,
              -1,
              0
            ],
            "origin": [
              0,
              0.31181,
              -0.46493
            ]
          }
        }
      ],
      "curves3D": [
        {
          "type": "line",
          "line": {
            "origin": [
              -0.16736999999999996,
              0.115905,
              -0.03028999999999997
            ],
            "direction": [
              0,
              1,
              0
            ]
          }
        },
        {
          "type": "circle",
          "circle": {
            "xAxis": [
              -1,
              0,
              -0.0000000000000006532725121913267
            ],
            "yAxis": [
              -0.0000000000000006532725121913267,
              0,
              1
            ],
            "origin": [
              -0.2,
              0,
              -0.03028999999999999
            ],
            "radius": 0.03263000000000003
          }
        },
        {
          "type": "line",
          "line": {
            "origin": [
              -0.23263,
              0.115905,
              -0.03029000000000001
            ],
            "direction": [
              0,
              1,
              0
            ]
          }
        },
        {
          "type": "circle",
          "circle": {
            "xAxis": [
              -1,
              0,
              -0.00000000000000006123233995736767
            ],
            "yAxis": [
              0.00000000000000006123233995736767,
              0,
              -1
            ],
            "origin": [
              -0.2,
              0.23181,
              -0.03029000000000001
            ],
            "radius": 0.03263
          }
        },
        {
          "type": "circle",
          "circle": {
            "xAxis": [
              0,
              0,
              1
            ],
            "yAxis": [
              0,
              1,
              -0
            ],
            "origin": [
              -0.2,
              0.23181,
              -0.08
            ],
            "radius": 0.017079999999999984
          }
        },
        {
          "type": "circle",
          "circle": {
            "xAxis": [
              0,
              0,
              1
            ],
            "yAxis": [
              0,
              1,
              -0
            ],
            "origin": [
              -0.2,
              0.23181,
              -0.08
            ],
            "radius": 0.08233999999999998
          }
        },
        {
          "type": "circle",
          "circle": {
            "xAxis": [
              -1,
              0,
              0
            ],
            "yAxis": [
              0,
              1,
              0
            ],
            "origin": [
              -0.2,
              0.28152,
              -0.08000000000000002
            ],
            "radius": 0.03262999999999999
          }
        },
        {
          "type": "line",
          "line": {
            "origin": [
              -0.16737000000000002,
              0.28152,
              -0.272465
            ],
            "direction": [
              0,
              0,
              -1
            ]
          }
        },
        {
          "type": "line",
          "line": {
            "origin": [
              -0.23263,
              0.28152,
              -0.272465
            ],
            "direction": [
              0,
              0,
              -1
            ]
          }
        },
        {
          "type": "circle",
          "circle": {
            "xAxis": [
              -1,
              0,
              0
            ],
            "yAxis": [
              0,
              1,
              0
            ],
            "origin": [
              -0.2,
              0.28152,
              -0.46493
            ],
            "radius": 0.03262999999999999
          }
        }
      ]
    }
  },
  "extensionsUsed": [
    "KITTYCAD_boundary_representation"
  ],
  "materials": [
    {
      "alphaMode": "OPAQUE",
      "doubleSided": false,
      "pbrMetallicRoughness": {
        "baseColorFactor": [
          0.9,
          0.9,
          0.9,
          1
        ],
        "metallicFactor": 1,
        "roughnessFactor": 1
      },
      "emissiveFactor": [
        0,
        0,
        0
      ]
    }
  ],
  "meshes": [
    {
      "primitives": [
        {
          "attributes": {
            "POSITION": 0,
            "NORMAL": 1
          },
          "material": 0
        },
        {
          "attributes": {
            "POSITION": 2,
            "NORMAL": 3
          },
          "material": 0
        },
        {
          "attributes": {
            "POSITION": 4,
            "NORMAL": 5
          },
          "material": 0
        },
        {
          "attributes": {
            "POSITION": 6,
            "NORMAL": 7
          },
          "material": 0
        },
        {
          "attributes": {
            "POSITION": 8,
            "NORMAL": 9
          },
          "material": 0
        },
        {
          "attributes": {
            "POSITION": 10,
            "NORMAL": 11
          },
          "material": 0
        },
        {
          "attributes": {
            "POSITION": 12,
            "NORMAL": 13
          },
          "material": 0
        },
        {
          "attributes": {
            "POSITION": 14,
            "NORMAL": 15
          },
          "material": 0
        }
      ]
    }
  ],
  "nodes": [
    {
      "children": [
        1
      ]
    },
    {
      "children": [
        2
      ]
    },
    {
      "extensions": {
        "KITTYCAD_boundary_representation": {
          "solid": 0
        }
      },
      "mesh": 0
    }
  ],
  "scenes": [
    {
      "nodes": [
        0
      ]
    }
  ]
}