{
  "accessors": [
    {
      "bufferView": 0,
      "byteOffset": 0,
      "count": 1824,
      "componentType": 5126,
      "type": "VEC3",
      "min": [
        -0.01414213515818119,
        0,
        -0.01414213515818119
      ],
      "max": [
        0.009999999776482582,
        0.019999999552965164,
        0.0000000000000000008881784618863365
      ]
    },
    {
      "bufferView": 0,
      "byteOffset": 12,
      "count": 1824,
      "componentType": 5126,
      "type": "VEC3"
    },
    {
      "bufferView": 1,
      "byteOffset": 0,
      "count": 1830,
      "componentType": 5126,
      "type": "VEC3",
      "min": [
        -0.0000000000000000008881784618863365,
        0,
        -0.01414213515818119
      ],
      "max": [
        0.01414213515818119,
        0.019999999552965164,
        0.009999999776482582
      ]
    },
    {
      "bufferView": 1,
      "byteOffset": 12,
      "count": 1830,
      "componentType": 5126,
      "type": "VEC3"
    },
    {
      "bufferView": 2,
      "byteOffset": 0,
      "count": 1830,
      "componentType": 5126,
      "type": "VEC3",
      "min": [
        -0.009999999776482582,
        0,
        -0.0000000000000000008881784618863365
      ],
      "max": [
        0.01414213515818119,
        0.019999999552965164,
        0.01414213515818119
      ]
    },
    {
      "bufferView": 2,
      "byteOffset": 12,
      "count": 1830,
      "componentType": 5126,
      "type": "VEC3"
    },
    {
      "bufferView": 3,
      "byteOffset": 0,
      "count": 1953,
      "componentType": 5126,
      "type": "VEC3",
      "min": [
        -0.01414213515818119,
        0,
        -0.009999999776482582
      ],
      "max": [
        0.0000000000000000008881784618863365,
        0.019999999552965164,
        0.01414213515818119
      ]
    },
    {
      "bufferView": 3,
      "byteOffset": 12,
      "count": 1953,
      "componentType": 5126,
      "type": "VEC3"
    },
    {
      "bufferView": 4,
      "byteOffset": 0,
      "count": 63,
      "componentType": 5126,
      "type": "VEC3",
      "min": [
        -0.009999999776482582,
        0,
        -0.009999999776482582
      ],
      "max": [
        0.009999999776482582,
        0,
        0.009999999776482582
      ]
    },
    {
      "bufferView": 4,
      "byteOffset": 12,
      "count": 63,
      "componentType": 5126,
      "type": "VEC3"
    },
    {
      "bufferView": 5,
      "byteOffset": 0,
      "count": 66,
      "componentType": 5126,
      "type": "VEC3",
      "min": [
        -0.01414213515818119,
        0.019999999552965164,
        -0.01414213515818119
      ],
      "max": [
        0.01414213515818119,
        0.019999999552965164,
        0.01414213515818119
      ]
    },
    {
      "bufferView": 5,
      "byteOffset": 12,
      "count": 66,
      "componentType": 5126,
      "type": "VEC3"
    }
  ],
  "asset": {
    "generator": "zoo.dev",
    "version": "2.0"
  },
  "buffers": [
    {
      "byteLength": 181584,
      "uri": "data:application/octet-stream;base64,"
    }
  ],
  "bufferViews": [
    {
      "buffer": 0,
      "byteLength": 43776,
      "byteOffset": 0,
      "byteStride": 24,
      "target": 34962
    },
    {
      "buffer": 0,
      "byteLength": 43920,
      "byteOffset": 43776,
      "byteStride": 24,
      "target": 34962
    },
    {
      "buffer": 0,
      "byteLength": 43920,
      "byteOffset": 87696,
      "byteStride": 24,
      "target": 34962
    },
    {
      "buffer": 0,
      "byteLength": 46872,
      "byteOffset": 131616,
      "byteStride": 24,
      "target": 34962
    },
    {
      "buffer": 0,
      "byteLength": 1512,
      "byteOffset": 178488,
      "byteStride": 24,
      "target": 34962
    },
    {
      "buffer": 0,
      "byteLength": 1584,
      "byteOffset": 180000,
      "byteStride": 24,
      "target": 34962
    }
  ],
  "scene": 0,
  "extensions": {
    "KITTYCAD_boundary_representation": {
      "solids": [
        {
          "shells": [
            [
              0,
              1
            ]
          ],
          "mesh": 0,
          "extras": {
            "KITTYCAD": {
              "material": 0
            }
          }
        }
      ],
      "shells": [
        {
          "faces": [
            [
              0,
              1
            ],
            [
              1,
              1
            ],
            [
              2,
              1
            ],
            [
              3,
              1
            ],
            [
              4,
              1
            ],
            [
              5,
              1
            ]
          ]
        }
      ],
      "faces": [
        {
          "surface": [
            0,
            1
          ],
          "loops": [
            [
              0,
              1
            ]
          ]
        },
        {
          "surface": [
            1,
            1
          ],
          "loops": [
            [
              1,
              1
            ]
          ]
        },
        {
          "surface": [
            2,
            1
          ],
          "loops": [
            [
              2,
              1
            ]
          ]
        },
        {
          "surface": [
            3,
            1
          ],
          "loops": [
            [
              3,
              1
            ]
          ]
        },
        {
          "surface": [
            4,
            -1
          ],
          "loops": [
            [
              4,
              1
            ]
          ]
        },
        {
          "surface": [
            5,
            1
          ],
          "loops": [
            [
              5,
              1
            ]
          ]
        }
      ],
      "loops": [
        {
          "edges": [
            [
              0,
              -1
            ],
            [
              1,
              1
            ],
            [
              2,
              1
            ],
            [
              3,
              1
            ]
          ]
        },
        {
          "edges": [
            [
              2,
              -1
            ],
            [
              4,
              1
            ],
            [
              5,
              1
            ],
            [
              6,
              1
            ]
          ]
        },
        {
          "edges": [
            [
              5,
              -1
            ],
            [
              7,
              1
            ],
            [
              8,
              1
            ],
            [
              9,
              1
            ]
          ]
        },
        {
          "edges": [
            [
              8,
              -1
            ],
            [
              10,
              1
            ],
            [
              0,
              1
            ],
            [
              11,
              1
            ]
          ]
        },
        {
          "edges": [
            [
              3,
              -1
            ],
            [
              6,
              -1
            ],
            [
              9,
              -1
            ],
            [
              11,
              -1
            ]
          ]
        },
        {
          "edges": [
            [
              10,
              -1
            ],
            [
              7,
              -1
            ],
            [
              4,
              -1
            ],
            [
              1,
              -1
            ]
          ]
        }
      ],
      "edges": [
        {
          "curve": [
            0,
            1
          ],
          "start": 0,
          "end": 1,
          "t": [
            0,
            0.02274109248750774
          ]
        },
        {
          "curve": [
            1,
            1
          ],
          "start": 0,
          "end": 2,
          "t": [
            0,
            0.02
          ]
        },
        {
          "curve": [
            2,
            1
          ],
          "start": 2,
          "end": 3,
          "t": [
            0,
            0.02274109248750774
          ]
        },
        {
          "curve": [
            3,
            1
          ],
          "start": 3,
          "end": 1,
          "t": [
            0,
            0.02
          ]
        },
        {
          "curve": [
            4,
            1
          ],
          "start": 2,
          "end": 4,
          "t": [
            0,
            0.02
          ]
        },
        {
          "curve": [
            5,
            1
          ],
          "start": 4,
          "end": 5,
          "t": [
            0,
            0.02274109248750774
          ]
        },
        {
          "curve": [
            6,
            1
          ],
          "start": 5,
          "end": 3,
          "t": [
            0,
            0.02
          ]
        },
        {
          "curve": [
            7,
            1
          ],
          "start": 4,
          "end": 6,
          "t": [
            0,
            0.02
          ]
        },
        {
          "curve": [
            8,
            1
          ],
          "start": 6,
          "end": 7,
          "t": [
            0,
            0.02274109248750774
          ]
        },
        {
          "curve": [
            9,
            1
          ],
          "start": 7,
          "end": 5,
          "t": [
            0,
            0.02
          ]
        },
        {
          "curve": [
            10,
            1
          ],
          "start": 6,
          "end": 0,
          "t": [
            0,
            0.02
          ]
        },
        {
          "curve": [
            11,
            1
          ],
          "start": 1,
          "end": 7,
          "t": [
            0,
            0.02
          ]
        }
      ],
      "vertices": [
        [
          -0.01414213562373095,
          0.02,
          0.0000000000000000008881784197001254
        ],
        [
          -0.01,
          0,
          -0.01
        ],
        [
          -0.0000000000000000008881784197001254,
          0.02,
          -0.01414213562373095
        ],
        [
          0.01,
          0,
          -0.01
        ],
        [
          0.01414213562373095,
          0.02,
          -0.0000000000000000008881784197001254
        ],
        [
          0.01,
          0,
          0.01
        ],
        [
          0.0000000000000000008881784197001254,
          0.02,
          0.01414213562373095
        ],
        [
          -0.01,
          0,
          0.01
        ]
      ],
      "surfaces": [
        {
          "type": "nurbs",
          "nurbs": {
            "controlPoints": [
              [
                -0.01,
                0,
                -0.01
              ],
              [
                0.01,
                0,
                -0.01
              ],
              [
                -0.01414213562373095,
                0.02,
                0.0000000000000000008881784197001254
              ],
              [
                -0.0000000000000000008881784197001254,
                0.02,
                -0.01414213562373095
              ]
            ],
            "numControlPoints": [
              2,
              2
            ],
            "numKnots": [
              4,
              4
            ],
            "knotVector": [
              0,
              0,
              1,
              1,
              0,
              0,
              1,
              1
            ],
            "order": [
              2,
              2
            ]
          }
        },
        {
          "type": "nurbs",
          "nurbs": {
            "controlPoints": [
              [
                0.01,
                0,
                -0.01
              ],
              [
                0.01,
                0,
                0.01
              ],
              [
                -0.0000000000000000008881784197001254,
                0.02,
                -0.01414213562373095
              ],
              [
                0.01414213562373095,
                0.02,
                -0.0000000000000000008881784197001254
              ]
            ],
            "numControlPoints": [
              2,
              2
            ],
            "numKnots": [
              4,
              4
            ],
            "knotVector": [
              0,
              0,
              1,
              1,
              0,
              0,
              1,
              1
            ],
            "order": [
              2,
              2
            ]
          }
        },
        {
          "type": "nurbs",
          "nurbs": {
            "controlPoints": [
              [
                0.01,
                0,
                0.01
              ],
              [
                -0.01,
                0,
                0.01
              ],
              [
                0.01414213562373095,
                0.02,
                -0.0000000000000000008881784197001254
              ],
              [
                0.0000000000000000008881784197001254,
                0.02,
                0.01414213562373095
              ]
            ],
            "numControlPoints": [
              2,
              2
            ],
            "numKnots": [
              4,
              4
            ],
            "knotVector": [
              0,
              0,
              1,
              1,
              0,
              0,
              1,
              1
            ],
            "order": [
              2,
              2
            ]
          }
        },
        {
          "type": "nurbs",
          "nurbs": {
            "controlPoints": [
              [
                -0.01,
                0,
                0.01
              ],
              [
                -0.01,
                0,
                -0.01
              ],
              [
                0.0000000000000000008881784197001254,
                0.02,
                0.01414213562373095
              ],
              [
                -0.01414213562373095,
                0.02,
                0.0000000000000000008881784197001254
              ]
            ],
            "numControlPoints": [
              2,
              2
            ],
            "numKnots": [
              4,
              4
            ],
            "knotVector": [
              0,
              0,
              1,
              1,
              0,
              0,
              1,
              1
            ],
            "order": [
              2,
              2
            ]
          }
        },
        {
          "type": "plane",
          "plane": {
            "xAxis": [
              1,
              0,
              0
            ],
            "yAxis": [
              0,
              0,
              -1
            ],
            "origin": [
              0,
              0,
              -0
            ]
          }
        },
        {
          "type": "plane",
          "plane": {
            "xAxis": [
              1,
              0,
              0
            ],
            "yAxis": [
              0,
              0,
              -1
            ],
            "origin": [
              0,
              0.02,
              -0
            ]
          }
        }
      ],
      "curves3D": [
        {
          "type": "line",
          "line": {
            "origin": [
              -0.01414213562373095,
              0.02,
              0.0000000000000000008881784197001254
            ],
            "direction": [
              0.18214321172152703,
              -0.8794652240646093,
              -0.43973261203230474
            ]
          }
        },
        {
          "type": "line",
          "line": {
            "origin": [
              -0.01414213562373095,
              0.02,
              0.0000000000000000008881784197001254
            ],
            "direction": [
              0.7071067811865475,
              0,
              -0.7071067811865476
            ]
          }
        },
        {
          "type": "line",
          "line": {
            "origin": [
              -0.0000000000000000008881784197001254,
              0.02,
              -0.01414213562373095
            ],
            "direction": [
              0.4397326120323049,
              -0.8794652240646095,
              0.1821432117215271
            ]
          }
        },
        {
          "type": "line",
          "line": {
            "origin": [
              0.01,
              0,
              -0.01
            ],
            "direction": [
              -1,
              0,
              0
            ]
          }
        },
        {
          "type": "line",
          "line": {
            "origin": [
              -0.0000000000000000008881784197001254,
              0.02,
              -0.01414213562373095
            ],
            "direction": [
              0.7071067811865476,
              0,
              0.7071067811865475
            ]
          }
        },
        {
          "type": "line",
          "line": {
            "origin": [
              0.01414213562373095,
              0.02,
              -0.0000000000000000008881784197001254
            ],
            "direction": [
              -0.18214321172152703,
              -0.8794652240646093,
              0.43973261203230474
            ]
          }
        },
        {
          "type": "line",
          "line": {
            "origin": [
              0.01,
              0,
              0.01
            ],
            "direction": [
              0,
              0,
              -1
            ]
          }
        },
        {
          "type": "line",
          "line": {
            "origin": [
              0.01414213562373095,
              0.02,
              -0.0000000000000000008881784197001254
            ],
            "direction": [
              -0.7071067811865475,
              0,
              0.7071067811865476
            ]
          }
        },
        {
          "type": "line",
          "line": {
            "origin": [
              0.0000000000000000008881784197001254,
              0.02,
              0.01414213562373095
            ],
            "direction": [
              -0.4397326120323049,
              -0.8794652240646095,
              -0.1821432117215271
            ]
          }
        },
        {
          "type": "line",
          "line": {
            "origin": [
              -0.01,
              0,
              0.01
            ],
            "direction": [
              1,
              0,
              -0
            ]
          }
        },
        {
          "type": "line",
          "line": {
            "origin": [
              0.0000000000000000008881784197001254,
              0.02,
              0.01414213562373095
            ],
            "direction": [
              -0.7071067811865476,
              0,
              -0.7071067811865475
            ]
          }
        },
        {
          "type": "line",
          "line": {
            "origin": [
              -0.01,
              0,
              -0.01
            ],
            "direction": [
              0,
              0,
              1
            ]
          }
        }
      ]
    }
  },
  "extensionsUsed": [
    "KITTYCAD_boundary_representation"
  ],
  "materials": [
    {
      "alphaMode": "OPAQUE",
      "doubleSided": false,
      "pbrMetallicRoughness": {
        "baseColorFactor": [
          0.9,
          0.9,
          0.9,
          1
        ],
        "metallicFactor": 1,
        "roughnessFactor": 1
      },
      "emissiveFactor": [
        0,
        0,
        0
      ]
    }
  ],
  "meshes": [
    {
      "primitives": [
        {
          "attributes": {
            "POSITION": 0,
            "NORMAL": 1
          },
          "material": 0
        },
        {
          "attributes": {
            "POSITION": 2,
            "NORMAL": 3
          },
          "material": 0
        },
        {
          "attributes": {
            "POSITION": 4,
            "NORMAL": 5
          },
          "material": 0
        },
        {
          "attributes": {
            "POSITION": 6,
            "NORMAL": 7
          },
          "material": 0
        },
        {
          "attributes": {
            "POSITION": 8,
            "NORMAL": 9
          },
          "material": 0
        },
        {
          "attributes": {
            "POSITION": 10,
            "NORMAL": 11
          },
          "material": 0
        }
      ]
    }
  ],
  "nodes": [
    {
      "children": [
        1
      ]
    },
    {
      "children": [
        2
      ]
    },
    {
      "extensions": {
        "KITTYCAD_boundary_representation": {
          "solid": 0
        }
      },
      "mesh": 0
    }
  ],
  "scenes": [
    {
      "nodes": [
        0
      ]
    }
  ]
}