{
  "accessors": [
    {
      "bufferView": 0,
      "byteOffset": 0,
      "count": 399,
      "componentType": 5126,
      "type": "VEC3",
      "min": [
        0,
        0.20000000298023224,
        -0.03449999913573265
      ],
      "max": [
        0.27125677466392517,
        0.20000000298023224,
        0.10001090168952942
      ]
    },
    {
      "bufferView": 0,
      "byteOffset": 12,
      "count": 399,
      "componentType": 5126,
      "type": "VEC3"
    }
  ],
  "asset": {
    "generator": "zoo.dev",
    "version": "2.0"
  },
  "buffers": [
    {
      "byteLength": 9576,
      "uri": "data:application/octet-stream;base64,"
    }
  ],
  "bufferViews": [
    {
      "buffer": 0,
      "byteLength": 9576,
      "byteOffset": 0,
      "byteStride": 24,
      "target": 34962
    }
  ],
  "scene": 0,
  "extensions": {
    "KITTYCAD_boundary_representation": {
      "solids": [
        {
          "shells": [
            [
              0,
              1
            ]
          ],
          "mesh": 0,
          "extras": {
            "KITTYCAD": {
              "material": 0
            }
          }
        }
      ],
      "shells": [
        {
          "faces": [
            [
              0,
              1
            ]
          ]
        }
      ],
      "faces": [
        {
          "surface": [
            0,
            1
          ],
          "loops": [
            [
              0,
              1
            ]
          ]
        }
      ],
      "loops": [
        {
          "edges": [
            [
              0,
              1
            ],
            [
              1,
              1
            ],
            [
              2,
              1
            ],
            [
              3,
              1
            ]
          ]
        }
      ],
      "edges": [
        {
          "curve": [
            0,
            1
          ],
          "start": 0,
          "end": 1,
          "t": [
            0,
            1
          ]
        },
        {
          "curve": [
            1,
            1
          ],
          "start": 1,
          "end": 2,
          "t": [
            0,
            0.1
          ]
        },
        {
          "curve": [
            2,
            1
          ],
          "start": 2,
          "end": 3,
          "t": [
            -1,
            -0
          ]
        },
        {
          "curve": [
            3,
            1
          ],
          "start": 3,
          "end": 0,
          "t": [
            0,
            0.10000000000000002
          ]
        }
      ],
      "vertices": [
        [
          0,
          0.20000000000000004,
          0.10000000000000002
        ],
        [
          0.27125676697414186,
          0.2,
          0.049501209738394066
        ],
        [
          0.217,
          0.2,
          -0.0345
        ],
        [
          0,
          0.20000000000000004,
          -0
        ]
      ],
      "surfaces": [
        {
          "type": "plane",
          "plane": {
            "xAxis": [
              1,
              0,
              0
            ],
            "yAxis": [
              0,
              0,
              -1
            ],
            "origin": [
              0.1,
              0.2,
              0.05
            ]
          }
        }
      ],
      "curves3D": [
        {
          "type": "nurbs",
          "nurbs": {
            "controlPoints": [
              [
                -0,
                0.20000000000000004,
                0.10000000000000002
              ],
              [
                0.012500035049720595,
                0.2000000000000001,
                0.09999999888265938
              ],
              [
                0.03124994634872213,
                0.2,
                0.1000000016760108
              ],
              [
                0.043750320173592934,
                0.2,
                0.09999999013015454
              ],
              [
                0.05624810868738945,
                0.2,
                0.1000000575429284
              ],
              [
                0.06876116726585378,
                0.19999999999999996,
                0.09999966460773696
              ],
              [
                0.08118408035503047,
                0.2,
                0.10000195465649732
              ],
              [
                0.09251921872910276,
                0.19999999999999996,
                0.09999027193802698
              ],
              [
                0.09915331124603556,
                0.19999999999999993,
                0.10002463679856816
              ],
              [
                0.11434972435501407,
                0.2,
                0.09981125112834456
              ],
              [
                0.13360835217892422,
                0.19999999999999987,
                0.0983996556537894
              ],
              [
                0.15612741728082236,
                0.2,
                0.0951799101738188
              ],
              [
                0.17834464146432913,
                0.2,
                0.0903341083397904
              ],
              [
                0.2002004724058421,
                0.19999999999999996,
                0.08389024697540619
              ],
              [
                0.22150415866361023,
                0.19999999999999996,
                0.07589815185974924
              ],
              [
                0.2523157711098905,
                0.20000000000000004,
                0.061735314857188785
              ],
              [
                0.27125676697414186,
                0.2,
                0.049501209738394066
              ]
            ],
            "order": 3,
            "knotVector": [
              0,
              0,
              0,
              0.125,
              0.1875,
              0.25,
              0.3125,
              0.375,
              0.4375,
              0.484375,
              0.515625,
              0.5625,
              0.625,
              0.6875,
              0.75,
              0.8125,
              0.875,
              1,
              1,
              1
            ],
            "weights": [
              0.9999999999999998,
              0.9999999617172596,
              1.0000000574241097,
              0.9999996618357992,
              1.0000019715610924,
              0.9999885087976468,
              1.0000669756530276,
              0.9996668045802936,
              1.0008448282840614,
              0.993574569147215,
              0.9873137533358052,
              0.9821240618594758,
              0.9795868865436458,
              0.9795843587929636,
              0.9821367006128876,
              0.989792322542584,
              1
            ]
          }
        },
        {
          "type": "line",
          "line": {
            "origin": [
              0.27125676697414186,
              0.2,
              0.049501209738394066
            ],
            "direction": [
              -0.5425676697414187,
              0,
              -0.8400120973839407
            ]
          }
        },
        {
          "type": "nurbs",
          "nurbs": {
            "controlPoints": [
              [
                0.217,
                0.2,
                -0.0345
              ],
              [
                0.20405978603736316,
                0.20000000000000004,
                -0.02614184677668761
              ],
              [
                0.18300980383373636,
                0.19999999999999996,
                -0.016466013473412807
              ],
              [
                0.16845528769299453,
                0.19999999999999996,
                -0.011005936507969155
              ],
              [
                0.15352467670400283,
                0.2,
                -0.006603589126584913
              ],
              [
                0.1383406382076601,
                0.2,
                -0.0032930115383315224
              ],
              [
                0.12298827155032103,
                0.19999999999999987,
                -0.001093330744325634
              ],
              [
                0.1096672676625202,
                0.2,
                -0.00012895033798589675
              ],
              [
                0.09976449764055728,
                0.19999999999999993,
                0.00001683148341175108
              ],
              [
                0.09227788627243172,
                0.19999999999999996,
                -0.000006646062932003568
              ],
              [
                0.08123257121125232,
                0.2,
                0.0000013353913788581132
              ],
              [
                0.06875284689957731,
                0.19999999999999996,
                -0.0000002291348567598347
              ],
              [
                0.05624953620463922,
                0.2,
                0.000000039312447274325776
              ],
              [
                0.04375007532379038,
                0.2,
                -0.000000006742927242690759
              ],
              [
                0.03124998792697405,
                0.2,
                0.0000000011450249278756503
              ],
              [
                0.012500007330883337,
                0.2000000000000001,
                -0.0000000007633500249749222
              ],
              [
                -0,
                0.20000000000000004,
                0
              ]
            ],
            "order": 3,
            "knotVector": [
              -1,
              -1,
              -1,
              -0.875,
              -0.8125,
              -0.75,
              -0.6875,
              -0.625,
              -0.5625,
              -0.515625,
              -0.484375,
              -0.4375,
              -0.375,
              -0.3125,
              -0.25,
              -0.1875,
              -0.125,
              -0,
              -0,
              -0
            ],
            "weights": [
              1,
              0.989792322542584,
              0.9821367006128876,
              0.9795843587929636,
              0.9795868865436458,
              0.9821240618594758,
              0.9873137533358052,
              0.993574569147215,
              1.0008448282840614,
              0.9996668045802936,
              1.0000669756530276,
              0.9999885087976468,
              1.0000019715610924,
              0.9999996618357992,
              1.0000000574241097,
              0.9999999617172596,
              0.9999999999999998
            ]
          }
        },
        {
          "type": "line",
          "line": {
            "origin": [
              0,
              0.20000000000000004,
              -0
            ],
            "direction": [
              0,
              0,
              1
            ]
          }
        }
      ]
    }
  },
  "extensionsUsed": [
    "KITTYCAD_boundary_representation"
  ],
  "materials": [
    {
      "alphaMode": "OPAQUE",
      "doubleSided": false,
      "pbrMetallicRoughness": {
        "baseColorFactor": [
          0.9,
          0.9,
          0.9,
          1
        ],
        "metallicFactor": 1,
        "roughnessFactor": 1
      },
      "emissiveFactor": [
        0,
        0,
        0
      ]
    }
  ],
  "meshes": [
    {
      "primitives": [
        {
          "attributes": {
            "POSITION": 0,
            "NORMAL": 1
          },
          "material": 0
        }
      ]
    }
  ],
  "nodes": [
    {
      "children": [
        1
      ]
    },
    {
      "children": [
        2
      ]
    },
    {
      "extensions": {
        "KITTYCAD_boundary_representation": {
          "solid": 0
        }
      },
      "mesh": 0
    }
  ],
  "scenes": [
    {
      "nodes": [
        0
      ]
    }
  ]
}