{
  "accessors": [
    {
      "bufferView": 0,
      "byteOffset": 0,
      "count": 6,
      "componentType": 5126,
      "type": "VEC3",
      "min": [
        0,
        0,
        -0
      ],
      "max": [
        0.019999999552965164,
        0,
        0.009999999776482582
      ]
    },
    {
      "bufferView": 0,
      "byteOffset": 12,
      "count": 6,
      "componentType": 5126,
      "type": "VEC3"
    },
    {
      "bufferView": 1,
      "byteOffset": 0,
      "count": 1386,
      "componentType": 5126,
      "type": "VEC3",
      "min": [
        0,
        0,
        -0
      ],
      "max": [
        0.021333320066332817,
        0.006666666828095913,
        0.009999999776482582
      ]
    },
    {
      "bufferView": 1,
      "byteOffset": 12,
      "count": 1386,
      "componentType": 5126,
      "type": "VEC3"
    },
    {
      "bufferView": 2,
      "byteOffset": 0,
      "count": 690,
      "componentType": 5126,
      "type": "VEC3",
      "min": [
        0,
        0,
        -0
      ],
      "max": [
        0.021333320066332817,
        0.006666666828095913,
        -0
      ]
    },
    {
      "bufferView": 2,
      "byteOffset": 12,
      "count": 690,
      "componentType": 5126,
      "type": "VEC3"
    },
    {
      "bufferView": 3,
      "byteOffset": 0,
      "count": 690,
      "componentType": 5126,
      "type": "VEC3",
      "min": [
        0,
        0,
        0.009999999776482582
      ],
      "max": [
        0.021333320066332817,
        0.006666666828095913,
        0.009999999776482582
      ]
    },
    {
      "bufferView": 3,
      "byteOffset": 12,
      "count": 690,
      "componentType": 5126,
      "type": "VEC3"
    }
  ],
  "asset": {
    "generator": "zoo.dev",
    "version": "2.0"
  },
  "buffers": [
    {
      "byteLength": 66528,
      "uri": "data:application/octet-stream;base64,"
    }
  ],
  "bufferViews": [
    {
      "buffer": 0,
      "byteLength": 144,
      "byteOffset": 0,
      "byteStride": 24,
      "target": 34962
    },
    {
      "buffer": 0,
      "byteLength": 33264,
      "byteOffset": 144,
      "byteStride": 24,
      "target": 34962
    },
    {
      "buffer": 0,
      "byteLength": 16560,
      "byteOffset": 33408,
      "byteStride": 24,
      "target": 34962
    },
    {
      "buffer": 0,
      "byteLength": 16560,
      "byteOffset": 49968,
      "byteStride": 24,
      "target": 34962
    }
  ],
  "scene": 0,
  "extensions": {
    "KITTYCAD_boundary_representation": {
      "solids": [
        {
          "shells": [
            [
              0,
              1
            ]
          ],
          "mesh": 0,
          "extras": {
            "KITTYCAD": {
              "material": 0
            }
          }
        }
      ],
      "shells": [
        {
          "faces": [
            [
              0,
              1
            ],
            [
              1,
              1
            ],
            [
              2,
              1
            ],
            [
              3,
              1
            ]
          ]
        }
      ],
      "faces": [
        {
          "surface": [
            0,
            1
          ],
          "loops": [
            [
              0,
              1
            ]
          ]
        },
        {
          "surface": [
            1,
            1
          ],
          "loops": [
            [
              1,
              1
            ]
          ]
        },
        {
          "surface": [
            2,
            -1
          ],
          "loops": [
            [
              2,
              1
            ]
          ]
        },
        {
          "surface": [
            3,
            1
          ],
          "loops": [
            [
              3,
              1
            ]
          ]
        }
      ],
      "loops": [
        {
          "edges": [
            [
              0,
              1
            ],
            [
              1,
              1
            ],
            [
              2,
              -1
            ],
            [
              3,
              -1
            ]
          ]
        },
        {
          "edges": [
            [
              4,
              1
            ],
            [
              3,
              1
            ],
            [
              5,
              -1
            ],
            [
              1,
              -1
            ]
          ]
        },
        {
          "edges": [
            [
              4,
              -1
            ],
            [
              0,
              -1
            ]
          ]
        },
        {
          "edges": [
            [
              2,
              1
            ],
            [
              5,
              1
            ]
          ]
        }
      ],
      "edges": [
        {
          "curve": [
            0,
            1
          ],
          "start": 0,
          "end": 1,
          "t": [
            0,
            0.02
          ]
        },
        {
          "curve": [
            1,
            1
          ],
          "start": 1,
          "end": 2,
          "t": [
            0,
            0.01
          ]
        },
        {
          "curve": [
            2,
            1
          ],
          "start": 3,
          "end": 2,
          "t": [
            0,
            0.02
          ]
        },
        {
          "curve": [
            3,
            1
          ],
          "start": 0,
          "end": 3,
          "t": [
            0,
            0.01
          ]
        },
        {
          "curve": [
            4,
            1
          ],
          "start": 1,
          "end": 0,
          "t": [
            -1,
            -0
          ]
        },
        {
          "curve": [
            5,
            1
          ],
          "start": 2,
          "end": 3,
          "t": [
            -1,
            -0
          ]
        }
      ],
      "vertices": [
        [
          0,
          0,
          -0
        ],
        [
          0.02,
          0,
          -0
        ],
        [
          0.02,
          0,
          0.01
        ],
        [
          0,
          0,
          0.01
        ]
      ],
      "surfaces": [
        {
          "type": "plane",
          "plane": {
            "xAxis": [
              1,
              0,
              0
            ],
            "yAxis": [
              -0,
              0,
              1
            ],
            "origin": [
              0.01,
              0,
              0.005
            ]
          }
        },
        {
          "type": "nurbs",
          "nurbs": {
            "controlPoints": [
              [
                0.02,
                0,
                -0
              ],
              [
                0.02,
                0,
                0.01
              ],
              [
                0.026666666666666672,
                0.006666666666666668,
                -0
              ],
              [
                0.026666666666666672,
                0.006666666666666668,
                0.010000000000000002
              ],
              [
                0.013333333333333334,
                0.006666666666666668,
                -0
              ],
              [
                0.013333333333333334,
                0.006666666666666668,
                0.01
              ],
              [
                0,
                0.006666666666666668,
                -0
              ],
              [
                0,
                0.006666666666666668,
                0.010000000000000002
              ],
              [
                0,
                0,
                -0
              ],
              [
                0,
                0,
                0.01
              ]
            ],
            "numControlPoints": [
              5,
              2
            ],
            "numKnots": [
              8,
              4
            ],
            "knotVector": [
              -1,
              -1,
              -1,
              -0.5,
              -0.5,
              -0,
              -0,
              -0,
              0,
              0,
              10,
              10
            ],
            "weights": [
              1,
              1,
              0.6123724356957945,
              0.6123724356957945,
              1,
              1,
              0.6123724356957945,
              0.6123724356957945,
              1,
              1
            ],
            "order": [
              3,
              2
            ]
          }
        },
        {
          "type": "plane",
          "plane": {
            "xAxis": [
              1,
              0,
              0
            ],
            "yAxis": [
              0,
              1,
              0
            ],
            "origin": [
              0,
              0,
              0
            ]
          }
        },
        {
          "type": "plane",
          "plane": {
            "xAxis": [
              1,
              0,
              -0
            ],
            "yAxis": [
              -0,
              1,
              0
            ],
            "origin": [
              0,
              0,
              0.01
            ]
          }
        }
      ],
      "curves3D": [
        {
          "type": "line",
          "line": {
            "origin": [
              0,
              0,
              -0
            ],
            "direction": [
              1,
              0,
              -0
            ]
          }
        },
        {
          "type": "line",
          "line": {
            "origin": [
              0.02,
              0,
              -0
            ],
            "direction": [
              0,
              0,
              1
            ]
          }
        },
        {
          "type": "line",
          "line": {
            "origin": [
              0,
              0,
              0.01
            ],
            "direction": [
              1,
              0,
              -0
            ]
          }
        },
        {
          "type": "line",
          "line": {
            "origin": [
              0,
              0,
              -0
            ],
            "direction": [
              0,
              0,
              1
            ]
          }
        },
        {
          "type": "nurbs",
          "nurbs": {
            "controlPoints": [
              [
                0.02,
                0,
                -0
              ],
              [
                0.026666666666666672,
                0.006666666666666668,
                -0
              ],
              [
                0.013333333333333334,
                0.006666666666666668,
                -0
              ],
              [
                0,
                0.006666666666666668,
                -0
              ],
              [
                0,
                0,
                -0
              ]
            ],
            "order": 3,
            "knotVector": [
              -1,
              -1,
              -1,
              -0.5,
              -0.5,
              -0,
              -0,
              -0
            ],
            "weights": [
              1,
              0.6123724356957945,
              1,
              0.6123724356957945,
              1
            ]
          }
        },
        {
          "type": "nurbs",
          "nurbs": {
            "controlPoints": [
              [
                0.02,
                0,
                0.01
              ],
              [
                0.026666666666666672,
                0.006666666666666668,
                0.010000000000000002
              ],
              [
                0.013333333333333334,
                0.006666666666666668,
                0.01
              ],
              [
                0,
                0.006666666666666668,
                0.010000000000000002
              ],
              [
                0,
                0,
                0.01
              ]
            ],
            "order": 3,
            "knotVector": [
              -1,
              -1,
              -1,
              -0.5,
              -0.5,
              -0,
              -0,
              -0
            ],
            "weights": [
              1,
              0.6123724356957945,
              1,
              0.6123724356957945,
              1
            ]
          }
        }
      ]
    }
  },
  "extensionsUsed": [
    "KITTYCAD_boundary_representation"
  ],
  "materials": [
    {
      "alphaMode": "OPAQUE",
      "doubleSided": false,
      "pbrMetallicRoughness": {
        "baseColorFactor": [
          0.9,
          0.9,
          0.9,
          1
        ],
        "metallicFactor": 1,
        "roughnessFactor": 1
      },
      "emissiveFactor": [
        0,
        0,
        0
      ]
    }
  ],
  "meshes": [
    {
      "primitives": [
        {
          "attributes": {
            "POSITION": 0,
            "NORMAL": 1
          },
          "material": 0
        },
        {
          "attributes": {
            "POSITION": 2,
            "NORMAL": 3
          },
          "material": 0
        },
        {
          "attributes": {
            "POSITION": 4,
            "NORMAL": 5
          },
          "material": 0
        },
        {
          "attributes": {
            "POSITION": 6,
            "NORMAL": 7
          },
          "material": 0
        }
      ]
    }
  ],
  "nodes": [
    {
      "children": [
        1
      ]
    },
    {
      "children": [
        2
      ]
    },
    {
      "extensions": {
        "KITTYCAD_boundary_representation": {
          "solid": 0
        }
      },
      "mesh": 0
    }
  ],
  "scenes": [
    {
      "nodes": [
        0
      ]
    }
  ]
}