{
  "accessors": [
    {
      "bufferView": 0,
      "byteOffset": 0,
      "count": 96,
      "componentType": 5126,
      "type": "VEC3",
      "min": [
        0,
        0,
        -0.004089999943971634
      ],
      "max": [
        0.0020000000949949026,
        0,
        0.004089999943971634
      ]
    },
    {
      "bufferView": 0,
      "byteOffset": 12,
      "count": 96,
      "componentType": 5126,
      "type": "VEC3"
    },
    {
      "bufferView": 1,
      "byteOffset": 0,
      "count": 96,
      "componentType": 5126,
      "type": "VEC3",
      "min": [
        0,
        0.004999999888241291,
        -0.004089999943971634
      ],
      "max": [
        0.0020000000949949026,
        0.004999999888241291,
        0.004089999943971634
      ]
    },
    {
      "bufferView": 1,
      "byteOffset": 12,
      "count": 96,
      "componentType": 5126,
      "type": "VEC3"
    },
    {
      "bufferView": 2,
      "byteOffset": 0,
      "count": 96,
      "componentType": 5126,
      "type": "VEC3",
      "min": [
        0,
        0,
        0.003567649982869625
      ],
      "max": [
        0.0020000000949949026,
        0.004999999888241291,
        0.004089999943971634
      ]
    },
    {
      "bufferView": 2,
      "byteOffset": 12,
      "count": 96,
      "componentType": 5126,
      "type": "VEC3"
    },
    {
      "bufferView": 3,
      "byteOffset": 0,
      "count": 96,
      "componentType": 5126,
      "type": "VEC3",
      "min": [
        0,
        0,
        -0.004089999943971634
      ],
      "max": [
        0.0020000000949949026,
        0.004999999888241291,
        -0.003567649982869625
      ]
    },
    {
      "bufferView": 3,
      "byteOffset": 12,
      "count": 96,
      "componentType": 5126,
      "type": "VEC3"
    }
  ],
  "asset": {
    "generator": "zoo.dev",
    "version": "2.0"
  },
  "buffers": [
    {
      "byteLength": 9216,
      "uri": "data:application/octet-stream;base64,"
    }
  ],
  "bufferViews": [
    {
      "buffer": 0,
      "byteLength": 2304,
      "byteOffset": 0,
      "byteStride": 24,
      "target": 34962
    },
    {
      "buffer": 0,
      "byteLength": 2304,
      "byteOffset": 2304,
      "byteStride": 24,
      "target": 34962
    },
    {
      "buffer": 0,
      "byteLength": 2304,
      "byteOffset": 4608,
      "byteStride": 24,
      "target": 34962
    },
    {
      "buffer": 0,
      "byteLength": 2304,
      "byteOffset": 6912,
      "byteStride": 24,
      "target": 34962
    }
  ],
  "scene": 0,
  "extensions": {
    "KITTYCAD_boundary_representation": {
      "solids": [
        {
          "shells": [
            [
              0,
              1
            ]
          ],
          "mesh": 0,
          "extras": {
            "KITTYCAD": {
              "material": 0
            }
          }
        }
      ],
      "shells": [
        {
          "faces": [
            [
              0,
              1
            ],
            [
              1,
              1
            ],
            [
              2,
              1
            ],
            [
              3,
              1
            ]
          ]
        }
      ],
      "faces": [
        {
          "surface": [
            0,
            -1
          ],
          "loops": [
            [
              0,
              1
            ]
          ]
        },
        {
          "surface": [
            1,
            1
          ],
          "loops": [
            [
              1,
              1
            ]
          ]
        },
        {
          "surface": [
            2,
            1
          ],
          "loops": [
            [
              2,
              1
            ]
          ]
        },
        {
          "surface": [
            3,
            1
          ],
          "loops": [
            [
              3,
              1
            ]
          ]
        }
      ],
      "loops": [
        {
          "edges": [
            [
              0,
              -1
            ],
            [
              1,
              -1
            ],
            [
              2,
              -1
            ],
            [
              3,
              -1
            ]
          ]
        },
        {
          "edges": [
            [
              4,
              1
            ],
            [
              5,
              1
            ],
            [
              6,
              1
            ],
            [
              7,
              1
            ]
          ]
        },
        {
          "edges": [
            [
              1,
              1
            ],
            [
              8,
              -1
            ],
            [
              6,
              -1
            ],
            [
              9,
              1
            ]
          ]
        },
        {
          "edges": [
            [
              4,
              -1
            ],
            [
              10,
              1
            ],
            [
              3,
              1
            ],
            [
              11,
              -1
            ]
          ]
        }
      ],
      "edges": [
        {
          "curve": [
            0,
            1
          ],
          "start": 0,
          "end": 1,
          "t": [
            0,
            0.0071353
          ]
        },
        {
          "curve": [
            1,
            1
          ],
          "start": 2,
          "end": 0,
          "t": [
            0,
            0.5109397207746855
          ]
        },
        {
          "curve": [
            2,
            1
          ],
          "start": 3,
          "end": 2,
          "t": [
            0,
            0.00818
          ]
        },
        {
          "curve": [
            3,
            1
          ],
          "start": 1,
          "end": 3,
          "t": [
            0.0000004510837507386781,
            0.5109401718584363
          ]
        },
        {
          "curve": [
            4,
            1
          ],
          "start": 4,
          "end": 5,
          "t": [
            0.0000004510837507386781,
            0.5109401718584363
          ]
        },
        {
          "curve": [
            5,
            1
          ],
          "start": 5,
          "end": 6,
          "t": [
            0,
            0.00818
          ]
        },
        {
          "curve": [
            6,
            1
          ],
          "start": 6,
          "end": 7,
          "t": [
            0,
            0.5109397207746855
          ]
        },
        {
          "curve": [
            7,
            1
          ],
          "start": 7,
          "end": 4,
          "t": [
            0,
            0.0071353
          ]
        },
        {
          "curve": [
            8,
            1
          ],
          "start": 7,
          "end": 0,
          "t": [
            0,
            0.005
          ]
        },
        {
          "curve": [
            9,
            1
          ],
          "start": 6,
          "end": 2,
          "t": [
            0,
            0.005
          ]
        },
        {
          "curve": [
            10,
            1
          ],
          "start": 4,
          "end": 1,
          "t": [
            0,
            0.005
          ]
        },
        {
          "curve": [
            11,
            1
          ],
          "start": 5,
          "end": 3,
          "t": [
            0,
            0.005
          ]
        }
      ],
      "vertices": [
        [
          0.002,
          0,
          0.00356765
        ],
        [
          0.002,
          0,
          -0.00356765
        ],
        [
          0,
          0,
          0.00409
        ],
        [
          0,
          0,
          -0.00409
        ],
        [
          0.002,
          0.005,
          -0.00356765
        ],
        [
          0,
          0.005,
          -0.00409
        ],
        [
          0,
          0.005,
          0.00409
        ],
        [
          0.002,
          0.005,
          0.00356765
        ]
      ],
      "surfaces": [
        {
          "type": "plane",
          "plane": {
            "xAxis": [
              1,
              0,
              0
            ],
            "yAxis": [
              0,
              0,
              -1
            ],
            "origin": [
              0,
              0,
              -0
            ]
          }
        },
        {
          "type": "plane",
          "plane": {
            "xAxis": [
              1,
              0,
              0
            ],
            "yAxis": [
              0,
              0,
              -1
            ],
            "origin": [
              0,
              0.005,
              -0
            ]
          }
        },
        {
          "type": "cylinder",
          "cylinder": {
            "xAxis": [
              1,
              0,
              -0
            ],
            "yAxis": [
              -0,
              0,
              -1
            ],
            "origin": [
              -0,
              0.0025,
              0
            ],
            "radius": 0.00409
          }
        },
        {
          "type": "cylinder",
          "cylinder": {
            "xAxis": [
              1,
              0,
              -0
            ],
            "yAxis": [
              -0,
              0,
              -1
            ],
            "origin": [
              -0,
              0.0025,
              0
            ],
            "radius": 0.00409
          }
        }
      ],
      "curves3D": [
        {
          "type": "line",
          "line": {
            "origin": [
              0.002,
              0,
              0.00356765
            ],
            "direction": [
              0,
              0,
              -1
            ]
          }
        },
        {
          "type": "circle",
          "circle": {
            "xAxis": [
              0,
              -0,
              1
            ],
            "yAxis": [
              1,
              0,
              -0
            ],
            "origin": [
              0,
              0,
              0
            ],
            "radius": 0.00409
          }
        },
        {
          "type": "line",
          "line": {
            "origin": [
              0,
              0,
              -0.00409
            ],
            "direction": [
              0,
              0,
              1
            ]
          }
        },
        {
          "type": "circle",
          "circle": {
            "xAxis": [
              0.48899756083215745,
              0,
              -0.8722851514844217
            ],
            "yAxis": [
              -0.8722851514844217,
              0,
              -0.48899756083215745
            ],
            "origin": [
              0,
              0,
              0
            ],
            "radius": 0.00409
          }
        },
        {
          "type": "circle",
          "circle": {
            "xAxis": [
              0.48899756083215745,
              0,
              -0.8722851514844217
            ],
            "yAxis": [
              -0.8722851514844217,
              0,
              -0.48899756083215745
            ],
            "origin": [
              0,
              0.005,
              0
            ],
            "radius": 0.00409
          }
        },
        {
          "type": "line",
          "line": {
            "origin": [
              0,
              0.005,
              -0.00409
            ],
            "direction": [
              0,
              0,
              1
            ]
          }
        },
        {
          "type": "circle",
          "circle": {
            "xAxis": [
              0,
              -0,
              1
            ],
            "yAxis": [
              1,
              0,
              -0
            ],
            "origin": [
              0,
              0.005,
              0
            ],
            "radius": 0.00409
          }
        },
        {
          "type": "line",
          "line": {
            "origin": [
              0.002,
              0.005,
              0.00356765
            ],
            "direction": [
              0,
              0,
              -1
            ]
          }
        },
        {
          "type": "line",
          "line": {
            "origin": [
              0.002,
              0.005,
              0.00356765
            ],
            "direction": [
              0,
              -1,
              0
            ]
          }
        },
        {
          "type": "line",
          "line": {
            "origin": [
              0,
              0.005,
              0.00409
            ],
            "direction": [
              0,
              -1,
              0
            ]
          }
        },
        {
          "type": "line",
          "line": {
            "origin": [
              0.002,
              0.005,
              -0.00356765
            ],
            "direction": [
              0,
              -1,
              0
            ]
          }
        },
        {
          "type": "line",
          "line": {
            "origin": [
              0,
              0.005,
              -0.00409
            ],
            "direction": [
              0,
              -1,
              0
            ]
          }
        }
      ]
    }
  },
  "extensionsUsed": [
    "KITTYCAD_boundary_representation"
  ],
  "materials": [
    {
      "alphaMode": "OPAQUE",
      "doubleSided": false,
      "pbrMetallicRoughness": {
        "baseColorFactor": [
          0.9,
          0.9,
          0.9,
          1
        ],
        "metallicFactor": 1,
        "roughnessFactor": 1
      },
      "emissiveFactor": [
        0,
        0,
        0
      ]
    }
  ],
  "meshes": [
    {
      "primitives": [
        {
          "attributes": {
            "POSITION": 0,
            "NORMAL": 1
          },
          "material": 0
        },
        {
          "attributes": {
            "POSITION": 2,
            "NORMAL": 3
          },
          "material": 0
        },
        {
          "attributes": {
            "POSITION": 4,
            "NORMAL": 5
          },
          "material": 0
        },
        {
          "attributes": {
            "POSITION": 6,
            "NORMAL": 7
          },
          "material": 0
        }
      ]
    }
  ],
  "nodes": [
    {
      "children": [
        1
      ]
    },
    {
      "children": [
        2
      ]
    },
    {
      "extensions": {
        "KITTYCAD_boundary_representation": {
          "solid": 0
        }
      },
      "mesh": 0
    }
  ],
  "scenes": [
    {
      "nodes": [
        0
      ]
    }
  ]
}