{
  "accessors": [
    {
      "bufferView": 0,
      "byteOffset": 0,
      "count": 288,
      "componentType": 5126,
      "type": "VEC3",
      "min": [
        0,
        -0.002589999930933118,
        -0.005929999984800816
      ],
      "max": [
        0.005929999984800816,
        0.0036899999249726534,
        0.005929999984800816
      ]
    },
    {
      "bufferView": 0,
      "byteOffset": 12,
      "count": 288,
      "componentType": 5126,
      "type": "VEC3"
    },
    {
      "bufferView": 1,
      "byteOffset": 0,
      "count": 144,
      "componentType": 5126,
      "type": "VEC3",
      "min": [
        -0.005929999984800816,
        -0.002589999930933118,
        0
      ],
      "max": [
        0,
        0.0036899999249726534,
        0.005929999984800816
      ]
    },
    {
      "bufferView": 1,
      "byteOffset": 12,
      "count": 144,
      "componentType": 5126,
      "type": "VEC3"
    }
  ],
  "asset": {
    "generator": "zoo.dev",
    "version": "2.0"
  },
  "buffers": [
    {
      "byteLength": 10368,
      "uri": "data:application/octet-stream;base64,"
    }
  ],
  "bufferViews": [
    {
      "buffer": 0,
      "byteLength": 6912,
      "byteOffset": 0,
      "byteStride": 24,
      "target": 34962
    },
    {
      "buffer": 0,
      "byteLength": 3456,
      "byteOffset": 6912,
      "byteStride": 24,
      "target": 34962
    }
  ],
  "scene": 0,
  "extensions": {
    "KITTYCAD_boundary_representation": {
      "solids": [
        {
          "shells": [
            [
              0,
              1
            ]
          ],
          "mesh": 0,
          "extras": {
            "KITTYCAD": {
              "material": 0
            }
          }
        },
        {
          "shells": [
            [
              1,
              1
            ]
          ],
          "mesh": 1,
          "extras": {
            "KITTYCAD": {
              "material": 1
            }
          }
        }
      ],
      "shells": [
        {
          "faces": [
            [
              0,
              1
            ]
          ]
        },
        {
          "faces": [
            [
              1,
              1
            ]
          ]
        }
      ],
      "faces": [
        {
          "surface": [
            0,
            1
          ],
          "loops": [
            [
              0,
              1
            ]
          ]
        },
        {
          "surface": [
            1,
            1
          ],
          "loops": [
            [
              1,
              1
            ]
          ]
        }
      ],
      "loops": [
        {
          "edges": [
            [
              0,
              -1
            ],
            [
              1,
              -1
            ],
            [
              2,
              -1
            ],
            [
              3,
              -1
            ]
          ]
        },
        {
          "edges": [
            [
              4,
              -1
            ],
            [
              5,
              -1
            ],
            [
              6,
              -1
            ],
            [
              7,
              -1
            ]
          ]
        }
      ],
      "edges": [
        {
          "curve": [
            0,
            1
          ],
          "start": 0,
          "end": 1,
          "t": [
            0,
            0.006308597308435529
          ]
        },
        {
          "curve": [
            1,
            1
          ],
          "start": 2,
          "end": 0,
          "t": [
            3.141592653589793,
            6.283185307179586
          ]
        },
        {
          "curve": [
            2,
            1
          ],
          "start": 3,
          "end": 2,
          "t": [
            0,
            0.006308597308435529
          ]
        },
        {
          "curve": [
            3,
            1
          ],
          "start": 1,
          "end": 3,
          "t": [
            0,
            3.141592653589793
          ]
        },
        {
          "curve": [
            4,
            1
          ],
          "start": 4,
          "end": 5,
          "t": [
            0,
            0.006308597308435529
          ]
        },
        {
          "curve": [
            5,
            1
          ],
          "start": 6,
          "end": 4,
          "t": [
            0,
            1.5707963267948966
          ]
        },
        {
          "curve": [
            6,
            1
          ],
          "start": 7,
          "end": 6,
          "t": [
            0,
            0.006308597308435529
          ]
        },
        {
          "curve": [
            7,
            1
          ],
          "start": 5,
          "end": 7,
          "t": [
            4.71238898038469,
            6.283185307179586
          ]
        }
      ],
      "vertices": [
        [
          0,
          -0.00259,
          0.00593
        ],
        [
          0,
          0.00369,
          0.00533
        ],
        [
          0,
          -0.00259,
          -0.00593
        ],
        [
          0,
          0.00369,
          -0.00533
        ],
        [
          -0.00593,
          -0.00259,
          0
        ],
        [
          -0.00533,
          0.00369,
          0
        ],
        [
          0,
          -0.00259,
          0.00593
        ],
        [
          0,
          0.00369,
          0.00533
        ]
      ],
      "surfaces": [
        {
          "type": "cone",
          "cone": {
            "xAxis": [
              0,
              0,
              1
            ],
            "yAxis": [
              -1,
              0,
              0
            ],
            "origin": [
              0,
              0.00369,
              -0
            ],
            "radius": 0.00533,
            "semiAngle": 0.09525228
          }
        },
        {
          "type": "cone",
          "cone": {
            "xAxis": [
              -1,
              0,
              0
            ],
            "yAxis": [
              -0,
              0,
              -1
            ],
            "origin": [
              0,
              0.00369,
              -0
            ],
            "radius": 0.00533,
            "semiAngle": 0.09525228
          }
        }
      ],
      "curves3D": [
        {
          "type": "line",
          "line": {
            "origin": [
              0,
              -0.00259,
              0.00593
            ],
            "direction": [
              0,
              0.9954669307553852,
              -0.09510830548618342
            ]
          }
        },
        {
          "type": "circle",
          "circle": {
            "xAxis": [
              0,
              0,
              1
            ],
            "yAxis": [
              -1,
              0,
              0
            ],
            "origin": [
              0,
              -0.00259,
              0
            ],
            "radius": 0.00593
          }
        },
        {
          "type": "line",
          "line": {
            "origin": [
              0,
              0.00369,
              -0.00533
            ],
            "direction": [
              0,
              -0.9954669307553852,
              -0.09510830548618342
            ]
          }
        },
        {
          "type": "circle",
          "circle": {
            "xAxis": [
              0,
              -0,
              1
            ],
            "yAxis": [
              1,
              0,
              -0
            ],
            "origin": [
              0,
              0.00369,
              0
            ],
            "radius": 0.00533
          }
        },
        {
          "type": "line",
          "line": {
            "origin": [
              -0.00593,
              -0.00259,
              0
            ],
            "direction": [
              0.09510830548618342,
              0.9954669307553852,
              0
            ]
          }
        },
        {
          "type": "circle",
          "circle": {
            "xAxis": [
              0,
              0,
              1
            ],
            "yAxis": [
              -1,
              0,
              0
            ],
            "origin": [
              0,
              -0.00259,
              0
            ],
            "radius": 0.00593
          }
        },
        {
          "type": "line",
          "line": {
            "origin": [
              0,
              0.00369,
              0.00533
            ],
            "direction": [
              0,
              -0.9954669307553852,
              0.09510830548618342
            ]
          }
        },
        {
          "type": "circle",
          "circle": {
            "xAxis": [
              0,
              -0,
              1
            ],
            "yAxis": [
              1,
              0,
              -0
            ],
            "origin": [
              0,
              0.00369,
              0
            ],
            "radius": 0.00533
          }
        }
      ]
    }
  },
  "extensionsUsed": [
    "KITTYCAD_boundary_representation"
  ],
  "materials": [
    {
      "alphaMode": "OPAQUE",
      "doubleSided": false,
      "pbrMetallicRoughness": {
        "baseColorFactor": [
          0.9,
          0.9,
          0.9,
          1
        ],
        "metallicFactor": 1,
        "roughnessFactor": 1
      },
      "emissiveFactor": [
        0,
        0,
        0
      ]
    },
    {
      "alphaMode": "OPAQUE",
      "doubleSided": false,
      "pbrMetallicRoughness": {
        "baseColorFactor": [
          0.9,
          0.9,
          0.9,
          1
        ],
        "metallicFactor": 1,
        "roughnessFactor": 1
      },
      "emissiveFactor": [
        0,
        0,
        0
      ]
    }
  ],
  "meshes": [
    {
      "primitives": [
        {
          "attributes": {
            "POSITION": 0,
            "NORMAL": 1
          },
          "material": 0
        }
      ]
    },
    {
      "primitives": [
        {
          "attributes": {
            "POSITION": 2,
            "NORMAL": 3
          },
          "material": 1
        }
      ]
    }
  ],
  "nodes": [
    {
      "children": [
        1
      ]
    },
    {
      "children": [
        2,
        3
      ]
    },
    {
      "extensions": {
        "KITTYCAD_boundary_representation": {
          "solid": 0
        }
      },
      "mesh": 0
    },
    {
      "extensions": {
        "KITTYCAD_boundary_representation": {
          "solid": 1
        }
      },
      "mesh": 1
    }
  ],
  "scenes": [
    {
      "nodes": [
        0
      ]
    }
  ]
}