{
  "accessors": [
    {
      "bufferView": 0,
      "byteOffset": 0,
      "count": 6,
      "componentType": 5126,
      "type": "VEC3",
      "min": [
        -0.009999999776482582,
        0,
        -0.009999999776482582
      ],
      "max": [
        0.0000000000000000006123233952733111,
        0.0020000000949949026,
        -0.0000000000000000012246467905466221
      ]
    },
    {
      "bufferView": 0,
      "byteOffset": 12,
      "count": 6,
      "componentType": 5126,
      "type": "VEC3"
    },
    {
      "bufferView": 1,
      "byteOffset": 0,
      "count": 6,
      "componentType": 5126,
      "type": "VEC3",
      "min": [
        -0.009999999776482582,
        0,
        -0.0000000000000000012246467905466221
      ],
      "max": [
        -0.000000000000000001836970237518721,
        0.0020000000949949026,
        0.009999999776482582
      ]
    },
    {
      "bufferView": 1,
      "byteOffset": 12,
      "count": 6,
      "componentType": 5126,
      "type": "VEC3"
    },
    {
      "bufferView": 2,
      "byteOffset": 0,
      "count": 6,
      "componentType": 5126,
      "type": "VEC3",
      "min": [
        -0.000000000000000001836970237518721,
        0,
        -0
      ],
      "max": [
        0.009999999776482582,
        0.0020000000949949026,
        0.009999999776482582
      ]
    },
    {
      "bufferView": 2,
      "byteOffset": 12,
      "count": 6,
      "componentType": 5126,
      "type": "VEC3"
    },
    {
      "bufferView": 3,
      "byteOffset": 0,
      "count": 6,
      "componentType": 5126,
      "type": "VEC3",
      "min": [
        -0.009999999776482582,
        0,
        -0.009999999776482582
      ],
      "max": [
        0.009999999776482582,
        0,
        0.009999999776482582
      ]
    },
    {
      "bufferView": 3,
      "byteOffset": 12,
      "count": 6,
      "componentType": 5126,
      "type": "VEC3"
    }
  ],
  "asset": {
    "generator": "zoo.dev",
    "version": "2.0"
  },
  "buffers": [
    {
      "byteLength": 576,
      "uri": "data:application/octet-stream;base64,"
    }
  ],
  "bufferViews": [
    {
      "buffer": 0,
      "byteLength": 144,
      "byteOffset": 0,
      "byteStride": 24,
      "target": 34962
    },
    {
      "buffer": 0,
      "byteLength": 144,
      "byteOffset": 144,
      "byteStride": 24,
      "target": 34962
    },
    {
      "buffer": 0,
      "byteLength": 144,
      "byteOffset": 288,
      "byteStride": 24,
      "target": 34962
    },
    {
      "buffer": 0,
      "byteLength": 144,
      "byteOffset": 432,
      "byteStride": 24,
      "target": 34962
    }
  ],
  "scene": 0,
  "extensions": {
    "KITTYCAD_boundary_representation": {
      "solids": [
        {
          "shells": [
            [
              0,
              1
            ]
          ],
          "mesh": 0,
          "extras": {
            "KITTYCAD": {
              "material": 0
            }
          }
        }
      ],
      "shells": [
        {
          "faces": [
            [
              0,
              1
            ],
            [
              1,
              1
            ],
            [
              2,
              1
            ],
            [
              3,
              1
            ]
          ]
        }
      ],
      "faces": [
        {
          "surface": [
            0,
            1
          ],
          "loops": [
            [
              0,
              1
            ]
          ]
        },
        {
          "surface": [
            1,
            1
          ],
          "loops": [
            [
              1,
              1
            ]
          ]
        },
        {
          "surface": [
            2,
            1
          ],
          "loops": [
            [
              2,
              1
            ]
          ]
        },
        {
          "surface": [
            3,
            -1
          ],
          "loops": [
            [
              3,
              1
            ]
          ]
        }
      ],
      "loops": [
        {
          "edges": [
            [
              0,
              1
            ],
            [
              1,
              1
            ],
            [
              2,
              -1
            ],
            [
              3,
              -1
            ]
          ]
        },
        {
          "edges": [
            [
              4,
              1
            ],
            [
              5,
              1
            ],
            [
              6,
              -1
            ],
            [
              1,
              -1
            ]
          ]
        },
        {
          "edges": [
            [
              7,
              1
            ],
            [
              8,
              1
            ],
            [
              9,
              -1
            ],
            [
              5,
              -1
            ]
          ]
        },
        {
          "edges": [
            [
              7,
              -1
            ],
            [
              4,
              -1
            ],
            [
              0,
              -1
            ],
            [
              10,
              -1
            ]
          ]
        }
      ],
      "edges": [
        {
          "curve": [
            0,
            1
          ],
          "start": 0,
          "end": 1,
          "t": [
            0,
            0.01414213562373095
          ]
        },
        {
          "curve": [
            1,
            1
          ],
          "start": 1,
          "end": 2,
          "t": [
            0,
            0.002
          ]
        },
        {
          "curve": [
            2,
            1
          ],
          "start": 3,
          "end": 2,
          "t": [
            0,
            0.01414213562373095
          ]
        },
        {
          "curve": [
            3,
            1
          ],
          "start": 0,
          "end": 3,
          "t": [
            0,
            0.002
          ]
        },
        {
          "curve": [
            4,
            1
          ],
          "start": 1,
          "end": 4,
          "t": [
            0,
            0.01414213562373095
          ]
        },
        {
          "curve": [
            5,
            1
          ],
          "start": 4,
          "end": 5,
          "t": [
            0,
            0.002
          ]
        },
        {
          "curve": [
            6,
            1
          ],
          "start": 2,
          "end": 5,
          "t": [
            0,
            0.01414213562373095
          ]
        },
        {
          "curve": [
            7,
            1
          ],
          "start": 4,
          "end": 6,
          "t": [
            0,
            0.014142135623730952
          ]
        },
        {
          "curve": [
            8,
            1
          ],
          "start": 6,
          "end": 7,
          "t": [
            0,
            0.002
          ]
        },
        {
          "curve": [
            9,
            1
          ],
          "start": 5,
          "end": 7,
          "t": [
            0,
            0.014142135623730952
          ]
        },
        {
          "curve": [
            10,
            1
          ],
          "start": 6,
          "end": 0,
          "t": [
            0,
            0.01414213562373095
          ]
        }
      ],
      "vertices": [
        [
          0.0000000000000000006123233995736766,
          0,
          -0.01
        ],
        [
          -0.01,
          0,
          -0.0000000000000000012246467991473532
        ],
        [
          -0.01,
          0.002,
          -0.0000000000000000012246467991473532
        ],
        [
          0.0000000000000000006123233995736766,
          0.002,
          -0.01
        ],
        [
          -0.0000000000000000018369701987210296,
          0,
          0.01
        ],
        [
          -0.0000000000000000018369701987210296,
          0.002,
          0.01
        ],
        [
          0.01,
          0,
          -0
        ],
        [
          0.01,
          0.002,
          -0
        ]
      ],
      "surfaces": [
        {
          "type": "plane",
          "plane": {
            "xAxis": [
              0.7071067811865476,
              0,
              -0.7071067811865476
            ],
            "yAxis": [
              0,
              -1,
              -0
            ],
            "origin": [
              -0.005,
              0.001,
              -0.005
            ]
          }
        },
        {
          "type": "plane",
          "plane": {
            "xAxis": [
              0.7071067811865474,
              0,
              0.7071067811865477
            ],
            "yAxis": [
              0,
              1,
              -0
            ],
            "origin": [
              -0.005000000000000002,
              0.001,
              0.005
            ]
          }
        },
        {
          "type": "plane",
          "plane": {
            "xAxis": [
              0.7071067811865477,
              0,
              -0.7071067811865475
            ],
            "yAxis": [
              -0,
              1,
              0
            ],
            "origin": [
              0.004999999999999999,
              0.001,
              0.005
            ]
          }
        },
        {
          "type": "plane",
          "plane": {
            "xAxis": [
              1,
              0,
              0
            ],
            "yAxis": [
              0,
              0,
              -1
            ],
            "origin": [
              0,
              0,
              -0
            ]
          }
        }
      ],
      "curves3D": [
        {
          "type": "line",
          "line": {
            "origin": [
              0.0000000000000000006123233995736766,
              0,
              -0.01
            ],
            "direction": [
              -0.7071067811865476,
              0,
              0.7071067811865475
            ]
          }
        },
        {
          "type": "line",
          "line": {
            "origin": [
              -0.01,
              0,
              -0.0000000000000000012246467991473532
            ],
            "direction": [
              0,
              1,
              0
            ]
          }
        },
        {
          "type": "line",
          "line": {
            "origin": [
              0.0000000000000000006123233995736766,
              0.002,
              -0.01
            ],
            "direction": [
              -0.7071067811865476,
              0,
              0.7071067811865475
            ]
          }
        },
        {
          "type": "line",
          "line": {
            "origin": [
              0.0000000000000000006123233995736766,
              0,
              -0.01
            ],
            "direction": [
              0,
              1,
              0
            ]
          }
        },
        {
          "type": "line",
          "line": {
            "origin": [
              -0.01,
              0,
              -0.0000000000000000012246467991473532
            ],
            "direction": [
              0.7071067811865475,
              0,
              0.7071067811865477
            ]
          }
        },
        {
          "type": "line",
          "line": {
            "origin": [
              -0.0000000000000000018369701987210296,
              0,
              0.01
            ],
            "direction": [
              0,
              1,
              0
            ]
          }
        },
        {
          "type": "line",
          "line": {
            "origin": [
              -0.01,
              0.002,
              -0.0000000000000000012246467991473532
            ],
            "direction": [
              0.7071067811865475,
              0,
              0.7071067811865477
            ]
          }
        },
        {
          "type": "line",
          "line": {
            "origin": [
              -0.0000000000000000018369701987210296,
              0,
              0.01
            ],
            "direction": [
              0.7071067811865476,
              0,
              -0.7071067811865475
            ]
          }
        },
        {
          "type": "line",
          "line": {
            "origin": [
              0.01,
              0,
              -0
            ],
            "direction": [
              0,
              1,
              0
            ]
          }
        },
        {
          "type": "line",
          "line": {
            "origin": [
              -0.0000000000000000018369701987210296,
              0.002,
              0.01
            ],
            "direction": [
              0.7071067811865476,
              0,
              -0.7071067811865475
            ]
          }
        },
        {
          "type": "line",
          "line": {
            "origin": [
              0.01,
              0,
              -0
            ],
            "direction": [
              -0.7071067811865476,
              0,
              -0.7071067811865476
            ]
          }
        }
      ]
    }
  },
  "extensionsUsed": [
    "KITTYCAD_boundary_representation"
  ],
  "materials": [
    {
      "alphaMode": "OPAQUE",
      "doubleSided": false,
      "pbrMetallicRoughness": {
        "baseColorFactor": [
          0.9,
          0.9,
          0.9,
          1
        ],
        "metallicFactor": 1,
        "roughnessFactor": 1
      },
      "emissiveFactor": [
        0,
        0,
        0
      ]
    }
  ],
  "meshes": [
    {
      "primitives": [
        {
          "attributes": {
            "POSITION": 0,
            "NORMAL": 1
          },
          "material": 0
        },
        {
          "attributes": {
            "POSITION": 2,
            "NORMAL": 3
          },
          "material": 0
        },
        {
          "attributes": {
            "POSITION": 4,
            "NORMAL": 5
          },
          "material": 0
        },
        {
          "attributes": {
            "POSITION": 6,
            "NORMAL": 7
          },
          "material": 0
        }
      ]
    }
  ],
  "nodes": [
    {
      "children": [
        1
      ]
    },
    {
      "children": [
        2
      ]
    },
    {
      "extensions": {
        "KITTYCAD_boundary_representation": {
          "solid": 0
        }
      },
      "mesh": 0
    }
  ],
  "scenes": [
    {
      "nodes": [
        0
      ]
    }
  ]
}