{
  "accessors": [
    {
      "bufferView": 0,
      "byteOffset": 0,
      "count": 384,
      "componentType": 5126,
      "type": "VEC3",
      "min": [
        -0.009999999776482582,
        -0.009999999776482582,
        -0.004999999888241291
      ],
      "max": [
        0.009999999776482582,
        0,
        -0
      ]
    },
    {
      "bufferView": 0,
      "byteOffset": 12,
      "count": 384,
      "componentType": 5126,
      "type": "VEC3"
    },
    {
      "bufferView": 1,
      "byteOffset": 0,
      "count": 384,
      "componentType": 5126,
      "type": "VEC3",
      "min": [
        -0.014999999664723871,
        -0.014999999664723871,
        -0.007000000216066837
      ],
      "max": [
        0.014999999664723871,
        0,
        -0.006000000052154064
      ]
    },
    {
      "bufferView": 1,
      "byteOffset": 12,
      "count": 384,
      "componentType": 5126,
      "type": "VEC3"
    },
    {
      "bufferView": 2,
      "byteOffset": 0,
      "count": 384,
      "componentType": 5126,
      "type": "VEC3",
      "min": [
        -0.009999999776482582,
        0.029999999329447743,
        -0.004999999888241291
      ],
      "max": [
        0.009999999776482582,
        0.03999999910593033,
        0
      ]
    },
    {
      "bufferView": 2,
      "byteOffset": 12,
      "count": 384,
      "componentType": 5126,
      "type": "VEC3"
    },
    {
      "bufferView": 3,
      "byteOffset": 0,
      "count": 384,
      "componentType": 5126,
      "type": "VEC3",
      "min": [
        -0.014999999664723871,
        0.014999999664723871,
        -0.007000000216066837
      ],
      "max": [
        0.014999999664723871,
        0.029999999329447743,
        -0.006000000052154064
      ]
    },
    {
      "bufferView": 3,
      "byteOffset": 12,
      "count": 384,
      "componentType": 5126,
      "type": "VEC3"
    },
    {
      "bufferView": 4,
      "byteOffset": 0,
      "count": 384,
      "componentType": 5126,
      "type": "VEC3",
      "min": [
        -0.009999999776482582,
        0.019999999552965164,
        -0.004999999888241291
      ],
      "max": [
        0.009999999776482582,
        0.029999999329447743,
        0
      ]
    },
    {
      "bufferView": 4,
      "byteOffset": 12,
      "count": 384,
      "componentType": 5126,
      "type": "VEC3"
    },
    {
      "bufferView": 5,
      "byteOffset": 0,
      "count": 384,
      "componentType": 5126,
      "type": "VEC3",
      "min": [
        -0.014999999664723871,
        0.029999999329447743,
        -0.007000000216066837
      ],
      "max": [
        0.014999999664723871,
        0.04500000178813934,
        -0.006000000052154064
      ]
    },
    {
      "bufferView": 5,
      "byteOffset": 12,
      "count": 384,
      "componentType": 5126,
      "type": "VEC3"
    }
  ],
  "asset": {
    "generator": "zoo.dev",
    "version": "2.0"
  },
  "buffers": [
    {
      "byteLength": 55296,
      "uri": "data:application/octet-stream;base64,"
    }
  ],
  "bufferViews": [
    {
      "buffer": 0,
      "byteLength": 9216,
      "byteOffset": 0,
      "byteStride": 24,
      "target": 34962
    },
    {
      "buffer": 0,
      "byteLength": 9216,
      "byteOffset": 9216,
      "byteStride": 24,
      "target": 34962
    },
    {
      "buffer": 0,
      "byteLength": 9216,
      "byteOffset": 18432,
      "byteStride": 24,
      "target": 34962
    },
    {
      "buffer": 0,
      "byteLength": 9216,
      "byteOffset": 27648,
      "byteStride": 24,
      "target": 34962
    },
    {
      "buffer": 0,
      "byteLength": 9216,
      "byteOffset": 36864,
      "byteStride": 24,
      "target": 34962
    },
    {
      "buffer": 0,
      "byteLength": 9216,
      "byteOffset": 46080,
      "byteStride": 24,
      "target": 34962
    }
  ],
  "scene": 0,
  "extensions": {
    "KITTYCAD_boundary_representation": {
      "solids": [
        {
          "shells": [
            [
              0,
              1
            ]
          ],
          "mesh": 0,
          "extras": {
            "KITTYCAD": {
              "material": 0
            }
          }
        },
        {
          "shells": [
            [
              1,
              1
            ]
          ],
          "mesh": 1,
          "extras": {
            "KITTYCAD": {
              "material": 1
            }
          }
        }
      ],
      "shells": [
        {
          "faces": [
            [
              0,
              1
            ],
            [
              1,
              1
            ]
          ]
        },
        {
          "faces": [
            [
              2,
              1
            ],
            [
              3,
              1
            ],
            [
              4,
              1
            ],
            [
              5,
              1
            ]
          ]
        }
      ],
      "faces": [
        {
          "surface": [
            0,
            -1
          ],
          "loops": [
            [
              0,
              1
            ]
          ]
        },
        {
          "surface": [
            1,
            1
          ],
          "loops": [
            [
              1,
              1
            ]
          ]
        },
        {
          "surface": [
            2,
            -1
          ],
          "loops": [
            [
              2,
              1
            ]
          ]
        },
        {
          "surface": [
            3,
            1
          ],
          "loops": [
            [
              3,
              1
            ]
          ]
        },
        {
          "surface": [
            2,
            -1
          ],
          "loops": [
            [
              4,
              1
            ]
          ]
        },
        {
          "surface": [
            3,
            1
          ],
          "loops": [
            [
              5,
              1
            ]
          ]
        }
      ],
      "loops": [
        {
          "edges": [
            [
              0,
              -1
            ],
            [
              1,
              -1
            ],
            [
              2,
              -1
            ],
            [
              3,
              -1
            ]
          ]
        },
        {
          "edges": [
            [
              4,
              -1
            ],
            [
              5,
              -1
            ],
            [
              6,
              -1
            ],
            [
              7,
              -1
            ]
          ]
        },
        {
          "edges": [
            [
              8,
              -1
            ],
            [
              9,
              -1
            ],
            [
              10,
              1
            ],
            [
              11,
              -1
            ]
          ]
        },
        {
          "edges": [
            [
              12,
              1
            ],
            [
              13,
              -1
            ],
            [
              14,
              -1
            ],
            [
              15,
              -1
            ]
          ]
        },
        {
          "edges": [
            [
              8,
              1
            ],
            [
              16,
              -1
            ],
            [
              10,
              -1
            ],
            [
              17,
              -1
            ]
          ]
        },
        {
          "edges": [
            [
              12,
              -1
            ],
            [
              18,
              -1
            ],
            [
              14,
              1
            ],
            [
              19,
              -1
            ]
          ]
        }
      ],
      "edges": [
        {
          "curve": [
            0,
            1
          ],
          "start": 0,
          "end": 1,
          "t": [
            0,
            0.005
          ]
        },
        {
          "curve": [
            1,
            1
          ],
          "start": 2,
          "end": 0,
          "t": [
            3.141592653589793,
            6.283185307179586
          ]
        },
        {
          "curve": [
            2,
            1
          ],
          "start": 3,
          "end": 2,
          "t": [
            0,
            0.005
          ]
        },
        {
          "curve": [
            3,
            1
          ],
          "start": 1,
          "end": 3,
          "t": [
            0,
            3.141592653589793
          ]
        },
        {
          "curve": [
            4,
            1
          ],
          "start": 4,
          "end": 5,
          "t": [
            0,
            0.0031622776601683785
          ]
        },
        {
          "curve": [
            5,
            1
          ],
          "start": 6,
          "end": 4,
          "t": [
            3.141592653589793,
            6.283185307179586
          ]
        },
        {
          "curve": [
            6,
            1
          ],
          "start": 7,
          "end": 6,
          "t": [
            0,
            0.0031622776601683785
          ]
        },
        {
          "curve": [
            7,
            1
          ],
          "start": 5,
          "end": 7,
          "t": [
            0,
            3.141592653589793
          ]
        },
        {
          "curve": [
            8,
            -1
          ],
          "start": 8,
          "end": 9,
          "t": [
            0,
            0.004999999999999999
          ]
        },
        {
          "curve": [
            9,
            1
          ],
          "start": 10,
          "end": 8,
          "t": [
            0,
            3.141592653589793
          ]
        },
        {
          "curve": [
            10,
            -1
          ],
          "start": 10,
          "end": 11,
          "t": [
            0,
            0.005
          ]
        },
        {
          "curve": [
            11,
            1
          ],
          "start": 9,
          "end": 11,
          "t": [
            3.141592653589793,
            6.283185307179586
          ]
        },
        {
          "curve": [
            12,
            -1
          ],
          "start": 12,
          "end": 13,
          "t": [
            -0.0000000000000000004336808689942019,
            0.003162277637416539
          ]
        },
        {
          "curve": [
            13,
            1
          ],
          "start": 14,
          "end": 13,
          "t": [
            0,
            3.141592653589793
          ]
        },
        {
          "curve": [
            14,
            -1
          ],
          "start": 15,
          "end": 14,
          "t": [
            -0.0000000000000000008673617379884035,
            0.003162277637416539
          ]
        },
        {
          "curve": [
            15,
            1
          ],
          "start": 12,
          "end": 15,
          "t": [
            3.141592653589793,
            6.283185307179586
          ]
        },
        {
          "curve": [
            11,
            1
          ],
          "start": 11,
          "end": 9,
          "t": [
            0,
            3.141592653589793
          ]
        },
        {
          "curve": [
            9,
            1
          ],
          "start": 8,
          "end": 10,
          "t": [
            3.141592653589793,
            6.283185307179586
          ]
        },
        {
          "curve": [
            15,
            1
          ],
          "start": 15,
          "end": 12,
          "t": [
            0,
            3.141592653589793
          ]
        },
        {
          "curve": [
            13,
            1
          ],
          "start": 13,
          "end": 14,
          "t": [
            3.141592653589793,
            6.283185307179586
          ]
        }
      ],
      "vertices": [
        [
          0.01,
          0,
          -0.005
        ],
        [
          0.01,
          0,
          -0
        ],
        [
          -0.01,
          -0,
          -0.005
        ],
        [
          -0.01,
          -0,
          -0
        ],
        [
          0.015,
          0,
          -0.006
        ],
        [
          0.012,
          0,
          -0.007
        ],
        [
          -0.015,
          -0,
          -0.006
        ],
        [
          -0.012,
          -0,
          -0.007
        ],
        [
          -0.01,
          0.03,
          -0.005
        ],
        [
          -0.01,
          0.03,
          0
        ],
        [
          0.01,
          0.03,
          -0.005
        ],
        [
          0.01,
          0.03,
          -0
        ],
        [
          -0.015,
          0.03,
          -0.006
        ],
        [
          -0.012,
          0.03,
          -0.007
        ],
        [
          0.012,
          0.03,
          -0.007
        ],
        [
          0.015,
          0.03,
          -0.006
        ]
      ],
      "surfaces": [
        {
          "type": "cylinder",
          "cylinder": {
            "xAxis": [
              1,
              0,
              -0
            ],
            "yAxis": [
              0,
              -1,
              -0
            ],
            "origin": [
              0,
              0,
              -0
            ],
            "radius": 0.01
          }
        },
        {
          "type": "cone",
          "cone": {
            "xAxis": [
              1,
              0,
              -0
            ],
            "yAxis": [
              -0,
              1,
              0
            ],
            "origin": [
              0,
              0,
              -0.007
            ],
            "radius": 0.012,
            "semiAngle": 1.24904577
          }
        },
        {
          "type": "cylinder",
          "cylinder": {
            "xAxis": [
              1,
              0,
              -0
            ],
            "yAxis": [
              0,
              -1,
              -0
            ],
            "origin": [
              0,
              0.03,
              -0
            ],
            "radius": 0.01
          }
        },
        {
          "type": "cone",
          "cone": {
            "xAxis": [
              1,
              0,
              -0
            ],
            "yAxis": [
              -0,
              1,
              0
            ],
            "origin": [
              0,
              0.03,
              -0.007
            ],
            "radius": 0.012,
            "semiAngle": 1.24904577
          }
        }
      ],
      "curves3D": [
        {
          "type": "line",
          "line": {
            "origin": [
              0.01,
              0,
              -0.005
            ],
            "direction": [
              0,
              0,
              1
            ]
          }
        },
        {
          "type": "circle",
          "circle": {
            "xAxis": [
              1,
              0,
              -0
            ],
            "yAxis": [
              -0,
              1,
              0
            ],
            "origin": [
              0,
              0,
              -0.005
            ],
            "radius": 0.01
          }
        },
        {
          "type": "line",
          "line": {
            "origin": [
              -0.01,
              0,
              0
            ],
            "direction": [
              0,
              0,
              -1
            ]
          }
        },
        {
          "type": "circle",
          "circle": {
            "xAxis": [
              1,
              0,
              -0
            ],
            "yAxis": [
              0,
              -1,
              -0
            ],
            "origin": [
              0,
              0,
              -0
            ],
            "radius": 0.01
          }
        },
        {
          "type": "line",
          "line": {
            "origin": [
              0.015,
              0,
              -0.006
            ],
            "direction": [
              -0.9486832980505138,
              0,
              -0.316227766016838
            ]
          }
        },
        {
          "type": "circle",
          "circle": {
            "xAxis": [
              1,
              0,
              -0
            ],
            "yAxis": [
              -0,
              1,
              0
            ],
            "origin": [
              0,
              0,
              -0.006
            ],
            "radius": 0.015
          }
        },
        {
          "type": "line",
          "line": {
            "origin": [
              -0.012,
              0,
              -0.007
            ],
            "direction": [
              -0.9486832980505138,
              0,
              0.316227766016838
            ]
          }
        },
        {
          "type": "circle",
          "circle": {
            "xAxis": [
              1,
              0,
              0
            ],
            "yAxis": [
              0,
              -1,
              0
            ],
            "origin": [
              0,
              0,
              -0.007
            ],
            "radius": 0.012
          }
        },
        {
          "type": "line",
          "line": {
            "origin": [
              -0.01,
              0.03,
              0
            ],
            "direction": [
              0,
              0,
              -1
            ]
          }
        },
        {
          "type": "circle",
          "circle": {
            "xAxis": [
              1,
              0,
              -0
            ],
            "yAxis": [
              -0,
              1,
              0
            ],
            "origin": [
              0,
              0.03,
              -0.005
            ],
            "radius": 0.01
          }
        },
        {
          "type": "line",
          "line": {
            "origin": [
              0.01,
              0.03,
              0
            ],
            "direction": [
              0,
              0,
              -1
            ]
          }
        },
        {
          "type": "circle",
          "circle": {
            "xAxis": [
              1,
              0,
              -0
            ],
            "yAxis": [
              0,
              -1,
              -0
            ],
            "origin": [
              0,
              0.03,
              -0
            ],
            "radius": 0.01
          }
        },
        {
          "type": "line",
          "line": {
            "origin": [
              -0.012,
              0.03,
              -0.007
            ],
            "direction": [
              -0.9486832972921192,
              0.00000000000000011618019634333512,
              0.3162277682920219
            ]
          }
        },
        {
          "type": "circle",
          "circle": {
            "xAxis": [
              1,
              0,
              0
            ],
            "yAxis": [
              0,
              -1,
              0
            ],
            "origin": [
              0,
              0.03,
              -0.007
            ],
            "radius": 0.012
          }
        },
        {
          "type": "line",
          "line": {
            "origin": [
              0.012,
              0.03,
              -0.007
            ],
            "direction": [
              0.9486832972921192,
              0,
              0.3162277682920219
            ]
          }
        },
        {
          "type": "circle",
          "circle": {
            "xAxis": [
              1,
              0,
              -0
            ],
            "yAxis": [
              -0,
              1,
              0
            ],
            "origin": [
              0,
              0.03,
              -0.006
            ],
            "radius": 0.015
          }
        }
      ]
    }
  },
  "extensionsUsed": [
    "KITTYCAD_boundary_representation"
  ],
  "materials": [
    {
      "alphaMode": "OPAQUE",
      "doubleSided": false,
      "pbrMetallicRoughness": {
        "baseColorFactor": [
          0.9,
          0.9,
          0.9,
          1
        ],
        "metallicFactor": 1,
        "roughnessFactor": 1
      },
      "emissiveFactor": [
        0,
        0,
        0
      ]
    },
    {
      "alphaMode": "OPAQUE",
      "doubleSided": false,
      "pbrMetallicRoughness": {
        "baseColorFactor": [
          0.9,
          0.9,
          0.9,
          1
        ],
        "metallicFactor": 1,
        "roughnessFactor": 1
      },
      "emissiveFactor": [
        0,
        0,
        0
      ]
    }
  ],
  "meshes": [
    {
      "primitives": [
        {
          "attributes": {
            "POSITION": 0,
            "NORMAL": 1
          },
          "material": 0
        },
        {
          "attributes": {
            "POSITION": 2,
            "NORMAL": 3
          },
          "material": 0
        }
      ]
    },
    {
      "primitives": [
        {
          "attributes": {
            "POSITION": 4,
            "NORMAL": 5
          },
          "material": 1
        },
        {
          "attributes": {
            "POSITION": 6,
            "NORMAL": 7
          },
          "material": 1
        },
        {
          "attributes": {
            "POSITION": 8,
            "NORMAL": 9
          },
          "material": 1
        },
        {
          "attributes": {
            "POSITION": 10,
            "NORMAL": 11
          },
          "material": 1
        }
      ]
    }
  ],
  "nodes": [
    {
      "children": [
        1
      ]
    },
    {
      "children": [
        2,
        3
      ]
    },
    {
      "extensions": {
        "KITTYCAD_boundary_representation": {
          "solid": 0
        }
      },
      "mesh": 0
    },
    {
      "extensions": {
        "KITTYCAD_boundary_representation": {
          "solid": 1
        }
      },
      "mesh": 1
    }
  ],
  "scenes": [
    {
      "nodes": [
        0
      ]
    }
  ]
}