ply
format ascii 1.0
comment Generated by kittycad.io
element vertex 204
property float x
property float y
property float z
element face 68
property list uchar uint vertex_indices
end_header
0 0 4
0 0 0
0 -1 4
0 -1 4
0 0 0
0 -1 0
0 -1 4
0 -1 0
3.0950184 -1 4
3.0950184 -1 4
0 -1 0
3.0950184 -1 0
3.0950184 -1 4
3.0950184 -1 0
5.9513144 -3 4
5.9513144 -3 4
3.0950184 -1 0
5.9513144 -3 0
5.9513144 -3 4
5.9513144 -3 0
9.5 -3 4
9.5 -3 4
5.9513144 -3 0
9.5 -3 0
9.5 -3 4
9.5 -3 0
9.5 -2.5 4
9.5 -2.5 4
9.5 -3 0
9.5 -2.5 0
9.5 -2.5 4
9.5 -2.5 0
6.108964 -2.5 4
6.108964 -2.5 4
9.5 -2.5 0
6.108964 -2.5 0
3.4311862 -0.625 4
4.323779 -1.25 4
4.323779 -1.25 0
4.323779 -1.25 4
6.108964 -2.5 4
6.108964 -2.5 0
3.4311862 -0.625 0
2.5385938 0 0
2.5385938 0 4
3.4311862 -0.625 4
3.4311862 -0.625 0
2.5385938 0 4
4.323779 -1.25 4
6.108964 -2.5 0
4.323779 -1.25 0
3.4311862 -0.625 0
3.4311862 -0.625 4
4.323779 -1.25 0
3.342784 0.375 4
2.5385938 0 4
2.5385938 0 0
4.146974 0.75 4
3.342784 0.375 4
3.342784 0.375 0
3.342784 0.375 0
4.146974 0.75 0
4.146974 0.75 4
4.146974 0.75 0
5.755354 1.5 0
5.755354 1.5 4
3.342784 0.375 4
2.5385938 0 0
3.342784 0.375 0
5.755354 1.5 4
4.146974 0.75 4
4.146974 0.75 0
5.755354 1.5 4
5.755354 1.5 0
9.5 1.5 4
9.5 1.5 4
5.755354 1.5 0
9.5 1.5 0
9.5 1.5 4
9.5 1.5 0
9.5 2 4
9.5 2 4
9.5 1.5 0
9.5 2 0
9.5 2 4
9.5 2 0
5.644507 2 4
5.644507 2 4
9.5 2 0
5.644507 2 0
5.644507 2 4
5.644507 2 0
3.5 1 4
3.5 1 4
5.644507 2 0
3.5 1 0
3.5 1 4
3.5 1 0
0 1 4
0 1 4
3.5 1 0
0 1 0
0 1 4
0 1 0
0 0 4
0 0 4
0 1 0
0 0 0
3.342784 0.375 0
2.5385938 0 0
3.5 1 0
3.4311862 -0.625 0
4.323779 -1.25 0
3.0950184 -1 0
3.342784 0.375 0
3.5 1 0
4.146974 0.75 0
4.323779 -1.25 0
5.9513144 -3 0
3.0950184 -1 0
0 -1 0
2.5385938 0 0
3.0950184 -1 0
0 -1 0
0 0 0
2.5385938 0 0
9.5 -3 0
6.108964 -2.5 0
9.5 -2.5 0
9.5 -3 0
5.9513144 -3 0
6.108964 -2.5 0
5.9513144 -3 0
4.323779 -1.25 0
6.108964 -2.5 0
5.644507 2 0
5.755354 1.5 0
4.146974 0.75 0
3.0950184 -1 0
2.5385938 0 0
3.4311862 -0.625 0
4.146974 0.75 0
3.5 1 0
5.644507 2 0
9.5 1.5 0
5.755354 1.5 0
9.5 2 0
5.755354 1.5 0
5.644507 2 0
9.5 2 0
2.5385938 0 0
0 0 0
0 1 0
3.5 1 0
2.5385938 0 0
0 1 0
3.342784 0.375 4
3.5 1 4
2.5385938 0 4
4.146974 0.75 4
3.5 1 4
3.342784 0.375 4
3.4311862 -0.625 4
3.0950184 -1 4
4.323779 -1.25 4
4.146974 0.75 4
5.755354 1.5 4
5.644507 2 4
0 1 4
2.5385938 0 4
3.5 1 4
0 1 4
0 0 4
2.5385938 0 4
5.644507 2 4
5.755354 1.5 4
9.5 2 4
9.5 2 4
5.755354 1.5 4
9.5 1.5 4
4.146974 0.75 4
5.644507 2 4
3.5 1 4
2.5385938 0 4
3.0950184 -1 4
3.4311862 -0.625 4
4.323779 -1.25 4
3.0950184 -1 4
5.9513144 -3 4
6.108964 -2.5 4
4.323779 -1.25 4
5.9513144 -3 4
9.5 -2.5 4
6.108964 -2.5 4
9.5 -3 4
6.108964 -2.5 4
5.9513144 -3 4
9.5 -3 4
2.5385938 0 4
0 -1 4
3.0950184 -1 4
0 -1 4
2.5385938 0 4
0 0 4
3 0 1 2
3 3 4 5
3 6 7 8
3 9 10 11
3 12 13 14
3 15 16 17
3 18 19 20
3 21 22 23
3 24 25 26
3 27 28 29
3 30 31 32
3 33 34 35
3 36 37 38
3 39 40 41
3 42 43 44
3 45 46 47
3 48 49 50
3 51 52 53
3 54 55 56
3 57 58 59
3 60 61 62
3 63 64 65
3 66 67 68
3 69 70 71
3 72 73 74
3 75 76 77
3 78 79 80
3 81 82 83
3 84 85 86
3 87 88 89
3 90 91 92
3 93 94 95
3 96 97 98
3 99 100 101
3 102 103 104
3 105 106 107
3 108 109 110
3 111 112 113
3 114 115 116
3 117 118 119
3 120 121 122
3 123 124 125
3 126 127 128
3 129 130 131
3 132 133 134
3 135 136 137
3 138 139 140
3 141 142 143
3 144 145 146
3 147 148 149
3 150 151 152
3 153 154 155
3 156 157 158
3 159 160 161
3 162 163 164
3 165 166 167
3 168 169 170
3 171 172 173
3 174 175 176
3 177 178 179
3 180 181 182
3 183 184 185
3 186 187 188
3 189 190 191
3 192 193 194
3 195 196 197
3 198 199 200
3 201 202 203
