solid unnamed
facet normal -1 0 -0
    outer loop
        vertex 0 -0 4
        vertex 0 -0 0
        vertex 0 -1 0
    endloop
endfacet
facet normal -1 0 0
    outer loop
        vertex 0 -1 4
        vertex 0 -0 4
        vertex 0 -1 0
    endloop
endfacet
facet normal 0 -1 0
    outer loop
        vertex 0 -1 4
        vertex 0 -1 0
        vertex 3.0950184 -1 4
    endloop
endfacet
facet normal 0 -1 -0
    outer loop
        vertex 3.0950184 -1 4
        vertex 0 -1 0
        vertex 3.0950184 -1 0
    endloop
endfacet
facet normal -0.57357645 -0.81915206 -0
    outer loop
        vertex 3.0950184 -1 4
        vertex 3.0950184 -1 0
        vertex 5.9513144 -3 4
    endloop
endfacet
facet normal -0.57357645 -0.81915206 -0
    outer loop
        vertex 5.9513144 -3 4
        vertex 3.0950184 -1 0
        vertex 5.9513144 -3 0
    endloop
endfacet
facet normal 0 -1 0
    outer loop
        vertex 5.9513144 -3 4
        vertex 5.9513144 -3 0
        vertex 9.5 -3 4
    endloop
endfacet
facet normal 0 -1 -0
    outer loop
        vertex 9.5 -3 4
        vertex 5.9513144 -3 0
        vertex 9.5 -3 0
    endloop
endfacet
facet normal 1 0 0
    outer loop
        vertex 9.5 -3 4
        vertex 9.5 -3 0
        vertex 9.5 -2.5 0
    endloop
endfacet
facet normal 1 0 0
    outer loop
        vertex 9.5 -2.5 4
        vertex 9.5 -3 4
        vertex 9.5 -2.5 0
    endloop
endfacet
facet normal 0 0.99999994 0
    outer loop
        vertex 9.5 -2.5 4
        vertex 9.5 -2.5 0
        vertex 6.108964 -2.5 4
    endloop
endfacet
facet normal 0 0.99999994 0
    outer loop
        vertex 6.108964 -2.5 4
        vertex 9.5 -2.5 0
        vertex 6.108964 -2.5 0
    endloop
endfacet
facet normal 0.5735763 0.8191522 0
    outer loop
        vertex 3.4311862 -0.625 4
        vertex 4.323779 -1.25 4
        vertex 4.323779 -1.25 0
    endloop
endfacet
facet normal 0.57357645 0.819152 0
    outer loop
        vertex 4.323779 -1.25 4
        vertex 6.108964 -2.5 4
        vertex 6.108964 -2.5 0
    endloop
endfacet
facet normal 0.57357645 0.819152 -0
    outer loop
        vertex 3.4311862 -0.625 0
        vertex 2.5385938 -0 4
        vertex 3.4311862 -0.625 4
    endloop
endfacet
facet normal 0.5735763 0.8191522 0
    outer loop
        vertex 4.323779 -1.25 0
        vertex 3.4311862 -0.625 0
        vertex 3.4311862 -0.625 4
    endloop
endfacet
facet normal 0.57357645 0.819152 0
    outer loop
        vertex 4.323779 -1.25 4
        vertex 6.108964 -2.5 0
        vertex 4.323779 -1.25 0
    endloop
endfacet
facet normal 0.57357645 0.819152 0
    outer loop
        vertex 2.5385938 -0 4
        vertex 3.4311862 -0.625 0
        vertex 2.5385938 -0 0
    endloop
endfacet
facet normal 0.42261824 -0.9063078 0
    outer loop
        vertex 3.342784 0.375 4
        vertex 2.5385938 -0 4
        vertex 2.5385938 -0 0
    endloop
endfacet
facet normal 0.42261824 -0.9063078 0
    outer loop
        vertex 4.146974 0.75 4
        vertex 3.342784 0.375 4
        vertex 3.342784 0.375 0
    endloop
endfacet
facet normal 0.42261824 -0.9063078 0
    outer loop
        vertex 3.342784 0.375 0
        vertex 3.342784 0.375 4
        vertex 2.5385938 -0 0
    endloop
endfacet
facet normal 0.42261833 -0.90630776 0
    outer loop
        vertex 4.146974 0.75 0
        vertex 5.755354 1.5 4
        vertex 4.146974 0.75 4
    endloop
endfacet
facet normal 0.42261824 -0.9063078 0
    outer loop
        vertex 4.146974 0.75 4
        vertex 3.342784 0.375 0
        vertex 4.146974 0.75 0
    endloop
endfacet
facet normal 0.42261833 -0.90630776 0
    outer loop
        vertex 5.755354 1.5 4
        vertex 4.146974 0.75 0
        vertex 5.755354 1.5 0
    endloop
endfacet
facet normal 0 -1 0
    outer loop
        vertex 5.755354 1.5 4
        vertex 5.755354 1.5 0
        vertex 9.5 1.5 4
    endloop
endfacet
facet normal 0 -1 -0
    outer loop
        vertex 9.5 1.5 4
        vertex 5.755354 1.5 0
        vertex 9.5 1.5 0
    endloop
endfacet
facet normal 1 0 0
    outer loop
        vertex 9.5 1.5 4
        vertex 9.5 1.5 0
        vertex 9.5 2 0
    endloop
endfacet
facet normal 1 0 0
    outer loop
        vertex 9.5 2 4
        vertex 9.5 1.5 4
        vertex 9.5 2 0
    endloop
endfacet
facet normal 0 1 0
    outer loop
        vertex 9.5 2 4
        vertex 9.5 2 0
        vertex 5.644507 2 4
    endloop
endfacet
facet normal 0 1 0
    outer loop
        vertex 5.644507 2 4
        vertex 9.5 2 0
        vertex 5.644507 2 0
    endloop
endfacet
facet normal -0.42261824 0.90630776 0
    outer loop
        vertex 5.644507 2 4
        vertex 5.644507 2 0
        vertex 3.5 1 4
    endloop
endfacet
facet normal -0.42261824 0.90630776 0
    outer loop
        vertex 3.5 1 4
        vertex 5.644507 2 0
        vertex 3.5 1 0
    endloop
endfacet
facet normal 0 1 0
    outer loop
        vertex 3.5 1 4
        vertex 3.5 1 0
        vertex 0 1 4
    endloop
endfacet
facet normal 0 1 0
    outer loop
        vertex 0 1 4
        vertex 3.5 1 0
        vertex 0 1 0
    endloop
endfacet
facet normal -1 0 -0
    outer loop
        vertex 0 1 4
        vertex 0 1 0
        vertex 0 -0 0
    endloop
endfacet
facet normal -1 0 0
    outer loop
        vertex 0 -0 4
        vertex 0 1 4
        vertex 0 -0 0
    endloop
endfacet
facet normal -0 0 -1
    outer loop
        vertex 3.342784 0.375 0
        vertex 2.5385938 -0 0
        vertex 3.5 1 0
    endloop
endfacet
facet normal -0 0 -1
    outer loop
        vertex 4.146974 0.75 0
        vertex 3.342784 0.375 0
        vertex 3.5 1 0
    endloop
endfacet
facet normal 0 -0 -1
    outer loop
        vertex 3.4311862 -0.625 0
        vertex 4.323779 -1.25 0
        vertex 3.0950184 -1 0
    endloop
endfacet
facet normal 0 0 -0.99999994
    outer loop
        vertex 4.146974 0.75 0
        vertex 5.644507 2 0
        vertex 5.755354 1.5 0
    endloop
endfacet
facet normal 0 0 -1
    outer loop
        vertex 0 1 0
        vertex 3.5 1 0
        vertex 2.5385938 -0 0
    endloop
endfacet
facet normal 0 0 -1
    outer loop
        vertex 0 1 0
        vertex 2.5385938 -0 0
        vertex 0 -0 0
    endloop
endfacet
facet normal 0 0 -1
    outer loop
        vertex 5.644507 2 0
        vertex 9.5 2 0
        vertex 5.755354 1.5 0
    endloop
endfacet
facet normal 0 -0 -1
    outer loop
        vertex 9.5 2 0
        vertex 9.5 1.5 0
        vertex 5.755354 1.5 0
    endloop
endfacet
facet normal 0 0 -1
    outer loop
        vertex 4.146974 0.75 0
        vertex 3.5 1 0
        vertex 5.644507 2 0
    endloop
endfacet
facet normal 0 0 -0.99999994
    outer loop
        vertex 2.5385938 -0 0
        vertex 3.4311862 -0.625 0
        vertex 3.0950184 -1 0
    endloop
endfacet
facet normal -0 -0 -0.99999994
    outer loop
        vertex 4.323779 -1.25 0
        vertex 5.9513144 -3 0
        vertex 3.0950184 -1 0
    endloop
endfacet
facet normal -0 0 -1
    outer loop
        vertex 6.108964 -2.5 0
        vertex 5.9513144 -3 0
        vertex 4.323779 -1.25 0
    endloop
endfacet
facet normal -0 -0 -0.99999994
    outer loop
        vertex 9.5 -2.5 0
        vertex 9.5 -3 0
        vertex 6.108964 -2.5 0
    endloop
endfacet
facet normal 0 -0 -1
    outer loop
        vertex 6.108964 -2.5 0
        vertex 9.5 -3 0
        vertex 5.9513144 -3 0
    endloop
endfacet
facet normal 0 -0 -1
    outer loop
        vertex 2.5385938 -0 0
        vertex 3.0950184 -1 0
        vertex 0 -1 0
    endloop
endfacet
facet normal 0 0 -1
    outer loop
        vertex 0 -1 0
        vertex 0 -0 0
        vertex 2.5385938 -0 0
    endloop
endfacet
facet normal 0 -0 1
    outer loop
        vertex 3.342784 0.375 4
        vertex 3.5 1 4
        vertex 2.5385938 -0 4
    endloop
endfacet
facet normal 0 0 1
    outer loop
        vertex 4.146974 0.75 4
        vertex 3.5 1 4
        vertex 3.342784 0.375 4
    endloop
endfacet
facet normal 0 0 1
    outer loop
        vertex 3.4311862 -0.625 4
        vertex 3.0950184 -1 4
        vertex 4.323779 -1.25 4
    endloop
endfacet
facet normal 0 0 0.99999994
    outer loop
        vertex 4.146974 0.75 4
        vertex 5.755354 1.5 4
        vertex 5.644507 2 4
    endloop
endfacet
facet normal -0 0 1
    outer loop
        vertex 0 1 4
        vertex 2.5385938 -0 4
        vertex 3.5 1 4
    endloop
endfacet
facet normal 0 0 1
    outer loop
        vertex 0 1 4
        vertex 0 -0 4
        vertex 2.5385938 -0 4
    endloop
endfacet
facet normal -0 0 1
    outer loop
        vertex 5.644507 2 4
        vertex 5.755354 1.5 4
        vertex 9.5 2 4
    endloop
endfacet
facet normal 0 0 1
    outer loop
        vertex 9.5 2 4
        vertex 5.755354 1.5 4
        vertex 9.5 1.5 4
    endloop
endfacet
facet normal 0 -0 1
    outer loop
        vertex 4.146974 0.75 4
        vertex 5.644507 2 4
        vertex 3.5 1 4
    endloop
endfacet
facet normal 0 0 0.99999994
    outer loop
        vertex 2.5385938 -0 4
        vertex 3.0950184 -1 4
        vertex 3.4311862 -0.625 4
    endloop
endfacet
facet normal 0 0 0.99999994
    outer loop
        vertex 4.323779 -1.25 4
        vertex 3.0950184 -1 4
        vertex 5.9513144 -3 4
    endloop
endfacet
facet normal 0 0 1
    outer loop
        vertex 6.108964 -2.5 4
        vertex 4.323779 -1.25 4
        vertex 5.9513144 -3 4
    endloop
endfacet
facet normal 0 0 0.99999994
    outer loop
        vertex 9.5 -2.5 4
        vertex 6.108964 -2.5 4
        vertex 9.5 -3 4
    endloop
endfacet
facet normal 0 0 1
    outer loop
        vertex 6.108964 -2.5 4
        vertex 5.9513144 -3 4
        vertex 9.5 -3 4
    endloop
endfacet
facet normal 0 0 1
    outer loop
        vertex 2.5385938 -0 4
        vertex 0 -1 4
        vertex 3.0950184 -1 4
    endloop
endfacet
facet normal 0 0 1
    outer loop
        vertex 0 -1 4
        vertex 2.5385938 -0 4
        vertex 0 -0 4
    endloop
endfacet
endsolid unnamed
